%TF.GenerationSoftware,KiCad,Pcbnew,(6.0.4)*%
%TF.CreationDate,2022-04-03T17:40:06+02:00*%
%TF.ProjectId,LEDChristmasTree-2022,4c454443-6872-4697-9374-6d6173547265,rev?*%
%TF.SameCoordinates,Original*%
%TF.FileFunction,Profile,NP*%
%FSLAX46Y46*%
G04 Gerber Fmt 4.6, Leading zero omitted, Abs format (unit mm)*
G04 Created by KiCad (PCBNEW (6.0.4)) date 2022-04-03 17:40:06*
%MOMM*%
%LPD*%
G01*
G04 APERTURE LIST*
%TA.AperFunction,Profile*%
%ADD10C,0.100000*%
%TD*%
G04 APERTURE END LIST*
D10*
X122050000Y-131350000D02*
X119150000Y-130850000D01*
X136480000Y-50270000D02*
X134780000Y-48820000D01*
X118050000Y-112700000D02*
X120450000Y-109850000D01*
X129750000Y-86450000D02*
X130800000Y-84950000D01*
X119150000Y-130850000D02*
X115300000Y-130000000D01*
X136500000Y-47400000D02*
X140650000Y-47050000D01*
X171297602Y-105226210D02*
X170750000Y-105500000D01*
X125150049Y-82300030D02*
G75*
G03*
X125328647Y-83370000I708251J-431670D01*
G01*
X129600000Y-84600000D02*
X127600000Y-84050000D01*
X120450000Y-109850000D02*
X121300000Y-108650000D01*
X167200000Y-110000000D02*
X170900000Y-114600000D01*
X175450000Y-129100000D02*
X173500000Y-129650000D01*
X152950000Y-132550000D02*
X151450000Y-132600000D01*
X138450000Y-137750000D02*
G75*
G03*
X140450000Y-139750000I2000000J0D01*
G01*
X115350000Y-115900000D02*
X118050000Y-112700000D01*
X157050000Y-84650000D02*
X156350000Y-84850000D01*
X146350000Y-47050000D02*
X151738266Y-47560726D01*
X167050000Y-106850000D02*
X165350000Y-107450000D01*
X125350000Y-91850000D02*
X127650000Y-89100000D01*
X125550000Y-83450000D02*
X125328647Y-83370000D01*
X159950000Y-83950000D02*
X159050000Y-84150000D01*
X180060000Y-127260000D02*
X178650000Y-127900000D01*
X108550000Y-127950000D02*
X106746356Y-127190836D01*
X135139997Y-47489984D02*
G75*
G03*
X134780000Y-48820000I121503J-746616D01*
G01*
X159050000Y-84150000D02*
X158100000Y-84400000D01*
X162100000Y-131800000D02*
X160300000Y-132000000D01*
X160350000Y-90050000D02*
X161800000Y-91950000D01*
X138450000Y-132750000D02*
X138450000Y-137750000D01*
X178650000Y-127900000D02*
X177200000Y-128500000D01*
X112000000Y-129100000D02*
X108550000Y-127950000D01*
X146450000Y-139750000D02*
G75*
G03*
X148450000Y-137750000I0J2000000D01*
G01*
X161610000Y-83446210D02*
X161300000Y-83550000D01*
X151970000Y-48810000D02*
X148200000Y-52100000D01*
X173500000Y-129650000D02*
X170950000Y-130300000D01*
X165600000Y-107850000D02*
X167200000Y-110000000D01*
X170750000Y-105500000D02*
X168600000Y-106350000D01*
X139525000Y-58550000D02*
X138380145Y-59048944D01*
X135000000Y-132550000D02*
X130700000Y-132250000D01*
X119350000Y-99100000D02*
X121500000Y-96500000D01*
X155150000Y-132450000D02*
X152950000Y-132550000D01*
X170950000Y-130300000D02*
X168450000Y-130850000D01*
X138600000Y-54200000D02*
X139100000Y-52450000D01*
X106546238Y-126112602D02*
G75*
G03*
X106746356Y-127190836I701462J-427498D01*
G01*
X168600000Y-106350000D02*
X167050000Y-106850000D01*
X148786384Y-59068684D02*
G75*
G03*
X149530000Y-58290000I177516J574884D01*
G01*
X170900000Y-114600000D02*
X180300000Y-126000000D01*
X151450000Y-132600000D02*
X148450000Y-132650000D01*
X161300000Y-83550000D02*
X159950000Y-83950000D01*
X171297634Y-105226264D02*
G75*
G03*
X171537602Y-103966210I-441534J736964D01*
G01*
X122200000Y-107450000D02*
X120550000Y-106950000D01*
X117450000Y-101450000D02*
X119350000Y-99100000D01*
X125150000Y-82300000D02*
X139525000Y-58550000D01*
X135140000Y-47490000D02*
X136500000Y-47400000D01*
X117450000Y-105950000D02*
X115450000Y-105150000D01*
X161609978Y-83446164D02*
G75*
G03*
X161970000Y-82280000I-365078J751364D01*
G01*
X126450000Y-131900000D02*
X122050000Y-131350000D01*
X161800000Y-91950000D02*
X163850000Y-94450000D01*
X110850000Y-121150000D02*
X113400000Y-118150000D01*
X139100000Y-52450000D02*
X136480000Y-50270000D01*
X144190000Y-42160000D02*
X146350000Y-47050000D01*
X168450000Y-130850000D02*
X166450000Y-131250000D01*
X180059964Y-127259940D02*
G75*
G03*
X180300000Y-126000000I-441464J736940D01*
G01*
X120550000Y-106950000D02*
X117450000Y-105950000D01*
X157650000Y-132250000D02*
X155150000Y-132450000D01*
X159300000Y-88650000D02*
X160350000Y-90050000D01*
X115249849Y-104071746D02*
X115600000Y-103600000D01*
X121300000Y-108650000D02*
X122200000Y-107450000D01*
X146450000Y-139750000D02*
X140450000Y-139750000D01*
X127600000Y-84050000D02*
X125550000Y-83450000D01*
X127650000Y-89100000D02*
X129750000Y-86450000D01*
X121500000Y-96500000D02*
X123400000Y-94200000D01*
X148450000Y-132650000D02*
X148450000Y-137750000D01*
X137550145Y-58318944D02*
X137950000Y-56850000D01*
X165350000Y-107450000D02*
X165600000Y-107850000D01*
X137950000Y-56850000D02*
X138600000Y-54200000D01*
X130800000Y-84950000D02*
X129600000Y-84600000D01*
X137550210Y-58318964D02*
G75*
G03*
X138380145Y-59048944I578790J-178736D01*
G01*
X140650000Y-47050000D02*
X142710000Y-42230000D01*
X130700000Y-132250000D02*
X126450000Y-131900000D01*
X177200000Y-128500000D02*
X175450000Y-129100000D01*
X164550000Y-131500000D02*
X162100000Y-131800000D01*
X160300000Y-132000000D02*
X157650000Y-132250000D01*
X156350000Y-84850000D02*
X157100000Y-85900000D01*
X138450000Y-132750000D02*
X135000000Y-132550000D01*
X166450000Y-131250000D02*
X164550000Y-131500000D01*
X115600000Y-103600000D02*
X117450000Y-101450000D01*
X148786369Y-59068733D02*
X147475000Y-58525000D01*
X147475000Y-58525000D02*
X161970000Y-82280000D01*
X106546205Y-126112582D02*
X108200000Y-124250000D01*
X151969961Y-48809944D02*
G75*
G03*
X151738266Y-47560726I-399261J572044D01*
G01*
X169950000Y-101900000D02*
X171537602Y-103966210D01*
X163850000Y-94450000D02*
X168750000Y-100400000D01*
X158100000Y-84400000D02*
X157050000Y-84650000D01*
X144189997Y-42160001D02*
G75*
G03*
X142710000Y-42230000I-726297J-324699D01*
G01*
X157100000Y-85900000D02*
X159300000Y-88650000D01*
X123400000Y-94200000D02*
X125350000Y-91850000D01*
X168750000Y-100400000D02*
X169950000Y-101900000D01*
X113400000Y-118150000D02*
X115350000Y-115900000D01*
X108200000Y-124250000D02*
X110850000Y-121150000D01*
X115249801Y-104071717D02*
G75*
G03*
X115450000Y-105150000I701499J-427483D01*
G01*
X148200000Y-52100000D02*
X149530000Y-58290000D01*
X115300000Y-130000000D02*
X112000000Y-129100000D01*
M02*
