%TF.GenerationSoftware,KiCad,Pcbnew,(6.0.0)*%
%TF.CreationDate,2022-03-02T13:41:04+01:00*%
%TF.ProjectId,LEDChristmasTree-2022,4c454443-6872-4697-9374-6d6173547265,rev?*%
%TF.SameCoordinates,Original*%
%TF.FileFunction,Legend,Top*%
%TF.FilePolarity,Positive*%
%FSLAX46Y46*%
G04 Gerber Fmt 4.6, Leading zero omitted, Abs format (unit mm)*
G04 Created by KiCad (PCBNEW (6.0.0)) date 2022-03-02 13:41:04*
%MOMM*%
%LPD*%
G01*
G04 APERTURE LIST*
%ADD10C,1.000000*%
%ADD11C,0.600000*%
%ADD12C,0.254000*%
G04 APERTURE END LIST*
D10*
X171200000Y-105200000D02*
G75*
G03*
X171200000Y-105200000I-500000J0D01*
G01*
X170700000Y-105600000D02*
G75*
G03*
X170700000Y-105600000I-500000J0D01*
G01*
X169600000Y-105500000D02*
G75*
G03*
X169600000Y-105500000I-500000J0D01*
G01*
X168500000Y-106600000D02*
G75*
G03*
X168500000Y-106600000I-500000J0D01*
G01*
X167300000Y-106600000D02*
G75*
G03*
X167300000Y-106600000I-500000J0D01*
G01*
D11*
X171900000Y-105000000D02*
G75*
G03*
X171900000Y-105000000I-300000J0D01*
G01*
D10*
X121400000Y-106500000D02*
G75*
G03*
X121400000Y-106500000I-500000J0D01*
G01*
X120600000Y-106500000D02*
G75*
G03*
X120600000Y-106500000I-500000J0D01*
G01*
X120900000Y-105800000D02*
G75*
G03*
X120900000Y-105800000I-500000J0D01*
G01*
X119500000Y-105900000D02*
G75*
G03*
X119500000Y-105900000I-500000J0D01*
G01*
X118500000Y-106100000D02*
G75*
G03*
X118500000Y-106100000I-500000J0D01*
G01*
X118300000Y-105100000D02*
G75*
G03*
X118300000Y-105100000I-500000J0D01*
G01*
X116800000Y-105200000D02*
G75*
G03*
X116800000Y-105200000I-500000J0D01*
G01*
D11*
X121900000Y-107200000D02*
G75*
G03*
X121900000Y-107200000I-300000J0D01*
G01*
X115500000Y-105000000D02*
G75*
G03*
X115500000Y-105000000I-300000J0D01*
G01*
D10*
X130000000Y-84600000D02*
G75*
G03*
X130000000Y-84600000I-500000J0D01*
G01*
X129200000Y-84400000D02*
G75*
G03*
X129200000Y-84400000I-500000J0D01*
G01*
X127800000Y-84200000D02*
G75*
G03*
X127800000Y-84200000I-500000J0D01*
G01*
X126700000Y-83300000D02*
G75*
G03*
X126700000Y-83300000I-500000J0D01*
G01*
D11*
X130500000Y-84700000D02*
G75*
G03*
X130500000Y-84700000I-300000J0D01*
G01*
X125300000Y-83300000D02*
G75*
G03*
X125300000Y-83300000I-300000J0D01*
G01*
D10*
X161700000Y-83600000D02*
G75*
G03*
X161700000Y-83600000I-500000J0D01*
G01*
X160900000Y-83600000D02*
G75*
G03*
X160900000Y-83600000I-500000J0D01*
G01*
X160000000Y-84400000D02*
G75*
G03*
X160000000Y-84400000I-500000J0D01*
G01*
X158600000Y-84400000D02*
G75*
G03*
X158600000Y-84400000I-500000J0D01*
G01*
D11*
X157300000Y-84700000D02*
G75*
G03*
X157300000Y-84700000I-300000J0D01*
G01*
X162200000Y-83300000D02*
G75*
G03*
X162200000Y-83300000I-300000J0D01*
G01*
X166300000Y-107300000D02*
G75*
G03*
X166300000Y-107300000I-300000J0D01*
G01*
D12*
X143550000Y-56450000D02*
X149300000Y-58950000D01*
X147800000Y-52050000D02*
X149300000Y-58950000D01*
X143450000Y-41300000D02*
X146100000Y-47450000D01*
X146100000Y-47450000D02*
X152550000Y-47950000D01*
X139550000Y-52350000D02*
X134250000Y-47900000D01*
X152550000Y-47950000D02*
X147800000Y-52050000D01*
X140850000Y-47350000D02*
X143450000Y-41300000D01*
X137650000Y-59050000D02*
X139550000Y-52350000D01*
X134250000Y-47900000D02*
X140850000Y-47350000D01*
X137650000Y-59050000D02*
X143550000Y-56450000D01*
M02*
