%TF.GenerationSoftware,KiCad,Pcbnew,(6.0.0)*%
%TF.CreationDate,2022-03-02T13:41:04+01:00*%
%TF.ProjectId,LEDChristmasTree-2022,4c454443-6872-4697-9374-6d6173547265,rev?*%
%TF.SameCoordinates,Original*%
%TF.FileFunction,Paste,Top*%
%TF.FilePolarity,Positive*%
%FSLAX46Y46*%
G04 Gerber Fmt 4.6, Leading zero omitted, Abs format (unit mm)*
G04 Created by KiCad (PCBNEW (6.0.0)) date 2022-03-02 13:41:04*
%MOMM*%
%LPD*%
G01*
G04 APERTURE LIST*
%ADD10R,1.100000X0.750000*%
%ADD11R,0.750000X1.100000*%
G04 APERTURE END LIST*
D10*
%TO.C,D6*%
X145350000Y-66775000D03*
X145350000Y-68025000D03*
X147450000Y-66775000D03*
X147450000Y-68025000D03*
%TD*%
%TO.C,D8*%
X156350000Y-97625000D03*
X156350000Y-96375000D03*
X158450000Y-97625000D03*
X158450000Y-96375000D03*
%TD*%
%TO.C,D5*%
X154650000Y-117425000D03*
X154650000Y-116175000D03*
X152550000Y-117425000D03*
X152550000Y-116175000D03*
%TD*%
%TO.C,D3*%
X135450000Y-118775000D03*
X135450000Y-120025000D03*
X133350000Y-120025000D03*
X133350000Y-118775000D03*
%TD*%
%TO.C,D10*%
X127950000Y-99425000D03*
X127950000Y-98175000D03*
X130050000Y-99425000D03*
X130050000Y-98175000D03*
%TD*%
%TO.C,D11*%
X136350000Y-77025000D03*
X136350000Y-75775000D03*
X138450000Y-75775000D03*
X138450000Y-77025000D03*
%TD*%
%TO.C,D7*%
X168950000Y-125975000D03*
X168950000Y-127225000D03*
X171050000Y-125975000D03*
X171050000Y-127225000D03*
%TD*%
%TO.C,D1*%
X143400000Y-103800000D03*
X143400000Y-105050000D03*
X141300000Y-103800000D03*
X141300000Y-105050000D03*
%TD*%
%TO.C,D4*%
X145250000Y-86975000D03*
X145250000Y-88225000D03*
X143150000Y-86975000D03*
X143150000Y-88225000D03*
%TD*%
%TO.C,D2*%
X118250000Y-125825000D03*
X118250000Y-124575000D03*
X116150000Y-124575000D03*
X116150000Y-125825000D03*
%TD*%
D11*
%TO.C,D9*%
X144225000Y-52450000D03*
X142975000Y-52450000D03*
X142975000Y-50350000D03*
X144225000Y-50350000D03*
%TD*%
M02*
