%TF.GenerationSoftware,KiCad,Pcbnew,(6.0.1)*%
%TF.CreationDate,2022-03-01T19:51:56+01:00*%
%TF.ProjectId,LEDChristmasTree-2022,4c454443-6872-4697-9374-6d6173547265,rev?*%
%TF.SameCoordinates,Original*%
%TF.FileFunction,Copper,L2,Bot*%
%TF.FilePolarity,Positive*%
%FSLAX46Y46*%
G04 Gerber Fmt 4.6, Leading zero omitted, Abs format (unit mm)*
G04 Created by KiCad (PCBNEW (6.0.1)) date 2022-03-01 19:51:56*
%MOMM*%
%LPD*%
G01*
G04 APERTURE LIST*
G04 Aperture macros list*
%AMRoundRect*
0 Rectangle with rounded corners*
0 $1 Rounding radius*
0 $2 $3 $4 $5 $6 $7 $8 $9 X,Y pos of 4 corners*
0 Add a 4 corners polygon primitive as box body*
4,1,4,$2,$3,$4,$5,$6,$7,$8,$9,$2,$3,0*
0 Add four circle primitives for the rounded corners*
1,1,$1+$1,$2,$3*
1,1,$1+$1,$4,$5*
1,1,$1+$1,$6,$7*
1,1,$1+$1,$8,$9*
0 Add four rect primitives between the rounded corners*
20,1,$1+$1,$2,$3,$4,$5,0*
20,1,$1+$1,$4,$5,$6,$7,0*
20,1,$1+$1,$6,$7,$8,$9,0*
20,1,$1+$1,$8,$9,$2,$3,0*%
%AMRotRect*
0 Rectangle, with rotation*
0 The origin of the aperture is its center*
0 $1 length*
0 $2 width*
0 $3 Rotation angle, in degrees counterclockwise*
0 Add horizontal line*
21,1,$1,$2,0,0,$3*%
G04 Aperture macros list end*
%TA.AperFunction,SMDPad,CuDef*%
%ADD10RoundRect,0.200000X0.275000X-0.200000X0.275000X0.200000X-0.275000X0.200000X-0.275000X-0.200000X0*%
%TD*%
%TA.AperFunction,SMDPad,CuDef*%
%ADD11RoundRect,0.500000X-3.000000X-2.000000X3.000000X-2.000000X3.000000X2.000000X-3.000000X2.000000X0*%
%TD*%
%TA.AperFunction,SMDPad,CuDef*%
%ADD12RoundRect,0.200000X0.200000X0.275000X-0.200000X0.275000X-0.200000X-0.275000X0.200000X-0.275000X0*%
%TD*%
%TA.AperFunction,SMDPad,CuDef*%
%ADD13RotRect,1.000000X0.800000X309.000000*%
%TD*%
%TA.AperFunction,SMDPad,CuDef*%
%ADD14RotRect,0.700000X1.500000X309.000000*%
%TD*%
%TA.AperFunction,SMDPad,CuDef*%
%ADD15RoundRect,0.200000X-0.200000X-0.275000X0.200000X-0.275000X0.200000X0.275000X-0.200000X0.275000X0*%
%TD*%
%TA.AperFunction,ViaPad*%
%ADD16C,0.800000*%
%TD*%
%TA.AperFunction,Conductor*%
%ADD17C,0.762000*%
%TD*%
G04 APERTURE END LIST*
D10*
%TO.P,R11,1*%
%TO.N,Net-(R2-Pad1)*%
X143600000Y-57625000D03*
%TO.P,R11,2*%
%TO.N,Net-(D9-Pad1)*%
X143600000Y-55975000D03*
%TD*%
D11*
%TO.P,BT1,1,+*%
%TO.N,VCC*%
X149100000Y-129250000D03*
%TO.P,BT1,2*%
%TO.N,unconnected-(BT1-Pad2)*%
X149100000Y-70750000D03*
X138100000Y-70750000D03*
%TO.P,BT1,3,-*%
%TO.N,GND*%
X138100000Y-129250000D03*
%TD*%
D12*
%TO.P,R3,1*%
%TO.N,Net-(R2-Pad1)*%
X158825000Y-119400000D03*
%TO.P,R3,2*%
%TO.N,Net-(D3-Pad1)*%
X157175000Y-119400000D03*
%TD*%
%TO.P,R5,1*%
%TO.N,Net-(R2-Pad1)*%
X158825000Y-116800000D03*
%TO.P,R5,2*%
%TO.N,Net-(D5-Pad1)*%
X157175000Y-116800000D03*
%TD*%
%TO.P,R7,1*%
%TO.N,Net-(R2-Pad1)*%
X158825000Y-99800000D03*
%TO.P,R7,2*%
%TO.N,Net-(D8-Pad1)*%
X157175000Y-99800000D03*
%TD*%
%TO.P,R9,1*%
%TO.N,Net-(R2-Pad1)*%
X129825000Y-103400000D03*
%TO.P,R9,2*%
%TO.N,Net-(D10-Pad1)*%
X128175000Y-103400000D03*
%TD*%
%TO.P,R2,1*%
%TO.N,Net-(R2-Pad1)*%
X123825000Y-125200000D03*
%TO.P,R2,2*%
%TO.N,Net-(D2-Pad1)*%
X122175000Y-125200000D03*
%TD*%
%TO.P,R4,1*%
%TO.N,Net-(R2-Pad1)*%
X158825000Y-94200000D03*
%TO.P,R4,2*%
%TO.N,Net-(D4-Pad1)*%
X157175000Y-94200000D03*
%TD*%
D13*
%TO.P,SW1,*%
%TO.N,*%
X170414299Y-114863489D03*
X173290846Y-121927453D03*
X175008338Y-120536655D03*
X168696807Y-116254287D03*
D14*
%TO.P,SW1,1,A*%
%TO.N,Net-(R2-Pad1)*%
X169072710Y-117751350D03*
%TO.P,SW1,2,B*%
%TO.N,VCC*%
X170960672Y-120082788D03*
%TO.P,SW1,3,C*%
%TO.N,unconnected-(SW1-Pad3)*%
X171904652Y-121248507D03*
%TD*%
D12*
%TO.P,R1,1*%
%TO.N,Net-(R2-Pad1)*%
X158825000Y-104400000D03*
%TO.P,R1,2*%
%TO.N,Net-(D1-Pad1)*%
X157175000Y-104400000D03*
%TD*%
D15*
%TO.P,R10,1*%
%TO.N,Net-(R2-Pad1)*%
X141475000Y-63800000D03*
%TO.P,R10,2*%
%TO.N,Net-(D6-Pad1)*%
X143125000Y-63800000D03*
%TD*%
D12*
%TO.P,R8,1*%
%TO.N,Net-(R2-Pad1)*%
X129825000Y-94400000D03*
%TO.P,R8,2*%
%TO.N,Net-(D11-Pad1)*%
X128175000Y-94400000D03*
%TD*%
D15*
%TO.P,R6,1*%
%TO.N,Net-(R2-Pad1)*%
X164975000Y-126600000D03*
%TO.P,R6,2*%
%TO.N,Net-(D7-Pad1)*%
X166625000Y-126600000D03*
%TD*%
D16*
%TO.N,Net-(D2-Pad1)*%
X119400000Y-125200000D03*
%TO.N,Net-(D3-Pad1)*%
X136600000Y-119400000D03*
%TO.N,Net-(D5-Pad1)*%
X155800000Y-116800000D03*
%TO.N,Net-(D7-Pad1)*%
X167900000Y-126600000D03*
%TO.N,Net-(D8-Pad1)*%
X155300000Y-97000000D03*
%TO.N,Net-(D11-Pad1)*%
X135300000Y-76400000D03*
%TO.N,GND*%
X150800000Y-77700000D03*
X143400000Y-125800000D03*
X166700000Y-123100000D03*
X129200000Y-129100000D03*
X121000000Y-114900000D03*
X135500000Y-91300000D03*
X136500000Y-82000000D03*
X143600000Y-49100000D03*
X122200000Y-102300000D03*
X129600000Y-108900000D03*
X148900000Y-100500000D03*
X133400000Y-74200000D03*
X153900000Y-90100000D03*
X143200000Y-115200000D03*
X177200000Y-126200000D03*
X148100000Y-82000000D03*
X148000000Y-63000000D03*
X164700000Y-113200000D03*
X146300000Y-94400000D03*
X158200000Y-126500000D03*
%TO.N,Net-(D10-Pad1)*%
X126900000Y-98800000D03*
%TO.N,Net-(D1-Pad1)*%
X144500000Y-104400000D03*
%TO.N,Net-(D4-Pad1)*%
X146400000Y-87600000D03*
%TO.N,Net-(D6-Pad1)*%
X144300000Y-67400000D03*
%TO.N,Net-(D9-Pad1)*%
X143600000Y-53600000D03*
%TD*%
D17*
%TO.N,Net-(R2-Pad1)*%
X128700000Y-122900000D02*
X161000000Y-122900000D01*
X143500000Y-68600000D02*
X143500000Y-78800000D01*
X162000000Y-103500000D02*
X161100000Y-104400000D01*
X162000000Y-101000000D02*
X162000000Y-99800000D01*
X161900000Y-116800000D02*
X162000000Y-116900000D01*
X162000000Y-118300000D02*
X162000000Y-117600000D01*
X161000000Y-122900000D02*
X162000000Y-122900000D01*
X162000000Y-121900000D02*
X161000000Y-122900000D01*
X162000000Y-125600000D02*
X162000000Y-123800000D01*
X138100000Y-93200000D02*
X138100000Y-94200000D01*
X141300000Y-110100000D02*
X160700000Y-110100000D01*
X161000000Y-94200000D02*
X162000000Y-95200000D01*
X129825000Y-94400000D02*
X132500000Y-94400000D01*
X123825000Y-125200000D02*
X126400000Y-125200000D01*
X162000000Y-122900000D02*
X162000000Y-121900000D01*
X164975000Y-126600000D02*
X163000000Y-126600000D01*
X161200000Y-116800000D02*
X160800000Y-116800000D01*
X132500000Y-94400000D02*
X136900000Y-94400000D01*
X162000000Y-99800000D02*
X162000000Y-98600000D01*
X138100000Y-84200000D02*
X138100000Y-93200000D01*
X163100000Y-119400000D02*
X162000000Y-118300000D01*
X159900000Y-119400000D02*
X158825000Y-119400000D01*
X141475000Y-63800000D02*
X141475000Y-62825000D01*
X162000000Y-110100000D02*
X162000000Y-109000000D01*
X162000000Y-109000000D02*
X162000000Y-105300000D01*
X162000000Y-101000000D02*
X160800000Y-99800000D01*
X141475000Y-63800000D02*
X141475000Y-66575000D01*
X162000000Y-109000000D02*
X162000000Y-109100000D01*
X138100000Y-95600000D02*
X136900000Y-94400000D01*
X143600000Y-60700000D02*
X143600000Y-57625000D01*
X143500000Y-78800000D02*
X138100000Y-84200000D01*
X160800000Y-104400000D02*
X161800000Y-104400000D01*
X138100000Y-104500000D02*
X137000000Y-103400000D01*
X158825000Y-94200000D02*
X161000000Y-94200000D01*
X162000000Y-121900000D02*
X162000000Y-120500000D01*
X126400000Y-125200000D02*
X128700000Y-122900000D01*
X138100000Y-95600000D02*
X138100000Y-102300000D01*
X161000000Y-122900000D02*
X161900000Y-123800000D01*
X162000000Y-117600000D02*
X162000000Y-116900000D01*
X136900000Y-94400000D02*
X137900000Y-94400000D01*
X162000000Y-105300000D02*
X162000000Y-104600000D01*
X161000000Y-110100000D02*
X160700000Y-110100000D01*
X160900000Y-119400000D02*
X159900000Y-119400000D01*
X161800000Y-104400000D02*
X162000000Y-104600000D01*
X162000000Y-109100000D02*
X161000000Y-110100000D01*
X138100000Y-106900000D02*
X141300000Y-110100000D01*
X167424060Y-119400000D02*
X163100000Y-119400000D01*
X160800000Y-116800000D02*
X161900000Y-116800000D01*
X162000000Y-119400000D02*
X160900000Y-119400000D01*
X141475000Y-62825000D02*
X143600000Y-60700000D01*
X160700000Y-110100000D02*
X162000000Y-110100000D01*
X138100000Y-104600000D02*
X138100000Y-104500000D01*
X162000000Y-111100000D02*
X162000000Y-110100000D01*
X162000000Y-103200000D02*
X162000000Y-101000000D01*
X162000000Y-98600000D02*
X162000000Y-95200000D01*
X138100000Y-93200000D02*
X136900000Y-94400000D01*
X141475000Y-66575000D02*
X143500000Y-68600000D01*
X162000000Y-116000000D02*
X162000000Y-111100000D01*
X161100000Y-104400000D02*
X160800000Y-104400000D01*
X162000000Y-120500000D02*
X163100000Y-119400000D01*
X163000000Y-126600000D02*
X162000000Y-125600000D01*
X162000000Y-119400000D02*
X162000000Y-118300000D01*
X138100000Y-102300000D02*
X137000000Y-103400000D01*
X158825000Y-116800000D02*
X160800000Y-116800000D01*
X161200000Y-116800000D02*
X162000000Y-116000000D01*
X129825000Y-103400000D02*
X137000000Y-103400000D01*
X137000000Y-103400000D02*
X138100000Y-103400000D01*
X162000000Y-105300000D02*
X161100000Y-104400000D01*
X162000000Y-120500000D02*
X162000000Y-119400000D01*
X162000000Y-104600000D02*
X162000000Y-103200000D01*
X138100000Y-104600000D02*
X138100000Y-106900000D01*
X160800000Y-99800000D02*
X162000000Y-99800000D01*
X162000000Y-117600000D02*
X161200000Y-116800000D01*
X158825000Y-99800000D02*
X160800000Y-99800000D01*
X160900000Y-119400000D02*
X162000000Y-118300000D01*
X162000000Y-98600000D02*
X160800000Y-99800000D01*
X163100000Y-119400000D02*
X162000000Y-119400000D01*
X158825000Y-104400000D02*
X160800000Y-104400000D01*
X138100000Y-94200000D02*
X138100000Y-95600000D01*
X162000000Y-111100000D02*
X161000000Y-110100000D01*
X138100000Y-102300000D02*
X138100000Y-103400000D01*
X162000000Y-103200000D02*
X162000000Y-103500000D01*
X169072710Y-117751350D02*
X167424060Y-119400000D01*
X160900000Y-119400000D02*
X162000000Y-120500000D01*
X161900000Y-123800000D02*
X162000000Y-123800000D01*
X162000000Y-123800000D02*
X162000000Y-122900000D01*
X137900000Y-94400000D02*
X138100000Y-94200000D01*
X162000000Y-116900000D02*
X162000000Y-116000000D01*
X138100000Y-103400000D02*
X138100000Y-104600000D01*
%TO.N,Net-(D2-Pad1)*%
X122175000Y-125200000D02*
X119400000Y-125200000D01*
%TO.N,Net-(D3-Pad1)*%
X157175000Y-119400000D02*
X136600000Y-119400000D01*
%TO.N,Net-(D5-Pad1)*%
X157175000Y-116800000D02*
X155800000Y-116800000D01*
%TO.N,Net-(D7-Pad1)*%
X166625000Y-126600000D02*
X167900000Y-126600000D01*
%TO.N,Net-(D8-Pad1)*%
X153500000Y-99000000D02*
X153500000Y-98000000D01*
X157175000Y-99800000D02*
X154300000Y-99800000D01*
X153500000Y-98000000D02*
X154500000Y-97000000D01*
X154500000Y-97000000D02*
X155300000Y-97000000D01*
X154300000Y-99800000D02*
X153500000Y-99000000D01*
%TO.N,Net-(D11-Pad1)*%
X128175000Y-94400000D02*
X128175000Y-93225000D01*
X134100000Y-87300000D02*
X134100000Y-77600000D01*
X128175000Y-93225000D02*
X134100000Y-87300000D01*
X134100000Y-77600000D02*
X135300000Y-76400000D01*
%TO.N,VCC*%
X169800000Y-127200000D02*
X169800000Y-121243460D01*
X169800000Y-121243460D02*
X170960672Y-120082788D01*
X167750000Y-129250000D02*
X169800000Y-127200000D01*
X149100000Y-129250000D02*
X167750000Y-129250000D01*
%TO.N,unconnected-(BT1-Pad2)*%
X145000000Y-51400000D02*
X146200000Y-52600000D01*
X140800000Y-52700000D02*
X140800000Y-60600000D01*
X142100000Y-51400000D02*
X145000000Y-51400000D01*
X138100000Y-63300000D02*
X138100000Y-70750000D01*
X140800000Y-60600000D02*
X138100000Y-63300000D01*
X140800000Y-52700000D02*
X142100000Y-51400000D01*
X146200000Y-63400000D02*
X146200000Y-52600000D01*
X149100000Y-70750000D02*
X149100000Y-66300000D01*
X149100000Y-66300000D02*
X146200000Y-63400000D01*
%TO.N,Net-(D10-Pad1)*%
X125100000Y-102000000D02*
X125100000Y-99700000D01*
X126000000Y-98800000D02*
X126900000Y-98800000D01*
X125100000Y-99700000D02*
X126000000Y-98800000D01*
X128175000Y-103400000D02*
X126500000Y-103400000D01*
X126500000Y-103400000D02*
X125100000Y-102000000D01*
%TO.N,Net-(D1-Pad1)*%
X157175000Y-104400000D02*
X144500000Y-104400000D01*
%TO.N,Net-(D4-Pad1)*%
X153000000Y-94200000D02*
X149300000Y-90500000D01*
X157175000Y-94200000D02*
X153000000Y-94200000D01*
X149300000Y-90500000D02*
X146400000Y-87600000D01*
%TO.N,Net-(D6-Pad1)*%
X143125000Y-66225000D02*
X144300000Y-67400000D01*
X143125000Y-63800000D02*
X143125000Y-66225000D01*
%TO.N,Net-(D9-Pad1)*%
X143600000Y-55975000D02*
X143600000Y-53600000D01*
%TD*%
%TA.AperFunction,Conductor*%
%TO.N,GND*%
G36*
X142317012Y-68675408D02*
G01*
X142323595Y-68681537D01*
X142573595Y-68931537D01*
X142607621Y-68993849D01*
X142610500Y-69020632D01*
X142610500Y-78379367D01*
X142590498Y-78447488D01*
X142573595Y-78468462D01*
X137527546Y-83514511D01*
X137512518Y-83527348D01*
X137501530Y-83535331D01*
X137497117Y-83540233D01*
X137497115Y-83540234D01*
X137456751Y-83585063D01*
X137452210Y-83589847D01*
X137438063Y-83603994D01*
X137435986Y-83606559D01*
X137425463Y-83619554D01*
X137421175Y-83624575D01*
X137380830Y-83669381D01*
X137380827Y-83669385D01*
X137376415Y-83674285D01*
X137373119Y-83679995D01*
X137373116Y-83679998D01*
X137369625Y-83686045D01*
X137358432Y-83702330D01*
X137349893Y-83712875D01*
X137319523Y-83772480D01*
X137316376Y-83778276D01*
X137282925Y-83836215D01*
X137280884Y-83842497D01*
X137278731Y-83849123D01*
X137271167Y-83867384D01*
X137265006Y-83879476D01*
X137263296Y-83885859D01*
X137247691Y-83944094D01*
X137245818Y-83950418D01*
X137225145Y-84014044D01*
X137224455Y-84020611D01*
X137224454Y-84020615D01*
X137223728Y-84027529D01*
X137220125Y-84046972D01*
X137216611Y-84060085D01*
X137216265Y-84066682D01*
X137216265Y-84066684D01*
X137213110Y-84126887D01*
X137212593Y-84133461D01*
X137210844Y-84150105D01*
X137210500Y-84153380D01*
X137210500Y-84173407D01*
X137210327Y-84180001D01*
X137206826Y-84246810D01*
X137207858Y-84253325D01*
X137207858Y-84253327D01*
X137208949Y-84260214D01*
X137210500Y-84279925D01*
X137210500Y-92779367D01*
X137190498Y-92847488D01*
X137173595Y-92868462D01*
X136568462Y-93473595D01*
X136506150Y-93507621D01*
X136479367Y-93510500D01*
X130413276Y-93510500D01*
X130348006Y-93492276D01*
X130325201Y-93478465D01*
X130325196Y-93478463D01*
X130318699Y-93474528D01*
X130311452Y-93472257D01*
X130311450Y-93472256D01*
X130240089Y-93449893D01*
X130155062Y-93423247D01*
X130081635Y-93416500D01*
X130078737Y-93416500D01*
X129824335Y-93416501D01*
X129568366Y-93416501D01*
X129559955Y-93417274D01*
X129555443Y-93417688D01*
X129485778Y-93404001D01*
X129434572Y-93354823D01*
X129418082Y-93285768D01*
X129441544Y-93218760D01*
X129454822Y-93203121D01*
X134672454Y-87985489D01*
X134687482Y-87972652D01*
X134698470Y-87964669D01*
X134743249Y-87914937D01*
X134747790Y-87910153D01*
X134761937Y-87896006D01*
X134774543Y-87880439D01*
X134778827Y-87875424D01*
X134819166Y-87830623D01*
X134819167Y-87830622D01*
X134823585Y-87825715D01*
X134830374Y-87813956D01*
X134841567Y-87797671D01*
X134845948Y-87792260D01*
X134845949Y-87792259D01*
X134850106Y-87787125D01*
X134853106Y-87781238D01*
X134880478Y-87727519D01*
X134883624Y-87721724D01*
X134886026Y-87717564D01*
X134917075Y-87663785D01*
X134919117Y-87657501D01*
X134919119Y-87657496D01*
X134921269Y-87650879D01*
X134928834Y-87632615D01*
X134931994Y-87626413D01*
X134931994Y-87626412D01*
X134934994Y-87620525D01*
X134952310Y-87555899D01*
X134954181Y-87549582D01*
X134972816Y-87492231D01*
X134974855Y-87485956D01*
X134975546Y-87479386D01*
X134976275Y-87472456D01*
X134979876Y-87453023D01*
X134981679Y-87446293D01*
X134983388Y-87439915D01*
X134986889Y-87373120D01*
X134987406Y-87366546D01*
X134989156Y-87349893D01*
X134989500Y-87346620D01*
X134989500Y-87326586D01*
X134989673Y-87319992D01*
X134992829Y-87259782D01*
X134992829Y-87259777D01*
X134993174Y-87253190D01*
X134991051Y-87239785D01*
X134989500Y-87220075D01*
X134989500Y-78020633D01*
X135009502Y-77952512D01*
X135026405Y-77931538D01*
X135786574Y-77171369D01*
X135801608Y-77158528D01*
X135905909Y-77082749D01*
X135905911Y-77082747D01*
X135911253Y-77078866D01*
X135964658Y-77019554D01*
X136034621Y-76941852D01*
X136034622Y-76941851D01*
X136039040Y-76936944D01*
X136134527Y-76771556D01*
X136193542Y-76589928D01*
X136213504Y-76400000D01*
X136193542Y-76210072D01*
X136134527Y-76028444D01*
X136039040Y-75863056D01*
X135911253Y-75721134D01*
X135756752Y-75608882D01*
X135750724Y-75606198D01*
X135750722Y-75606197D01*
X135588319Y-75533891D01*
X135588318Y-75533891D01*
X135582288Y-75531206D01*
X135488887Y-75511353D01*
X135401944Y-75492872D01*
X135401939Y-75492872D01*
X135395487Y-75491500D01*
X135204513Y-75491500D01*
X135198061Y-75492872D01*
X135198056Y-75492872D01*
X135111113Y-75511353D01*
X135017712Y-75531206D01*
X135011682Y-75533891D01*
X135011681Y-75533891D01*
X134849278Y-75606197D01*
X134849276Y-75606198D01*
X134843248Y-75608882D01*
X134688747Y-75721134D01*
X134560960Y-75863056D01*
X134557659Y-75868774D01*
X134544608Y-75891379D01*
X134524584Y-75917473D01*
X133527546Y-76914511D01*
X133512518Y-76927348D01*
X133501530Y-76935331D01*
X133497117Y-76940233D01*
X133497115Y-76940234D01*
X133456751Y-76985063D01*
X133452210Y-76989847D01*
X133438063Y-77003994D01*
X133435986Y-77006559D01*
X133425463Y-77019554D01*
X133421175Y-77024575D01*
X133380830Y-77069381D01*
X133380827Y-77069385D01*
X133376415Y-77074285D01*
X133373119Y-77079995D01*
X133373116Y-77079998D01*
X133369625Y-77086045D01*
X133358432Y-77102330D01*
X133349893Y-77112875D01*
X133326632Y-77158528D01*
X133319523Y-77172480D01*
X133316376Y-77178276D01*
X133282925Y-77236215D01*
X133280884Y-77242497D01*
X133278731Y-77249123D01*
X133271167Y-77267384D01*
X133265006Y-77279476D01*
X133263296Y-77285859D01*
X133247691Y-77344094D01*
X133245818Y-77350418D01*
X133225145Y-77414044D01*
X133224455Y-77420611D01*
X133224454Y-77420615D01*
X133223728Y-77427529D01*
X133220125Y-77446972D01*
X133216611Y-77460085D01*
X133216265Y-77466682D01*
X133216265Y-77466684D01*
X133213110Y-77526887D01*
X133212593Y-77533461D01*
X133210500Y-77553380D01*
X133210500Y-77573407D01*
X133210327Y-77580001D01*
X133206826Y-77646810D01*
X133207858Y-77653325D01*
X133207858Y-77653327D01*
X133208949Y-77660214D01*
X133210500Y-77679925D01*
X133210500Y-86879367D01*
X133190498Y-86947488D01*
X133173595Y-86968462D01*
X127602546Y-92539511D01*
X127587518Y-92552348D01*
X127576530Y-92560331D01*
X127572117Y-92565233D01*
X127572115Y-92565234D01*
X127531751Y-92610063D01*
X127527210Y-92614847D01*
X127513063Y-92628994D01*
X127510986Y-92631559D01*
X127500463Y-92644554D01*
X127496175Y-92649575D01*
X127455830Y-92694381D01*
X127455827Y-92694385D01*
X127451415Y-92699285D01*
X127448119Y-92704995D01*
X127448116Y-92704998D01*
X127444625Y-92711045D01*
X127433432Y-92727330D01*
X127424893Y-92737875D01*
X127403752Y-92779367D01*
X127394523Y-92797480D01*
X127391376Y-92803276D01*
X127357925Y-92861215D01*
X127355884Y-92867497D01*
X127353731Y-92874123D01*
X127346167Y-92892384D01*
X127340006Y-92904476D01*
X127338296Y-92910859D01*
X127322691Y-92969094D01*
X127320818Y-92975418D01*
X127300145Y-93039044D01*
X127299455Y-93045611D01*
X127299454Y-93045615D01*
X127298728Y-93052529D01*
X127295125Y-93071972D01*
X127291611Y-93085085D01*
X127291265Y-93091682D01*
X127291265Y-93091684D01*
X127288110Y-93151887D01*
X127287593Y-93158461D01*
X127285844Y-93175105D01*
X127285500Y-93178380D01*
X127285500Y-93198407D01*
X127285327Y-93205001D01*
X127284711Y-93216764D01*
X127281826Y-93271810D01*
X127282858Y-93278325D01*
X127282858Y-93278327D01*
X127283949Y-93285214D01*
X127285500Y-93304925D01*
X127285500Y-93936559D01*
X127279734Y-93974238D01*
X127273247Y-93994938D01*
X127266500Y-94068365D01*
X127266501Y-94731634D01*
X127266764Y-94734492D01*
X127266764Y-94734501D01*
X127270026Y-94770004D01*
X127273247Y-94805062D01*
X127275246Y-94811440D01*
X127275246Y-94811441D01*
X127318702Y-94950107D01*
X127324528Y-94968699D01*
X127413361Y-95115381D01*
X127534619Y-95236639D01*
X127681301Y-95325472D01*
X127688548Y-95327743D01*
X127688550Y-95327744D01*
X127754836Y-95348517D01*
X127844938Y-95376753D01*
X127918365Y-95383500D01*
X127921263Y-95383500D01*
X128175665Y-95383499D01*
X128431634Y-95383499D01*
X128434492Y-95383236D01*
X128434501Y-95383236D01*
X128470004Y-95379974D01*
X128505062Y-95376753D01*
X128511447Y-95374752D01*
X128661450Y-95327744D01*
X128661452Y-95327743D01*
X128668699Y-95325472D01*
X128815381Y-95236639D01*
X128910905Y-95141115D01*
X128973217Y-95107089D01*
X129044032Y-95112154D01*
X129089095Y-95141115D01*
X129184619Y-95236639D01*
X129331301Y-95325472D01*
X129338548Y-95327743D01*
X129338550Y-95327744D01*
X129404836Y-95348517D01*
X129494938Y-95376753D01*
X129568365Y-95383500D01*
X129571263Y-95383500D01*
X129825665Y-95383499D01*
X130081634Y-95383499D01*
X130084492Y-95383236D01*
X130084501Y-95383236D01*
X130120004Y-95379974D01*
X130155062Y-95376753D01*
X130161447Y-95374752D01*
X130311450Y-95327744D01*
X130311452Y-95327743D01*
X130318699Y-95325472D01*
X130325196Y-95321537D01*
X130325201Y-95321535D01*
X130348006Y-95307724D01*
X130413276Y-95289500D01*
X136479367Y-95289500D01*
X136547488Y-95309502D01*
X136568462Y-95326405D01*
X137173595Y-95931538D01*
X137207621Y-95993850D01*
X137210500Y-96020633D01*
X137210500Y-101879367D01*
X137190498Y-101947488D01*
X137173595Y-101968462D01*
X136668462Y-102473595D01*
X136606150Y-102507621D01*
X136579367Y-102510500D01*
X130413276Y-102510500D01*
X130348006Y-102492276D01*
X130325201Y-102478465D01*
X130325196Y-102478463D01*
X130318699Y-102474528D01*
X130311452Y-102472257D01*
X130311450Y-102472256D01*
X130245164Y-102451483D01*
X130155062Y-102423247D01*
X130081635Y-102416500D01*
X130078737Y-102416500D01*
X129824335Y-102416501D01*
X129568366Y-102416501D01*
X129565508Y-102416764D01*
X129565499Y-102416764D01*
X129529996Y-102420026D01*
X129494938Y-102423247D01*
X129488560Y-102425246D01*
X129488559Y-102425246D01*
X129338550Y-102472256D01*
X129338548Y-102472257D01*
X129331301Y-102474528D01*
X129184619Y-102563361D01*
X129089095Y-102658885D01*
X129026783Y-102692911D01*
X128955968Y-102687846D01*
X128910905Y-102658885D01*
X128815381Y-102563361D01*
X128668699Y-102474528D01*
X128661452Y-102472257D01*
X128661450Y-102472256D01*
X128595164Y-102451483D01*
X128505062Y-102423247D01*
X128431635Y-102416500D01*
X128428737Y-102416500D01*
X128174335Y-102416501D01*
X127918366Y-102416501D01*
X127915508Y-102416764D01*
X127915499Y-102416764D01*
X127879996Y-102420026D01*
X127844938Y-102423247D01*
X127838560Y-102425246D01*
X127838559Y-102425246D01*
X127688550Y-102472256D01*
X127688548Y-102472257D01*
X127681301Y-102474528D01*
X127674804Y-102478463D01*
X127674799Y-102478465D01*
X127651994Y-102492276D01*
X127586724Y-102510500D01*
X126920633Y-102510500D01*
X126852512Y-102490498D01*
X126831538Y-102473595D01*
X126026405Y-101668462D01*
X125992379Y-101606150D01*
X125989500Y-101579367D01*
X125989500Y-100120633D01*
X126009502Y-100052512D01*
X126026405Y-100031538D01*
X126331538Y-99726405D01*
X126393850Y-99692379D01*
X126420633Y-99689500D01*
X126701881Y-99689500D01*
X126728077Y-99692253D01*
X126735959Y-99693928D01*
X126798056Y-99707128D01*
X126798061Y-99707128D01*
X126804513Y-99708500D01*
X126995487Y-99708500D01*
X127001939Y-99707128D01*
X127001944Y-99707128D01*
X127088888Y-99688647D01*
X127182288Y-99668794D01*
X127191553Y-99664669D01*
X127350722Y-99593803D01*
X127350724Y-99593802D01*
X127356752Y-99591118D01*
X127378352Y-99575425D01*
X127446771Y-99525715D01*
X127511253Y-99478866D01*
X127639040Y-99336944D01*
X127734527Y-99171556D01*
X127793542Y-98989928D01*
X127796711Y-98959782D01*
X127812814Y-98806565D01*
X127813504Y-98800000D01*
X127793542Y-98610072D01*
X127734527Y-98428444D01*
X127639040Y-98263056D01*
X127600751Y-98220531D01*
X127515675Y-98126045D01*
X127515674Y-98126044D01*
X127511253Y-98121134D01*
X127371390Y-98019517D01*
X127362094Y-98012763D01*
X127362093Y-98012762D01*
X127356752Y-98008882D01*
X127350724Y-98006198D01*
X127350722Y-98006197D01*
X127188319Y-97933891D01*
X127188318Y-97933891D01*
X127182288Y-97931206D01*
X127086493Y-97910844D01*
X127001944Y-97892872D01*
X127001939Y-97892872D01*
X126995487Y-97891500D01*
X126804513Y-97891500D01*
X126798061Y-97892872D01*
X126798056Y-97892872D01*
X126728078Y-97907747D01*
X126701881Y-97910500D01*
X126079925Y-97910500D01*
X126060214Y-97908949D01*
X126053327Y-97907858D01*
X126053325Y-97907858D01*
X126046810Y-97906826D01*
X126040223Y-97907171D01*
X126040218Y-97907171D01*
X125980008Y-97910327D01*
X125973414Y-97910500D01*
X125953380Y-97910500D01*
X125950106Y-97910844D01*
X125950107Y-97910844D01*
X125933454Y-97912594D01*
X125926880Y-97913111D01*
X125866681Y-97916266D01*
X125866678Y-97916266D01*
X125860085Y-97916612D01*
X125853706Y-97918321D01*
X125853707Y-97918321D01*
X125846977Y-97920124D01*
X125827544Y-97923725D01*
X125820614Y-97924454D01*
X125820610Y-97924455D01*
X125814044Y-97925145D01*
X125750408Y-97945822D01*
X125744101Y-97947690D01*
X125722865Y-97953380D01*
X125685852Y-97963297D01*
X125685849Y-97963298D01*
X125679475Y-97965006D01*
X125673595Y-97968002D01*
X125673587Y-97968005D01*
X125667379Y-97971168D01*
X125649122Y-97978731D01*
X125642496Y-97980884D01*
X125636215Y-97982925D01*
X125595907Y-98006197D01*
X125578288Y-98016369D01*
X125572493Y-98019516D01*
X125512875Y-98049893D01*
X125502330Y-98058432D01*
X125486045Y-98069625D01*
X125479998Y-98073116D01*
X125479995Y-98073119D01*
X125474285Y-98076415D01*
X125469385Y-98080827D01*
X125469381Y-98080830D01*
X125439575Y-98107669D01*
X125424621Y-98121134D01*
X125424575Y-98121175D01*
X125419554Y-98125463D01*
X125407763Y-98135011D01*
X125403994Y-98138063D01*
X125389847Y-98152210D01*
X125385063Y-98156751D01*
X125335331Y-98201530D01*
X125327348Y-98212518D01*
X125314511Y-98227546D01*
X124527546Y-99014511D01*
X124512518Y-99027348D01*
X124501530Y-99035331D01*
X124497117Y-99040233D01*
X124497115Y-99040234D01*
X124456751Y-99085063D01*
X124452210Y-99089847D01*
X124438063Y-99103994D01*
X124435986Y-99106559D01*
X124425463Y-99119554D01*
X124421175Y-99124575D01*
X124380830Y-99169381D01*
X124380827Y-99169385D01*
X124376415Y-99174285D01*
X124373119Y-99179995D01*
X124373116Y-99179998D01*
X124369625Y-99186045D01*
X124358432Y-99202330D01*
X124349893Y-99212875D01*
X124331190Y-99249582D01*
X124319523Y-99272480D01*
X124316376Y-99278276D01*
X124282925Y-99336215D01*
X124280884Y-99342497D01*
X124278731Y-99349123D01*
X124271167Y-99367384D01*
X124265006Y-99379476D01*
X124263296Y-99385859D01*
X124247691Y-99444094D01*
X124245818Y-99450418D01*
X124225145Y-99514044D01*
X124224455Y-99520611D01*
X124224454Y-99520615D01*
X124223728Y-99527529D01*
X124220125Y-99546972D01*
X124216611Y-99560085D01*
X124216265Y-99566682D01*
X124216265Y-99566684D01*
X124213110Y-99626887D01*
X124212593Y-99633461D01*
X124210500Y-99653380D01*
X124210500Y-99673407D01*
X124210327Y-99680001D01*
X124208834Y-99708500D01*
X124206826Y-99746810D01*
X124207858Y-99753325D01*
X124207858Y-99753327D01*
X124208949Y-99760214D01*
X124210500Y-99779925D01*
X124210500Y-101920075D01*
X124208949Y-101939785D01*
X124206826Y-101953190D01*
X124207171Y-101959778D01*
X124207171Y-101959782D01*
X124210327Y-102019999D01*
X124210500Y-102026593D01*
X124210500Y-102046620D01*
X124210844Y-102049891D01*
X124210844Y-102049895D01*
X124212593Y-102066539D01*
X124213110Y-102073113D01*
X124216611Y-102139915D01*
X124218320Y-102146292D01*
X124218320Y-102146293D01*
X124220124Y-102153023D01*
X124223728Y-102172470D01*
X124225145Y-102185956D01*
X124227187Y-102192240D01*
X124245818Y-102249582D01*
X124247691Y-102255906D01*
X124265006Y-102320524D01*
X124271167Y-102332616D01*
X124278730Y-102350875D01*
X124282925Y-102363785D01*
X124313057Y-102415975D01*
X124316376Y-102421724D01*
X124319523Y-102427520D01*
X124349893Y-102487125D01*
X124358432Y-102497670D01*
X124369625Y-102513955D01*
X124373116Y-102520002D01*
X124373119Y-102520005D01*
X124376415Y-102525715D01*
X124380827Y-102530615D01*
X124380830Y-102530619D01*
X124421175Y-102575425D01*
X124425463Y-102580446D01*
X124438063Y-102596006D01*
X124452210Y-102610153D01*
X124456751Y-102614937D01*
X124501530Y-102664669D01*
X124512518Y-102672652D01*
X124527546Y-102685489D01*
X125814511Y-103972454D01*
X125827348Y-103987482D01*
X125835331Y-103998470D01*
X125840233Y-104002883D01*
X125840234Y-104002885D01*
X125885063Y-104043249D01*
X125889847Y-104047790D01*
X125903994Y-104061937D01*
X125906559Y-104064014D01*
X125919554Y-104074537D01*
X125924575Y-104078825D01*
X125969381Y-104119170D01*
X125969385Y-104119173D01*
X125974285Y-104123585D01*
X125979995Y-104126881D01*
X125979998Y-104126884D01*
X125986045Y-104130375D01*
X126002330Y-104141568D01*
X126012875Y-104150107D01*
X126072480Y-104180477D01*
X126078276Y-104183624D01*
X126136215Y-104217075D01*
X126149125Y-104221270D01*
X126167384Y-104228833D01*
X126179476Y-104234994D01*
X126236641Y-104250312D01*
X126244094Y-104252309D01*
X126250419Y-104254182D01*
X126314044Y-104274855D01*
X126320611Y-104275545D01*
X126320615Y-104275546D01*
X126326288Y-104276142D01*
X126327530Y-104276272D01*
X126346972Y-104279875D01*
X126360085Y-104283389D01*
X126366682Y-104283735D01*
X126366684Y-104283735D01*
X126426887Y-104286890D01*
X126433461Y-104287407D01*
X126450105Y-104289156D01*
X126450109Y-104289156D01*
X126453380Y-104289500D01*
X126473407Y-104289500D01*
X126480001Y-104289673D01*
X126540218Y-104292829D01*
X126540222Y-104292829D01*
X126546810Y-104293174D01*
X126553325Y-104292142D01*
X126553327Y-104292142D01*
X126560214Y-104291051D01*
X126579925Y-104289500D01*
X127586724Y-104289500D01*
X127651994Y-104307724D01*
X127674799Y-104321535D01*
X127674804Y-104321537D01*
X127681301Y-104325472D01*
X127688548Y-104327743D01*
X127688550Y-104327744D01*
X127754836Y-104348517D01*
X127844938Y-104376753D01*
X127918365Y-104383500D01*
X127921263Y-104383500D01*
X128175665Y-104383499D01*
X128431634Y-104383499D01*
X128434492Y-104383236D01*
X128434501Y-104383236D01*
X128470004Y-104379974D01*
X128505062Y-104376753D01*
X128511447Y-104374752D01*
X128661450Y-104327744D01*
X128661452Y-104327743D01*
X128668699Y-104325472D01*
X128815381Y-104236639D01*
X128910905Y-104141115D01*
X128973217Y-104107089D01*
X129044032Y-104112154D01*
X129089095Y-104141115D01*
X129184619Y-104236639D01*
X129331301Y-104325472D01*
X129338548Y-104327743D01*
X129338550Y-104327744D01*
X129404836Y-104348517D01*
X129494938Y-104376753D01*
X129568365Y-104383500D01*
X129571263Y-104383500D01*
X129825665Y-104383499D01*
X130081634Y-104383499D01*
X130084492Y-104383236D01*
X130084501Y-104383236D01*
X130120004Y-104379974D01*
X130155062Y-104376753D01*
X130161447Y-104374752D01*
X130311450Y-104327744D01*
X130311452Y-104327743D01*
X130318699Y-104325472D01*
X130325196Y-104321537D01*
X130325201Y-104321535D01*
X130348006Y-104307724D01*
X130413276Y-104289500D01*
X136579367Y-104289500D01*
X136647488Y-104309502D01*
X136668462Y-104326405D01*
X137173595Y-104831538D01*
X137207621Y-104893850D01*
X137210500Y-104920633D01*
X137210500Y-106820075D01*
X137208949Y-106839785D01*
X137206826Y-106853190D01*
X137207171Y-106859778D01*
X137207171Y-106859782D01*
X137210327Y-106919999D01*
X137210500Y-106926593D01*
X137210500Y-106946620D01*
X137210844Y-106949891D01*
X137210844Y-106949895D01*
X137212593Y-106966539D01*
X137213110Y-106973113D01*
X137214426Y-106998223D01*
X137216611Y-107039915D01*
X137218320Y-107046292D01*
X137218320Y-107046293D01*
X137220124Y-107053023D01*
X137223728Y-107072470D01*
X137225145Y-107085956D01*
X137229535Y-107099467D01*
X137245818Y-107149582D01*
X137247691Y-107155906D01*
X137265006Y-107220524D01*
X137271167Y-107232616D01*
X137278730Y-107250875D01*
X137282925Y-107263785D01*
X137303619Y-107299628D01*
X137316376Y-107321724D01*
X137319523Y-107327520D01*
X137349893Y-107387125D01*
X137354050Y-107392258D01*
X137358432Y-107397670D01*
X137369625Y-107413955D01*
X137373116Y-107420002D01*
X137373119Y-107420005D01*
X137376415Y-107425715D01*
X137380827Y-107430615D01*
X137380830Y-107430619D01*
X137421175Y-107475425D01*
X137425463Y-107480446D01*
X137438063Y-107496006D01*
X137452210Y-107510153D01*
X137456751Y-107514937D01*
X137478760Y-107539380D01*
X137501530Y-107564669D01*
X137512518Y-107572652D01*
X137527546Y-107585489D01*
X140614511Y-110672454D01*
X140627348Y-110687482D01*
X140635331Y-110698470D01*
X140640233Y-110702883D01*
X140640234Y-110702885D01*
X140685063Y-110743249D01*
X140689847Y-110747790D01*
X140703994Y-110761937D01*
X140706552Y-110764009D01*
X140706556Y-110764012D01*
X140719561Y-110774543D01*
X140724576Y-110778827D01*
X140774285Y-110823585D01*
X140786044Y-110830374D01*
X140802329Y-110841567D01*
X140807740Y-110845948D01*
X140812875Y-110850106D01*
X140818759Y-110853104D01*
X140818762Y-110853106D01*
X140872481Y-110880478D01*
X140878276Y-110883624D01*
X140936215Y-110917075D01*
X140942499Y-110919117D01*
X140942504Y-110919119D01*
X140949121Y-110921269D01*
X140967385Y-110928834D01*
X140973590Y-110931996D01*
X140973595Y-110931998D01*
X140979475Y-110934994D01*
X141044111Y-110952313D01*
X141050412Y-110954180D01*
X141114044Y-110974855D01*
X141120609Y-110975545D01*
X141120618Y-110975547D01*
X141127543Y-110976275D01*
X141146976Y-110979876D01*
X141151964Y-110981212D01*
X141160084Y-110983388D01*
X141166677Y-110983734D01*
X141166680Y-110983734D01*
X141226881Y-110986889D01*
X141233456Y-110987406D01*
X141253380Y-110989500D01*
X141273413Y-110989500D01*
X141280007Y-110989673D01*
X141340217Y-110992829D01*
X141340222Y-110992829D01*
X141346809Y-110993174D01*
X141353324Y-110992142D01*
X141353326Y-110992142D01*
X141360213Y-110991051D01*
X141379924Y-110989500D01*
X160579367Y-110989500D01*
X160647488Y-111009502D01*
X160668462Y-111026405D01*
X161073595Y-111431538D01*
X161107621Y-111493850D01*
X161110500Y-111520633D01*
X161110500Y-115579367D01*
X161090498Y-115647488D01*
X161073595Y-115668462D01*
X160868462Y-115873595D01*
X160806150Y-115907621D01*
X160779367Y-115910500D01*
X159413276Y-115910500D01*
X159348006Y-115892276D01*
X159325201Y-115878465D01*
X159325196Y-115878463D01*
X159318699Y-115874528D01*
X159311452Y-115872257D01*
X159311450Y-115872256D01*
X159245164Y-115851483D01*
X159155062Y-115823247D01*
X159081635Y-115816500D01*
X159078737Y-115816500D01*
X158824335Y-115816501D01*
X158568366Y-115816501D01*
X158565508Y-115816764D01*
X158565499Y-115816764D01*
X158529996Y-115820026D01*
X158494938Y-115823247D01*
X158488560Y-115825246D01*
X158488559Y-115825246D01*
X158338550Y-115872256D01*
X158338548Y-115872257D01*
X158331301Y-115874528D01*
X158184619Y-115963361D01*
X158089095Y-116058885D01*
X158026783Y-116092911D01*
X157955968Y-116087846D01*
X157910905Y-116058885D01*
X157815381Y-115963361D01*
X157668699Y-115874528D01*
X157661452Y-115872257D01*
X157661450Y-115872256D01*
X157595164Y-115851483D01*
X157505062Y-115823247D01*
X157431635Y-115816500D01*
X157428737Y-115816500D01*
X157174335Y-115816501D01*
X156918366Y-115816501D01*
X156915508Y-115816764D01*
X156915499Y-115816764D01*
X156879996Y-115820026D01*
X156844938Y-115823247D01*
X156838560Y-115825246D01*
X156838559Y-115825246D01*
X156688550Y-115872256D01*
X156688548Y-115872257D01*
X156681301Y-115874528D01*
X156674804Y-115878463D01*
X156674799Y-115878465D01*
X156651994Y-115892276D01*
X156586724Y-115910500D01*
X155998119Y-115910500D01*
X155971922Y-115907747D01*
X155971330Y-115907621D01*
X155960316Y-115905280D01*
X155901944Y-115892872D01*
X155901939Y-115892872D01*
X155895487Y-115891500D01*
X155704513Y-115891500D01*
X155698061Y-115892872D01*
X155698056Y-115892872D01*
X155611113Y-115911353D01*
X155517712Y-115931206D01*
X155511682Y-115933891D01*
X155511681Y-115933891D01*
X155349278Y-116006197D01*
X155349276Y-116006198D01*
X155343248Y-116008882D01*
X155188747Y-116121134D01*
X155184326Y-116126044D01*
X155184325Y-116126045D01*
X155113109Y-116205139D01*
X155060960Y-116263056D01*
X155033398Y-116310795D01*
X154990213Y-116385594D01*
X154965473Y-116428444D01*
X154906458Y-116610072D01*
X154905768Y-116616633D01*
X154905768Y-116616635D01*
X154894717Y-116721784D01*
X154886496Y-116800000D01*
X154887186Y-116806565D01*
X154905407Y-116979925D01*
X154906458Y-116989928D01*
X154965473Y-117171556D01*
X155060960Y-117336944D01*
X155065378Y-117341851D01*
X155065379Y-117341852D01*
X155099890Y-117380180D01*
X155188747Y-117478866D01*
X155274425Y-117541115D01*
X155311651Y-117568161D01*
X155343248Y-117591118D01*
X155349276Y-117593802D01*
X155349278Y-117593803D01*
X155482972Y-117653327D01*
X155517712Y-117668794D01*
X155611112Y-117688647D01*
X155698056Y-117707128D01*
X155698061Y-117707128D01*
X155704513Y-117708500D01*
X155895487Y-117708500D01*
X155901939Y-117707128D01*
X155901944Y-117707128D01*
X155971922Y-117692253D01*
X155998119Y-117689500D01*
X156586724Y-117689500D01*
X156651994Y-117707724D01*
X156674799Y-117721535D01*
X156674804Y-117721537D01*
X156681301Y-117725472D01*
X156688548Y-117727743D01*
X156688550Y-117727744D01*
X156754836Y-117748517D01*
X156844938Y-117776753D01*
X156918365Y-117783500D01*
X156921263Y-117783500D01*
X157175665Y-117783499D01*
X157431634Y-117783499D01*
X157434492Y-117783236D01*
X157434501Y-117783236D01*
X157470004Y-117779974D01*
X157505062Y-117776753D01*
X157511447Y-117774752D01*
X157661450Y-117727744D01*
X157661452Y-117727743D01*
X157668699Y-117725472D01*
X157815381Y-117636639D01*
X157910905Y-117541115D01*
X157973217Y-117507089D01*
X158044032Y-117512154D01*
X158089095Y-117541115D01*
X158184619Y-117636639D01*
X158331301Y-117725472D01*
X158338548Y-117727743D01*
X158338550Y-117727744D01*
X158404836Y-117748517D01*
X158494938Y-117776753D01*
X158568365Y-117783500D01*
X158571263Y-117783500D01*
X158825665Y-117783499D01*
X159081634Y-117783499D01*
X159084492Y-117783236D01*
X159084501Y-117783236D01*
X159120004Y-117779974D01*
X159155062Y-117776753D01*
X159161447Y-117774752D01*
X159311450Y-117727744D01*
X159311452Y-117727743D01*
X159318699Y-117725472D01*
X159325196Y-117721537D01*
X159325201Y-117721535D01*
X159348006Y-117707724D01*
X159413276Y-117689500D01*
X160779367Y-117689500D01*
X160847488Y-117709502D01*
X160868462Y-117726405D01*
X161002962Y-117860905D01*
X161036988Y-117923217D01*
X161031923Y-117994032D01*
X161002962Y-118039095D01*
X160568462Y-118473595D01*
X160506150Y-118507621D01*
X160479367Y-118510500D01*
X159413276Y-118510500D01*
X159348006Y-118492276D01*
X159325201Y-118478465D01*
X159325196Y-118478463D01*
X159318699Y-118474528D01*
X159311452Y-118472257D01*
X159311450Y-118472256D01*
X159245164Y-118451483D01*
X159155062Y-118423247D01*
X159081635Y-118416500D01*
X159078737Y-118416500D01*
X158824335Y-118416501D01*
X158568366Y-118416501D01*
X158565508Y-118416764D01*
X158565499Y-118416764D01*
X158529996Y-118420026D01*
X158494938Y-118423247D01*
X158488560Y-118425246D01*
X158488559Y-118425246D01*
X158338550Y-118472256D01*
X158338548Y-118472257D01*
X158331301Y-118474528D01*
X158184619Y-118563361D01*
X158089095Y-118658885D01*
X158026783Y-118692911D01*
X157955968Y-118687846D01*
X157910905Y-118658885D01*
X157815381Y-118563361D01*
X157668699Y-118474528D01*
X157661452Y-118472257D01*
X157661450Y-118472256D01*
X157595164Y-118451483D01*
X157505062Y-118423247D01*
X157431635Y-118416500D01*
X157428737Y-118416500D01*
X157174335Y-118416501D01*
X156918366Y-118416501D01*
X156915508Y-118416764D01*
X156915499Y-118416764D01*
X156879996Y-118420026D01*
X156844938Y-118423247D01*
X156838560Y-118425246D01*
X156838559Y-118425246D01*
X156688550Y-118472256D01*
X156688548Y-118472257D01*
X156681301Y-118474528D01*
X156674804Y-118478463D01*
X156674799Y-118478465D01*
X156651994Y-118492276D01*
X156586724Y-118510500D01*
X136798119Y-118510500D01*
X136771922Y-118507747D01*
X136771330Y-118507621D01*
X136764041Y-118506072D01*
X136701944Y-118492872D01*
X136701939Y-118492872D01*
X136695487Y-118491500D01*
X136504513Y-118491500D01*
X136498061Y-118492872D01*
X136498056Y-118492872D01*
X136411112Y-118511353D01*
X136317712Y-118531206D01*
X136311682Y-118533891D01*
X136311681Y-118533891D01*
X136149278Y-118606197D01*
X136149276Y-118606198D01*
X136143248Y-118608882D01*
X136137907Y-118612762D01*
X136137906Y-118612763D01*
X136121105Y-118624970D01*
X135988747Y-118721134D01*
X135984326Y-118726044D01*
X135984325Y-118726045D01*
X135888014Y-118833010D01*
X135860960Y-118863056D01*
X135765473Y-119028444D01*
X135706458Y-119210072D01*
X135705768Y-119216633D01*
X135705768Y-119216635D01*
X135695068Y-119318444D01*
X135686496Y-119400000D01*
X135687186Y-119406565D01*
X135688688Y-119420851D01*
X135706458Y-119589928D01*
X135765473Y-119771556D01*
X135860960Y-119936944D01*
X135865378Y-119941851D01*
X135865379Y-119941852D01*
X135984325Y-120073955D01*
X135988747Y-120078866D01*
X136143248Y-120191118D01*
X136149276Y-120193802D01*
X136149278Y-120193803D01*
X136311681Y-120266109D01*
X136317712Y-120268794D01*
X136405279Y-120287407D01*
X136498056Y-120307128D01*
X136498061Y-120307128D01*
X136504513Y-120308500D01*
X136695487Y-120308500D01*
X136701939Y-120307128D01*
X136701944Y-120307128D01*
X136769212Y-120292829D01*
X136771923Y-120292253D01*
X136798119Y-120289500D01*
X156586724Y-120289500D01*
X156651994Y-120307724D01*
X156674799Y-120321535D01*
X156674804Y-120321537D01*
X156681301Y-120325472D01*
X156688548Y-120327743D01*
X156688550Y-120327744D01*
X156747160Y-120346111D01*
X156844938Y-120376753D01*
X156918365Y-120383500D01*
X156921263Y-120383500D01*
X157175665Y-120383499D01*
X157431634Y-120383499D01*
X157434492Y-120383236D01*
X157434501Y-120383236D01*
X157470004Y-120379974D01*
X157505062Y-120376753D01*
X157511447Y-120374752D01*
X157661450Y-120327744D01*
X157661452Y-120327743D01*
X157668699Y-120325472D01*
X157815381Y-120236639D01*
X157910905Y-120141115D01*
X157973217Y-120107089D01*
X158044032Y-120112154D01*
X158089095Y-120141115D01*
X158184619Y-120236639D01*
X158331301Y-120325472D01*
X158338548Y-120327743D01*
X158338550Y-120327744D01*
X158397160Y-120346111D01*
X158494938Y-120376753D01*
X158568365Y-120383500D01*
X158571263Y-120383500D01*
X158825665Y-120383499D01*
X159081634Y-120383499D01*
X159084492Y-120383236D01*
X159084501Y-120383236D01*
X159120004Y-120379974D01*
X159155062Y-120376753D01*
X159161447Y-120374752D01*
X159311450Y-120327744D01*
X159311452Y-120327743D01*
X159318699Y-120325472D01*
X159325196Y-120321537D01*
X159325201Y-120321535D01*
X159348006Y-120307724D01*
X159413276Y-120289500D01*
X160479367Y-120289500D01*
X160547488Y-120309502D01*
X160568462Y-120326405D01*
X161073595Y-120831538D01*
X161107621Y-120893850D01*
X161110500Y-120920633D01*
X161110500Y-121479367D01*
X161090498Y-121547488D01*
X161073595Y-121568462D01*
X160668462Y-121973595D01*
X160606150Y-122007621D01*
X160579367Y-122010500D01*
X128779925Y-122010500D01*
X128760214Y-122008949D01*
X128753327Y-122007858D01*
X128753325Y-122007858D01*
X128746810Y-122006826D01*
X128740223Y-122007171D01*
X128740218Y-122007171D01*
X128680008Y-122010327D01*
X128673414Y-122010500D01*
X128653380Y-122010500D01*
X128650106Y-122010844D01*
X128650107Y-122010844D01*
X128633454Y-122012594D01*
X128626880Y-122013111D01*
X128566681Y-122016266D01*
X128566678Y-122016266D01*
X128560085Y-122016612D01*
X128553706Y-122018321D01*
X128553707Y-122018321D01*
X128546977Y-122020124D01*
X128527544Y-122023725D01*
X128520614Y-122024454D01*
X128520610Y-122024455D01*
X128514044Y-122025145D01*
X128450408Y-122045822D01*
X128444101Y-122047690D01*
X128418430Y-122054568D01*
X128385852Y-122063297D01*
X128385849Y-122063298D01*
X128379475Y-122065006D01*
X128373595Y-122068002D01*
X128373587Y-122068005D01*
X128367379Y-122071168D01*
X128349122Y-122078731D01*
X128336215Y-122082925D01*
X128330494Y-122086228D01*
X128278288Y-122116369D01*
X128272493Y-122119516D01*
X128212875Y-122149893D01*
X128203283Y-122157660D01*
X128202330Y-122158432D01*
X128186045Y-122169625D01*
X128179998Y-122173116D01*
X128179995Y-122173119D01*
X128174285Y-122176415D01*
X128169385Y-122180827D01*
X128169381Y-122180830D01*
X128124575Y-122221175D01*
X128119554Y-122225463D01*
X128103994Y-122238063D01*
X128089847Y-122252210D01*
X128085063Y-122256751D01*
X128073713Y-122266971D01*
X128035331Y-122301530D01*
X128027348Y-122312518D01*
X128014511Y-122327546D01*
X126068462Y-124273595D01*
X126006150Y-124307621D01*
X125979367Y-124310500D01*
X124413276Y-124310500D01*
X124348006Y-124292276D01*
X124325201Y-124278465D01*
X124325196Y-124278463D01*
X124318699Y-124274528D01*
X124311452Y-124272257D01*
X124311450Y-124272256D01*
X124181518Y-124231538D01*
X124155062Y-124223247D01*
X124081635Y-124216500D01*
X124078737Y-124216500D01*
X123824335Y-124216501D01*
X123568366Y-124216501D01*
X123565508Y-124216764D01*
X123565499Y-124216764D01*
X123529996Y-124220026D01*
X123494938Y-124223247D01*
X123488560Y-124225246D01*
X123488559Y-124225246D01*
X123338550Y-124272256D01*
X123338548Y-124272257D01*
X123331301Y-124274528D01*
X123184619Y-124363361D01*
X123089095Y-124458885D01*
X123026783Y-124492911D01*
X122955968Y-124487846D01*
X122910905Y-124458885D01*
X122815381Y-124363361D01*
X122668699Y-124274528D01*
X122661452Y-124272257D01*
X122661450Y-124272256D01*
X122531518Y-124231538D01*
X122505062Y-124223247D01*
X122431635Y-124216500D01*
X122428737Y-124216500D01*
X122174335Y-124216501D01*
X121918366Y-124216501D01*
X121915508Y-124216764D01*
X121915499Y-124216764D01*
X121879996Y-124220026D01*
X121844938Y-124223247D01*
X121838560Y-124225246D01*
X121838559Y-124225246D01*
X121688550Y-124272256D01*
X121688548Y-124272257D01*
X121681301Y-124274528D01*
X121674804Y-124278463D01*
X121674799Y-124278465D01*
X121651994Y-124292276D01*
X121586724Y-124310500D01*
X119598119Y-124310500D01*
X119571922Y-124307747D01*
X119571330Y-124307621D01*
X119564041Y-124306072D01*
X119501944Y-124292872D01*
X119501939Y-124292872D01*
X119495487Y-124291500D01*
X119304513Y-124291500D01*
X119298061Y-124292872D01*
X119298056Y-124292872D01*
X119211113Y-124311353D01*
X119117712Y-124331206D01*
X119111682Y-124333891D01*
X119111681Y-124333891D01*
X118949278Y-124406197D01*
X118949276Y-124406198D01*
X118943248Y-124408882D01*
X118788747Y-124521134D01*
X118660960Y-124663056D01*
X118565473Y-124828444D01*
X118506458Y-125010072D01*
X118486496Y-125200000D01*
X118487186Y-125206565D01*
X118498209Y-125311439D01*
X118506458Y-125389928D01*
X118565473Y-125571556D01*
X118568776Y-125577278D01*
X118568777Y-125577279D01*
X118594964Y-125622636D01*
X118660960Y-125736944D01*
X118665378Y-125741851D01*
X118665379Y-125741852D01*
X118768074Y-125855906D01*
X118788747Y-125878866D01*
X118844810Y-125919598D01*
X118913498Y-125969503D01*
X118943248Y-125991118D01*
X118949276Y-125993802D01*
X118949278Y-125993803D01*
X119104698Y-126063000D01*
X119117712Y-126068794D01*
X119203952Y-126087125D01*
X119298056Y-126107128D01*
X119298061Y-126107128D01*
X119304513Y-126108500D01*
X119495487Y-126108500D01*
X119501939Y-126107128D01*
X119501944Y-126107128D01*
X119569212Y-126092829D01*
X119571923Y-126092253D01*
X119598119Y-126089500D01*
X121586724Y-126089500D01*
X121651994Y-126107724D01*
X121674799Y-126121535D01*
X121674804Y-126121537D01*
X121681301Y-126125472D01*
X121688548Y-126127743D01*
X121688550Y-126127744D01*
X121754836Y-126148517D01*
X121844938Y-126176753D01*
X121918365Y-126183500D01*
X121921263Y-126183500D01*
X122175665Y-126183499D01*
X122431634Y-126183499D01*
X122434492Y-126183236D01*
X122434501Y-126183236D01*
X122470004Y-126179974D01*
X122505062Y-126176753D01*
X122564188Y-126158224D01*
X122661450Y-126127744D01*
X122661452Y-126127743D01*
X122668699Y-126125472D01*
X122815381Y-126036639D01*
X122910905Y-125941115D01*
X122973217Y-125907089D01*
X123044032Y-125912154D01*
X123089095Y-125941115D01*
X123184619Y-126036639D01*
X123331301Y-126125472D01*
X123338548Y-126127743D01*
X123338550Y-126127744D01*
X123404836Y-126148517D01*
X123494938Y-126176753D01*
X123568365Y-126183500D01*
X123571263Y-126183500D01*
X123825665Y-126183499D01*
X124081634Y-126183499D01*
X124084492Y-126183236D01*
X124084501Y-126183236D01*
X124120004Y-126179974D01*
X124155062Y-126176753D01*
X124214188Y-126158224D01*
X124311450Y-126127744D01*
X124311452Y-126127743D01*
X124318699Y-126125472D01*
X124325196Y-126121537D01*
X124325201Y-126121535D01*
X124348006Y-126107724D01*
X124413276Y-126089500D01*
X126320075Y-126089500D01*
X126339786Y-126091051D01*
X126346673Y-126092142D01*
X126346675Y-126092142D01*
X126353190Y-126093174D01*
X126359778Y-126092829D01*
X126359782Y-126092829D01*
X126419999Y-126089673D01*
X126426593Y-126089500D01*
X126446620Y-126089500D01*
X126449891Y-126089156D01*
X126449895Y-126089156D01*
X126466539Y-126087407D01*
X126473113Y-126086890D01*
X126533316Y-126083735D01*
X126533318Y-126083735D01*
X126539915Y-126083389D01*
X126553028Y-126079875D01*
X126572470Y-126076272D01*
X126573712Y-126076142D01*
X126579385Y-126075546D01*
X126579389Y-126075545D01*
X126585956Y-126074855D01*
X126649581Y-126054182D01*
X126655906Y-126052309D01*
X126663359Y-126050312D01*
X126720524Y-126034994D01*
X126732616Y-126028833D01*
X126750875Y-126021270D01*
X126763785Y-126017075D01*
X126821724Y-125983624D01*
X126827520Y-125980477D01*
X126887125Y-125950107D01*
X126897670Y-125941568D01*
X126913955Y-125930375D01*
X126920002Y-125926884D01*
X126920005Y-125926881D01*
X126925715Y-125923585D01*
X126930615Y-125919173D01*
X126930619Y-125919170D01*
X126965407Y-125887846D01*
X126975432Y-125878819D01*
X126980446Y-125874537D01*
X126993441Y-125864014D01*
X126996006Y-125861937D01*
X127010153Y-125847790D01*
X127014937Y-125843249D01*
X127059766Y-125802885D01*
X127059767Y-125802883D01*
X127064669Y-125798470D01*
X127072652Y-125787482D01*
X127085489Y-125772454D01*
X129031538Y-123826405D01*
X129093850Y-123792379D01*
X129120633Y-123789500D01*
X160579367Y-123789500D01*
X160647488Y-123809502D01*
X160668462Y-123826405D01*
X161073595Y-124231538D01*
X161107621Y-124293850D01*
X161110500Y-124320633D01*
X161110500Y-125520075D01*
X161108949Y-125539785D01*
X161106826Y-125553190D01*
X161107171Y-125559778D01*
X161107171Y-125559782D01*
X161110327Y-125619999D01*
X161110500Y-125626593D01*
X161110500Y-125646620D01*
X161110844Y-125649891D01*
X161110844Y-125649895D01*
X161112593Y-125666539D01*
X161113110Y-125673113D01*
X161116265Y-125733316D01*
X161116611Y-125739915D01*
X161118320Y-125746292D01*
X161118320Y-125746293D01*
X161120124Y-125753023D01*
X161123728Y-125772470D01*
X161125145Y-125785956D01*
X161131722Y-125806197D01*
X161145818Y-125849582D01*
X161147691Y-125855906D01*
X161165006Y-125920524D01*
X161171167Y-125932616D01*
X161178730Y-125950875D01*
X161182925Y-125963785D01*
X161196465Y-125987237D01*
X161216376Y-126021724D01*
X161219523Y-126027520D01*
X161249893Y-126087125D01*
X161258432Y-126097670D01*
X161269625Y-126113955D01*
X161273116Y-126120002D01*
X161273119Y-126120005D01*
X161276415Y-126125715D01*
X161280827Y-126130615D01*
X161280830Y-126130619D01*
X161305687Y-126158224D01*
X161320571Y-126174754D01*
X161321175Y-126175425D01*
X161325463Y-126180446D01*
X161338063Y-126196006D01*
X161352210Y-126210153D01*
X161356751Y-126214937D01*
X161386400Y-126247865D01*
X161401530Y-126264669D01*
X161412518Y-126272652D01*
X161427546Y-126285489D01*
X162314511Y-127172454D01*
X162327348Y-127187482D01*
X162335331Y-127198470D01*
X162340233Y-127202883D01*
X162340234Y-127202885D01*
X162385063Y-127243249D01*
X162389847Y-127247790D01*
X162403994Y-127261937D01*
X162406559Y-127264014D01*
X162419554Y-127274537D01*
X162424575Y-127278825D01*
X162469381Y-127319170D01*
X162469385Y-127319173D01*
X162474285Y-127323585D01*
X162479995Y-127326881D01*
X162479998Y-127326884D01*
X162486045Y-127330375D01*
X162502330Y-127341568D01*
X162512875Y-127350107D01*
X162570337Y-127379385D01*
X162572480Y-127380477D01*
X162578276Y-127383624D01*
X162636215Y-127417075D01*
X162649125Y-127421270D01*
X162667384Y-127428833D01*
X162679476Y-127434994D01*
X162733917Y-127449582D01*
X162744094Y-127452309D01*
X162750419Y-127454182D01*
X162814044Y-127474855D01*
X162820611Y-127475545D01*
X162820615Y-127475546D01*
X162826288Y-127476142D01*
X162827530Y-127476272D01*
X162846972Y-127479875D01*
X162860085Y-127483389D01*
X162866682Y-127483735D01*
X162866684Y-127483735D01*
X162926887Y-127486890D01*
X162933461Y-127487407D01*
X162950105Y-127489156D01*
X162950109Y-127489156D01*
X162953380Y-127489500D01*
X162973407Y-127489500D01*
X162980001Y-127489673D01*
X163040218Y-127492829D01*
X163040222Y-127492829D01*
X163046810Y-127493174D01*
X163053325Y-127492142D01*
X163053327Y-127492142D01*
X163060214Y-127491051D01*
X163079925Y-127489500D01*
X164386724Y-127489500D01*
X164451994Y-127507724D01*
X164474799Y-127521535D01*
X164474804Y-127521537D01*
X164481301Y-127525472D01*
X164488548Y-127527743D01*
X164488550Y-127527744D01*
X164532280Y-127541448D01*
X164644938Y-127576753D01*
X164718365Y-127583500D01*
X164721263Y-127583500D01*
X164975665Y-127583499D01*
X165231634Y-127583499D01*
X165234492Y-127583236D01*
X165234501Y-127583236D01*
X165270004Y-127579974D01*
X165305062Y-127576753D01*
X165346443Y-127563785D01*
X165461450Y-127527744D01*
X165461452Y-127527743D01*
X165468699Y-127525472D01*
X165615381Y-127436639D01*
X165710905Y-127341115D01*
X165773217Y-127307089D01*
X165844032Y-127312154D01*
X165889095Y-127341115D01*
X165984619Y-127436639D01*
X166131301Y-127525472D01*
X166138548Y-127527743D01*
X166138550Y-127527744D01*
X166182280Y-127541448D01*
X166294938Y-127576753D01*
X166368365Y-127583500D01*
X166371263Y-127583500D01*
X166625665Y-127583499D01*
X166881634Y-127583499D01*
X166884492Y-127583236D01*
X166884501Y-127583236D01*
X166920004Y-127579974D01*
X166955062Y-127576753D01*
X166996443Y-127563785D01*
X167111450Y-127527744D01*
X167111452Y-127527743D01*
X167118699Y-127525472D01*
X167125196Y-127521537D01*
X167125201Y-127521535D01*
X167148006Y-127507724D01*
X167213276Y-127489500D01*
X167701881Y-127489500D01*
X167728078Y-127492253D01*
X167798056Y-127507128D01*
X167798061Y-127507128D01*
X167804513Y-127508500D01*
X167929367Y-127508500D01*
X167997488Y-127528502D01*
X168043981Y-127582158D01*
X168054085Y-127652432D01*
X168024591Y-127717012D01*
X168018462Y-127723595D01*
X167418462Y-128323595D01*
X167356150Y-128357621D01*
X167329367Y-128360500D01*
X153234500Y-128360500D01*
X153166379Y-128340498D01*
X153119886Y-128286842D01*
X153108500Y-128234500D01*
X153108500Y-127153672D01*
X153108192Y-127147592D01*
X153105682Y-127135142D01*
X153070318Y-126959755D01*
X153070317Y-126959752D01*
X153069100Y-126953716D01*
X152993095Y-126771127D01*
X152989668Y-126766008D01*
X152989666Y-126766004D01*
X152886504Y-126611901D01*
X152886500Y-126611896D01*
X152883073Y-126606777D01*
X152743223Y-126466927D01*
X152738104Y-126463500D01*
X152738099Y-126463496D01*
X152583996Y-126360334D01*
X152583992Y-126360332D01*
X152578873Y-126356905D01*
X152396284Y-126280900D01*
X152390248Y-126279683D01*
X152390245Y-126279682D01*
X152206996Y-126242733D01*
X152206995Y-126242733D01*
X152202408Y-126241808D01*
X152196328Y-126241500D01*
X146003672Y-126241500D01*
X145997592Y-126241808D01*
X145993005Y-126242733D01*
X145993004Y-126242733D01*
X145809755Y-126279682D01*
X145809752Y-126279683D01*
X145803716Y-126280900D01*
X145621127Y-126356905D01*
X145616008Y-126360332D01*
X145616004Y-126360334D01*
X145461901Y-126463496D01*
X145461896Y-126463500D01*
X145456777Y-126466927D01*
X145316927Y-126606777D01*
X145313500Y-126611896D01*
X145313496Y-126611901D01*
X145210334Y-126766004D01*
X145210332Y-126766008D01*
X145206905Y-126771127D01*
X145130900Y-126953716D01*
X145129683Y-126959752D01*
X145129682Y-126959755D01*
X145094318Y-127135142D01*
X145091808Y-127147592D01*
X145091500Y-127153672D01*
X145091500Y-131346328D01*
X145091808Y-131352408D01*
X145130900Y-131546284D01*
X145206905Y-131728873D01*
X145210332Y-131733992D01*
X145210334Y-131733996D01*
X145313496Y-131888099D01*
X145313500Y-131888104D01*
X145316927Y-131893223D01*
X145456777Y-132033073D01*
X145461896Y-132036500D01*
X145461901Y-132036504D01*
X145616004Y-132139666D01*
X145616008Y-132139668D01*
X145621127Y-132143095D01*
X145803716Y-132219100D01*
X145809752Y-132220317D01*
X145809755Y-132220318D01*
X145993004Y-132257267D01*
X145997592Y-132258192D01*
X146003672Y-132258500D01*
X147869861Y-132258500D01*
X147937982Y-132278502D01*
X147984475Y-132332158D01*
X147994579Y-132402432D01*
X147985187Y-132435153D01*
X147980584Y-132442521D01*
X147978156Y-132451160D01*
X147978155Y-132451163D01*
X147975083Y-132462094D01*
X147967838Y-132481551D01*
X147963016Y-132491821D01*
X147963015Y-132491824D01*
X147959201Y-132499948D01*
X147957820Y-132508817D01*
X147953841Y-132534371D01*
X147950643Y-132549069D01*
X147943648Y-132573964D01*
X147943648Y-132573967D01*
X147941219Y-132582610D01*
X147941559Y-132614843D01*
X147941993Y-132655931D01*
X147942000Y-132657261D01*
X147942000Y-137700672D01*
X147940500Y-137720056D01*
X147936814Y-137743730D01*
X147937978Y-137752632D01*
X147937978Y-137752634D01*
X147938805Y-137758959D01*
X147939548Y-137784287D01*
X147927457Y-137953343D01*
X147924899Y-137971137D01*
X147883480Y-138161538D01*
X147878414Y-138178788D01*
X147810318Y-138361358D01*
X147802851Y-138377710D01*
X147709469Y-138548729D01*
X147699752Y-138563848D01*
X147642016Y-138640975D01*
X147582977Y-138719842D01*
X147571204Y-138733428D01*
X147433428Y-138871204D01*
X147419841Y-138882977D01*
X147263848Y-138999752D01*
X147248734Y-139009466D01*
X147143020Y-139067190D01*
X147077710Y-139102851D01*
X147061358Y-139110318D01*
X146878788Y-139178414D01*
X146861540Y-139183479D01*
X146698022Y-139219051D01*
X146671137Y-139224899D01*
X146653342Y-139227457D01*
X146604443Y-139230954D01*
X146491369Y-139239041D01*
X146473467Y-139238297D01*
X146465142Y-139238195D01*
X146456270Y-139236814D01*
X146447368Y-139237978D01*
X146447365Y-139237978D01*
X146424749Y-139240936D01*
X146408411Y-139242000D01*
X140499328Y-139242000D01*
X140479943Y-139240500D01*
X140479661Y-139240456D01*
X140477117Y-139240060D01*
X140465141Y-139238195D01*
X140465139Y-139238195D01*
X140456270Y-139236814D01*
X140447368Y-139237978D01*
X140447366Y-139237978D01*
X140441041Y-139238805D01*
X140415718Y-139239548D01*
X140246657Y-139227457D01*
X140228863Y-139224899D01*
X140201978Y-139219051D01*
X140038460Y-139183479D01*
X140021212Y-139178414D01*
X139838642Y-139110318D01*
X139822290Y-139102851D01*
X139756980Y-139067190D01*
X139651266Y-139009466D01*
X139636152Y-138999752D01*
X139480159Y-138882977D01*
X139466572Y-138871204D01*
X139328796Y-138733428D01*
X139317023Y-138719842D01*
X139257984Y-138640975D01*
X139200248Y-138563848D01*
X139190531Y-138548729D01*
X139097149Y-138377710D01*
X139089682Y-138361358D01*
X139021586Y-138178788D01*
X139016520Y-138161538D01*
X138975101Y-137971137D01*
X138972543Y-137953342D01*
X138960959Y-137791371D01*
X138961703Y-137773467D01*
X138961805Y-137765142D01*
X138963186Y-137756270D01*
X138961547Y-137743730D01*
X138959064Y-137724749D01*
X138958000Y-137708411D01*
X138958000Y-132770944D01*
X138958258Y-132762883D01*
X138961081Y-132718852D01*
X138961081Y-132718849D01*
X138961655Y-132709892D01*
X138951169Y-132663105D01*
X138949392Y-132653411D01*
X138943869Y-132614843D01*
X138943867Y-132614835D01*
X138942595Y-132605955D01*
X138938879Y-132597783D01*
X138937522Y-132593143D01*
X138933516Y-132581197D01*
X138931794Y-132576661D01*
X138929831Y-132567899D01*
X138906636Y-132525937D01*
X138902213Y-132517139D01*
X138886083Y-132481662D01*
X138886081Y-132481660D01*
X138882367Y-132473490D01*
X138876508Y-132466690D01*
X138873921Y-132462645D01*
X138862906Y-132446825D01*
X138862784Y-132446605D01*
X138861892Y-132444990D01*
X138846420Y-132375702D01*
X138870865Y-132309046D01*
X138927466Y-132266188D01*
X138972146Y-132258000D01*
X141194681Y-132258000D01*
X141197733Y-132257923D01*
X141206945Y-132256767D01*
X141390091Y-132219838D01*
X141401833Y-132216248D01*
X141572943Y-132145022D01*
X141583759Y-132139222D01*
X141737779Y-132036115D01*
X141747266Y-132028322D01*
X141878322Y-131897266D01*
X141886115Y-131887779D01*
X141989222Y-131733759D01*
X141995022Y-131722943D01*
X142066248Y-131551833D01*
X142069838Y-131540091D01*
X142106767Y-131356945D01*
X142107923Y-131347733D01*
X142108000Y-131344681D01*
X142108000Y-129522115D01*
X142103525Y-129506876D01*
X142102135Y-129505671D01*
X142094452Y-129504000D01*
X134110115Y-129504000D01*
X134094876Y-129508475D01*
X134093671Y-129509865D01*
X134092000Y-129517548D01*
X134092000Y-131344681D01*
X134092077Y-131347733D01*
X134093233Y-131356945D01*
X134130162Y-131540091D01*
X134133752Y-131551833D01*
X134204978Y-131722943D01*
X134210778Y-131733759D01*
X134244654Y-131784363D01*
X134265928Y-131852097D01*
X134247205Y-131920580D01*
X134194429Y-131968070D01*
X134131181Y-131980150D01*
X130739358Y-131743511D01*
X130737790Y-131743392D01*
X130489481Y-131722943D01*
X126505015Y-131394811D01*
X126499729Y-131394263D01*
X126060337Y-131339339D01*
X122127570Y-130847743D01*
X122121822Y-130846888D01*
X120806040Y-130620030D01*
X119250873Y-130351897D01*
X119245117Y-130350766D01*
X117308033Y-129923099D01*
X115424666Y-129507291D01*
X115418712Y-129505822D01*
X113482944Y-128977885D01*
X134092000Y-128977885D01*
X134096475Y-128993124D01*
X134097865Y-128994329D01*
X134105548Y-128996000D01*
X137827885Y-128996000D01*
X137843124Y-128991525D01*
X137844329Y-128990135D01*
X137846000Y-128982452D01*
X137846000Y-128977885D01*
X138354000Y-128977885D01*
X138358475Y-128993124D01*
X138359865Y-128994329D01*
X138367548Y-128996000D01*
X142089885Y-128996000D01*
X142105124Y-128991525D01*
X142106329Y-128990135D01*
X142108000Y-128982452D01*
X142108000Y-127155319D01*
X142107923Y-127152267D01*
X142106767Y-127143055D01*
X142069838Y-126959909D01*
X142066248Y-126948167D01*
X141995022Y-126777057D01*
X141989222Y-126766241D01*
X141886115Y-126612221D01*
X141878322Y-126602734D01*
X141747266Y-126471678D01*
X141737779Y-126463885D01*
X141583759Y-126360778D01*
X141572943Y-126354978D01*
X141401833Y-126283752D01*
X141390091Y-126280162D01*
X141206945Y-126243233D01*
X141197733Y-126242077D01*
X141194681Y-126242000D01*
X138372115Y-126242000D01*
X138356876Y-126246475D01*
X138355671Y-126247865D01*
X138354000Y-126255548D01*
X138354000Y-128977885D01*
X137846000Y-128977885D01*
X137846000Y-126260115D01*
X137841525Y-126244876D01*
X137840135Y-126243671D01*
X137832452Y-126242000D01*
X135005319Y-126242000D01*
X135002267Y-126242077D01*
X134993055Y-126243233D01*
X134809909Y-126280162D01*
X134798167Y-126283752D01*
X134627057Y-126354978D01*
X134616241Y-126360778D01*
X134462221Y-126463885D01*
X134452734Y-126471678D01*
X134321678Y-126602734D01*
X134313885Y-126612221D01*
X134210778Y-126766241D01*
X134204978Y-126777057D01*
X134133752Y-126948167D01*
X134130162Y-126959909D01*
X134093233Y-127143055D01*
X134092077Y-127152267D01*
X134092000Y-127155319D01*
X134092000Y-128977885D01*
X113482944Y-128977885D01*
X112150639Y-128614529D01*
X112143947Y-128612503D01*
X111583730Y-128425764D01*
X108733740Y-127475768D01*
X108724705Y-127472366D01*
X106918397Y-126711815D01*
X106863377Y-126666947D01*
X106841349Y-126599454D01*
X106859307Y-126530766D01*
X106871626Y-126513691D01*
X106981980Y-126384944D01*
X106983473Y-126383233D01*
X107092911Y-126260115D01*
X108554140Y-124616234D01*
X108557435Y-124612737D01*
X108560425Y-124610172D01*
X108582155Y-124584753D01*
X108583701Y-124582978D01*
X108603918Y-124560234D01*
X108606090Y-124556950D01*
X108609240Y-124553067D01*
X108632340Y-124526045D01*
X109869901Y-123078332D01*
X111210627Y-121509937D01*
X111210989Y-121509544D01*
X111211433Y-121509161D01*
X111236551Y-121479611D01*
X111259844Y-121452362D01*
X111260161Y-121451862D01*
X111260484Y-121451455D01*
X113785041Y-118481387D01*
X113785828Y-118480470D01*
X115708678Y-116261795D01*
X115710670Y-116259640D01*
X115712738Y-116257843D01*
X115715875Y-116254125D01*
X115715883Y-116254117D01*
X115735593Y-116230757D01*
X115736676Y-116229490D01*
X115746796Y-116217813D01*
X115757780Y-116205139D01*
X115759260Y-116202839D01*
X115761115Y-116200507D01*
X115788036Y-116168601D01*
X118412825Y-113057740D01*
X118412926Y-113057630D01*
X118413082Y-113057494D01*
X118413461Y-113057044D01*
X118413471Y-113057033D01*
X118438265Y-113027589D01*
X118438343Y-113027497D01*
X118446738Y-113017547D01*
X118461783Y-112999716D01*
X118461894Y-112999538D01*
X118461994Y-112999411D01*
X120002545Y-111170007D01*
X120823735Y-110194844D01*
X120829720Y-110188228D01*
X120838270Y-110179424D01*
X120841664Y-110175929D01*
X120849217Y-110165267D01*
X120855648Y-110156949D01*
X120859177Y-110152758D01*
X120859188Y-110152742D01*
X120862071Y-110149319D01*
X120871602Y-110134036D01*
X120875686Y-110127898D01*
X121709552Y-108950677D01*
X121711571Y-108947907D01*
X122563157Y-107812457D01*
X122571089Y-107804053D01*
X122570617Y-107803633D01*
X122576582Y-107796928D01*
X122583440Y-107791134D01*
X122613729Y-107745387D01*
X122617981Y-107739358D01*
X122625594Y-107729207D01*
X122628286Y-107725618D01*
X122632795Y-107717389D01*
X122638234Y-107708378D01*
X122658820Y-107677286D01*
X122658821Y-107677283D01*
X122663774Y-107669803D01*
X122666429Y-107661230D01*
X122666545Y-107660986D01*
X122676078Y-107638491D01*
X122676190Y-107638192D01*
X122680503Y-107630321D01*
X122690447Y-107585170D01*
X122693138Y-107574995D01*
X122704168Y-107539380D01*
X122704168Y-107539377D01*
X122706824Y-107530803D01*
X122706966Y-107521828D01*
X122707016Y-107521517D01*
X122709848Y-107497280D01*
X122709871Y-107496972D01*
X122711800Y-107488212D01*
X122711100Y-107477882D01*
X122710720Y-107472286D01*
X122708670Y-107442055D01*
X122708397Y-107431544D01*
X122708490Y-107425715D01*
X122709130Y-107385306D01*
X122706747Y-107376651D01*
X122706710Y-107376358D01*
X122702623Y-107352285D01*
X122702561Y-107351993D01*
X122701953Y-107343031D01*
X122686001Y-107299628D01*
X122682785Y-107289604D01*
X122672892Y-107253668D01*
X122670509Y-107245011D01*
X122665790Y-107237368D01*
X122665670Y-107237093D01*
X122654998Y-107215147D01*
X122654849Y-107214871D01*
X122651754Y-107206449D01*
X122646420Y-107199235D01*
X122646416Y-107199228D01*
X122624258Y-107169262D01*
X122618359Y-107160545D01*
X122598782Y-107128837D01*
X122598779Y-107128834D01*
X122594063Y-107121195D01*
X122587391Y-107115186D01*
X122587192Y-107114947D01*
X122570784Y-107096874D01*
X122570575Y-107096662D01*
X122565239Y-107089446D01*
X122528408Y-107061469D01*
X122520299Y-107054757D01*
X122492611Y-107029819D01*
X122492610Y-107029818D01*
X122485939Y-107023810D01*
X122477848Y-107019915D01*
X122477592Y-107019743D01*
X122456778Y-107007006D01*
X122456514Y-107006859D01*
X122449364Y-107001428D01*
X122406166Y-106984915D01*
X122396507Y-106980753D01*
X122385200Y-106975309D01*
X122380540Y-106973897D01*
X122380538Y-106973896D01*
X122369375Y-106970513D01*
X122360927Y-106967622D01*
X122321830Y-106952677D01*
X122321826Y-106952676D01*
X122313441Y-106949471D01*
X122304492Y-106948748D01*
X122295744Y-106946765D01*
X122295768Y-106946659D01*
X122282097Y-106944065D01*
X120702725Y-106465468D01*
X120700584Y-106464798D01*
X119173121Y-105972068D01*
X117626618Y-105473196D01*
X117618510Y-105470271D01*
X117551775Y-105443577D01*
X115679538Y-104694683D01*
X115663824Y-104687095D01*
X115621219Y-104662749D01*
X115571998Y-104611585D01*
X115558252Y-104541932D01*
X115582407Y-104478458D01*
X115583707Y-104476700D01*
X115994566Y-103920831D01*
X116000383Y-103913542D01*
X116165943Y-103721134D01*
X117809219Y-101811381D01*
X117813379Y-101807144D01*
X117813201Y-101806976D01*
X117816543Y-101803440D01*
X117820153Y-101800167D01*
X117838925Y-101776949D01*
X117841397Y-101773986D01*
X117855930Y-101757096D01*
X117855934Y-101757091D01*
X117858861Y-101753689D01*
X117861275Y-101749908D01*
X117863950Y-101746311D01*
X117864058Y-101746391D01*
X117867537Y-101741560D01*
X119742833Y-99422115D01*
X119743713Y-99421039D01*
X121321618Y-97512875D01*
X121866305Y-96854183D01*
X121866363Y-96854119D01*
X121866443Y-96854048D01*
X121891592Y-96823605D01*
X121914733Y-96795620D01*
X121914789Y-96795529D01*
X121914842Y-96795460D01*
X122189437Y-96463056D01*
X123791058Y-94524250D01*
X125740280Y-92175187D01*
X128014662Y-89455818D01*
X128018886Y-89451021D01*
X128019984Y-89449836D01*
X128023562Y-89446528D01*
X128026585Y-89442714D01*
X128026589Y-89442709D01*
X128042942Y-89422073D01*
X128045041Y-89419495D01*
X128060194Y-89401377D01*
X128063077Y-89397930D01*
X128065442Y-89394109D01*
X128067301Y-89391535D01*
X128070700Y-89387044D01*
X130129145Y-86789484D01*
X130137008Y-86780475D01*
X130143474Y-86773742D01*
X130155370Y-86756748D01*
X130159836Y-86750755D01*
X130168008Y-86740443D01*
X130168014Y-86740434D01*
X130170798Y-86736921D01*
X130175902Y-86728168D01*
X130181516Y-86719396D01*
X130201044Y-86691500D01*
X131175465Y-85299469D01*
X131181283Y-85292028D01*
X131186981Y-85287112D01*
X131220860Y-85234764D01*
X131223409Y-85230978D01*
X131234512Y-85215116D01*
X131234512Y-85215115D01*
X131237088Y-85211436D01*
X131239115Y-85207431D01*
X131241416Y-85203588D01*
X131241446Y-85203606D01*
X131244773Y-85197814D01*
X131261167Y-85172483D01*
X131266043Y-85164949D01*
X131268607Y-85156355D01*
X131268610Y-85156348D01*
X131270617Y-85149619D01*
X131278932Y-85128751D01*
X131282100Y-85122490D01*
X131286154Y-85114479D01*
X131293316Y-85075993D01*
X131296442Y-85063044D01*
X131307640Y-85025507D01*
X131307727Y-85009512D01*
X131309851Y-84987149D01*
X131311135Y-84980246D01*
X131311135Y-84980245D01*
X131312777Y-84971421D01*
X131308849Y-84932465D01*
X131308215Y-84919146D01*
X131308356Y-84893082D01*
X131308427Y-84879994D01*
X131304020Y-84864613D01*
X131299783Y-84842560D01*
X131298178Y-84826640D01*
X131283476Y-84790357D01*
X131279130Y-84777752D01*
X131270816Y-84748740D01*
X131268343Y-84740109D01*
X131263545Y-84732516D01*
X131259795Y-84726581D01*
X131249534Y-84706593D01*
X131246902Y-84700098D01*
X131246901Y-84700096D01*
X131243530Y-84691777D01*
X131219239Y-84661083D01*
X131211532Y-84650208D01*
X131190609Y-84617098D01*
X131183878Y-84611162D01*
X131183875Y-84611158D01*
X131178612Y-84606517D01*
X131163154Y-84590213D01*
X131153228Y-84577671D01*
X131145904Y-84572477D01*
X131121293Y-84555024D01*
X131110844Y-84546751D01*
X131081474Y-84520848D01*
X131066990Y-84514060D01*
X131047575Y-84502748D01*
X131041858Y-84498694D01*
X131034531Y-84493498D01*
X131026039Y-84490567D01*
X130997527Y-84480726D01*
X130985164Y-84475712D01*
X130984647Y-84475470D01*
X130984645Y-84475469D01*
X130980234Y-84473402D01*
X130975563Y-84472039D01*
X130975556Y-84472037D01*
X130957816Y-84466863D01*
X130951996Y-84465011D01*
X130896978Y-84446022D01*
X130888008Y-84445592D01*
X130884631Y-84444942D01*
X130873163Y-84442172D01*
X130180749Y-84240218D01*
X129779123Y-84123077D01*
X129775755Y-84121981D01*
X129772860Y-84120678D01*
X129739473Y-84111497D01*
X129737602Y-84110967D01*
X129711516Y-84103358D01*
X129711510Y-84103357D01*
X129707222Y-84102106D01*
X129704088Y-84101659D01*
X129700530Y-84100787D01*
X127739691Y-83561556D01*
X127737708Y-83560993D01*
X125708504Y-82967079D01*
X125702274Y-82965078D01*
X125535136Y-82906581D01*
X125477447Y-82865199D01*
X125451289Y-82799197D01*
X125464967Y-82729530D01*
X125475958Y-82712056D01*
X125489167Y-82694444D01*
X125545452Y-82619396D01*
X125549766Y-82613965D01*
X125560963Y-82600639D01*
X125560973Y-82600626D01*
X125564101Y-82596902D01*
X125568299Y-82589966D01*
X125575289Y-82579614D01*
X125578286Y-82575618D01*
X125589441Y-82555261D01*
X125592146Y-82550568D01*
X133759329Y-69056961D01*
X133857708Y-68894422D01*
X133910092Y-68846503D01*
X133980068Y-68834511D01*
X134045420Y-68862255D01*
X134085397Y-68920927D01*
X134091500Y-68959666D01*
X134091500Y-72846328D01*
X134091808Y-72852408D01*
X134130900Y-73046284D01*
X134206905Y-73228873D01*
X134210332Y-73233992D01*
X134210334Y-73233996D01*
X134313496Y-73388099D01*
X134313500Y-73388104D01*
X134316927Y-73393223D01*
X134456777Y-73533073D01*
X134461896Y-73536500D01*
X134461901Y-73536504D01*
X134616004Y-73639666D01*
X134616008Y-73639668D01*
X134621127Y-73643095D01*
X134803716Y-73719100D01*
X134809752Y-73720317D01*
X134809755Y-73720318D01*
X134993004Y-73757267D01*
X134997592Y-73758192D01*
X135003672Y-73758500D01*
X141196328Y-73758500D01*
X141202408Y-73758192D01*
X141206996Y-73757267D01*
X141390245Y-73720318D01*
X141390248Y-73720317D01*
X141396284Y-73719100D01*
X141578873Y-73643095D01*
X141583992Y-73639668D01*
X141583996Y-73639666D01*
X141738099Y-73536504D01*
X141738104Y-73536500D01*
X141743223Y-73533073D01*
X141883073Y-73393223D01*
X141886500Y-73388104D01*
X141886504Y-73388099D01*
X141989666Y-73233996D01*
X141989668Y-73233992D01*
X141993095Y-73228873D01*
X142069100Y-73046284D01*
X142108192Y-72852408D01*
X142108500Y-72846328D01*
X142108500Y-68770632D01*
X142128502Y-68702511D01*
X142182158Y-68656018D01*
X142252432Y-68645914D01*
X142317012Y-68675408D01*
G37*
%TD.AperFunction*%
%TA.AperFunction,Conductor*%
G36*
X173854402Y-118970414D02*
G01*
X173867434Y-118983966D01*
X174363301Y-119583365D01*
X174370289Y-119591812D01*
X174398299Y-119657049D01*
X174386592Y-119727074D01*
X174352498Y-119770047D01*
X174025403Y-120034923D01*
X173981329Y-120079305D01*
X173977325Y-120086116D01*
X173912059Y-120197137D01*
X173912057Y-120197141D01*
X173907512Y-120204873D01*
X173871905Y-120346111D01*
X173872242Y-120355084D01*
X173876822Y-120477085D01*
X173877369Y-120491666D01*
X173923466Y-120629837D01*
X173927746Y-120636479D01*
X173927747Y-120636480D01*
X173945862Y-120664588D01*
X173957349Y-120682412D01*
X173959503Y-120685072D01*
X174644973Y-121531557D01*
X174647253Y-121534373D01*
X174691635Y-121578446D01*
X174735567Y-121604272D01*
X174809467Y-121647716D01*
X174809471Y-121647718D01*
X174817203Y-121652263D01*
X174825902Y-121654456D01*
X174825904Y-121654457D01*
X174922807Y-121678887D01*
X174958441Y-121687871D01*
X175020954Y-121685524D01*
X175095023Y-121682743D01*
X175095024Y-121682743D01*
X175103995Y-121682406D01*
X175242167Y-121636309D01*
X175248800Y-121632035D01*
X175248803Y-121632033D01*
X175291880Y-121604272D01*
X175291887Y-121604267D01*
X175294742Y-121602427D01*
X175319416Y-121582447D01*
X175640305Y-121322596D01*
X175705832Y-121295270D01*
X175775731Y-121307710D01*
X175816683Y-121340200D01*
X178959528Y-125139245D01*
X179604216Y-125918538D01*
X179605921Y-125920644D01*
X180075889Y-126514288D01*
X180102489Y-126580114D01*
X180089279Y-126649870D01*
X180035382Y-126704207D01*
X179584913Y-126939234D01*
X179576870Y-126943075D01*
X179552396Y-126953716D01*
X178452569Y-127431902D01*
X178450578Y-127432746D01*
X178224232Y-127526406D01*
X177023934Y-128023080D01*
X177016623Y-128025843D01*
X175301868Y-128613760D01*
X175295207Y-128615840D01*
X173369843Y-129158891D01*
X173366762Y-129159718D01*
X172101099Y-129482339D01*
X170834651Y-129805160D01*
X170830639Y-129806112D01*
X169725864Y-130049162D01*
X168346785Y-130352558D01*
X168344423Y-130353054D01*
X167359207Y-130550098D01*
X166371064Y-130747727D01*
X166362813Y-130749093D01*
X164486578Y-130995966D01*
X164485491Y-130996105D01*
X162041658Y-131295350D01*
X162040417Y-131295494D01*
X160846372Y-131428166D01*
X160249163Y-131494522D01*
X160247083Y-131494736D01*
X159154369Y-131597823D01*
X157606768Y-131743823D01*
X157605072Y-131743971D01*
X155120353Y-131942749D01*
X155116036Y-131943020D01*
X154591329Y-131966870D01*
X153027805Y-132037938D01*
X152958847Y-132021050D01*
X152909965Y-131969561D01*
X152896681Y-131899818D01*
X152917380Y-131841975D01*
X152989666Y-131733996D01*
X152989668Y-131733992D01*
X152993095Y-131728873D01*
X153069100Y-131546284D01*
X153108192Y-131352408D01*
X153108500Y-131346328D01*
X153108500Y-130265500D01*
X153128502Y-130197379D01*
X153182158Y-130150886D01*
X153234500Y-130139500D01*
X167670075Y-130139500D01*
X167689786Y-130141051D01*
X167696673Y-130142142D01*
X167696675Y-130142142D01*
X167703190Y-130143174D01*
X167709778Y-130142829D01*
X167709782Y-130142829D01*
X167769999Y-130139673D01*
X167776593Y-130139500D01*
X167796620Y-130139500D01*
X167799891Y-130139156D01*
X167799895Y-130139156D01*
X167816539Y-130137407D01*
X167823113Y-130136890D01*
X167883316Y-130133735D01*
X167883318Y-130133735D01*
X167889915Y-130133389D01*
X167903028Y-130129875D01*
X167922470Y-130126272D01*
X167923712Y-130126142D01*
X167929385Y-130125546D01*
X167929389Y-130125545D01*
X167935956Y-130124855D01*
X167999581Y-130104182D01*
X168005906Y-130102309D01*
X168013359Y-130100312D01*
X168070524Y-130084994D01*
X168082616Y-130078833D01*
X168100875Y-130071270D01*
X168113785Y-130067075D01*
X168171724Y-130033624D01*
X168177520Y-130030477D01*
X168237125Y-130000107D01*
X168247670Y-129991568D01*
X168263955Y-129980375D01*
X168270002Y-129976884D01*
X168270005Y-129976881D01*
X168275715Y-129973585D01*
X168280615Y-129969173D01*
X168280619Y-129969170D01*
X168325425Y-129928825D01*
X168330446Y-129924537D01*
X168343441Y-129914014D01*
X168346006Y-129911937D01*
X168360153Y-129897790D01*
X168364937Y-129893249D01*
X168409766Y-129852885D01*
X168409767Y-129852883D01*
X168414669Y-129848470D01*
X168422652Y-129837482D01*
X168435489Y-129822454D01*
X170372454Y-127885489D01*
X170387482Y-127872652D01*
X170398470Y-127864669D01*
X170419134Y-127841720D01*
X170443249Y-127814937D01*
X170447790Y-127810153D01*
X170461937Y-127796006D01*
X170474537Y-127780446D01*
X170478825Y-127775425D01*
X170519170Y-127730619D01*
X170519173Y-127730615D01*
X170523585Y-127725715D01*
X170526881Y-127720005D01*
X170526884Y-127720002D01*
X170530375Y-127713955D01*
X170541568Y-127697670D01*
X170545950Y-127692258D01*
X170550107Y-127687125D01*
X170580477Y-127627520D01*
X170583624Y-127621724D01*
X170587104Y-127615697D01*
X170617075Y-127563785D01*
X170621270Y-127550875D01*
X170628833Y-127532616D01*
X170634994Y-127520524D01*
X170652309Y-127455906D01*
X170654182Y-127449582D01*
X170672813Y-127392240D01*
X170674855Y-127385956D01*
X170676272Y-127372470D01*
X170679876Y-127353023D01*
X170681680Y-127346293D01*
X170681680Y-127346292D01*
X170683389Y-127339915D01*
X170685109Y-127307089D01*
X170686890Y-127273113D01*
X170687407Y-127266539D01*
X170689156Y-127249895D01*
X170689156Y-127249891D01*
X170689500Y-127246620D01*
X170689500Y-127226593D01*
X170689673Y-127219999D01*
X170692829Y-127159782D01*
X170692829Y-127159778D01*
X170693174Y-127153190D01*
X170691051Y-127139785D01*
X170689500Y-127120075D01*
X170689500Y-122103507D01*
X170709502Y-122035386D01*
X170763158Y-121988893D01*
X170833432Y-121978789D01*
X170898012Y-122008283D01*
X170913419Y-122024212D01*
X170946453Y-122065006D01*
X171142307Y-122306865D01*
X171177168Y-122349915D01*
X171221550Y-122393988D01*
X171347118Y-122467805D01*
X171488355Y-122503413D01*
X171561132Y-122500681D01*
X171624938Y-122498285D01*
X171624939Y-122498285D01*
X171633910Y-122497948D01*
X171642426Y-122495107D01*
X171764582Y-122454354D01*
X171764583Y-122454353D01*
X171772081Y-122451852D01*
X171778724Y-122447571D01*
X171778728Y-122447569D01*
X171821777Y-122419825D01*
X171824657Y-122417969D01*
X172146112Y-122157660D01*
X172211639Y-122130334D01*
X172281537Y-122142774D01*
X172323326Y-122176286D01*
X172586451Y-122501218D01*
X172929761Y-122925171D01*
X172974143Y-122969244D01*
X173018075Y-122995070D01*
X173091975Y-123038514D01*
X173091979Y-123038516D01*
X173099711Y-123043061D01*
X173108410Y-123045254D01*
X173108412Y-123045255D01*
X173205315Y-123069685D01*
X173240949Y-123078669D01*
X173303462Y-123076322D01*
X173377531Y-123073541D01*
X173377532Y-123073541D01*
X173386503Y-123073204D01*
X173524675Y-123027107D01*
X173531308Y-123022833D01*
X173531311Y-123022831D01*
X173574388Y-122995070D01*
X173574395Y-122995065D01*
X173577250Y-122993225D01*
X173601924Y-122973245D01*
X174182533Y-122503076D01*
X174273781Y-122429185D01*
X174317855Y-122384803D01*
X174336954Y-122352315D01*
X174387125Y-122266971D01*
X174387127Y-122266967D01*
X174391672Y-122259235D01*
X174427279Y-122117997D01*
X174423793Y-122025145D01*
X174422152Y-121981414D01*
X174422152Y-121981413D01*
X174421815Y-121972442D01*
X174375718Y-121834271D01*
X174341835Y-121781696D01*
X174264080Y-121685676D01*
X173654079Y-120932387D01*
X173654075Y-120932382D01*
X173651931Y-120929735D01*
X173607549Y-120885662D01*
X173550555Y-120852157D01*
X173489717Y-120816392D01*
X173489713Y-120816390D01*
X173481981Y-120811845D01*
X173473282Y-120809652D01*
X173473280Y-120809651D01*
X173349449Y-120778432D01*
X173349450Y-120778432D01*
X173340743Y-120776237D01*
X173210460Y-120781129D01*
X173141638Y-120763697D01*
X173107817Y-120734516D01*
X173051188Y-120664585D01*
X173023864Y-120599061D01*
X173036304Y-120529162D01*
X173084559Y-120477085D01*
X173111431Y-120465060D01*
X173173889Y-120445487D01*
X173173891Y-120445486D01*
X173179980Y-120443578D01*
X173288364Y-120383499D01*
X173344710Y-120352266D01*
X173344713Y-120352264D01*
X173350289Y-120349173D01*
X173355130Y-120345024D01*
X173355134Y-120345021D01*
X173493294Y-120226603D01*
X173498137Y-120222452D01*
X173517774Y-120197137D01*
X173608554Y-120080104D01*
X173617485Y-120068590D01*
X173628874Y-120045446D01*
X173700639Y-119899599D01*
X173703457Y-119893872D01*
X173705067Y-119887692D01*
X173750931Y-119711618D01*
X173750931Y-119711615D01*
X173752541Y-119705436D01*
X173756943Y-119621446D01*
X173762398Y-119517360D01*
X173762398Y-119517356D01*
X173762732Y-119510979D01*
X173733614Y-119318444D01*
X173731411Y-119312458D01*
X173731410Y-119312452D01*
X173668579Y-119141683D01*
X173668577Y-119141678D01*
X173666376Y-119135697D01*
X173663015Y-119130276D01*
X173660215Y-119124536D01*
X173661407Y-119123955D01*
X173644370Y-119062238D01*
X173665476Y-118994451D01*
X173719880Y-118948836D01*
X173790308Y-118939875D01*
X173854402Y-118970414D01*
G37*
%TD.AperFunction*%
%TA.AperFunction,Conductor*%
G36*
X171966823Y-116712477D02*
G01*
X172019352Y-116750021D01*
X172867086Y-117774754D01*
X173561602Y-118614278D01*
X173570447Y-118624970D01*
X173598457Y-118690207D01*
X173586750Y-118760232D01*
X173539043Y-118812812D01*
X173470484Y-118831252D01*
X173401092Y-118808498D01*
X173275698Y-118720697D01*
X173270464Y-118717032D01*
X173222452Y-118696255D01*
X173097614Y-118642233D01*
X173097610Y-118642232D01*
X173091755Y-118639698D01*
X173085508Y-118638393D01*
X173085505Y-118638392D01*
X172905882Y-118600867D01*
X172905877Y-118600866D01*
X172901146Y-118599878D01*
X172894754Y-118599543D01*
X172751776Y-118599543D01*
X172686268Y-118606197D01*
X172613061Y-118613633D01*
X172613060Y-118613633D01*
X172606712Y-118614278D01*
X172550378Y-118631932D01*
X172426988Y-118670599D01*
X172426983Y-118670601D01*
X172420898Y-118672508D01*
X172345152Y-118714495D01*
X172256168Y-118763820D01*
X172256165Y-118763822D01*
X172250589Y-118766913D01*
X172245748Y-118771062D01*
X172245744Y-118771065D01*
X172122217Y-118876941D01*
X172102741Y-118893634D01*
X172098830Y-118898676D01*
X172098829Y-118898677D01*
X172059922Y-118948836D01*
X171983393Y-119047496D01*
X171980577Y-119053219D01*
X171980575Y-119053222D01*
X171979024Y-119056375D01*
X171977713Y-119057803D01*
X171977189Y-119058641D01*
X171977033Y-119058543D01*
X171931001Y-119108666D01*
X171862331Y-119126692D01*
X171794816Y-119104732D01*
X171768049Y-119080040D01*
X171753633Y-119062238D01*
X171688156Y-118981380D01*
X171643774Y-118937307D01*
X171538089Y-118875179D01*
X171525946Y-118868040D01*
X171518206Y-118863490D01*
X171376969Y-118827882D01*
X171304192Y-118830614D01*
X171240386Y-118833010D01*
X171240385Y-118833010D01*
X171231414Y-118833347D01*
X171222898Y-118836188D01*
X171100742Y-118876941D01*
X171100741Y-118876942D01*
X171093243Y-118879443D01*
X171086600Y-118883724D01*
X171086596Y-118883726D01*
X171045722Y-118910069D01*
X171040667Y-118913326D01*
X170616690Y-119256656D01*
X170594598Y-119271003D01*
X170479432Y-119329682D01*
X170479429Y-119329684D01*
X170473547Y-119332681D01*
X170364666Y-119420851D01*
X170159627Y-119625890D01*
X170149826Y-119634715D01*
X169800134Y-119917890D01*
X169756060Y-119962272D01*
X169752056Y-119969083D01*
X169686790Y-120080104D01*
X169686788Y-120080108D01*
X169682243Y-120087840D01*
X169681337Y-120091435D01*
X169655958Y-120129559D01*
X169227546Y-120557971D01*
X169212518Y-120570808D01*
X169201530Y-120578791D01*
X169197117Y-120583693D01*
X169197115Y-120583694D01*
X169156751Y-120628523D01*
X169152210Y-120633307D01*
X169138063Y-120647454D01*
X169135986Y-120650019D01*
X169125463Y-120663014D01*
X169121175Y-120668035D01*
X169080830Y-120712841D01*
X169080827Y-120712845D01*
X169076415Y-120717745D01*
X169073119Y-120723455D01*
X169073116Y-120723458D01*
X169069625Y-120729505D01*
X169058432Y-120745790D01*
X169049893Y-120756335D01*
X169019523Y-120815940D01*
X169016376Y-120821736D01*
X168982925Y-120879675D01*
X168980884Y-120885957D01*
X168978731Y-120892583D01*
X168971167Y-120910844D01*
X168965006Y-120922936D01*
X168962474Y-120932387D01*
X168947691Y-120987554D01*
X168945818Y-120993878D01*
X168925145Y-121057504D01*
X168924455Y-121064071D01*
X168924454Y-121064075D01*
X168923728Y-121070989D01*
X168920125Y-121090432D01*
X168916611Y-121103545D01*
X168916265Y-121110142D01*
X168916265Y-121110144D01*
X168913110Y-121170347D01*
X168912593Y-121176921D01*
X168910500Y-121196840D01*
X168910500Y-121216867D01*
X168910327Y-121223461D01*
X168906826Y-121290270D01*
X168907858Y-121296785D01*
X168907858Y-121296787D01*
X168908949Y-121303674D01*
X168910500Y-121323385D01*
X168910500Y-126063000D01*
X168890498Y-126131121D01*
X168836842Y-126177614D01*
X168766568Y-126187718D01*
X168701988Y-126158224D01*
X168675381Y-126126000D01*
X168642342Y-126068774D01*
X168642339Y-126068769D01*
X168639040Y-126063056D01*
X168629364Y-126052309D01*
X168515675Y-125926045D01*
X168515674Y-125926044D01*
X168511253Y-125921134D01*
X168356752Y-125808882D01*
X168350724Y-125806198D01*
X168350722Y-125806197D01*
X168188319Y-125733891D01*
X168188318Y-125733891D01*
X168182288Y-125731206D01*
X168088887Y-125711353D01*
X168001944Y-125692872D01*
X168001939Y-125692872D01*
X167995487Y-125691500D01*
X167804513Y-125691500D01*
X167798061Y-125692872D01*
X167798056Y-125692872D01*
X167728078Y-125707747D01*
X167701881Y-125710500D01*
X167213276Y-125710500D01*
X167148006Y-125692276D01*
X167125201Y-125678465D01*
X167125196Y-125678463D01*
X167118699Y-125674528D01*
X167111452Y-125672257D01*
X167111450Y-125672256D01*
X167029645Y-125646620D01*
X166955062Y-125623247D01*
X166881635Y-125616500D01*
X166878737Y-125616500D01*
X166624335Y-125616501D01*
X166368366Y-125616501D01*
X166365508Y-125616764D01*
X166365499Y-125616764D01*
X166330291Y-125619999D01*
X166294938Y-125623247D01*
X166288560Y-125625246D01*
X166288559Y-125625246D01*
X166138550Y-125672256D01*
X166138548Y-125672257D01*
X166131301Y-125674528D01*
X165984619Y-125763361D01*
X165889095Y-125858885D01*
X165826783Y-125892911D01*
X165755968Y-125887846D01*
X165710905Y-125858885D01*
X165615381Y-125763361D01*
X165468699Y-125674528D01*
X165461452Y-125672257D01*
X165461450Y-125672256D01*
X165379645Y-125646620D01*
X165305062Y-125623247D01*
X165231635Y-125616500D01*
X165228737Y-125616500D01*
X164974335Y-125616501D01*
X164718366Y-125616501D01*
X164715508Y-125616764D01*
X164715499Y-125616764D01*
X164680291Y-125619999D01*
X164644938Y-125623247D01*
X164638560Y-125625246D01*
X164638559Y-125625246D01*
X164488550Y-125672256D01*
X164488548Y-125672257D01*
X164481301Y-125674528D01*
X164474804Y-125678463D01*
X164474799Y-125678465D01*
X164451994Y-125692276D01*
X164386724Y-125710500D01*
X163420633Y-125710500D01*
X163352512Y-125690498D01*
X163331538Y-125673595D01*
X162926405Y-125268462D01*
X162892379Y-125206150D01*
X162889500Y-125179367D01*
X162889500Y-121926593D01*
X162889673Y-121919999D01*
X162892829Y-121859782D01*
X162892829Y-121859778D01*
X162893174Y-121853190D01*
X162891051Y-121839785D01*
X162889500Y-121820075D01*
X162889500Y-120920633D01*
X162909502Y-120852512D01*
X162926405Y-120831538D01*
X163431538Y-120326405D01*
X163493850Y-120292379D01*
X163520633Y-120289500D01*
X167344135Y-120289500D01*
X167363846Y-120291051D01*
X167370733Y-120292142D01*
X167370735Y-120292142D01*
X167377250Y-120293174D01*
X167383838Y-120292829D01*
X167383842Y-120292829D01*
X167444059Y-120289673D01*
X167450653Y-120289500D01*
X167470680Y-120289500D01*
X167473951Y-120289156D01*
X167473955Y-120289156D01*
X167490599Y-120287407D01*
X167497173Y-120286890D01*
X167557376Y-120283735D01*
X167557378Y-120283735D01*
X167563975Y-120283389D01*
X167577088Y-120279875D01*
X167596530Y-120276272D01*
X167597772Y-120276142D01*
X167603445Y-120275546D01*
X167603449Y-120275545D01*
X167610016Y-120274855D01*
X167673641Y-120254182D01*
X167679966Y-120252309D01*
X167687419Y-120250312D01*
X167744584Y-120234994D01*
X167756676Y-120228833D01*
X167774935Y-120221270D01*
X167787845Y-120217075D01*
X167845784Y-120183624D01*
X167851580Y-120180477D01*
X167911185Y-120150107D01*
X167921730Y-120141568D01*
X167938015Y-120130375D01*
X167944062Y-120126884D01*
X167944065Y-120126881D01*
X167949775Y-120123585D01*
X167954675Y-120119173D01*
X167954679Y-120119170D01*
X167998952Y-120079305D01*
X167999492Y-120078819D01*
X168004506Y-120074537D01*
X168017501Y-120064014D01*
X168020066Y-120061937D01*
X168034213Y-120047790D01*
X168038997Y-120043249D01*
X168083826Y-120002885D01*
X168083827Y-120002883D01*
X168088729Y-119998470D01*
X168096712Y-119987482D01*
X168109549Y-119972454D01*
X169734647Y-118347356D01*
X169790648Y-118278201D01*
X169809268Y-118259581D01*
X170156229Y-117978617D01*
X170221754Y-117951292D01*
X170291652Y-117963732D01*
X170307791Y-117973325D01*
X170442453Y-118067616D01*
X170448316Y-118070153D01*
X170615303Y-118142415D01*
X170615307Y-118142416D01*
X170621162Y-118144950D01*
X170627409Y-118146255D01*
X170627412Y-118146256D01*
X170807035Y-118183781D01*
X170807040Y-118183782D01*
X170811771Y-118184770D01*
X170818163Y-118185105D01*
X170961141Y-118185105D01*
X171030429Y-118178067D01*
X171099856Y-118171015D01*
X171099857Y-118171015D01*
X171106205Y-118170370D01*
X171187321Y-118144950D01*
X171285929Y-118114049D01*
X171285934Y-118114047D01*
X171292019Y-118112140D01*
X171378953Y-118063951D01*
X171456749Y-118020828D01*
X171456752Y-118020826D01*
X171462328Y-118017735D01*
X171467169Y-118013586D01*
X171467173Y-118013583D01*
X171605333Y-117895165D01*
X171610176Y-117891014D01*
X171619211Y-117879367D01*
X171725609Y-117742199D01*
X171729524Y-117737152D01*
X171734154Y-117727744D01*
X171812678Y-117568161D01*
X171815496Y-117562434D01*
X171821049Y-117541115D01*
X171862970Y-117380180D01*
X171862970Y-117380177D01*
X171864580Y-117373998D01*
X171874771Y-117179541D01*
X171845653Y-116987006D01*
X171835796Y-116960214D01*
X171806285Y-116880008D01*
X171804017Y-116873843D01*
X171799267Y-116803007D01*
X171833568Y-116740846D01*
X171896031Y-116707098D01*
X171966823Y-116712477D01*
G37*
%TD.AperFunction*%
%TA.AperFunction,Conductor*%
G36*
X144647488Y-52309502D02*
G01*
X144668462Y-52326405D01*
X145273595Y-52931538D01*
X145307621Y-52993850D01*
X145310500Y-53020633D01*
X145310500Y-63320075D01*
X145308949Y-63339785D01*
X145306826Y-63353190D01*
X145307171Y-63359778D01*
X145307171Y-63359782D01*
X145310327Y-63419999D01*
X145310500Y-63426593D01*
X145310500Y-63446620D01*
X145310844Y-63449891D01*
X145310844Y-63449895D01*
X145312593Y-63466539D01*
X145313110Y-63473113D01*
X145316611Y-63539915D01*
X145318320Y-63546292D01*
X145318320Y-63546293D01*
X145320124Y-63553023D01*
X145323728Y-63572470D01*
X145325145Y-63585956D01*
X145327187Y-63592240D01*
X145345818Y-63649582D01*
X145347691Y-63655906D01*
X145365006Y-63720524D01*
X145371167Y-63732616D01*
X145378730Y-63750875D01*
X145382925Y-63763785D01*
X145407607Y-63806535D01*
X145416376Y-63821724D01*
X145419523Y-63827520D01*
X145449893Y-63887125D01*
X145454050Y-63892258D01*
X145458432Y-63897670D01*
X145469625Y-63913955D01*
X145473116Y-63920002D01*
X145473119Y-63920005D01*
X145476415Y-63925715D01*
X145480827Y-63930615D01*
X145480830Y-63930619D01*
X145521175Y-63975425D01*
X145525463Y-63980446D01*
X145538063Y-63996006D01*
X145552210Y-64010153D01*
X145556751Y-64014937D01*
X145601530Y-64064669D01*
X145612518Y-64072652D01*
X145627546Y-64085489D01*
X148173595Y-66631538D01*
X148207621Y-66693850D01*
X148210500Y-66720633D01*
X148210500Y-67615500D01*
X148190498Y-67683621D01*
X148136842Y-67730114D01*
X148084500Y-67741500D01*
X146003672Y-67741500D01*
X145997592Y-67741808D01*
X145993005Y-67742733D01*
X145993004Y-67742733D01*
X145809755Y-67779682D01*
X145809752Y-67779683D01*
X145803716Y-67780900D01*
X145621127Y-67856905D01*
X145616008Y-67860332D01*
X145616004Y-67860334D01*
X145461901Y-67963496D01*
X145461896Y-67963500D01*
X145456777Y-67966927D01*
X145316927Y-68106777D01*
X145313500Y-68111896D01*
X145313496Y-68111901D01*
X145210334Y-68266004D01*
X145210332Y-68266008D01*
X145206905Y-68271127D01*
X145130900Y-68453716D01*
X145091808Y-68647592D01*
X145091500Y-68653672D01*
X145091500Y-72846328D01*
X145091808Y-72852408D01*
X145130900Y-73046284D01*
X145206905Y-73228873D01*
X145210332Y-73233992D01*
X145210334Y-73233996D01*
X145313496Y-73388099D01*
X145313500Y-73388104D01*
X145316927Y-73393223D01*
X145456777Y-73533073D01*
X145461896Y-73536500D01*
X145461901Y-73536504D01*
X145616004Y-73639666D01*
X145616008Y-73639668D01*
X145621127Y-73643095D01*
X145803716Y-73719100D01*
X145809752Y-73720317D01*
X145809755Y-73720318D01*
X145993004Y-73757267D01*
X145997592Y-73758192D01*
X146003672Y-73758500D01*
X152196328Y-73758500D01*
X152202408Y-73758192D01*
X152206996Y-73757267D01*
X152390245Y-73720318D01*
X152390248Y-73720317D01*
X152396284Y-73719100D01*
X152578873Y-73643095D01*
X152583992Y-73639668D01*
X152583996Y-73639666D01*
X152738099Y-73536504D01*
X152738104Y-73536500D01*
X152743223Y-73533073D01*
X152883073Y-73393223D01*
X152886500Y-73388104D01*
X152886504Y-73388099D01*
X152989666Y-73233996D01*
X152989668Y-73233992D01*
X152993095Y-73228873D01*
X153069100Y-73046284D01*
X153108192Y-72852408D01*
X153108500Y-72846328D01*
X153108500Y-69181679D01*
X153128502Y-69113558D01*
X153182158Y-69067065D01*
X153252432Y-69056961D01*
X153317012Y-69086455D01*
X153342059Y-69116051D01*
X161637693Y-82712056D01*
X161651540Y-82734751D01*
X161669947Y-82803321D01*
X161648360Y-82870956D01*
X161593633Y-82916183D01*
X161583833Y-82919910D01*
X161350266Y-82997766D01*
X161149503Y-83064687D01*
X161145453Y-83065962D01*
X159826764Y-83456685D01*
X159818321Y-83458871D01*
X159491686Y-83531456D01*
X158976018Y-83646048D01*
X158968615Y-83647249D01*
X158968621Y-83647283D01*
X158963839Y-83648154D01*
X158958991Y-83648654D01*
X158954278Y-83649894D01*
X158954279Y-83649894D01*
X158932556Y-83655610D01*
X158927828Y-83656757D01*
X158908564Y-83661038D01*
X158908562Y-83661039D01*
X158904191Y-83662010D01*
X158900004Y-83663590D01*
X158897298Y-83664397D01*
X158888560Y-83667188D01*
X158488452Y-83772480D01*
X157977944Y-83906824D01*
X157975062Y-83907547D01*
X156966627Y-84147650D01*
X156954121Y-84149910D01*
X156953327Y-84150072D01*
X156948496Y-84150673D01*
X156943816Y-84152010D01*
X156943807Y-84152012D01*
X156924035Y-84157662D01*
X156918599Y-84159085D01*
X156901216Y-84163223D01*
X156901203Y-84163227D01*
X156896852Y-84164263D01*
X156892692Y-84165905D01*
X156892677Y-84165910D01*
X156891888Y-84166222D01*
X156880242Y-84170174D01*
X156635089Y-84240218D01*
X156280027Y-84341664D01*
X156268892Y-84344305D01*
X156263345Y-84345357D01*
X156254380Y-84345762D01*
X156245889Y-84348667D01*
X156245884Y-84348668D01*
X156200177Y-84364306D01*
X156194033Y-84366234D01*
X156175368Y-84371567D01*
X156168912Y-84374454D01*
X156158270Y-84378645D01*
X156141041Y-84384539D01*
X156125193Y-84389961D01*
X156125191Y-84389962D01*
X156116700Y-84392867D01*
X156107556Y-84399315D01*
X156086381Y-84411364D01*
X156076171Y-84415930D01*
X156057693Y-84431654D01*
X156042724Y-84444391D01*
X156033683Y-84451402D01*
X155997776Y-84476720D01*
X155992184Y-84483747D01*
X155990805Y-84485479D01*
X155973869Y-84502982D01*
X155965349Y-84510232D01*
X155960418Y-84517738D01*
X155941232Y-84546940D01*
X155934518Y-84556213D01*
X155907167Y-84590583D01*
X155902937Y-84600941D01*
X155891593Y-84622494D01*
X155890376Y-84624347D01*
X155885448Y-84631848D01*
X155882824Y-84640427D01*
X155882824Y-84640428D01*
X155872603Y-84673851D01*
X155868765Y-84684624D01*
X155852156Y-84725298D01*
X155851232Y-84734226D01*
X155851003Y-84736434D01*
X155846165Y-84760301D01*
X155842893Y-84771001D01*
X155842783Y-84779976D01*
X155842353Y-84814906D01*
X155841694Y-84826324D01*
X155837167Y-84870038D01*
X155839186Y-84881050D01*
X155841241Y-84905316D01*
X155841103Y-84916505D01*
X155843517Y-84925152D01*
X155843517Y-84925155D01*
X155852910Y-84958807D01*
X155855484Y-84969963D01*
X155857369Y-84980246D01*
X155863404Y-85013169D01*
X155867436Y-85021189D01*
X155867437Y-85021193D01*
X155868433Y-85023175D01*
X155877215Y-85045884D01*
X155880223Y-85056661D01*
X155884965Y-85064280D01*
X155884966Y-85064283D01*
X155903431Y-85093952D01*
X155909025Y-85103923D01*
X155913620Y-85113064D01*
X155924547Y-85128362D01*
X155928982Y-85135009D01*
X155942263Y-85156348D01*
X155957110Y-85180205D01*
X155963802Y-85186189D01*
X155969575Y-85193058D01*
X155969257Y-85193326D01*
X155977600Y-85202636D01*
X156667949Y-86169125D01*
X156674748Y-86179727D01*
X156678595Y-86186441D01*
X156681637Y-86190244D01*
X156681640Y-86190248D01*
X156692525Y-86203854D01*
X156696666Y-86209330D01*
X156705220Y-86221306D01*
X156705224Y-86221311D01*
X156707825Y-86224952D01*
X156710917Y-86228189D01*
X156710921Y-86228194D01*
X156713726Y-86231131D01*
X156721000Y-86239448D01*
X158897149Y-88959633D01*
X158899560Y-88962745D01*
X159920355Y-90323808D01*
X159921317Y-90325187D01*
X159922154Y-90326728D01*
X159924924Y-90330357D01*
X159944543Y-90356065D01*
X159945180Y-90356907D01*
X159962793Y-90380392D01*
X159962796Y-90380396D01*
X159965486Y-90383982D01*
X159966726Y-90385221D01*
X159967802Y-90386543D01*
X161372951Y-92227772D01*
X161376732Y-92233395D01*
X161376829Y-92233327D01*
X161379617Y-92237319D01*
X161382085Y-92241509D01*
X161385166Y-92245266D01*
X161400160Y-92263552D01*
X161402890Y-92267003D01*
X161413905Y-92281436D01*
X161418295Y-92287188D01*
X161421492Y-92290330D01*
X161424457Y-92293690D01*
X161424425Y-92293718D01*
X161429001Y-92298724D01*
X161915813Y-92892396D01*
X163432240Y-94741698D01*
X163432470Y-94742001D01*
X163432700Y-94742389D01*
X163457758Y-94772816D01*
X163480310Y-94800319D01*
X163480638Y-94800619D01*
X163480885Y-94800898D01*
X167565027Y-99760214D01*
X168354987Y-100719451D01*
X168356113Y-100720838D01*
X169549909Y-102213084D01*
X169551260Y-102214803D01*
X170711044Y-103717251D01*
X171298643Y-104478458D01*
X171304916Y-104486585D01*
X171330708Y-104552731D01*
X171316645Y-104622321D01*
X171261525Y-104676276D01*
X170547538Y-105033270D01*
X170537514Y-105037747D01*
X168432216Y-105870073D01*
X168424588Y-105872808D01*
X167633348Y-106128047D01*
X166931306Y-106354512D01*
X166925266Y-106356295D01*
X166923026Y-106356896D01*
X166918248Y-106357789D01*
X166913660Y-106359408D01*
X166913661Y-106359408D01*
X166889048Y-106368095D01*
X166885864Y-106369171D01*
X166859327Y-106377731D01*
X166855295Y-106379700D01*
X166851726Y-106381139D01*
X166846554Y-106383093D01*
X166321341Y-106568462D01*
X165259214Y-106943330D01*
X165202782Y-106963247D01*
X165194215Y-106965931D01*
X165145308Y-106979362D01*
X165114716Y-106998223D01*
X165102528Y-107005737D01*
X165094762Y-107010153D01*
X165050221Y-107033429D01*
X165043750Y-107039654D01*
X165036468Y-107044894D01*
X165036394Y-107044791D01*
X165035900Y-107045173D01*
X165035981Y-107045270D01*
X165029083Y-107051019D01*
X165021443Y-107055729D01*
X164988518Y-107092240D01*
X164987792Y-107093045D01*
X164981581Y-107099460D01*
X164945353Y-107134310D01*
X164940890Y-107142099D01*
X164935368Y-107149177D01*
X164935269Y-107149100D01*
X164934904Y-107149603D01*
X164935009Y-107149674D01*
X164930004Y-107157124D01*
X164923991Y-107163792D01*
X164906903Y-107199228D01*
X164902165Y-107209053D01*
X164898000Y-107216960D01*
X164873014Y-107260570D01*
X164870917Y-107269299D01*
X164867603Y-107277643D01*
X164867486Y-107277596D01*
X164867277Y-107278181D01*
X164867398Y-107278219D01*
X164864684Y-107286776D01*
X164860785Y-107294862D01*
X164859312Y-107303715D01*
X164859311Y-107303719D01*
X164852540Y-107344427D01*
X164850761Y-107353188D01*
X164841117Y-107393328D01*
X164839020Y-107402058D01*
X164839457Y-107411022D01*
X164838618Y-107419960D01*
X164838493Y-107419948D01*
X164838457Y-107420572D01*
X164838583Y-107420575D01*
X164838380Y-107429547D01*
X164836907Y-107438404D01*
X164837979Y-107447319D01*
X164842904Y-107488290D01*
X164843656Y-107497195D01*
X164845294Y-107530803D01*
X164846103Y-107547401D01*
X164849040Y-107555886D01*
X164850743Y-107564697D01*
X164850619Y-107564721D01*
X164850759Y-107565330D01*
X164850881Y-107565297D01*
X164853205Y-107573967D01*
X164854276Y-107582879D01*
X164857805Y-107591130D01*
X164857805Y-107591131D01*
X164874040Y-107629092D01*
X164877260Y-107637428D01*
X164893694Y-107684912D01*
X164925162Y-107729207D01*
X164925379Y-107729513D01*
X164929499Y-107735691D01*
X164977478Y-107812457D01*
X165156607Y-108099062D01*
X165161211Y-108107067D01*
X165168838Y-108121531D01*
X165171748Y-108125442D01*
X165171751Y-108125446D01*
X165177096Y-108132629D01*
X165182860Y-108141069D01*
X165185972Y-108146047D01*
X165188550Y-108150172D01*
X165191435Y-108153591D01*
X165199658Y-108163337D01*
X165204438Y-108169368D01*
X166770114Y-110273247D01*
X166774123Y-110279346D01*
X166774170Y-110279314D01*
X166776921Y-110283334D01*
X166779354Y-110287554D01*
X166796704Y-110309123D01*
X166799565Y-110312821D01*
X166814243Y-110332545D01*
X166817406Y-110335730D01*
X166819931Y-110338662D01*
X166825209Y-110344563D01*
X169731171Y-113957380D01*
X169758280Y-114022997D01*
X169745611Y-114092854D01*
X169712284Y-114134272D01*
X169431364Y-114361757D01*
X169387290Y-114406139D01*
X169383286Y-114412950D01*
X169318020Y-114523971D01*
X169318018Y-114523975D01*
X169313473Y-114531707D01*
X169277866Y-114672945D01*
X169283330Y-114818500D01*
X169329427Y-114956671D01*
X169363310Y-115009246D01*
X169365464Y-115011906D01*
X170022475Y-115823247D01*
X170053214Y-115861207D01*
X170097596Y-115905280D01*
X170154590Y-115938785D01*
X170215428Y-115974550D01*
X170215432Y-115974552D01*
X170223164Y-115979097D01*
X170231863Y-115981290D01*
X170231865Y-115981291D01*
X170328768Y-116005721D01*
X170364402Y-116014705D01*
X170426915Y-116012358D01*
X170500984Y-116009577D01*
X170500985Y-116009577D01*
X170509956Y-116009240D01*
X170648128Y-115963143D01*
X170654761Y-115958869D01*
X170654764Y-115958867D01*
X170697841Y-115931106D01*
X170697848Y-115931101D01*
X170700703Y-115929261D01*
X170986853Y-115697541D01*
X171052378Y-115670216D01*
X171122276Y-115682656D01*
X171163229Y-115715146D01*
X171585577Y-116225676D01*
X171613586Y-116290912D01*
X171601879Y-116360937D01*
X171554172Y-116413517D01*
X171485612Y-116431957D01*
X171416222Y-116409204D01*
X171399038Y-116397172D01*
X171382503Y-116385594D01*
X171294401Y-116347469D01*
X171209653Y-116310795D01*
X171209649Y-116310794D01*
X171203794Y-116308260D01*
X171197547Y-116306955D01*
X171197544Y-116306954D01*
X171017921Y-116269429D01*
X171017916Y-116269428D01*
X171013185Y-116268440D01*
X171006793Y-116268105D01*
X170863815Y-116268105D01*
X170794527Y-116275143D01*
X170725100Y-116282195D01*
X170725099Y-116282195D01*
X170718751Y-116282840D01*
X170693475Y-116290761D01*
X170539027Y-116339161D01*
X170539022Y-116339163D01*
X170532937Y-116341070D01*
X170457191Y-116383057D01*
X170368207Y-116432382D01*
X170368204Y-116432384D01*
X170362628Y-116435475D01*
X170357787Y-116439624D01*
X170357783Y-116439627D01*
X170341552Y-116453539D01*
X170214780Y-116562196D01*
X170095432Y-116716058D01*
X170092616Y-116721781D01*
X170092614Y-116721784D01*
X170091063Y-116724937D01*
X170089752Y-116726365D01*
X170089228Y-116727203D01*
X170089072Y-116727105D01*
X170043040Y-116777228D01*
X169974370Y-116795254D01*
X169906855Y-116773294D01*
X169880088Y-116748602D01*
X169825626Y-116681348D01*
X169798300Y-116615821D01*
X169801369Y-116571252D01*
X169831045Y-116453539D01*
X169831045Y-116453537D01*
X169833240Y-116444831D01*
X169830091Y-116360937D01*
X169828113Y-116308248D01*
X169828113Y-116308247D01*
X169827776Y-116299276D01*
X169781679Y-116161105D01*
X169753417Y-116117251D01*
X169749647Y-116111402D01*
X169749646Y-116111401D01*
X169747796Y-116108530D01*
X169671545Y-116014368D01*
X169060040Y-115259221D01*
X169060036Y-115259216D01*
X169057892Y-115256569D01*
X169013510Y-115212496D01*
X168922355Y-115158909D01*
X168895678Y-115143226D01*
X168895674Y-115143224D01*
X168887942Y-115138679D01*
X168879243Y-115136486D01*
X168879241Y-115136485D01*
X168755410Y-115105266D01*
X168755411Y-115105266D01*
X168746704Y-115103071D01*
X168688243Y-115105266D01*
X168610122Y-115108199D01*
X168610121Y-115108199D01*
X168601150Y-115108536D01*
X168462978Y-115154633D01*
X168456345Y-115158907D01*
X168456342Y-115158909D01*
X168413265Y-115186670D01*
X168413258Y-115186675D01*
X168410403Y-115188515D01*
X168407754Y-115190660D01*
X168407750Y-115190663D01*
X168380789Y-115212496D01*
X167713872Y-115752555D01*
X167669798Y-115796937D01*
X167665794Y-115803748D01*
X167600528Y-115914769D01*
X167600526Y-115914773D01*
X167595981Y-115922505D01*
X167560374Y-116063743D01*
X167560711Y-116072716D01*
X167563780Y-116154462D01*
X167565838Y-116209298D01*
X167611935Y-116347469D01*
X167645818Y-116400044D01*
X167647972Y-116402704D01*
X168252253Y-117148929D01*
X168279579Y-117214456D01*
X168267139Y-117284354D01*
X168233627Y-117326143D01*
X167912172Y-117586452D01*
X167868098Y-117630834D01*
X167864094Y-117637645D01*
X167798828Y-117748666D01*
X167798826Y-117748670D01*
X167794281Y-117756402D01*
X167793375Y-117759997D01*
X167767996Y-117798121D01*
X167092522Y-118473595D01*
X167030210Y-118507621D01*
X167003427Y-118510500D01*
X163520633Y-118510500D01*
X163452512Y-118490498D01*
X163431538Y-118473595D01*
X162926405Y-117968462D01*
X162892379Y-117906150D01*
X162889500Y-117879367D01*
X162889500Y-117679925D01*
X162891051Y-117660214D01*
X162892142Y-117653327D01*
X162892142Y-117653325D01*
X162893174Y-117646810D01*
X162892360Y-117631263D01*
X162889673Y-117580001D01*
X162889500Y-117573407D01*
X162889500Y-116979925D01*
X162891051Y-116960214D01*
X162892142Y-116953327D01*
X162892142Y-116953325D01*
X162893174Y-116946810D01*
X162889673Y-116880008D01*
X162889500Y-116873414D01*
X162889500Y-116026593D01*
X162889673Y-116019999D01*
X162892829Y-115959782D01*
X162892829Y-115959778D01*
X162893174Y-115953190D01*
X162891051Y-115939785D01*
X162889500Y-115920075D01*
X162889500Y-111179925D01*
X162891051Y-111160214D01*
X162892142Y-111153327D01*
X162892142Y-111153325D01*
X162893174Y-111146810D01*
X162889673Y-111080001D01*
X162889500Y-111073407D01*
X162889500Y-109126593D01*
X162889673Y-109119999D01*
X162892829Y-109059782D01*
X162892829Y-109059778D01*
X162893174Y-109053190D01*
X162891051Y-109039785D01*
X162889500Y-109020075D01*
X162889500Y-105379925D01*
X162891051Y-105360214D01*
X162892142Y-105353327D01*
X162892142Y-105353325D01*
X162893174Y-105346810D01*
X162891850Y-105321537D01*
X162889673Y-105280008D01*
X162889500Y-105273414D01*
X162889500Y-104679925D01*
X162891051Y-104660214D01*
X162892142Y-104653327D01*
X162892142Y-104653325D01*
X162893174Y-104646810D01*
X162890325Y-104592433D01*
X162889673Y-104580001D01*
X162889500Y-104573407D01*
X162889500Y-103526586D01*
X162889673Y-103519992D01*
X162892829Y-103459782D01*
X162892829Y-103459777D01*
X162893174Y-103453190D01*
X162891051Y-103439785D01*
X162889500Y-103420075D01*
X162889500Y-101079925D01*
X162891051Y-101060214D01*
X162892142Y-101053327D01*
X162892142Y-101053325D01*
X162893174Y-101046810D01*
X162889673Y-100980008D01*
X162889500Y-100973414D01*
X162889500Y-98626586D01*
X162889673Y-98619992D01*
X162892829Y-98559782D01*
X162892829Y-98559777D01*
X162893174Y-98553190D01*
X162891051Y-98539785D01*
X162889500Y-98520075D01*
X162889500Y-95279925D01*
X162891051Y-95260214D01*
X162892142Y-95253327D01*
X162892142Y-95253325D01*
X162893174Y-95246810D01*
X162892360Y-95231263D01*
X162889673Y-95180001D01*
X162889500Y-95173407D01*
X162889500Y-95153380D01*
X162887407Y-95133461D01*
X162886890Y-95126887D01*
X162883735Y-95066684D01*
X162883735Y-95066682D01*
X162883389Y-95060085D01*
X162879875Y-95046972D01*
X162876272Y-95027529D01*
X162875546Y-95020615D01*
X162875545Y-95020611D01*
X162874855Y-95014044D01*
X162854182Y-94950418D01*
X162852309Y-94944094D01*
X162836704Y-94885859D01*
X162834994Y-94879476D01*
X162828833Y-94867384D01*
X162821269Y-94849123D01*
X162820074Y-94845446D01*
X162817075Y-94836215D01*
X162783624Y-94778276D01*
X162780477Y-94772480D01*
X162765659Y-94743398D01*
X162750107Y-94712875D01*
X162741568Y-94702330D01*
X162730375Y-94686045D01*
X162726884Y-94679998D01*
X162726881Y-94679995D01*
X162723585Y-94674285D01*
X162719173Y-94669385D01*
X162719170Y-94669381D01*
X162678825Y-94624575D01*
X162674537Y-94619554D01*
X162664014Y-94606559D01*
X162661937Y-94603994D01*
X162647790Y-94589847D01*
X162643249Y-94585063D01*
X162602885Y-94540234D01*
X162602883Y-94540233D01*
X162598470Y-94535331D01*
X162587482Y-94527348D01*
X162572454Y-94514511D01*
X161685489Y-93627546D01*
X161672652Y-93612518D01*
X161664669Y-93601530D01*
X161655688Y-93593443D01*
X161614937Y-93556751D01*
X161610153Y-93552210D01*
X161596006Y-93538063D01*
X161580446Y-93525463D01*
X161575425Y-93521175D01*
X161530619Y-93480830D01*
X161530615Y-93480827D01*
X161525715Y-93476415D01*
X161520005Y-93473119D01*
X161520002Y-93473116D01*
X161513955Y-93469625D01*
X161497670Y-93458432D01*
X161487125Y-93449893D01*
X161427520Y-93419523D01*
X161421724Y-93416376D01*
X161415975Y-93413057D01*
X161363785Y-93382925D01*
X161350875Y-93378730D01*
X161332616Y-93371167D01*
X161320524Y-93365006D01*
X161255906Y-93347691D01*
X161249582Y-93345818D01*
X161240981Y-93343023D01*
X161185956Y-93325145D01*
X161179389Y-93324455D01*
X161179385Y-93324454D01*
X161173712Y-93323858D01*
X161172470Y-93323728D01*
X161153028Y-93320125D01*
X161139915Y-93316611D01*
X161133318Y-93316265D01*
X161133316Y-93316265D01*
X161073113Y-93313110D01*
X161066539Y-93312593D01*
X161049895Y-93310844D01*
X161049891Y-93310844D01*
X161046620Y-93310500D01*
X161026593Y-93310500D01*
X161019999Y-93310327D01*
X160959782Y-93307171D01*
X160959778Y-93307171D01*
X160953190Y-93306826D01*
X160946675Y-93307858D01*
X160946673Y-93307858D01*
X160939786Y-93308949D01*
X160920075Y-93310500D01*
X159413276Y-93310500D01*
X159348006Y-93292276D01*
X159325201Y-93278465D01*
X159325196Y-93278463D01*
X159318699Y-93274528D01*
X159311452Y-93272257D01*
X159311450Y-93272256D01*
X159245164Y-93251483D01*
X159155062Y-93223247D01*
X159081635Y-93216500D01*
X159078737Y-93216500D01*
X158824335Y-93216501D01*
X158568366Y-93216501D01*
X158565508Y-93216764D01*
X158565499Y-93216764D01*
X158530368Y-93219992D01*
X158494938Y-93223247D01*
X158488560Y-93225246D01*
X158488559Y-93225246D01*
X158338550Y-93272256D01*
X158338548Y-93272257D01*
X158331301Y-93274528D01*
X158184619Y-93363361D01*
X158089095Y-93458885D01*
X158026783Y-93492911D01*
X157955968Y-93487846D01*
X157910905Y-93458885D01*
X157815381Y-93363361D01*
X157668699Y-93274528D01*
X157661452Y-93272257D01*
X157661450Y-93272256D01*
X157595164Y-93251483D01*
X157505062Y-93223247D01*
X157431635Y-93216500D01*
X157428737Y-93216500D01*
X157174335Y-93216501D01*
X156918366Y-93216501D01*
X156915508Y-93216764D01*
X156915499Y-93216764D01*
X156880368Y-93219992D01*
X156844938Y-93223247D01*
X156838560Y-93225246D01*
X156838559Y-93225246D01*
X156688550Y-93272256D01*
X156688548Y-93272257D01*
X156681301Y-93274528D01*
X156674804Y-93278463D01*
X156674799Y-93278465D01*
X156651994Y-93292276D01*
X156586724Y-93310500D01*
X153420633Y-93310500D01*
X153352512Y-93290498D01*
X153331538Y-93273595D01*
X147175416Y-87117473D01*
X147155392Y-87091379D01*
X147142341Y-87068774D01*
X147139040Y-87063056D01*
X147011253Y-86921134D01*
X146856752Y-86808882D01*
X146850724Y-86806198D01*
X146850722Y-86806197D01*
X146688319Y-86733891D01*
X146688318Y-86733891D01*
X146682288Y-86731206D01*
X146588887Y-86711353D01*
X146501944Y-86692872D01*
X146501939Y-86692872D01*
X146495487Y-86691500D01*
X146304513Y-86691500D01*
X146298061Y-86692872D01*
X146298056Y-86692872D01*
X146211112Y-86711353D01*
X146117712Y-86731206D01*
X146111682Y-86733891D01*
X146111681Y-86733891D01*
X145949278Y-86806197D01*
X145949276Y-86806198D01*
X145943248Y-86808882D01*
X145788747Y-86921134D01*
X145660960Y-87063056D01*
X145565473Y-87228444D01*
X145506458Y-87410072D01*
X145505768Y-87416633D01*
X145505768Y-87416635D01*
X145503321Y-87439915D01*
X145486496Y-87600000D01*
X145487186Y-87606565D01*
X145505545Y-87781238D01*
X145506458Y-87789928D01*
X145565473Y-87971556D01*
X145660960Y-88136944D01*
X145788747Y-88278866D01*
X145794089Y-88282747D01*
X145794091Y-88282749D01*
X145898392Y-88358528D01*
X145913426Y-88371369D01*
X152314511Y-94772454D01*
X152327348Y-94787482D01*
X152335331Y-94798470D01*
X152340233Y-94802883D01*
X152340234Y-94802885D01*
X152385063Y-94843249D01*
X152389847Y-94847790D01*
X152403994Y-94861937D01*
X152406559Y-94864014D01*
X152419554Y-94874537D01*
X152424575Y-94878825D01*
X152469381Y-94919170D01*
X152469385Y-94919173D01*
X152474285Y-94923585D01*
X152479995Y-94926881D01*
X152479998Y-94926884D01*
X152486045Y-94930375D01*
X152502330Y-94941568D01*
X152512875Y-94950107D01*
X152535137Y-94961450D01*
X152572491Y-94980483D01*
X152578285Y-94983629D01*
X152636215Y-95017075D01*
X152642495Y-95019116D01*
X152642496Y-95019116D01*
X152649122Y-95021269D01*
X152667379Y-95028832D01*
X152673587Y-95031995D01*
X152673595Y-95031998D01*
X152679475Y-95034994D01*
X152685849Y-95036702D01*
X152685852Y-95036703D01*
X152718430Y-95045432D01*
X152744101Y-95052310D01*
X152750408Y-95054178D01*
X152814044Y-95074855D01*
X152820610Y-95075545D01*
X152820614Y-95075546D01*
X152827544Y-95076275D01*
X152846977Y-95079876D01*
X152851965Y-95081212D01*
X152860085Y-95083388D01*
X152866678Y-95083734D01*
X152866681Y-95083734D01*
X152926880Y-95086889D01*
X152933455Y-95087406D01*
X152953380Y-95089500D01*
X152973414Y-95089500D01*
X152980008Y-95089673D01*
X153040218Y-95092829D01*
X153040223Y-95092829D01*
X153046810Y-95093174D01*
X153053325Y-95092142D01*
X153053327Y-95092142D01*
X153060214Y-95091051D01*
X153079925Y-95089500D01*
X156586724Y-95089500D01*
X156651994Y-95107724D01*
X156674799Y-95121535D01*
X156674804Y-95121537D01*
X156681301Y-95125472D01*
X156688548Y-95127743D01*
X156688550Y-95127744D01*
X156754836Y-95148517D01*
X156844938Y-95176753D01*
X156918365Y-95183500D01*
X156921263Y-95183500D01*
X157175665Y-95183499D01*
X157431634Y-95183499D01*
X157434492Y-95183236D01*
X157434501Y-95183236D01*
X157470004Y-95179974D01*
X157505062Y-95176753D01*
X157579645Y-95153380D01*
X157661450Y-95127744D01*
X157661452Y-95127743D01*
X157668699Y-95125472D01*
X157815381Y-95036639D01*
X157910905Y-94941115D01*
X157973217Y-94907089D01*
X158044032Y-94912154D01*
X158089095Y-94941115D01*
X158184619Y-95036639D01*
X158331301Y-95125472D01*
X158338548Y-95127743D01*
X158338550Y-95127744D01*
X158404836Y-95148517D01*
X158494938Y-95176753D01*
X158568365Y-95183500D01*
X158571263Y-95183500D01*
X158825665Y-95183499D01*
X159081634Y-95183499D01*
X159084492Y-95183236D01*
X159084501Y-95183236D01*
X159120004Y-95179974D01*
X159155062Y-95176753D01*
X159229645Y-95153380D01*
X159311450Y-95127744D01*
X159311452Y-95127743D01*
X159318699Y-95125472D01*
X159325196Y-95121537D01*
X159325201Y-95121535D01*
X159348006Y-95107724D01*
X159413276Y-95089500D01*
X160579367Y-95089500D01*
X160647488Y-95109502D01*
X160668462Y-95126405D01*
X161073595Y-95531538D01*
X161107621Y-95593850D01*
X161110500Y-95620633D01*
X161110500Y-98179367D01*
X161090498Y-98247488D01*
X161073595Y-98268462D01*
X160468462Y-98873595D01*
X160406150Y-98907621D01*
X160379367Y-98910500D01*
X159413276Y-98910500D01*
X159348006Y-98892276D01*
X159325201Y-98878465D01*
X159325196Y-98878463D01*
X159318699Y-98874528D01*
X159311452Y-98872257D01*
X159311450Y-98872256D01*
X159245164Y-98851483D01*
X159155062Y-98823247D01*
X159081635Y-98816500D01*
X159078737Y-98816500D01*
X158824335Y-98816501D01*
X158568366Y-98816501D01*
X158565508Y-98816764D01*
X158565499Y-98816764D01*
X158529996Y-98820026D01*
X158494938Y-98823247D01*
X158488560Y-98825246D01*
X158488559Y-98825246D01*
X158338550Y-98872256D01*
X158338548Y-98872257D01*
X158331301Y-98874528D01*
X158184619Y-98963361D01*
X158089095Y-99058885D01*
X158026783Y-99092911D01*
X157955968Y-99087846D01*
X157910905Y-99058885D01*
X157815381Y-98963361D01*
X157668699Y-98874528D01*
X157661452Y-98872257D01*
X157661450Y-98872256D01*
X157595164Y-98851483D01*
X157505062Y-98823247D01*
X157431635Y-98816500D01*
X157428737Y-98816500D01*
X157174335Y-98816501D01*
X156918366Y-98816501D01*
X156915508Y-98816764D01*
X156915499Y-98816764D01*
X156879996Y-98820026D01*
X156844938Y-98823247D01*
X156838560Y-98825246D01*
X156838559Y-98825246D01*
X156688550Y-98872256D01*
X156688548Y-98872257D01*
X156681301Y-98874528D01*
X156674804Y-98878463D01*
X156674799Y-98878465D01*
X156651994Y-98892276D01*
X156586724Y-98910500D01*
X154720633Y-98910500D01*
X154652512Y-98890498D01*
X154631538Y-98873595D01*
X154426405Y-98668462D01*
X154392379Y-98606150D01*
X154389500Y-98579367D01*
X154389500Y-98420633D01*
X154409502Y-98352512D01*
X154426405Y-98331538D01*
X154831538Y-97926405D01*
X154893850Y-97892379D01*
X154920633Y-97889500D01*
X155101881Y-97889500D01*
X155128077Y-97892253D01*
X155130990Y-97892872D01*
X155198056Y-97907128D01*
X155198061Y-97907128D01*
X155204513Y-97908500D01*
X155395487Y-97908500D01*
X155401939Y-97907128D01*
X155401944Y-97907128D01*
X155488888Y-97888647D01*
X155582288Y-97868794D01*
X155601849Y-97860085D01*
X155750722Y-97793803D01*
X155750724Y-97793802D01*
X155756752Y-97791118D01*
X155911253Y-97678866D01*
X156039040Y-97536944D01*
X156134527Y-97371556D01*
X156193542Y-97189928D01*
X156213504Y-97000000D01*
X156194969Y-96823651D01*
X156194232Y-96816635D01*
X156194232Y-96816633D01*
X156193542Y-96810072D01*
X156134527Y-96628444D01*
X156039040Y-96463056D01*
X156000751Y-96420531D01*
X155915675Y-96326045D01*
X155915674Y-96326044D01*
X155911253Y-96321134D01*
X155756752Y-96208882D01*
X155750724Y-96206198D01*
X155750722Y-96206197D01*
X155588319Y-96133891D01*
X155588318Y-96133891D01*
X155582288Y-96131206D01*
X155486493Y-96110844D01*
X155401944Y-96092872D01*
X155401939Y-96092872D01*
X155395487Y-96091500D01*
X155204513Y-96091500D01*
X155198061Y-96092872D01*
X155198056Y-96092872D01*
X155128078Y-96107747D01*
X155101881Y-96110500D01*
X154579925Y-96110500D01*
X154560214Y-96108949D01*
X154553327Y-96107858D01*
X154553325Y-96107858D01*
X154546810Y-96106826D01*
X154540222Y-96107171D01*
X154540218Y-96107171D01*
X154480001Y-96110327D01*
X154473407Y-96110500D01*
X154453380Y-96110500D01*
X154450109Y-96110844D01*
X154450105Y-96110844D01*
X154433461Y-96112593D01*
X154426887Y-96113110D01*
X154366684Y-96116265D01*
X154366682Y-96116265D01*
X154360085Y-96116611D01*
X154346972Y-96120125D01*
X154327530Y-96123728D01*
X154326288Y-96123858D01*
X154320615Y-96124454D01*
X154320611Y-96124455D01*
X154314044Y-96125145D01*
X154259019Y-96143023D01*
X154250418Y-96145818D01*
X154244094Y-96147691D01*
X154179476Y-96165006D01*
X154167384Y-96171167D01*
X154149125Y-96178730D01*
X154136215Y-96182925D01*
X154095907Y-96206197D01*
X154078276Y-96216376D01*
X154072480Y-96219523D01*
X154012875Y-96249893D01*
X154002330Y-96258432D01*
X153986045Y-96269625D01*
X153979998Y-96273116D01*
X153979995Y-96273119D01*
X153974285Y-96276415D01*
X153969385Y-96280827D01*
X153969381Y-96280830D01*
X153939575Y-96307669D01*
X153924621Y-96321134D01*
X153924575Y-96321175D01*
X153919554Y-96325463D01*
X153907763Y-96335011D01*
X153903994Y-96338063D01*
X153889847Y-96352210D01*
X153885063Y-96356751D01*
X153835331Y-96401530D01*
X153827348Y-96412518D01*
X153814511Y-96427546D01*
X152927546Y-97314511D01*
X152912518Y-97327348D01*
X152901530Y-97335331D01*
X152897117Y-97340233D01*
X152897115Y-97340234D01*
X152856751Y-97385063D01*
X152852210Y-97389847D01*
X152838063Y-97403994D01*
X152835986Y-97406559D01*
X152825463Y-97419554D01*
X152821175Y-97424575D01*
X152780830Y-97469381D01*
X152780827Y-97469385D01*
X152776415Y-97474285D01*
X152773119Y-97479995D01*
X152773116Y-97479998D01*
X152769625Y-97486045D01*
X152758432Y-97502330D01*
X152749893Y-97512875D01*
X152735129Y-97541852D01*
X152719523Y-97572480D01*
X152716376Y-97578276D01*
X152682925Y-97636215D01*
X152680884Y-97642497D01*
X152678731Y-97649123D01*
X152671167Y-97667384D01*
X152665006Y-97679476D01*
X152663296Y-97685859D01*
X152647691Y-97744094D01*
X152645818Y-97750418D01*
X152625145Y-97814044D01*
X152624455Y-97820611D01*
X152624454Y-97820615D01*
X152623728Y-97827529D01*
X152620125Y-97846972D01*
X152616611Y-97860085D01*
X152616265Y-97866682D01*
X152616265Y-97866684D01*
X152613110Y-97926887D01*
X152612593Y-97933461D01*
X152610844Y-97950105D01*
X152610500Y-97953380D01*
X152610500Y-97973407D01*
X152610327Y-97980001D01*
X152608335Y-98018023D01*
X152606826Y-98046810D01*
X152607858Y-98053325D01*
X152607858Y-98053327D01*
X152608949Y-98060214D01*
X152610500Y-98079925D01*
X152610500Y-98920075D01*
X152608949Y-98939785D01*
X152606826Y-98953190D01*
X152607171Y-98959778D01*
X152607171Y-98959782D01*
X152610327Y-99019999D01*
X152610500Y-99026593D01*
X152610500Y-99046620D01*
X152610844Y-99049891D01*
X152610844Y-99049895D01*
X152612593Y-99066539D01*
X152613110Y-99073113D01*
X152614863Y-99106559D01*
X152616611Y-99139915D01*
X152618320Y-99146292D01*
X152618320Y-99146293D01*
X152620124Y-99153023D01*
X152623728Y-99172471D01*
X152623919Y-99174285D01*
X152625145Y-99185956D01*
X152635803Y-99218759D01*
X152645818Y-99249582D01*
X152647691Y-99255906D01*
X152665006Y-99320524D01*
X152671167Y-99332616D01*
X152678730Y-99350875D01*
X152682925Y-99363785D01*
X152713057Y-99415975D01*
X152716376Y-99421724D01*
X152719523Y-99427520D01*
X152749893Y-99487125D01*
X152754050Y-99492258D01*
X152758432Y-99497670D01*
X152769625Y-99513955D01*
X152773116Y-99520002D01*
X152773119Y-99520005D01*
X152776415Y-99525715D01*
X152780827Y-99530615D01*
X152780830Y-99530619D01*
X152821175Y-99575425D01*
X152825463Y-99580446D01*
X152838063Y-99596006D01*
X152852210Y-99610153D01*
X152856751Y-99614937D01*
X152894328Y-99656670D01*
X152901530Y-99664669D01*
X152912518Y-99672652D01*
X152927546Y-99685489D01*
X153614511Y-100372454D01*
X153627348Y-100387482D01*
X153635331Y-100398470D01*
X153640233Y-100402883D01*
X153640234Y-100402885D01*
X153685063Y-100443249D01*
X153689847Y-100447790D01*
X153703994Y-100461937D01*
X153706559Y-100464014D01*
X153719554Y-100474537D01*
X153724575Y-100478825D01*
X153769381Y-100519170D01*
X153769385Y-100519173D01*
X153774285Y-100523585D01*
X153779995Y-100526881D01*
X153779998Y-100526884D01*
X153786045Y-100530375D01*
X153802330Y-100541568D01*
X153812875Y-100550107D01*
X153872480Y-100580477D01*
X153878276Y-100583624D01*
X153936215Y-100617075D01*
X153949125Y-100621270D01*
X153967384Y-100628833D01*
X153979476Y-100634994D01*
X154036641Y-100650312D01*
X154044094Y-100652309D01*
X154050419Y-100654182D01*
X154114044Y-100674855D01*
X154120611Y-100675545D01*
X154120615Y-100675546D01*
X154126288Y-100676142D01*
X154127530Y-100676272D01*
X154146972Y-100679875D01*
X154160085Y-100683389D01*
X154166682Y-100683735D01*
X154166684Y-100683735D01*
X154226887Y-100686890D01*
X154233461Y-100687407D01*
X154250105Y-100689156D01*
X154250109Y-100689156D01*
X154253380Y-100689500D01*
X154273407Y-100689500D01*
X154280001Y-100689673D01*
X154340218Y-100692829D01*
X154340222Y-100692829D01*
X154346810Y-100693174D01*
X154353325Y-100692142D01*
X154353327Y-100692142D01*
X154360214Y-100691051D01*
X154379925Y-100689500D01*
X156586724Y-100689500D01*
X156651994Y-100707724D01*
X156674799Y-100721535D01*
X156674804Y-100721537D01*
X156681301Y-100725472D01*
X156688548Y-100727743D01*
X156688550Y-100727744D01*
X156754836Y-100748517D01*
X156844938Y-100776753D01*
X156918365Y-100783500D01*
X156921263Y-100783500D01*
X157175665Y-100783499D01*
X157431634Y-100783499D01*
X157434492Y-100783236D01*
X157434501Y-100783236D01*
X157470004Y-100779974D01*
X157505062Y-100776753D01*
X157511447Y-100774752D01*
X157661450Y-100727744D01*
X157661452Y-100727743D01*
X157668699Y-100725472D01*
X157815381Y-100636639D01*
X157910905Y-100541115D01*
X157973217Y-100507089D01*
X158044032Y-100512154D01*
X158089095Y-100541115D01*
X158184619Y-100636639D01*
X158331301Y-100725472D01*
X158338548Y-100727743D01*
X158338550Y-100727744D01*
X158404836Y-100748517D01*
X158494938Y-100776753D01*
X158568365Y-100783500D01*
X158571263Y-100783500D01*
X158825665Y-100783499D01*
X159081634Y-100783499D01*
X159084492Y-100783236D01*
X159084501Y-100783236D01*
X159120004Y-100779974D01*
X159155062Y-100776753D01*
X159161447Y-100774752D01*
X159311450Y-100727744D01*
X159311452Y-100727743D01*
X159318699Y-100725472D01*
X159325196Y-100721537D01*
X159325201Y-100721535D01*
X159348006Y-100707724D01*
X159413276Y-100689500D01*
X160379367Y-100689500D01*
X160447488Y-100709502D01*
X160468462Y-100726405D01*
X161073595Y-101331538D01*
X161107621Y-101393850D01*
X161110500Y-101420633D01*
X161110500Y-103079367D01*
X161090498Y-103147488D01*
X161073595Y-103168462D01*
X160768462Y-103473595D01*
X160706150Y-103507621D01*
X160679367Y-103510500D01*
X159413276Y-103510500D01*
X159348006Y-103492276D01*
X159325201Y-103478465D01*
X159325196Y-103478463D01*
X159318699Y-103474528D01*
X159311452Y-103472257D01*
X159311450Y-103472256D01*
X159229814Y-103446673D01*
X159155062Y-103423247D01*
X159081635Y-103416500D01*
X159078737Y-103416500D01*
X158824335Y-103416501D01*
X158568366Y-103416501D01*
X158565508Y-103416764D01*
X158565499Y-103416764D01*
X158529996Y-103420026D01*
X158494938Y-103423247D01*
X158488560Y-103425246D01*
X158488559Y-103425246D01*
X158338550Y-103472256D01*
X158338548Y-103472257D01*
X158331301Y-103474528D01*
X158184619Y-103563361D01*
X158089095Y-103658885D01*
X158026783Y-103692911D01*
X157955968Y-103687846D01*
X157910905Y-103658885D01*
X157815381Y-103563361D01*
X157668699Y-103474528D01*
X157661452Y-103472257D01*
X157661450Y-103472256D01*
X157579814Y-103446673D01*
X157505062Y-103423247D01*
X157431635Y-103416500D01*
X157428737Y-103416500D01*
X157174335Y-103416501D01*
X156918366Y-103416501D01*
X156915508Y-103416764D01*
X156915499Y-103416764D01*
X156879996Y-103420026D01*
X156844938Y-103423247D01*
X156838560Y-103425246D01*
X156838559Y-103425246D01*
X156688550Y-103472256D01*
X156688548Y-103472257D01*
X156681301Y-103474528D01*
X156674804Y-103478463D01*
X156674799Y-103478465D01*
X156651994Y-103492276D01*
X156586724Y-103510500D01*
X144698119Y-103510500D01*
X144671922Y-103507747D01*
X144671330Y-103507621D01*
X144664041Y-103506072D01*
X144601944Y-103492872D01*
X144601939Y-103492872D01*
X144595487Y-103491500D01*
X144404513Y-103491500D01*
X144398061Y-103492872D01*
X144398056Y-103492872D01*
X144311113Y-103511353D01*
X144217712Y-103531206D01*
X144211682Y-103533891D01*
X144211681Y-103533891D01*
X144049278Y-103606197D01*
X144049276Y-103606198D01*
X144043248Y-103608882D01*
X143888747Y-103721134D01*
X143760960Y-103863056D01*
X143757659Y-103868774D01*
X143680230Y-104002885D01*
X143665473Y-104028444D01*
X143606458Y-104210072D01*
X143605768Y-104216633D01*
X143605768Y-104216635D01*
X143603666Y-104236639D01*
X143586496Y-104400000D01*
X143587186Y-104406565D01*
X143605415Y-104580001D01*
X143606458Y-104589928D01*
X143665473Y-104771556D01*
X143760960Y-104936944D01*
X143765378Y-104941851D01*
X143765379Y-104941852D01*
X143851723Y-105037747D01*
X143888747Y-105078866D01*
X143974425Y-105141115D01*
X144021510Y-105175324D01*
X144043248Y-105191118D01*
X144049276Y-105193802D01*
X144049278Y-105193803D01*
X144145490Y-105236639D01*
X144217712Y-105268794D01*
X144311113Y-105288647D01*
X144398056Y-105307128D01*
X144398061Y-105307128D01*
X144404513Y-105308500D01*
X144595487Y-105308500D01*
X144601939Y-105307128D01*
X144601944Y-105307128D01*
X144671922Y-105292253D01*
X144698119Y-105289500D01*
X156586724Y-105289500D01*
X156651994Y-105307724D01*
X156674799Y-105321535D01*
X156674804Y-105321537D01*
X156681301Y-105325472D01*
X156688548Y-105327743D01*
X156688550Y-105327744D01*
X156728355Y-105340218D01*
X156844938Y-105376753D01*
X156918365Y-105383500D01*
X156921263Y-105383500D01*
X157175665Y-105383499D01*
X157431634Y-105383499D01*
X157434492Y-105383236D01*
X157434501Y-105383236D01*
X157470536Y-105379925D01*
X157505062Y-105376753D01*
X157511447Y-105374752D01*
X157661450Y-105327744D01*
X157661452Y-105327743D01*
X157668699Y-105325472D01*
X157815381Y-105236639D01*
X157910905Y-105141115D01*
X157973217Y-105107089D01*
X158044032Y-105112154D01*
X158089095Y-105141115D01*
X158184619Y-105236639D01*
X158331301Y-105325472D01*
X158338548Y-105327743D01*
X158338550Y-105327744D01*
X158378355Y-105340218D01*
X158494938Y-105376753D01*
X158568365Y-105383500D01*
X158571263Y-105383500D01*
X158825665Y-105383499D01*
X159081634Y-105383499D01*
X159084492Y-105383236D01*
X159084501Y-105383236D01*
X159120536Y-105379925D01*
X159155062Y-105376753D01*
X159161447Y-105374752D01*
X159311450Y-105327744D01*
X159311452Y-105327743D01*
X159318699Y-105325472D01*
X159325196Y-105321537D01*
X159325201Y-105321535D01*
X159348006Y-105307724D01*
X159413276Y-105289500D01*
X160679367Y-105289500D01*
X160747488Y-105309502D01*
X160768462Y-105326405D01*
X161073595Y-105631538D01*
X161107621Y-105693850D01*
X161110500Y-105720633D01*
X161110500Y-108679367D01*
X161090498Y-108747488D01*
X161073595Y-108768462D01*
X160668462Y-109173595D01*
X160606150Y-109207621D01*
X160579367Y-109210500D01*
X141720633Y-109210500D01*
X141652512Y-109190498D01*
X141631538Y-109173595D01*
X139026405Y-106568462D01*
X138992379Y-106506150D01*
X138989500Y-106479367D01*
X138989500Y-104579925D01*
X138991051Y-104560214D01*
X138992142Y-104553327D01*
X138992142Y-104553325D01*
X138993174Y-104546810D01*
X138990829Y-104502051D01*
X138989673Y-104480001D01*
X138989500Y-104473407D01*
X138989500Y-102326593D01*
X138989673Y-102319999D01*
X138992829Y-102259782D01*
X138992829Y-102259778D01*
X138993174Y-102253190D01*
X138991051Y-102239785D01*
X138989500Y-102220075D01*
X138989500Y-95679925D01*
X138991051Y-95660214D01*
X138992142Y-95653327D01*
X138992142Y-95653325D01*
X138993174Y-95646810D01*
X138990399Y-95593850D01*
X138989673Y-95580008D01*
X138989500Y-95573414D01*
X138989500Y-94226593D01*
X138989673Y-94219999D01*
X138992829Y-94159782D01*
X138992829Y-94159778D01*
X138993174Y-94153190D01*
X138991051Y-94139785D01*
X138989500Y-94120075D01*
X138989500Y-93226586D01*
X138989673Y-93219992D01*
X138992829Y-93159782D01*
X138992829Y-93159777D01*
X138993174Y-93153190D01*
X138991051Y-93139785D01*
X138989500Y-93120075D01*
X138989500Y-84620633D01*
X139009502Y-84552512D01*
X139026405Y-84531538D01*
X144072454Y-79485489D01*
X144087482Y-79472652D01*
X144098470Y-79464669D01*
X144143249Y-79414937D01*
X144147790Y-79410153D01*
X144161937Y-79396006D01*
X144174543Y-79380439D01*
X144178827Y-79375424D01*
X144219166Y-79330623D01*
X144219167Y-79330622D01*
X144223585Y-79325715D01*
X144230374Y-79313956D01*
X144241567Y-79297671D01*
X144245948Y-79292260D01*
X144245949Y-79292259D01*
X144250106Y-79287125D01*
X144253106Y-79281238D01*
X144280478Y-79227519D01*
X144283624Y-79221724D01*
X144286026Y-79217564D01*
X144317075Y-79163785D01*
X144319117Y-79157501D01*
X144319119Y-79157496D01*
X144321269Y-79150879D01*
X144328834Y-79132615D01*
X144331994Y-79126413D01*
X144331994Y-79126412D01*
X144334994Y-79120525D01*
X144352310Y-79055899D01*
X144354181Y-79049582D01*
X144372816Y-78992231D01*
X144374855Y-78985956D01*
X144375546Y-78979386D01*
X144376275Y-78972456D01*
X144379876Y-78953023D01*
X144381679Y-78946293D01*
X144383388Y-78939915D01*
X144386889Y-78873120D01*
X144387406Y-78866546D01*
X144389156Y-78849893D01*
X144389500Y-78846620D01*
X144389500Y-78826586D01*
X144389673Y-78819992D01*
X144392829Y-78759782D01*
X144392829Y-78759777D01*
X144393174Y-78753190D01*
X144391051Y-78739785D01*
X144389500Y-78720075D01*
X144389500Y-68679924D01*
X144391051Y-68660213D01*
X144392142Y-68653326D01*
X144392142Y-68653324D01*
X144393174Y-68646809D01*
X144389673Y-68580007D01*
X144389500Y-68573413D01*
X144389500Y-68553380D01*
X144387406Y-68533455D01*
X144386889Y-68526881D01*
X144383734Y-68466680D01*
X144383734Y-68466677D01*
X144383388Y-68460084D01*
X144381680Y-68453710D01*
X144381679Y-68453703D01*
X144379976Y-68447348D01*
X144381668Y-68376372D01*
X144421465Y-68317578D01*
X144475486Y-68291496D01*
X144582288Y-68268794D01*
X144588319Y-68266109D01*
X144750722Y-68193803D01*
X144750724Y-68193802D01*
X144756752Y-68191118D01*
X144911253Y-68078866D01*
X145012043Y-67966927D01*
X145034621Y-67941852D01*
X145034622Y-67941851D01*
X145039040Y-67936944D01*
X145097314Y-67836010D01*
X145131223Y-67777279D01*
X145131224Y-67777278D01*
X145134527Y-67771556D01*
X145193542Y-67589928D01*
X145200219Y-67526405D01*
X145212814Y-67406565D01*
X145213504Y-67400000D01*
X145198104Y-67253474D01*
X145194232Y-67216635D01*
X145194232Y-67216633D01*
X145193542Y-67210072D01*
X145134527Y-67028444D01*
X145039040Y-66863056D01*
X144911253Y-66721134D01*
X144902694Y-66714915D01*
X144801608Y-66641472D01*
X144786574Y-66628631D01*
X144051405Y-65893462D01*
X144017379Y-65831150D01*
X144014500Y-65804367D01*
X144014500Y-64263441D01*
X144020266Y-64225762D01*
X144024752Y-64211446D01*
X144026753Y-64205062D01*
X144033500Y-64131635D01*
X144033499Y-63468366D01*
X144033234Y-63465474D01*
X144027364Y-63401592D01*
X144026753Y-63394938D01*
X144008458Y-63336559D01*
X143977744Y-63238550D01*
X143977743Y-63238548D01*
X143975472Y-63231301D01*
X143886639Y-63084619D01*
X143765381Y-62963361D01*
X143618699Y-62874528D01*
X143611452Y-62872257D01*
X143611450Y-62872256D01*
X143542798Y-62850742D01*
X143455062Y-62823247D01*
X143381635Y-62816500D01*
X143373379Y-62816500D01*
X143045631Y-62816501D01*
X142977512Y-62796499D01*
X142931019Y-62742844D01*
X142920914Y-62672570D01*
X142950407Y-62607989D01*
X142956537Y-62601406D01*
X144172454Y-61385489D01*
X144187482Y-61372652D01*
X144198470Y-61364669D01*
X144243249Y-61314937D01*
X144247790Y-61310153D01*
X144261937Y-61296006D01*
X144274537Y-61280446D01*
X144278825Y-61275425D01*
X144319170Y-61230619D01*
X144319173Y-61230615D01*
X144323585Y-61225715D01*
X144326881Y-61220005D01*
X144326884Y-61220002D01*
X144330375Y-61213955D01*
X144341568Y-61197670D01*
X144342915Y-61196006D01*
X144350107Y-61187125D01*
X144380477Y-61127520D01*
X144383624Y-61121724D01*
X144400636Y-61092258D01*
X144417075Y-61063785D01*
X144421270Y-61050875D01*
X144428833Y-61032616D01*
X144434994Y-61020524D01*
X144452309Y-60955906D01*
X144454182Y-60949582D01*
X144472813Y-60892240D01*
X144474855Y-60885956D01*
X144476272Y-60872470D01*
X144479876Y-60853023D01*
X144480799Y-60849582D01*
X144483389Y-60839915D01*
X144483735Y-60833316D01*
X144486890Y-60773113D01*
X144487407Y-60766539D01*
X144489156Y-60749895D01*
X144489156Y-60749891D01*
X144489500Y-60746620D01*
X144489500Y-60726593D01*
X144489673Y-60719999D01*
X144492829Y-60659782D01*
X144492829Y-60659778D01*
X144493174Y-60653190D01*
X144492134Y-60646620D01*
X144491051Y-60639786D01*
X144489500Y-60620075D01*
X144489500Y-58213276D01*
X144507724Y-58148006D01*
X144521535Y-58125201D01*
X144521537Y-58125196D01*
X144525472Y-58118699D01*
X144533874Y-58091890D01*
X144556609Y-58019340D01*
X144576753Y-57955062D01*
X144583500Y-57881635D01*
X144583499Y-57368366D01*
X144583234Y-57365474D01*
X144577364Y-57301592D01*
X144576753Y-57294938D01*
X144525472Y-57131301D01*
X144436639Y-56984619D01*
X144341115Y-56889095D01*
X144307089Y-56826783D01*
X144312154Y-56755968D01*
X144341115Y-56710905D01*
X144436639Y-56615381D01*
X144525472Y-56468699D01*
X144576753Y-56305062D01*
X144583500Y-56231635D01*
X144583499Y-55718366D01*
X144583234Y-55715474D01*
X144577364Y-55651592D01*
X144576753Y-55644938D01*
X144525472Y-55481301D01*
X144521537Y-55474804D01*
X144521535Y-55474799D01*
X144507724Y-55451994D01*
X144489500Y-55386724D01*
X144489500Y-53818867D01*
X144492064Y-53794477D01*
X144493542Y-53789928D01*
X144513504Y-53600000D01*
X144493542Y-53410072D01*
X144434527Y-53228444D01*
X144339040Y-53063056D01*
X144211253Y-52921134D01*
X144056752Y-52808882D01*
X144050724Y-52806198D01*
X144050722Y-52806197D01*
X143888319Y-52733891D01*
X143888318Y-52733891D01*
X143882288Y-52731206D01*
X143788887Y-52711353D01*
X143701944Y-52692872D01*
X143701939Y-52692872D01*
X143695487Y-52691500D01*
X143504513Y-52691500D01*
X143498061Y-52692872D01*
X143498056Y-52692872D01*
X143411113Y-52711353D01*
X143317712Y-52731206D01*
X143311682Y-52733891D01*
X143311681Y-52733891D01*
X143149278Y-52806197D01*
X143149276Y-52806198D01*
X143143248Y-52808882D01*
X142988747Y-52921134D01*
X142860960Y-53063056D01*
X142765473Y-53228444D01*
X142706458Y-53410072D01*
X142686496Y-53600000D01*
X142706458Y-53789928D01*
X142707936Y-53794477D01*
X142710500Y-53818867D01*
X142710500Y-55386724D01*
X142692276Y-55451994D01*
X142678465Y-55474799D01*
X142678463Y-55474804D01*
X142674528Y-55481301D01*
X142623247Y-55644938D01*
X142616500Y-55718365D01*
X142616501Y-56231634D01*
X142616764Y-56234492D01*
X142616764Y-56234501D01*
X142620026Y-56270004D01*
X142623247Y-56305062D01*
X142674528Y-56468699D01*
X142763361Y-56615381D01*
X142858885Y-56710905D01*
X142892911Y-56773217D01*
X142887846Y-56844032D01*
X142858885Y-56889095D01*
X142763361Y-56984619D01*
X142674528Y-57131301D01*
X142623247Y-57294938D01*
X142616500Y-57368365D01*
X142616501Y-57881634D01*
X142616764Y-57884492D01*
X142616764Y-57884501D01*
X142620026Y-57920004D01*
X142623247Y-57955062D01*
X142625246Y-57961440D01*
X142625246Y-57961441D01*
X142666127Y-58091890D01*
X142674528Y-58118699D01*
X142678463Y-58125196D01*
X142678465Y-58125201D01*
X142692276Y-58148006D01*
X142710500Y-58213276D01*
X142710500Y-60279367D01*
X142690498Y-60347488D01*
X142673595Y-60368462D01*
X140902546Y-62139511D01*
X140887518Y-62152348D01*
X140876530Y-62160331D01*
X140872117Y-62165233D01*
X140872115Y-62165234D01*
X140831751Y-62210063D01*
X140827210Y-62214847D01*
X140813063Y-62228994D01*
X140810986Y-62231559D01*
X140800463Y-62244554D01*
X140796175Y-62249575D01*
X140755830Y-62294381D01*
X140755827Y-62294385D01*
X140751415Y-62299285D01*
X140748119Y-62304995D01*
X140748116Y-62304998D01*
X140744625Y-62311045D01*
X140733432Y-62327330D01*
X140724893Y-62337875D01*
X140694523Y-62397480D01*
X140691376Y-62403276D01*
X140657925Y-62461215D01*
X140655884Y-62467497D01*
X140653731Y-62474123D01*
X140646167Y-62492384D01*
X140640006Y-62504476D01*
X140638296Y-62510859D01*
X140622691Y-62569094D01*
X140620818Y-62575418D01*
X140600145Y-62639044D01*
X140599455Y-62645611D01*
X140599454Y-62645615D01*
X140598728Y-62652529D01*
X140595125Y-62671972D01*
X140591611Y-62685085D01*
X140591265Y-62691682D01*
X140591265Y-62691684D01*
X140588110Y-62751887D01*
X140587593Y-62758461D01*
X140585500Y-62778380D01*
X140585500Y-62798407D01*
X140585327Y-62805001D01*
X140581826Y-62871810D01*
X140582858Y-62878325D01*
X140582858Y-62878327D01*
X140583949Y-62885214D01*
X140585500Y-62904925D01*
X140585500Y-63336559D01*
X140579734Y-63374238D01*
X140573247Y-63394938D01*
X140566500Y-63468365D01*
X140566501Y-64131634D01*
X140566764Y-64134492D01*
X140566764Y-64134501D01*
X140570026Y-64170004D01*
X140573247Y-64205062D01*
X140575246Y-64211440D01*
X140575246Y-64211441D01*
X140579734Y-64225762D01*
X140585500Y-64263441D01*
X140585500Y-66495075D01*
X140583949Y-66514785D01*
X140581826Y-66528190D01*
X140582171Y-66534778D01*
X140582171Y-66534782D01*
X140585327Y-66594999D01*
X140585500Y-66601593D01*
X140585500Y-66621620D01*
X140585844Y-66624891D01*
X140585844Y-66624895D01*
X140587593Y-66641539D01*
X140588110Y-66648113D01*
X140590507Y-66693850D01*
X140591611Y-66714915D01*
X140593320Y-66721292D01*
X140593320Y-66721293D01*
X140595124Y-66728023D01*
X140598728Y-66747470D01*
X140600145Y-66760956D01*
X140602187Y-66767240D01*
X140620818Y-66824582D01*
X140622691Y-66830906D01*
X140640006Y-66895524D01*
X140646167Y-66907616D01*
X140653730Y-66925875D01*
X140657925Y-66938785D01*
X140689579Y-66993612D01*
X140691368Y-66996710D01*
X140694514Y-67002505D01*
X140721895Y-67056242D01*
X140724893Y-67062125D01*
X140733432Y-67072670D01*
X140744625Y-67088955D01*
X140748116Y-67095002D01*
X140748119Y-67095005D01*
X140751415Y-67100715D01*
X140755827Y-67105615D01*
X140755830Y-67105619D01*
X140796175Y-67150425D01*
X140800463Y-67155446D01*
X140813063Y-67171006D01*
X140827210Y-67185153D01*
X140831751Y-67189937D01*
X140876530Y-67239669D01*
X140887518Y-67247652D01*
X140902546Y-67260489D01*
X141168462Y-67526405D01*
X141202488Y-67588717D01*
X141197423Y-67659532D01*
X141154876Y-67716368D01*
X141088356Y-67741179D01*
X141079367Y-67741500D01*
X139115500Y-67741500D01*
X139047379Y-67721498D01*
X139000886Y-67667842D01*
X138989500Y-67615500D01*
X138989500Y-63720633D01*
X139009502Y-63652512D01*
X139026405Y-63631538D01*
X141372454Y-61285489D01*
X141387482Y-61272652D01*
X141398470Y-61264669D01*
X141443249Y-61214937D01*
X141447790Y-61210153D01*
X141461937Y-61196006D01*
X141464989Y-61192237D01*
X141474537Y-61180446D01*
X141478825Y-61175425D01*
X141519170Y-61130619D01*
X141519173Y-61130615D01*
X141523585Y-61125715D01*
X141526881Y-61120005D01*
X141526884Y-61120002D01*
X141530375Y-61113955D01*
X141541568Y-61097670D01*
X141545950Y-61092258D01*
X141550107Y-61087125D01*
X141580477Y-61027520D01*
X141583624Y-61021724D01*
X141588002Y-61014141D01*
X141617075Y-60963785D01*
X141621270Y-60950875D01*
X141628833Y-60932616D01*
X141634994Y-60920524D01*
X141652309Y-60855906D01*
X141654182Y-60849582D01*
X141672813Y-60792240D01*
X141674855Y-60785956D01*
X141676272Y-60772470D01*
X141679876Y-60753023D01*
X141680715Y-60749895D01*
X141683389Y-60739915D01*
X141686890Y-60673113D01*
X141687407Y-60666539D01*
X141689156Y-60649895D01*
X141689156Y-60649891D01*
X141689500Y-60646620D01*
X141689500Y-60626593D01*
X141689673Y-60619999D01*
X141692829Y-60559782D01*
X141692829Y-60559778D01*
X141693174Y-60553190D01*
X141691051Y-60539785D01*
X141689500Y-60520075D01*
X141689500Y-53120633D01*
X141709502Y-53052512D01*
X141726405Y-53031538D01*
X142431538Y-52326405D01*
X142493850Y-52292379D01*
X142520633Y-52289500D01*
X144579367Y-52289500D01*
X144647488Y-52309502D01*
G37*
%TD.AperFunction*%
%TA.AperFunction,Conductor*%
G36*
X147298012Y-59221704D02*
G01*
X147323059Y-59251300D01*
X152295007Y-67400000D01*
X152395631Y-67564917D01*
X152414038Y-67633487D01*
X152392451Y-67701122D01*
X152337724Y-67746349D01*
X152263167Y-67754059D01*
X152206996Y-67742733D01*
X152206995Y-67742733D01*
X152202408Y-67741808D01*
X152196328Y-67741500D01*
X150115500Y-67741500D01*
X150047379Y-67721498D01*
X150000886Y-67667842D01*
X149989500Y-67615500D01*
X149989500Y-66379925D01*
X149991051Y-66360214D01*
X149992142Y-66353327D01*
X149992142Y-66353325D01*
X149993174Y-66346810D01*
X149989673Y-66280008D01*
X149989500Y-66273414D01*
X149989500Y-66253380D01*
X149987406Y-66233454D01*
X149986889Y-66226880D01*
X149983734Y-66166681D01*
X149983734Y-66166678D01*
X149983388Y-66160085D01*
X149979876Y-66146977D01*
X149976275Y-66127544D01*
X149975546Y-66120614D01*
X149975545Y-66120610D01*
X149974855Y-66114044D01*
X149954178Y-66050408D01*
X149952307Y-66044091D01*
X149936703Y-65985855D01*
X149934994Y-65979475D01*
X149928834Y-65967385D01*
X149921269Y-65949121D01*
X149919119Y-65942504D01*
X149919117Y-65942499D01*
X149917075Y-65936215D01*
X149883624Y-65878276D01*
X149880478Y-65872481D01*
X149853106Y-65818762D01*
X149853104Y-65818759D01*
X149850106Y-65812875D01*
X149845948Y-65807740D01*
X149841567Y-65802329D01*
X149830372Y-65786041D01*
X149823585Y-65774285D01*
X149778827Y-65724576D01*
X149774543Y-65719561D01*
X149764012Y-65706556D01*
X149764009Y-65706552D01*
X149761937Y-65703994D01*
X149747790Y-65689847D01*
X149743249Y-65685063D01*
X149702885Y-65640234D01*
X149702883Y-65640233D01*
X149698470Y-65635331D01*
X149687482Y-65627348D01*
X149672454Y-65614511D01*
X147126405Y-63068462D01*
X147092379Y-63006150D01*
X147089500Y-62979367D01*
X147089500Y-59316928D01*
X147109502Y-59248807D01*
X147163158Y-59202314D01*
X147233432Y-59192210D01*
X147298012Y-59221704D01*
G37*
%TD.AperFunction*%
%TA.AperFunction,Conductor*%
G36*
X143525710Y-41981447D02*
G01*
X143575411Y-42038066D01*
X145856151Y-47189390D01*
X145860271Y-47199958D01*
X145862275Y-47205872D01*
X145863922Y-47214703D01*
X145872210Y-47231062D01*
X145889686Y-47265557D01*
X145892494Y-47271477D01*
X145900259Y-47289014D01*
X145902631Y-47292806D01*
X145902634Y-47292811D01*
X145904139Y-47295216D01*
X145909722Y-47305104D01*
X145917427Y-47320313D01*
X145929686Y-47344509D01*
X145935825Y-47351054D01*
X145935826Y-47351055D01*
X145937169Y-47352486D01*
X145952093Y-47371865D01*
X145957893Y-47381136D01*
X145964598Y-47387103D01*
X145990886Y-47410499D01*
X145999017Y-47418420D01*
X146029239Y-47450639D01*
X146038664Y-47456197D01*
X146058425Y-47470608D01*
X146066592Y-47477877D01*
X146106508Y-47496803D01*
X146116513Y-47502112D01*
X146137602Y-47514550D01*
X146146846Y-47520003D01*
X146146848Y-47520004D01*
X146154578Y-47524563D01*
X146163277Y-47526770D01*
X146163281Y-47526771D01*
X146165186Y-47527254D01*
X146188192Y-47535536D01*
X146198075Y-47540222D01*
X146206940Y-47541637D01*
X146241686Y-47547183D01*
X146252801Y-47549475D01*
X146258236Y-47550853D01*
X146258239Y-47550854D01*
X146262953Y-47552049D01*
X146267785Y-47552504D01*
X146267790Y-47552505D01*
X146281415Y-47553788D01*
X146289458Y-47554808D01*
X146326447Y-47560712D01*
X146341771Y-47563158D01*
X146350677Y-47562028D01*
X146359650Y-47562172D01*
X146359644Y-47562554D01*
X146372294Y-47562350D01*
X149111529Y-47820393D01*
X151731303Y-48067183D01*
X151797247Y-48093486D01*
X151838502Y-48151266D01*
X151841971Y-48222178D01*
X151802257Y-48287627D01*
X148910859Y-50806865D01*
X147920526Y-51669729D01*
X147910946Y-51676340D01*
X147911308Y-51676833D01*
X147904075Y-51682146D01*
X147896161Y-51686381D01*
X147889755Y-51692665D01*
X147889754Y-51692666D01*
X147857095Y-51724705D01*
X147851641Y-51729748D01*
X147838784Y-51740950D01*
X147835862Y-51744337D01*
X147835861Y-51744338D01*
X147832572Y-51748151D01*
X147825405Y-51755792D01*
X147792284Y-51788283D01*
X147787896Y-51796119D01*
X147787516Y-51796616D01*
X147774019Y-51815878D01*
X147773664Y-51816432D01*
X147767801Y-51823228D01*
X147764082Y-51831395D01*
X147764081Y-51831396D01*
X147748577Y-51865441D01*
X147743844Y-51874782D01*
X147721185Y-51915245D01*
X147719173Y-51923995D01*
X147718940Y-51924599D01*
X147711391Y-51946881D01*
X147711215Y-51947481D01*
X147707492Y-51955656D01*
X147706214Y-51964544D01*
X147700889Y-52001567D01*
X147698967Y-52011868D01*
X147688575Y-52057059D01*
X147689099Y-52066018D01*
X147689046Y-52066653D01*
X147688054Y-52090166D01*
X147688054Y-52090804D01*
X147686776Y-52099688D01*
X147688043Y-52108573D01*
X147688043Y-52108574D01*
X147693322Y-52145592D01*
X147694369Y-52156017D01*
X147695110Y-52168674D01*
X147696140Y-52173437D01*
X147698575Y-52184701D01*
X147700158Y-52193535D01*
X147707318Y-52243746D01*
X147711030Y-52251923D01*
X147713543Y-52260536D01*
X147713455Y-52260562D01*
X147717851Y-52273851D01*
X149046357Y-58418193D01*
X149041203Y-58489002D01*
X148998585Y-58545784D01*
X148932033Y-58570511D01*
X148874479Y-58561019D01*
X147730048Y-58081096D01*
X147708034Y-58069164D01*
X147707493Y-58068797D01*
X147707492Y-58068796D01*
X147700067Y-58063758D01*
X147691529Y-58061007D01*
X147691527Y-58061006D01*
X147656122Y-58049598D01*
X147646054Y-58045873D01*
X147637818Y-58042419D01*
X147633479Y-58041289D01*
X147633477Y-58041288D01*
X147620537Y-58037917D01*
X147613656Y-58035914D01*
X147570106Y-58021881D01*
X147570105Y-58021881D01*
X147561565Y-58019129D01*
X147552592Y-58018885D01*
X147546995Y-58017927D01*
X147541346Y-58017288D01*
X147532662Y-58015026D01*
X147519678Y-58015411D01*
X147477956Y-58016648D01*
X147470793Y-58016656D01*
X147425079Y-58015411D01*
X147425076Y-58015411D01*
X147416105Y-58015167D01*
X147407428Y-58017449D01*
X147401777Y-58018102D01*
X147396181Y-58019074D01*
X147387212Y-58019340D01*
X147378674Y-58022114D01*
X147335171Y-58036248D01*
X147328294Y-58038268D01*
X147275378Y-58052189D01*
X147267683Y-58056820D01*
X147264512Y-58058159D01*
X147193975Y-58066230D01*
X147130273Y-58034885D01*
X147093629Y-57974075D01*
X147089500Y-57942082D01*
X147089500Y-52679925D01*
X147091051Y-52660214D01*
X147092142Y-52653327D01*
X147092142Y-52653325D01*
X147093174Y-52646810D01*
X147092475Y-52633461D01*
X147089673Y-52580008D01*
X147089500Y-52573414D01*
X147089500Y-52553380D01*
X147087406Y-52533454D01*
X147086889Y-52526880D01*
X147083734Y-52466681D01*
X147083734Y-52466678D01*
X147083388Y-52460085D01*
X147080798Y-52450418D01*
X147079876Y-52446977D01*
X147076275Y-52427544D01*
X147075546Y-52420614D01*
X147075545Y-52420610D01*
X147074855Y-52414044D01*
X147054178Y-52350408D01*
X147052307Y-52344091D01*
X147047568Y-52326405D01*
X147034994Y-52279475D01*
X147028834Y-52267385D01*
X147021269Y-52249121D01*
X147019119Y-52242504D01*
X147019117Y-52242499D01*
X147017075Y-52236215D01*
X146983624Y-52178276D01*
X146980478Y-52172481D01*
X146953106Y-52118762D01*
X146953104Y-52118759D01*
X146950106Y-52112875D01*
X146945948Y-52107740D01*
X146941567Y-52102329D01*
X146930372Y-52086041D01*
X146923585Y-52074285D01*
X146917869Y-52067936D01*
X146878827Y-52024576D01*
X146874543Y-52019561D01*
X146864012Y-52006556D01*
X146864009Y-52006552D01*
X146861937Y-52003994D01*
X146847790Y-51989847D01*
X146843249Y-51985063D01*
X146802885Y-51940234D01*
X146802883Y-51940233D01*
X146798470Y-51935331D01*
X146787482Y-51927348D01*
X146772454Y-51914511D01*
X145685489Y-50827546D01*
X145672652Y-50812518D01*
X145664669Y-50801530D01*
X145614937Y-50756751D01*
X145610153Y-50752210D01*
X145596006Y-50738063D01*
X145580446Y-50725463D01*
X145575425Y-50721175D01*
X145530619Y-50680830D01*
X145530615Y-50680827D01*
X145525715Y-50676415D01*
X145520005Y-50673119D01*
X145520002Y-50673116D01*
X145513955Y-50669625D01*
X145497670Y-50658432D01*
X145487125Y-50649893D01*
X145427520Y-50619523D01*
X145421724Y-50616376D01*
X145410983Y-50610175D01*
X145363785Y-50582925D01*
X145350875Y-50578730D01*
X145332616Y-50571167D01*
X145320524Y-50565006D01*
X145255906Y-50547691D01*
X145249582Y-50545818D01*
X145240981Y-50543023D01*
X145185956Y-50525145D01*
X145179389Y-50524455D01*
X145179385Y-50524454D01*
X145173712Y-50523858D01*
X145172470Y-50523728D01*
X145153028Y-50520125D01*
X145139915Y-50516611D01*
X145133318Y-50516265D01*
X145133316Y-50516265D01*
X145073113Y-50513110D01*
X145066539Y-50512593D01*
X145049895Y-50510844D01*
X145049891Y-50510844D01*
X145046620Y-50510500D01*
X145026593Y-50510500D01*
X145019999Y-50510327D01*
X144959782Y-50507171D01*
X144959778Y-50507171D01*
X144953190Y-50506826D01*
X144946675Y-50507858D01*
X144946673Y-50507858D01*
X144939786Y-50508949D01*
X144920075Y-50510500D01*
X142179925Y-50510500D01*
X142160214Y-50508949D01*
X142153327Y-50507858D01*
X142153325Y-50507858D01*
X142146810Y-50506826D01*
X142140222Y-50507171D01*
X142140218Y-50507171D01*
X142080001Y-50510327D01*
X142073407Y-50510500D01*
X142053380Y-50510500D01*
X142050109Y-50510844D01*
X142050105Y-50510844D01*
X142033461Y-50512593D01*
X142026887Y-50513110D01*
X141966684Y-50516265D01*
X141966682Y-50516265D01*
X141960085Y-50516611D01*
X141946972Y-50520125D01*
X141927530Y-50523728D01*
X141926288Y-50523858D01*
X141920615Y-50524454D01*
X141920611Y-50524455D01*
X141914044Y-50525145D01*
X141859019Y-50543023D01*
X141850418Y-50545818D01*
X141844094Y-50547691D01*
X141779476Y-50565006D01*
X141767384Y-50571167D01*
X141749125Y-50578730D01*
X141736215Y-50582925D01*
X141689017Y-50610175D01*
X141678276Y-50616376D01*
X141672480Y-50619523D01*
X141612875Y-50649893D01*
X141602330Y-50658432D01*
X141586045Y-50669625D01*
X141579998Y-50673116D01*
X141579995Y-50673119D01*
X141574285Y-50676415D01*
X141569385Y-50680827D01*
X141569381Y-50680830D01*
X141524575Y-50721175D01*
X141519554Y-50725463D01*
X141503994Y-50738063D01*
X141489847Y-50752210D01*
X141485063Y-50756751D01*
X141435331Y-50801530D01*
X141427348Y-50812518D01*
X141414511Y-50827546D01*
X140227546Y-52014511D01*
X140212518Y-52027348D01*
X140201530Y-52035331D01*
X140197117Y-52040233D01*
X140197115Y-52040234D01*
X140156751Y-52085063D01*
X140152210Y-52089847D01*
X140138063Y-52103994D01*
X140135986Y-52106559D01*
X140125463Y-52119554D01*
X140121175Y-52124575D01*
X140080830Y-52169381D01*
X140080827Y-52169385D01*
X140076415Y-52174285D01*
X140073119Y-52179995D01*
X140073116Y-52179998D01*
X140069625Y-52186045D01*
X140058432Y-52202330D01*
X140049893Y-52212875D01*
X140025539Y-52260673D01*
X140019523Y-52272480D01*
X140016376Y-52278276D01*
X139982925Y-52336215D01*
X139978731Y-52349123D01*
X139971167Y-52367384D01*
X139965006Y-52379476D01*
X139963296Y-52385859D01*
X139947691Y-52444094D01*
X139945818Y-52450418D01*
X139925145Y-52514044D01*
X139924455Y-52520611D01*
X139924454Y-52520615D01*
X139923728Y-52527529D01*
X139920125Y-52546972D01*
X139916611Y-52560085D01*
X139916265Y-52566682D01*
X139916265Y-52566684D01*
X139913110Y-52626887D01*
X139912593Y-52633461D01*
X139910500Y-52653380D01*
X139910500Y-52673407D01*
X139910327Y-52680001D01*
X139907644Y-52731206D01*
X139906826Y-52746810D01*
X139907858Y-52753325D01*
X139907858Y-52753327D01*
X139908949Y-52760214D01*
X139910500Y-52779925D01*
X139910500Y-57967172D01*
X139890498Y-58035293D01*
X139836842Y-58081786D01*
X139766568Y-58091890D01*
X139735511Y-58083110D01*
X139728703Y-58078933D01*
X139680821Y-58065892D01*
X139674214Y-58064093D01*
X139668019Y-58062233D01*
X139622888Y-58047415D01*
X139622887Y-58047415D01*
X139614360Y-58044615D01*
X139605386Y-58044321D01*
X139601197Y-58043580D01*
X139596962Y-58043054D01*
X139588301Y-58040695D01*
X139531841Y-58041744D01*
X139525377Y-58041698D01*
X139468923Y-58039848D01*
X139460230Y-58042084D01*
X139456000Y-58042549D01*
X139451786Y-58043233D01*
X139442812Y-58043399D01*
X139434245Y-58046078D01*
X139388922Y-58060251D01*
X139382703Y-58062022D01*
X139365362Y-58066482D01*
X139365353Y-58066485D01*
X139360641Y-58067697D01*
X139354693Y-58070255D01*
X139342524Y-58074761D01*
X139303930Y-58086830D01*
X139296459Y-58091806D01*
X139291178Y-58095323D01*
X139271115Y-58106203D01*
X138249089Y-58545784D01*
X138214793Y-58560535D01*
X138144312Y-58569076D01*
X138080402Y-58538155D01*
X138043354Y-58477592D01*
X138043606Y-58411064D01*
X138428840Y-57024220D01*
X138430552Y-57018573D01*
X138432074Y-57013946D01*
X138433947Y-57009454D01*
X138441089Y-56980339D01*
X138442041Y-56976700D01*
X138448028Y-56955147D01*
X138448030Y-56955137D01*
X138449230Y-56950817D01*
X138449806Y-56946364D01*
X138450693Y-56941986D01*
X138450829Y-56942014D01*
X138451914Y-56936205D01*
X139090523Y-54332645D01*
X139091744Y-54328046D01*
X139576333Y-52631985D01*
X139582248Y-52615645D01*
X139590432Y-52597136D01*
X139590433Y-52597134D01*
X139594062Y-52588926D01*
X139603487Y-52517878D01*
X139613214Y-52446824D01*
X139613054Y-52445754D01*
X139613197Y-52444675D01*
X139609496Y-52420614D01*
X139602350Y-52374157D01*
X139602271Y-52373635D01*
X139592980Y-52311503D01*
X139592978Y-52311496D01*
X139591694Y-52302910D01*
X139591239Y-52301925D01*
X139591074Y-52300853D01*
X139585770Y-52289500D01*
X139560766Y-52235988D01*
X139560544Y-52235510D01*
X139534313Y-52178752D01*
X139534312Y-52178751D01*
X139530647Y-52170820D01*
X139529936Y-52170006D01*
X139529475Y-52169018D01*
X139485951Y-52119554D01*
X139482328Y-52115436D01*
X139481980Y-52115039D01*
X139440883Y-52067936D01*
X139440878Y-52067931D01*
X139434981Y-52061173D01*
X139407054Y-52043316D01*
X139394282Y-52033967D01*
X139361627Y-52006754D01*
X137861623Y-50756751D01*
X136727994Y-49812060D01*
X136726890Y-49811129D01*
X135043635Y-48375412D01*
X135038222Y-48370517D01*
X134889442Y-48227936D01*
X134854099Y-48166362D01*
X134857656Y-48095455D01*
X134898985Y-48037727D01*
X134968240Y-48011245D01*
X135056047Y-48005391D01*
X135070188Y-48004448D01*
X136495444Y-47909431D01*
X136499663Y-47909276D01*
X136503255Y-47909529D01*
X136508105Y-47909120D01*
X136508109Y-47909120D01*
X136519041Y-47908198D01*
X136537203Y-47906666D01*
X136539312Y-47906507D01*
X136549849Y-47905804D01*
X136565711Y-47904747D01*
X136565718Y-47904746D01*
X136570188Y-47904448D01*
X136573691Y-47903706D01*
X136578028Y-47903223D01*
X140626003Y-47561827D01*
X140641906Y-47562156D01*
X140649638Y-47562027D01*
X140658547Y-47563152D01*
X140707525Y-47555303D01*
X140716845Y-47554165D01*
X140729040Y-47553137D01*
X140743171Y-47549882D01*
X140751513Y-47548255D01*
X140793369Y-47541548D01*
X140793371Y-47541547D01*
X140802229Y-47540128D01*
X140810336Y-47536278D01*
X140818352Y-47533788D01*
X140826187Y-47530762D01*
X140834933Y-47528747D01*
X140842762Y-47524359D01*
X140842764Y-47524358D01*
X140879734Y-47503636D01*
X140887286Y-47499732D01*
X140901947Y-47492769D01*
X140933672Y-47477702D01*
X140940377Y-47471727D01*
X140947378Y-47467084D01*
X140954036Y-47461990D01*
X140961868Y-47457600D01*
X140997819Y-47420926D01*
X141003970Y-47415060D01*
X141035616Y-47386860D01*
X141042312Y-47380893D01*
X141047065Y-47373285D01*
X141052477Y-47366869D01*
X141057447Y-47360097D01*
X141063732Y-47353686D01*
X141067966Y-47345767D01*
X141087951Y-47308385D01*
X141092207Y-47301031D01*
X141101553Y-47286072D01*
X141106082Y-47275477D01*
X141110823Y-47265599D01*
X141128104Y-47233274D01*
X141132336Y-47225358D01*
X141134416Y-47215428D01*
X141141882Y-47191731D01*
X143344341Y-42039550D01*
X143389509Y-41984775D01*
X143457121Y-41963115D01*
X143525710Y-41981447D01*
G37*
%TD.AperFunction*%
%TD*%
M02*
