M48
; DRILL file {KiCad (6.0.0)} date Wed Mar  2 13:41:05 2022
; FORMAT={-:-/ absolute / inch / decimal}
; #@! TF.CreationDate,2022-03-02T13:41:05+01:00
; #@! TF.GenerationSoftware,Kicad,Pcbnew,(6.0.0)
; #@! TF.FileFunction,Plated,1,2,PTH
FMAT,2
INCH
; #@! TA.AperFunction,Plated,PTH,ViaDrill
T1C0.0157
%
G90
G05
T1
X4.7008Y-4.9291
X4.7638Y-4.5236
X4.811Y-4.0276
X4.9961Y-3.8898
X5.0866Y-5.0827
X5.1024Y-4.2874
X5.252Y-2.9213
X5.3268Y-3.0079
X5.3346Y-3.5945
X5.374Y-3.2283
X5.376Y-2.628
X5.378Y-4.7008
X5.6378Y-4.5354
X5.6457Y-4.9528
X5.6535Y-1.9331
X5.6535Y-2.1102
X5.6811Y-2.6535
X5.689Y-4.1102
X5.7598Y-3.7165
X5.7638Y-3.4488
X5.8268Y-2.4803
X5.8425Y-3.3543
X5.8622Y-3.9567
X5.937Y-3.0591
X6.0591Y-3.5472
X6.1142Y-3.8189
X6.1339Y-4.5984
X6.3307Y-5.0079
X6.4646Y-4.3858
X6.563Y-4.8465
X6.6102Y-4.9843
X6.9764Y-4.9685
T0
M30
