%TF.GenerationSoftware,KiCad,Pcbnew,(6.0.1)*%
%TF.CreationDate,2022-03-07T19:11:38+01:00*%
%TF.ProjectId,LEDChristmasTree-2022,4c454443-6872-4697-9374-6d6173547265,rev?*%
%TF.SameCoordinates,Original*%
%TF.FileFunction,Legend,Top*%
%TF.FilePolarity,Positive*%
%FSLAX46Y46*%
G04 Gerber Fmt 4.6, Leading zero omitted, Abs format (unit mm)*
G04 Created by KiCad (PCBNEW (6.0.1)) date 2022-03-07 19:11:38*
%MOMM*%
%LPD*%
G01*
G04 APERTURE LIST*
%ADD10C,0.600000*%
%ADD11C,0.200000*%
%ADD12C,1.000000*%
%ADD13C,0.254000*%
G04 APERTURE END LIST*
D10*
X115500000Y-105000000D02*
G75*
G03*
X115500000Y-105000000I-300000J0D01*
G01*
D11*
X145400000Y-116100000D02*
G75*
G03*
X145400000Y-116100000I-1000000J0D01*
G01*
X136600000Y-98900000D02*
G75*
G03*
X136600000Y-98900000I-1000000J0D01*
G01*
D12*
X161700000Y-83600000D02*
G75*
G03*
X161700000Y-83600000I-500000J0D01*
G01*
X160000000Y-84400000D02*
G75*
G03*
X160000000Y-84400000I-500000J0D01*
G01*
D11*
X143700000Y-81900000D02*
G75*
G03*
X143700000Y-81900000I-1000000J0D01*
G01*
D12*
X167300000Y-106600000D02*
G75*
G03*
X167300000Y-106600000I-500000J0D01*
G01*
D11*
X151800000Y-93600000D02*
G75*
G03*
X151800000Y-93600000I-1000000J0D01*
G01*
D12*
X169600000Y-105500000D02*
G75*
G03*
X169600000Y-105500000I-500000J0D01*
G01*
D11*
X125000000Y-119500000D02*
G75*
G03*
X125000000Y-119500000I-1000000J0D01*
G01*
X156600000Y-91200000D02*
G75*
G03*
X156600000Y-91200000I-1000000J0D01*
G01*
X142900000Y-116800000D02*
G75*
G03*
X142900000Y-116800000I-1000000J0D01*
G01*
X117500000Y-119700000D02*
G75*
G03*
X117500000Y-119700000I-1000000J0D01*
G01*
D12*
X127800000Y-84200000D02*
G75*
G03*
X127800000Y-84200000I-500000J0D01*
G01*
D11*
X130100000Y-119000000D02*
G75*
G03*
X130100000Y-119000000I-1000000J0D01*
G01*
X120000000Y-119700000D02*
G75*
G03*
X120000000Y-119700000I-1000000J0D01*
G01*
X122500000Y-119600000D02*
G75*
G03*
X122500000Y-119600000I-1000000J0D01*
G01*
D12*
X120900000Y-105800000D02*
G75*
G03*
X120900000Y-105800000I-500000J0D01*
G01*
D11*
X152900000Y-113800000D02*
G75*
G03*
X152900000Y-113800000I-1000000J0D01*
G01*
X146900000Y-95700000D02*
G75*
G03*
X146900000Y-95700000I-1000000J0D01*
G01*
X131500000Y-99900000D02*
G75*
G03*
X131500000Y-99900000I-1000000J0D01*
G01*
X139200000Y-98200000D02*
G75*
G03*
X139200000Y-98200000I-1000000J0D01*
G01*
D10*
X171900000Y-105000000D02*
G75*
G03*
X171900000Y-105000000I-300000J0D01*
G01*
D12*
X130000000Y-84600000D02*
G75*
G03*
X130000000Y-84600000I-500000J0D01*
G01*
D13*
X143550000Y-56450000D02*
X149300000Y-58950000D01*
D11*
X140300000Y-117300000D02*
G75*
G03*
X140300000Y-117300000I-1000000J0D01*
G01*
D13*
X147800000Y-52050000D02*
X149300000Y-58950000D01*
D11*
X152700000Y-77700000D02*
G75*
G03*
X152700000Y-77700000I-1000000J0D01*
G01*
D12*
X119500000Y-105900000D02*
G75*
G03*
X119500000Y-105900000I-500000J0D01*
G01*
X120600000Y-106500000D02*
G75*
G03*
X120600000Y-106500000I-500000J0D01*
G01*
D10*
X125300000Y-83300000D02*
G75*
G03*
X125300000Y-83300000I-300000J0D01*
G01*
D11*
X150500000Y-78800000D02*
G75*
G03*
X150500000Y-78800000I-1000000J0D01*
G01*
X156900000Y-75200000D02*
G75*
G03*
X156900000Y-75200000I-1000000J0D01*
G01*
D12*
X158600000Y-84400000D02*
G75*
G03*
X158600000Y-84400000I-500000J0D01*
G01*
X168500000Y-106600000D02*
G75*
G03*
X168500000Y-106600000I-500000J0D01*
G01*
D11*
X141800000Y-97500000D02*
G75*
G03*
X141800000Y-97500000I-1000000J0D01*
G01*
D13*
X143450000Y-41300000D02*
X146100000Y-47450000D01*
X146100000Y-47450000D02*
X152550000Y-47950000D01*
D12*
X171200000Y-105200000D02*
G75*
G03*
X171200000Y-105200000I-500000J0D01*
G01*
X126700000Y-83300000D02*
G75*
G03*
X126700000Y-83300000I-500000J0D01*
G01*
D11*
X128900000Y-100300000D02*
G75*
G03*
X128900000Y-100300000I-1000000J0D01*
G01*
D10*
X166300000Y-107300000D02*
G75*
G03*
X166300000Y-107300000I-300000J0D01*
G01*
X130500000Y-84700000D02*
G75*
G03*
X130500000Y-84700000I-300000J0D01*
G01*
D11*
X115000000Y-119600000D02*
G75*
G03*
X115000000Y-119600000I-1000000J0D01*
G01*
D13*
X139550000Y-52350000D02*
X134250000Y-47900000D01*
D11*
X126300000Y-100600000D02*
G75*
G03*
X126300000Y-100600000I-1000000J0D01*
G01*
X157800000Y-111800000D02*
G75*
G03*
X157800000Y-111800000I-1000000J0D01*
G01*
X134000000Y-99400000D02*
G75*
G03*
X134000000Y-99400000I-1000000J0D01*
G01*
X121000000Y-100900000D02*
G75*
G03*
X121000000Y-100900000I-1000000J0D01*
G01*
X141100000Y-82700000D02*
G75*
G03*
X141100000Y-82700000I-1000000J0D01*
G01*
X135100000Y-118300000D02*
G75*
G03*
X135100000Y-118300000I-1000000J0D01*
G01*
X137700000Y-117800000D02*
G75*
G03*
X137700000Y-117800000I-1000000J0D01*
G01*
D10*
X121900000Y-107200000D02*
G75*
G03*
X121900000Y-107200000I-300000J0D01*
G01*
D11*
X158900000Y-89900000D02*
G75*
G03*
X158900000Y-89900000I-1000000J0D01*
G01*
D12*
X170700000Y-105600000D02*
G75*
G03*
X170700000Y-105600000I-500000J0D01*
G01*
D11*
X162600000Y-109600000D02*
G75*
G03*
X162600000Y-109600000I-1000000J0D01*
G01*
D12*
X121400000Y-106500000D02*
G75*
G03*
X121400000Y-106500000I-500000J0D01*
G01*
D11*
X160200000Y-110800000D02*
G75*
G03*
X160200000Y-110800000I-1000000J0D01*
G01*
D13*
X152550000Y-47950000D02*
X147800000Y-52050000D01*
D10*
X162200000Y-83300000D02*
G75*
G03*
X162200000Y-83300000I-300000J0D01*
G01*
D12*
X118500000Y-106100000D02*
G75*
G03*
X118500000Y-106100000I-500000J0D01*
G01*
D11*
X148300000Y-80000000D02*
G75*
G03*
X148300000Y-80000000I-1000000J0D01*
G01*
X147900000Y-115400000D02*
G75*
G03*
X147900000Y-115400000I-1000000J0D01*
G01*
D13*
X140850000Y-47350000D02*
X143450000Y-41300000D01*
X137650000Y-59050000D02*
X139550000Y-52350000D01*
D12*
X118300000Y-105100000D02*
G75*
G03*
X118300000Y-105100000I-500000J0D01*
G01*
X160900000Y-83600000D02*
G75*
G03*
X160900000Y-83600000I-500000J0D01*
G01*
D11*
X138600000Y-83500000D02*
G75*
G03*
X138600000Y-83500000I-1000000J0D01*
G01*
X155400000Y-112800000D02*
G75*
G03*
X155400000Y-112800000I-1000000J0D01*
G01*
D12*
X116800000Y-105200000D02*
G75*
G03*
X116800000Y-105200000I-500000J0D01*
G01*
D11*
X132600000Y-118700000D02*
G75*
G03*
X132600000Y-118700000I-1000000J0D01*
G01*
X127500000Y-119300000D02*
G75*
G03*
X127500000Y-119300000I-1000000J0D01*
G01*
X133400000Y-84600000D02*
G75*
G03*
X133400000Y-84600000I-1000000J0D01*
G01*
X165000000Y-108300000D02*
G75*
G03*
X165000000Y-108300000I-1000000J0D01*
G01*
X136000000Y-84100000D02*
G75*
G03*
X136000000Y-84100000I-1000000J0D01*
G01*
X150400000Y-114600000D02*
G75*
G03*
X150400000Y-114600000I-1000000J0D01*
G01*
X154800000Y-76500000D02*
G75*
G03*
X154800000Y-76500000I-1000000J0D01*
G01*
X154300000Y-92500000D02*
G75*
G03*
X154300000Y-92500000I-1000000J0D01*
G01*
X149400000Y-94700000D02*
G75*
G03*
X149400000Y-94700000I-1000000J0D01*
G01*
D13*
X134250000Y-47900000D02*
X140850000Y-47350000D01*
D11*
X146000000Y-81000000D02*
G75*
G03*
X146000000Y-81000000I-1000000J0D01*
G01*
D13*
X137650000Y-59050000D02*
X143550000Y-56450000D01*
D12*
X129200000Y-84400000D02*
G75*
G03*
X129200000Y-84400000I-500000J0D01*
G01*
D10*
X157300000Y-84700000D02*
G75*
G03*
X157300000Y-84700000I-300000J0D01*
G01*
D11*
X144300000Y-96700000D02*
G75*
G03*
X144300000Y-96700000I-1000000J0D01*
G01*
X123600000Y-100800000D02*
G75*
G03*
X123600000Y-100800000I-1000000J0D01*
G01*
M02*
