%TF.GenerationSoftware,KiCad,Pcbnew,(6.0.1)*%
%TF.CreationDate,2022-03-09T08:36:07+01:00*%
%TF.ProjectId,LEDChristmasTree-2022,4c454443-6872-4697-9374-6d6173547265,rev?*%
%TF.SameCoordinates,Original*%
%TF.FileFunction,Legend,Bot*%
%TF.FilePolarity,Positive*%
%FSLAX46Y46*%
G04 Gerber Fmt 4.6, Leading zero omitted, Abs format (unit mm)*
G04 Created by KiCad (PCBNEW (6.0.1)) date 2022-03-09 08:36:07*
%MOMM*%
%LPD*%
G01*
G04 APERTURE LIST*
%ADD10C,0.254000*%
%ADD11C,0.200000*%
%ADD12C,0.150000*%
%ADD13C,0.120000*%
G04 APERTURE END LIST*
D10*
X133300000Y-71800000D02*
X133300000Y-70400000D01*
X132600000Y-71100000D02*
X134000000Y-71100000D01*
X153200000Y-71100000D02*
X154600000Y-71100000D01*
D11*
X136478571Y-96871428D02*
X137550000Y-96871428D01*
X137764285Y-96800000D01*
X137907142Y-96657142D01*
X137978571Y-96442857D01*
X137978571Y-96300000D01*
X137978571Y-98300000D02*
X137978571Y-97585714D01*
X136478571Y-97585714D01*
X137835714Y-99657142D02*
X137907142Y-99585714D01*
X137978571Y-99371428D01*
X137978571Y-99228571D01*
X137907142Y-99014285D01*
X137764285Y-98871428D01*
X137621428Y-98800000D01*
X137335714Y-98728571D01*
X137121428Y-98728571D01*
X136835714Y-98800000D01*
X136692857Y-98871428D01*
X136550000Y-99014285D01*
X136478571Y-99228571D01*
X136478571Y-99371428D01*
X136550000Y-99585714D01*
X136621428Y-99657142D01*
X136478571Y-100728571D02*
X137550000Y-100728571D01*
X137764285Y-100657142D01*
X137907142Y-100514285D01*
X137978571Y-100300000D01*
X137978571Y-100157142D01*
X137978571Y-102157142D02*
X137978571Y-101442857D01*
X136478571Y-101442857D01*
X137835714Y-103514285D02*
X137907142Y-103442857D01*
X137978571Y-103228571D01*
X137978571Y-103085714D01*
X137907142Y-102871428D01*
X137764285Y-102728571D01*
X137621428Y-102657142D01*
X137335714Y-102585714D01*
X137121428Y-102585714D01*
X136835714Y-102657142D01*
X136692857Y-102728571D01*
X136550000Y-102871428D01*
X136478571Y-103085714D01*
X136478571Y-103228571D01*
X136550000Y-103442857D01*
X136621428Y-103514285D01*
X136478571Y-104585714D02*
X137550000Y-104585714D01*
X137764285Y-104514285D01*
X137907142Y-104371428D01*
X137978571Y-104157142D01*
X137978571Y-104014285D01*
X137978571Y-106014285D02*
X137978571Y-105300000D01*
X136478571Y-105300000D01*
X137835714Y-107371428D02*
X137907142Y-107300000D01*
X137978571Y-107085714D01*
X137978571Y-106942857D01*
X137907142Y-106728571D01*
X137764285Y-106585714D01*
X137621428Y-106514285D01*
X137335714Y-106442857D01*
X137121428Y-106442857D01*
X136835714Y-106514285D01*
X136692857Y-106585714D01*
X136550000Y-106728571D01*
X136478571Y-106942857D01*
X136478571Y-107085714D01*
X136550000Y-107300000D01*
X136621428Y-107371428D01*
X136478571Y-108442857D02*
X137550000Y-108442857D01*
X137764285Y-108371428D01*
X137907142Y-108228571D01*
X137978571Y-108014285D01*
X137978571Y-107871428D01*
X137978571Y-109871428D02*
X137978571Y-109157142D01*
X136478571Y-109157142D01*
X137835714Y-111228571D02*
X137907142Y-111157142D01*
X137978571Y-110942857D01*
X137978571Y-110800000D01*
X137907142Y-110585714D01*
X137764285Y-110442857D01*
X137621428Y-110371428D01*
X137335714Y-110300000D01*
X137121428Y-110300000D01*
X136835714Y-110371428D01*
X136692857Y-110442857D01*
X136550000Y-110585714D01*
X136478571Y-110800000D01*
X136478571Y-110942857D01*
X136550000Y-111157142D01*
X136621428Y-111228571D01*
D12*
%TO.C,BT1*%
X144385714Y-122578571D02*
X144242857Y-122626190D01*
X144195238Y-122673809D01*
X144147619Y-122769047D01*
X144147619Y-122911904D01*
X144195238Y-123007142D01*
X144242857Y-123054761D01*
X144338095Y-123102380D01*
X144719047Y-123102380D01*
X144719047Y-122102380D01*
X144385714Y-122102380D01*
X144290476Y-122150000D01*
X144242857Y-122197619D01*
X144195238Y-122292857D01*
X144195238Y-122388095D01*
X144242857Y-122483333D01*
X144290476Y-122530952D01*
X144385714Y-122578571D01*
X144719047Y-122578571D01*
X143861904Y-122102380D02*
X143290476Y-122102380D01*
X143576190Y-123102380D02*
X143576190Y-122102380D01*
X142433333Y-123102380D02*
X143004761Y-123102380D01*
X142719047Y-123102380D02*
X142719047Y-122102380D01*
X142814285Y-122245238D01*
X142909523Y-122340476D01*
X143004761Y-122388095D01*
D13*
%TO.C,R11*%
X144122500Y-57037258D02*
X144122500Y-56562742D01*
X143077500Y-57037258D02*
X143077500Y-56562742D01*
D10*
%TO.C,BT1*%
X132000000Y-127600000D02*
X134000000Y-127600000D01*
X132000000Y-127600000D02*
X132000000Y-125600000D01*
X155200000Y-72400000D02*
X153200000Y-72400000D01*
X132600000Y-129800000D02*
X134000000Y-129800000D01*
X155200000Y-127600000D02*
X155200000Y-125600000D01*
X142200000Y-127600000D02*
X145000000Y-127600000D01*
X145000000Y-72400000D02*
X142200000Y-72400000D01*
X132000000Y-72400000D02*
X132000000Y-74400000D01*
X134000000Y-72400000D02*
X132000000Y-72400000D01*
X155200000Y-72400000D02*
X155200000Y-74400000D01*
X153300000Y-129800000D02*
X154700000Y-129800000D01*
X153200000Y-127600000D02*
X155200000Y-127600000D01*
X154000000Y-129100000D02*
X154000000Y-130500000D01*
D13*
%TO.C,R3*%
X128087742Y-124477500D02*
X128562258Y-124477500D01*
X128087742Y-125522500D02*
X128562258Y-125522500D01*
%TO.C,R12*%
X128562258Y-112277500D02*
X128087742Y-112277500D01*
X128562258Y-113322500D02*
X128087742Y-113322500D01*
%TO.C,R5*%
X159737258Y-123422500D02*
X159262742Y-123422500D01*
X159737258Y-122377500D02*
X159262742Y-122377500D01*
%TO.C,R7*%
X159737258Y-103222500D02*
X159262742Y-103222500D01*
X159737258Y-102177500D02*
X159262742Y-102177500D01*
%TO.C,R9*%
X128562258Y-102877500D02*
X128087742Y-102877500D01*
X128562258Y-103922500D02*
X128087742Y-103922500D01*
%TO.C,G\u002A\u002A\u002A*%
G36*
X176405240Y-127880594D02*
G01*
X176380893Y-127973553D01*
X176341646Y-128065241D01*
X176292198Y-128151124D01*
X176221528Y-128237485D01*
X176136940Y-128303828D01*
X176033538Y-128354752D01*
X176025039Y-128357921D01*
X175937235Y-128378090D01*
X175831706Y-128384537D01*
X175714697Y-128378165D01*
X175592452Y-128359875D01*
X175471215Y-128330570D01*
X175357233Y-128291153D01*
X175256748Y-128242524D01*
X175198818Y-128207242D01*
X175086584Y-128125320D01*
X174989595Y-128032521D01*
X174905260Y-127925293D01*
X174830993Y-127800083D01*
X174764205Y-127653338D01*
X174702306Y-127481505D01*
X174642600Y-127297820D01*
X175587819Y-127297820D01*
X175588275Y-127305202D01*
X175595689Y-127336524D01*
X175610179Y-127388722D01*
X175630625Y-127457942D01*
X175655908Y-127540330D01*
X175684908Y-127632030D01*
X175704177Y-127691899D01*
X175732646Y-127779496D01*
X175757810Y-127855900D01*
X175778319Y-127917064D01*
X175792825Y-127958940D01*
X175799981Y-127977479D01*
X175806593Y-127982340D01*
X175824393Y-127970868D01*
X175852292Y-127934380D01*
X175853987Y-127931871D01*
X175872716Y-127901959D01*
X175884499Y-127874480D01*
X175890917Y-127841645D01*
X175893546Y-127795664D01*
X175893967Y-127728747D01*
X175893572Y-127682120D01*
X175891075Y-127626319D01*
X175884952Y-127585277D01*
X175873686Y-127550439D01*
X175855762Y-127513249D01*
X175841555Y-127488818D01*
X175802912Y-127434184D01*
X175762724Y-127388822D01*
X175728915Y-127360791D01*
X175685187Y-127331902D01*
X175642224Y-127309243D01*
X175607332Y-127296615D01*
X175587819Y-127297820D01*
X174642600Y-127297820D01*
X174636320Y-127278499D01*
X174223774Y-127272451D01*
X174111045Y-127270566D01*
X174004500Y-127268068D01*
X173920535Y-127265042D01*
X173855850Y-127261290D01*
X173807143Y-127256614D01*
X173771113Y-127250817D01*
X173744459Y-127243700D01*
X173658163Y-127209952D01*
X173585230Y-127169706D01*
X173513123Y-127115704D01*
X173480474Y-127090164D01*
X173454742Y-127073464D01*
X173444882Y-127071966D01*
X173447996Y-127086872D01*
X173458411Y-127122284D01*
X173473615Y-127168453D01*
X173486570Y-127207556D01*
X173497962Y-127245532D01*
X173502348Y-127265383D01*
X173491971Y-127269180D01*
X173455667Y-127272292D01*
X173396070Y-127273950D01*
X173316083Y-127274080D01*
X173218609Y-127272609D01*
X173176599Y-127271707D01*
X173091966Y-127269471D01*
X173019561Y-127265667D01*
X172956328Y-127258696D01*
X172899210Y-127246954D01*
X172845149Y-127228843D01*
X172791089Y-127202761D01*
X172733973Y-127167107D01*
X172670744Y-127120281D01*
X172598345Y-127060681D01*
X172513720Y-126986708D01*
X172413811Y-126896759D01*
X172295561Y-126789235D01*
X172209287Y-126710520D01*
X172109473Y-126618987D01*
X172009245Y-126526652D01*
X171914037Y-126438531D01*
X171829280Y-126359642D01*
X171760408Y-126295001D01*
X171744319Y-126279824D01*
X171682056Y-126221499D01*
X171628256Y-126171737D01*
X171586006Y-126133353D01*
X171558393Y-126109156D01*
X171548502Y-126101960D01*
X171548696Y-126102975D01*
X171554547Y-126123351D01*
X171567745Y-126166872D01*
X171587205Y-126230032D01*
X171611843Y-126309326D01*
X171640575Y-126401245D01*
X171672316Y-126502286D01*
X171690015Y-126558671D01*
X171723841Y-126668039D01*
X171749929Y-126755586D01*
X171769232Y-126825073D01*
X171782701Y-126880265D01*
X171791288Y-126924923D01*
X171795945Y-126962810D01*
X171797624Y-126997690D01*
X171797614Y-127036505D01*
X171793788Y-127083433D01*
X171783221Y-127118783D01*
X171763601Y-127153112D01*
X171756666Y-127162693D01*
X171716224Y-127204731D01*
X171670617Y-127237676D01*
X171664612Y-127240907D01*
X171650351Y-127247778D01*
X171634228Y-127253457D01*
X171613557Y-127258079D01*
X171585650Y-127261780D01*
X171547822Y-127264693D01*
X171497383Y-127266952D01*
X171431648Y-127268694D01*
X171347929Y-127270051D01*
X171243538Y-127271159D01*
X171115790Y-127272153D01*
X170961995Y-127273166D01*
X170883610Y-127273638D01*
X170736771Y-127274297D01*
X170614676Y-127274437D01*
X170514613Y-127273991D01*
X170433872Y-127272893D01*
X170369740Y-127271080D01*
X170319507Y-127268483D01*
X170280462Y-127265040D01*
X170249892Y-127260682D01*
X170225088Y-127255346D01*
X170173677Y-127240446D01*
X170054064Y-127190529D01*
X169951894Y-127124979D01*
X169870518Y-127046227D01*
X169813286Y-126956703D01*
X169801719Y-126930993D01*
X169787125Y-126894552D01*
X169781421Y-126874096D01*
X169781894Y-126873268D01*
X169801357Y-126869133D01*
X169849025Y-126865723D01*
X169924460Y-126863050D01*
X170027224Y-126861126D01*
X170156877Y-126859963D01*
X170312982Y-126859573D01*
X170416629Y-126859362D01*
X170537050Y-126858506D01*
X170641136Y-126857050D01*
X170726408Y-126855054D01*
X170790385Y-126852580D01*
X170830590Y-126849689D01*
X170844543Y-126846442D01*
X170844370Y-126845201D01*
X170838587Y-126823568D01*
X170825403Y-126778846D01*
X170805913Y-126714610D01*
X170781209Y-126634438D01*
X170752383Y-126541905D01*
X170720528Y-126440588D01*
X170711074Y-126410580D01*
X170670194Y-126278328D01*
X170638389Y-126169413D01*
X170615244Y-126080713D01*
X170600343Y-126009108D01*
X170593270Y-125951479D01*
X170593609Y-125904704D01*
X170600945Y-125865664D01*
X170614861Y-125831238D01*
X170634942Y-125798306D01*
X170635199Y-125797936D01*
X170673336Y-125755442D01*
X170723574Y-125723156D01*
X170789984Y-125699635D01*
X170876640Y-125683431D01*
X170987614Y-125673100D01*
X171148720Y-125662906D01*
X170993018Y-125503405D01*
X170989519Y-125499821D01*
X170917481Y-125426008D01*
X170836574Y-125343086D01*
X170756447Y-125260942D01*
X170686746Y-125189465D01*
X170536176Y-125035025D01*
X170844799Y-125036333D01*
X171153423Y-125037641D01*
X171404990Y-125298522D01*
X171455919Y-125351339D01*
X171596465Y-125497098D01*
X171718699Y-125623818D01*
X171823864Y-125732719D01*
X171913200Y-125825019D01*
X171987951Y-125901936D01*
X172049357Y-125964691D01*
X172098662Y-126014502D01*
X172137108Y-126052587D01*
X172165935Y-126080165D01*
X172186387Y-126098456D01*
X172199705Y-126108679D01*
X172207132Y-126112051D01*
X172209909Y-126109793D01*
X172209278Y-126103122D01*
X172206482Y-126093259D01*
X172202763Y-126081421D01*
X172196476Y-126060869D01*
X172181087Y-126010993D01*
X172159144Y-125940152D01*
X172131484Y-125851036D01*
X172098946Y-125746334D01*
X172062367Y-125628734D01*
X172022588Y-125500925D01*
X171980445Y-125365598D01*
X171936777Y-125225439D01*
X171892422Y-125083138D01*
X171848220Y-124941385D01*
X171805007Y-124802867D01*
X171763624Y-124670274D01*
X171724907Y-124546295D01*
X171689695Y-124433619D01*
X171658827Y-124334934D01*
X171633141Y-124252930D01*
X171613475Y-124190295D01*
X171600668Y-124149718D01*
X171595557Y-124133888D01*
X171596288Y-124130479D01*
X171607210Y-124125939D01*
X171632239Y-124122365D01*
X171673813Y-124119658D01*
X171734368Y-124117723D01*
X171816343Y-124116461D01*
X171922174Y-124115775D01*
X172054298Y-124115568D01*
X172520068Y-124115568D01*
X172948824Y-125487571D01*
X173377580Y-126859573D01*
X173942792Y-126859573D01*
X173979347Y-126859560D01*
X174101204Y-126859326D01*
X174212727Y-126858823D01*
X174310850Y-126858085D01*
X174392505Y-126857144D01*
X174454627Y-126856034D01*
X174494149Y-126854789D01*
X174508004Y-126853440D01*
X174507976Y-126853248D01*
X174503142Y-126836617D01*
X174490594Y-126795460D01*
X174471158Y-126732444D01*
X174445665Y-126650238D01*
X174414943Y-126551509D01*
X174379820Y-126438925D01*
X174341126Y-126315155D01*
X174299690Y-126182866D01*
X174296524Y-126172768D01*
X174255229Y-126040780D01*
X174216743Y-125917315D01*
X174181899Y-125805072D01*
X174151526Y-125706747D01*
X174126457Y-125625038D01*
X174107521Y-125562644D01*
X174095550Y-125522262D01*
X174091375Y-125506589D01*
X174096466Y-125504840D01*
X174125944Y-125502118D01*
X174178731Y-125499697D01*
X174251442Y-125497664D01*
X174340692Y-125496105D01*
X174443096Y-125495106D01*
X174555270Y-125494754D01*
X175019166Y-125494754D01*
X175145417Y-125886241D01*
X175171520Y-125967176D01*
X175212836Y-126095258D01*
X175255425Y-126227265D01*
X175296765Y-126355377D01*
X175334333Y-126471779D01*
X175365606Y-126568651D01*
X175459545Y-126859573D01*
X175542306Y-126859573D01*
X175572574Y-126860317D01*
X175697224Y-126876332D01*
X175829029Y-126911536D01*
X175959022Y-126963687D01*
X176009502Y-126989089D01*
X176069907Y-127026035D01*
X176126295Y-127070779D01*
X176189205Y-127130980D01*
X176268188Y-127219903D01*
X176337491Y-127325378D01*
X176384163Y-127437906D01*
X176410446Y-127563113D01*
X176418580Y-127706624D01*
X176418029Y-127728747D01*
X176416843Y-127776329D01*
X176405240Y-127880594D01*
G37*
G36*
X174503368Y-123821376D02*
G01*
X174574544Y-123833843D01*
X174627872Y-123850547D01*
X174747798Y-123907222D01*
X174855721Y-123984936D01*
X174946517Y-124079578D01*
X175015057Y-124187039D01*
X175037452Y-124235860D01*
X175053066Y-124283579D01*
X175061687Y-124336105D01*
X175066108Y-124405384D01*
X175066832Y-124430356D01*
X175061341Y-124538935D01*
X175038809Y-124632468D01*
X174996387Y-124719462D01*
X174931230Y-124808427D01*
X174897427Y-124845765D01*
X174809785Y-124919589D01*
X174702980Y-124981013D01*
X174572654Y-125032764D01*
X174529013Y-125042133D01*
X174459104Y-125047996D01*
X174377387Y-125048556D01*
X174292684Y-125044058D01*
X174213816Y-125034753D01*
X174149605Y-125020886D01*
X174052764Y-124982668D01*
X173942309Y-124915604D01*
X173845120Y-124830650D01*
X173768518Y-124733328D01*
X173745649Y-124692149D01*
X173707345Y-124585646D01*
X173689804Y-124469804D01*
X173693100Y-124351845D01*
X173717304Y-124238993D01*
X173762491Y-124138469D01*
X173802142Y-124083010D01*
X173880729Y-124002632D01*
X173975427Y-123930654D01*
X174078663Y-123872561D01*
X174182867Y-123833843D01*
X174238451Y-123823301D01*
X174323675Y-123816105D01*
X174415863Y-123815463D01*
X174503368Y-123821376D01*
G37*
%TO.C,R2*%
X122737258Y-125522500D02*
X122262742Y-125522500D01*
X122737258Y-124477500D02*
X122262742Y-124477500D01*
%TO.C,R4*%
X159737258Y-96622500D02*
X159262742Y-96622500D01*
X159737258Y-95577500D02*
X159262742Y-95577500D01*
%TO.C,SW1*%
X173065932Y-115611448D02*
X173354997Y-115634720D01*
X173884049Y-116621738D02*
X173921385Y-116334151D01*
X172063414Y-116423271D02*
X173065932Y-115611448D01*
X174330700Y-120828043D02*
X173716755Y-121325206D01*
X171610645Y-120392843D02*
X171736509Y-120548272D01*
X169374444Y-115962899D02*
X169988390Y-115465736D01*
X171150899Y-115296410D02*
X174738026Y-119726142D01*
X173884049Y-116621738D02*
X172881530Y-117433561D01*
X173354997Y-115634720D02*
X173921385Y-116334151D01*
X169722684Y-118061405D02*
X170792529Y-119382553D01*
%TO.C,R1*%
X159737258Y-105277500D02*
X159262742Y-105277500D01*
X159737258Y-106322500D02*
X159262742Y-106322500D01*
%TO.C,R10*%
X142062742Y-63277500D02*
X142537258Y-63277500D01*
X142062742Y-64322500D02*
X142537258Y-64322500D01*
%TO.C,R8*%
X128087742Y-96477500D02*
X128562258Y-96477500D01*
X128087742Y-97522500D02*
X128562258Y-97522500D01*
%TO.C,R6*%
X159262742Y-117877500D02*
X159737258Y-117877500D01*
X159262742Y-118922500D02*
X159737258Y-118922500D01*
%TD*%
M02*
