M48
; DRILL file {KiCad (6.0.1)} date Mon Mar  7 19:11:39 2022
; FORMAT={-:-/ absolute / inch / decimal}
; #@! TF.CreationDate,2022-03-07T19:11:39+01:00
; #@! TF.GenerationSoftware,Kicad,Pcbnew,(6.0.1)
; #@! TF.FileFunction,Plated,1,2,PTH
FMAT,2
INCH
; #@! TA.AperFunction,Plated,PTH,ViaDrill
T1C0.0157
%
G90
G05
T1
X4.5276Y-4.9646
X4.7008Y-4.9646
X4.7953Y-4.0945
X4.9409Y-4.315
X4.9843Y-5.0551
X5.0906Y-3.1535
X5.0945Y-3.6654
X5.1102Y-4.315
X5.1693Y-4.9213
X5.2677Y-3.6654
X5.3228Y-3.0079
X5.3425Y-4.9213
X5.4961Y-3.0079
X5.5Y-3.4961
X5.5472Y-4.1654
X5.5866Y-2.3622
X5.6535Y-1.9449
X5.6535Y-2.1102
X5.6575Y-2.6024
X5.7126Y-4.1654
X5.7205Y-4.3504
X5.8228Y-3.3701
X5.8307Y-2.6024
X5.9016Y-2.9409
X5.9213Y-4.8386
X5.9882Y-3.8228
X5.9961Y-3.3701
X6.0591Y-3.9331
X6.0945Y-4.8386
X6.2323Y-3.9331
X6.3976Y-4.6614
X6.5709Y-4.6614
X6.6535Y-4.9882
T0
M30
