%TF.GenerationSoftware,KiCad,Pcbnew,(6.0.1)*%
%TF.CreationDate,2022-03-07T19:11:38+01:00*%
%TF.ProjectId,LEDChristmasTree-2022,4c454443-6872-4697-9374-6d6173547265,rev?*%
%TF.SameCoordinates,Original*%
%TF.FileFunction,Legend,Bot*%
%TF.FilePolarity,Positive*%
%FSLAX46Y46*%
G04 Gerber Fmt 4.6, Leading zero omitted, Abs format (unit mm)*
G04 Created by KiCad (PCBNEW (6.0.1)) date 2022-03-07 19:11:38*
%MOMM*%
%LPD*%
G01*
G04 APERTURE LIST*
%ADD10C,0.254000*%
%ADD11C,0.200000*%
%ADD12C,0.150000*%
%ADD13C,0.120000*%
G04 APERTURE END LIST*
D10*
X133300000Y-71800000D02*
X133300000Y-70400000D01*
X132600000Y-71100000D02*
X134000000Y-71100000D01*
X153200000Y-71100000D02*
X154600000Y-71100000D01*
D11*
X136478571Y-96871428D02*
X137550000Y-96871428D01*
X137764285Y-96800000D01*
X137907142Y-96657142D01*
X137978571Y-96442857D01*
X137978571Y-96300000D01*
X137978571Y-98300000D02*
X137978571Y-97585714D01*
X136478571Y-97585714D01*
X137835714Y-99657142D02*
X137907142Y-99585714D01*
X137978571Y-99371428D01*
X137978571Y-99228571D01*
X137907142Y-99014285D01*
X137764285Y-98871428D01*
X137621428Y-98800000D01*
X137335714Y-98728571D01*
X137121428Y-98728571D01*
X136835714Y-98800000D01*
X136692857Y-98871428D01*
X136550000Y-99014285D01*
X136478571Y-99228571D01*
X136478571Y-99371428D01*
X136550000Y-99585714D01*
X136621428Y-99657142D01*
X136478571Y-100728571D02*
X137550000Y-100728571D01*
X137764285Y-100657142D01*
X137907142Y-100514285D01*
X137978571Y-100300000D01*
X137978571Y-100157142D01*
X137978571Y-102157142D02*
X137978571Y-101442857D01*
X136478571Y-101442857D01*
X137835714Y-103514285D02*
X137907142Y-103442857D01*
X137978571Y-103228571D01*
X137978571Y-103085714D01*
X137907142Y-102871428D01*
X137764285Y-102728571D01*
X137621428Y-102657142D01*
X137335714Y-102585714D01*
X137121428Y-102585714D01*
X136835714Y-102657142D01*
X136692857Y-102728571D01*
X136550000Y-102871428D01*
X136478571Y-103085714D01*
X136478571Y-103228571D01*
X136550000Y-103442857D01*
X136621428Y-103514285D01*
X136478571Y-104585714D02*
X137550000Y-104585714D01*
X137764285Y-104514285D01*
X137907142Y-104371428D01*
X137978571Y-104157142D01*
X137978571Y-104014285D01*
X137978571Y-106014285D02*
X137978571Y-105300000D01*
X136478571Y-105300000D01*
X137835714Y-107371428D02*
X137907142Y-107300000D01*
X137978571Y-107085714D01*
X137978571Y-106942857D01*
X137907142Y-106728571D01*
X137764285Y-106585714D01*
X137621428Y-106514285D01*
X137335714Y-106442857D01*
X137121428Y-106442857D01*
X136835714Y-106514285D01*
X136692857Y-106585714D01*
X136550000Y-106728571D01*
X136478571Y-106942857D01*
X136478571Y-107085714D01*
X136550000Y-107300000D01*
X136621428Y-107371428D01*
X136478571Y-108442857D02*
X137550000Y-108442857D01*
X137764285Y-108371428D01*
X137907142Y-108228571D01*
X137978571Y-108014285D01*
X137978571Y-107871428D01*
X137978571Y-109871428D02*
X137978571Y-109157142D01*
X136478571Y-109157142D01*
X137835714Y-111228571D02*
X137907142Y-111157142D01*
X137978571Y-110942857D01*
X137978571Y-110800000D01*
X137907142Y-110585714D01*
X137764285Y-110442857D01*
X137621428Y-110371428D01*
X137335714Y-110300000D01*
X137121428Y-110300000D01*
X136835714Y-110371428D01*
X136692857Y-110442857D01*
X136550000Y-110585714D01*
X136478571Y-110800000D01*
X136478571Y-110942857D01*
X136550000Y-111157142D01*
X136621428Y-111228571D01*
D12*
%TO.C,BT1*%
X144385714Y-122578571D02*
X144242857Y-122626190D01*
X144195238Y-122673809D01*
X144147619Y-122769047D01*
X144147619Y-122911904D01*
X144195238Y-123007142D01*
X144242857Y-123054761D01*
X144338095Y-123102380D01*
X144719047Y-123102380D01*
X144719047Y-122102380D01*
X144385714Y-122102380D01*
X144290476Y-122150000D01*
X144242857Y-122197619D01*
X144195238Y-122292857D01*
X144195238Y-122388095D01*
X144242857Y-122483333D01*
X144290476Y-122530952D01*
X144385714Y-122578571D01*
X144719047Y-122578571D01*
X143861904Y-122102380D02*
X143290476Y-122102380D01*
X143576190Y-123102380D02*
X143576190Y-122102380D01*
X142433333Y-123102380D02*
X143004761Y-123102380D01*
X142719047Y-123102380D02*
X142719047Y-122102380D01*
X142814285Y-122245238D01*
X142909523Y-122340476D01*
X143004761Y-122388095D01*
D13*
%TO.C,R11*%
X143077500Y-57037258D02*
X143077500Y-56562742D01*
X144122500Y-57037258D02*
X144122500Y-56562742D01*
D10*
%TO.C,BT1*%
X153300000Y-129800000D02*
X154700000Y-129800000D01*
X145000000Y-72400000D02*
X142200000Y-72400000D01*
X132600000Y-129800000D02*
X134000000Y-129800000D01*
X154000000Y-129100000D02*
X154000000Y-130500000D01*
X153200000Y-127600000D02*
X155200000Y-127600000D01*
X134000000Y-72400000D02*
X132000000Y-72400000D01*
X155200000Y-127600000D02*
X155200000Y-125600000D01*
X132000000Y-72400000D02*
X132000000Y-74400000D01*
X155200000Y-72400000D02*
X155200000Y-74400000D01*
X132000000Y-127600000D02*
X132000000Y-125600000D01*
X132000000Y-127600000D02*
X134000000Y-127600000D01*
X142200000Y-127600000D02*
X145000000Y-127600000D01*
X155200000Y-72400000D02*
X153200000Y-72400000D01*
D13*
%TO.C,R3*%
X128087742Y-125522500D02*
X128562258Y-125522500D01*
X128087742Y-124477500D02*
X128562258Y-124477500D01*
%TO.C,R12*%
X128562258Y-112277500D02*
X128087742Y-112277500D01*
X128562258Y-113322500D02*
X128087742Y-113322500D01*
%TO.C,R5*%
X159737258Y-123422500D02*
X159262742Y-123422500D01*
X159737258Y-122377500D02*
X159262742Y-122377500D01*
%TO.C,R7*%
X159737258Y-103222500D02*
X159262742Y-103222500D01*
X159737258Y-102177500D02*
X159262742Y-102177500D01*
%TO.C,R9*%
X128562258Y-103922500D02*
X128087742Y-103922500D01*
X128562258Y-102877500D02*
X128087742Y-102877500D01*
%TO.C,R2*%
X122737258Y-124477500D02*
X122262742Y-124477500D01*
X122737258Y-125522500D02*
X122262742Y-125522500D01*
%TO.C,R4*%
X159737258Y-96622500D02*
X159262742Y-96622500D01*
X159737258Y-95577500D02*
X159262742Y-95577500D01*
%TO.C,SW1*%
X174330700Y-120828043D02*
X173716755Y-121325206D01*
X173884049Y-116621738D02*
X173921385Y-116334151D01*
X173065932Y-115611448D02*
X173354997Y-115634720D01*
X172063414Y-116423271D02*
X173065932Y-115611448D01*
X169722684Y-118061405D02*
X170792529Y-119382553D01*
X173884049Y-116621738D02*
X172881530Y-117433561D01*
X173354997Y-115634720D02*
X173921385Y-116334151D01*
X171150899Y-115296410D02*
X174738026Y-119726142D01*
X169374444Y-115962899D02*
X169988390Y-115465736D01*
X171610645Y-120392843D02*
X171736509Y-120548272D01*
%TO.C,R1*%
X159737258Y-105277500D02*
X159262742Y-105277500D01*
X159737258Y-106322500D02*
X159262742Y-106322500D01*
%TO.C,R10*%
X142062742Y-64322500D02*
X142537258Y-64322500D01*
X142062742Y-63277500D02*
X142537258Y-63277500D01*
%TO.C,R8*%
X128087742Y-96477500D02*
X128562258Y-96477500D01*
X128087742Y-97522500D02*
X128562258Y-97522500D01*
%TO.C,R6*%
X159262742Y-118922500D02*
X159737258Y-118922500D01*
X159262742Y-117877500D02*
X159737258Y-117877500D01*
%TD*%
M02*
