M48
; DRILL file {KiCad (6.0.4)} date Sun Apr  3 17:40:07 2022
; FORMAT={-:-/ absolute / inch / decimal}
; #@! TF.CreationDate,2022-04-03T17:40:07+02:00
; #@! TF.GenerationSoftware,Kicad,Pcbnew,(6.0.4)
; #@! TF.FileFunction,Plated,1,2,PTH
FMAT,2
INCH
; #@! TA.AperFunction,Plated,PTH,ViaDrill
T1C0.0157
%
G90
G05
T1
X4.3346Y-4.9567
X4.5315Y-4.9646
X4.7008Y-4.9646
X4.7992Y-4.3858
X4.9409Y-4.315
X5.0984Y-3.6654
X5.1024Y-5.1378
X5.1102Y-4.315
X5.1535Y-3.563
X5.1693Y-4.9213
X5.2323Y-2.8937
X5.2677Y-3.6654
X5.3228Y-3.0079
X5.3425Y-4.9213
X5.4961Y-3.0079
X5.5118Y-3.1378
X5.5394Y-4.1654
X5.5669Y-4.3425
X5.6299Y-3.3386
X5.6535Y-1.937
X5.6535Y-2.1102
X5.6571Y-4.8984
X5.6654Y-2.6024
X5.7126Y-4.1654
X5.8228Y-3.3701
X5.8307Y-2.6024
X5.8898Y-3.5669
X5.9213Y-4.8386
X5.9567Y-3.7992
X5.9843Y-2.9409
X5.9961Y-3.3701
X6.0591Y-3.9331
X6.0945Y-4.8386
X6.1969Y-4.5591
X6.2323Y-3.9331
X6.2638Y-4.9764
X6.2835Y-4.1654
X6.3976Y-4.6575
X6.5709Y-4.6575
X6.7402Y-4.7717
T0
M30
