%TF.GenerationSoftware,KiCad,Pcbnew,(6.0.4)*%
%TF.CreationDate,2022-04-03T17:40:06+02:00*%
%TF.ProjectId,LEDChristmasTree-2022,4c454443-6872-4697-9374-6d6173547265,rev?*%
%TF.SameCoordinates,Original*%
%TF.FileFunction,Copper,L1,Top*%
%TF.FilePolarity,Positive*%
%FSLAX46Y46*%
G04 Gerber Fmt 4.6, Leading zero omitted, Abs format (unit mm)*
G04 Created by KiCad (PCBNEW (6.0.4)) date 2022-04-03 17:40:06*
%MOMM*%
%LPD*%
G01*
G04 APERTURE LIST*
%TA.AperFunction,SMDPad,CuDef*%
%ADD10R,1.100000X0.750000*%
%TD*%
%TA.AperFunction,SMDPad,CuDef*%
%ADD11R,0.750000X1.100000*%
%TD*%
%TA.AperFunction,ViaPad*%
%ADD12C,0.800000*%
%TD*%
%TA.AperFunction,Conductor*%
%ADD13C,0.762000*%
%TD*%
G04 APERTURE END LIST*
D10*
%TO.P,D12,1,K*%
%TO.N,GND*%
X128700000Y-108995000D03*
X128700000Y-110245000D03*
%TO.P,D12,2,A*%
%TO.N,Net-(D12-Pad2)*%
X126600000Y-110245000D03*
X126600000Y-108995000D03*
%TD*%
%TO.P,D6,1,K*%
%TO.N,GND*%
X146950000Y-65475000D03*
X146950000Y-66725000D03*
%TO.P,D6,2,A*%
%TO.N,Net-(D6-Pad2)*%
X144850000Y-65475000D03*
X144850000Y-66725000D03*
%TD*%
%TO.P,D8,1,K*%
%TO.N,GND*%
X157150000Y-99275000D03*
X157150000Y-100525000D03*
%TO.P,D8,2,A*%
%TO.N,Net-(D8-Pad2)*%
X155050000Y-100525000D03*
X155050000Y-99275000D03*
%TD*%
%TO.P,D5,1,K*%
%TO.N,GND*%
X153640000Y-122275000D03*
X153640000Y-123525000D03*
%TO.P,D5,2,A*%
%TO.N,Net-(D5-Pad2)*%
X151540000Y-123525000D03*
X151540000Y-122275000D03*
%TD*%
%TO.P,D3,1,K*%
%TO.N,GND*%
X134550000Y-124375000D03*
X134550000Y-125625000D03*
%TO.P,D3,2,A*%
%TO.N,Net-(D3-Pad2)*%
X132450000Y-124375000D03*
X132450000Y-125625000D03*
%TD*%
%TO.P,D10,1,K*%
%TO.N,GND*%
X132640000Y-93725000D03*
X132640000Y-92475000D03*
%TO.P,D10,2,A*%
%TO.N,Net-(D10-Pad2)*%
X130540000Y-92475000D03*
X130540000Y-93725000D03*
%TD*%
%TO.P,D11,1,K*%
%TO.N,GND*%
X138440000Y-77025000D03*
X138440000Y-75775000D03*
%TO.P,D11,2,A*%
%TO.N,Net-(D11-Pad2)*%
X136340000Y-75775000D03*
X136340000Y-77025000D03*
%TD*%
%TO.P,D7,1,K*%
%TO.N,GND*%
X165750000Y-117675000D03*
X165750000Y-118925000D03*
%TO.P,D7,2,A*%
%TO.N,Net-(D7-Pad2)*%
X163650000Y-117675000D03*
X163650000Y-118925000D03*
%TD*%
%TO.P,D1,1,K*%
%TO.N,GND*%
X143950000Y-105175000D03*
X143950000Y-106425000D03*
%TO.P,D1,2,A*%
%TO.N,Net-(D1-Pad2)*%
X141850000Y-105175000D03*
X141850000Y-106425000D03*
%TD*%
%TO.P,D4,1,K*%
%TO.N,GND*%
X151150000Y-86225000D03*
X151150000Y-84975000D03*
%TO.P,D4,2,A*%
%TO.N,Net-(D4-Pad2)*%
X149050000Y-84975000D03*
X149050000Y-86225000D03*
%TD*%
%TO.P,D2,1,K*%
%TO.N,GND*%
X118250000Y-125475000D03*
X118250000Y-126725000D03*
%TO.P,D2,2,A*%
%TO.N,Net-(D2-Pad2)*%
X116150000Y-125475000D03*
X116150000Y-126725000D03*
%TD*%
D11*
%TO.P,D9,1,K*%
%TO.N,GND*%
X144225000Y-50340000D03*
X142975000Y-50340000D03*
%TO.P,D9,2,A*%
%TO.N,Net-(D9-Pad2)*%
X142975000Y-52440000D03*
X144225000Y-52440000D03*
%TD*%
D12*
%TO.N,Net-(D12-Pad2)*%
X125500000Y-109600000D03*
%TO.N,Net-(D2-Pad2)*%
X115100000Y-126100000D03*
%TO.N,Net-(D3-Pad2)*%
X131300000Y-125000000D03*
%TO.N,Net-(D5-Pad2)*%
X150400000Y-122900000D03*
%TO.N,Net-(D7-Pad2)*%
X162500000Y-118300000D03*
%TO.N,Net-(D8-Pad2)*%
X153900000Y-99900000D03*
%TO.N,Net-(D11-Pad2)*%
X135200000Y-76400000D03*
%TO.N,GND*%
X143600000Y-49200000D03*
X121900000Y-111400000D03*
X166900000Y-118300000D03*
X152000000Y-74700000D03*
X119400000Y-126100000D03*
X135700000Y-125000000D03*
X132900000Y-73500000D03*
X154800000Y-122900000D03*
X133800000Y-93100000D03*
X143690000Y-124420000D03*
X151300000Y-96500000D03*
X148100000Y-66100000D03*
X152300000Y-85600000D03*
X171200000Y-121200000D03*
X157400000Y-115800000D03*
X141400000Y-110300000D03*
X110100000Y-125900000D03*
X159100000Y-126400000D03*
X149600000Y-90600000D03*
X143000000Y-84800000D03*
X129800000Y-109600000D03*
X145100000Y-105800000D03*
X130900000Y-90500000D03*
X159600000Y-105800000D03*
X158300000Y-99900000D03*
X139600000Y-76400000D03*
X140000000Y-79700000D03*
X129600000Y-130500000D03*
%TO.N,Net-(D10-Pad2)*%
X129500000Y-93100000D03*
%TO.N,Net-(D1-Pad2)*%
X140700000Y-105800000D03*
%TO.N,Net-(D4-Pad2)*%
X147900000Y-85600000D03*
%TO.N,Net-(D6-Pad2)*%
X143900000Y-66100000D03*
%TO.N,Net-(D9-Pad2)*%
X143600000Y-53600000D03*
%TD*%
D13*
%TO.N,Net-(D12-Pad2)*%
X125500000Y-109600000D02*
X126000000Y-109600000D01*
X125950000Y-109600000D02*
X126600000Y-110250000D01*
X125500000Y-109600000D02*
X125950000Y-109600000D01*
X126000000Y-109600000D02*
X126600000Y-109000000D01*
%TO.N,Net-(D2-Pad2)*%
X115525000Y-126100000D02*
X116150000Y-125475000D01*
X115100000Y-126100000D02*
X115525000Y-126100000D01*
X115525000Y-126100000D02*
X116150000Y-126725000D01*
%TO.N,Net-(D3-Pad2)*%
X131825000Y-125000000D02*
X132450000Y-125625000D01*
X131300000Y-125000000D02*
X131825000Y-125000000D01*
X131825000Y-125000000D02*
X132450000Y-124375000D01*
%TO.N,Net-(D5-Pad2)*%
X150925000Y-122900000D02*
X151550000Y-122275000D01*
X150925000Y-122900000D02*
X151550000Y-123525000D01*
X150400000Y-122900000D02*
X150925000Y-122900000D01*
%TO.N,Net-(D7-Pad2)*%
X163025000Y-118300000D02*
X163650000Y-117675000D01*
X163025000Y-118300000D02*
X163650000Y-118925000D01*
X162500000Y-118300000D02*
X163025000Y-118300000D01*
%TO.N,Net-(D8-Pad2)*%
X153900000Y-99900000D02*
X154425000Y-99900000D01*
X154425000Y-99900000D02*
X155050000Y-100525000D01*
X154425000Y-99900000D02*
X155050000Y-99275000D01*
%TO.N,Net-(D11-Pad2)*%
X135725000Y-76400000D02*
X136350000Y-75775000D01*
X135725000Y-76400000D02*
X136350000Y-77025000D01*
X135200000Y-76400000D02*
X135725000Y-76400000D01*
%TO.N,Net-(D10-Pad2)*%
X129925000Y-93100000D02*
X130550000Y-92475000D01*
X129925000Y-93100000D02*
X130550000Y-93725000D01*
X129500000Y-93100000D02*
X129925000Y-93100000D01*
%TO.N,Net-(D1-Pad2)*%
X141225000Y-105800000D02*
X141850000Y-105175000D01*
X140700000Y-105800000D02*
X141225000Y-105800000D01*
X141225000Y-105800000D02*
X141850000Y-106425000D01*
%TO.N,Net-(D4-Pad2)*%
X148425000Y-85600000D02*
X149050000Y-84975000D01*
X147900000Y-85600000D02*
X148425000Y-85600000D01*
X148425000Y-85600000D02*
X149050000Y-86225000D01*
%TO.N,Net-(D6-Pad2)*%
X144225000Y-66100000D02*
X144850000Y-65475000D01*
X143900000Y-66100000D02*
X144225000Y-66100000D01*
X144225000Y-66100000D02*
X144850000Y-66725000D01*
%TO.N,Net-(D9-Pad2)*%
X143600000Y-53600000D02*
X143600000Y-53075000D01*
X143600000Y-53075000D02*
X144225000Y-52450000D01*
X143600000Y-53075000D02*
X142975000Y-52450000D01*
%TD*%
%TA.AperFunction,Conductor*%
%TO.N,GND*%
G36*
X143519986Y-42206154D02*
G01*
X143571860Y-42221912D01*
X143610191Y-42241191D01*
X143653766Y-42273439D01*
X143683407Y-42304464D01*
X143707112Y-42339755D01*
X143716653Y-42357226D01*
X143718478Y-42363924D01*
X143723174Y-42371576D01*
X143723175Y-42371578D01*
X143734378Y-42389832D01*
X143742247Y-42404828D01*
X145855518Y-47189042D01*
X145859619Y-47199585D01*
X145861709Y-47205763D01*
X145863349Y-47214584D01*
X145867400Y-47222591D01*
X145867400Y-47222592D01*
X145889061Y-47265408D01*
X145891879Y-47271360D01*
X145899610Y-47288861D01*
X145901978Y-47292654D01*
X145901982Y-47292661D01*
X145903553Y-47295177D01*
X145909101Y-47305021D01*
X145929103Y-47344556D01*
X145936539Y-47352493D01*
X145951461Y-47371899D01*
X145957222Y-47381124D01*
X145963923Y-47387098D01*
X145990302Y-47410616D01*
X145998399Y-47418516D01*
X146022555Y-47444297D01*
X146022559Y-47444300D01*
X146028693Y-47450847D01*
X146038058Y-47456378D01*
X146057825Y-47470815D01*
X146059245Y-47472081D01*
X146059250Y-47472084D01*
X146065945Y-47478053D01*
X146074045Y-47481902D01*
X146074052Y-47481907D01*
X146105967Y-47497074D01*
X146115956Y-47502383D01*
X146146379Y-47520350D01*
X146146384Y-47520352D01*
X146154112Y-47524916D01*
X146162815Y-47527129D01*
X146162816Y-47527129D01*
X146164651Y-47527596D01*
X146187681Y-47535906D01*
X146197502Y-47540573D01*
X146241259Y-47547596D01*
X146252336Y-47549889D01*
X146257863Y-47551294D01*
X146257865Y-47551294D01*
X146262580Y-47552493D01*
X146267418Y-47552952D01*
X146267421Y-47552952D01*
X146275780Y-47553744D01*
X146280966Y-47554235D01*
X146289032Y-47555263D01*
X146341320Y-47563656D01*
X146350224Y-47562534D01*
X146359200Y-47562686D01*
X146359194Y-47563054D01*
X146371918Y-47562857D01*
X149152357Y-47826400D01*
X151609853Y-48059333D01*
X151650883Y-48070423D01*
X151654399Y-48072050D01*
X151659138Y-48074243D01*
X151697908Y-48102169D01*
X151713717Y-48118943D01*
X151739306Y-48159308D01*
X151747731Y-48180763D01*
X151756446Y-48227752D01*
X151756275Y-48250805D01*
X151746864Y-48297658D01*
X151741191Y-48311499D01*
X151738123Y-48318983D01*
X151711941Y-48358961D01*
X151701427Y-48369790D01*
X151685863Y-48382863D01*
X151681142Y-48385172D01*
X151674510Y-48391220D01*
X151674507Y-48391222D01*
X151631091Y-48430815D01*
X151629036Y-48432649D01*
X150350597Y-49548316D01*
X147949969Y-51643295D01*
X147920400Y-51669099D01*
X147911142Y-51675480D01*
X147911560Y-51676050D01*
X147904316Y-51681357D01*
X147896398Y-51685581D01*
X147856762Y-51724363D01*
X147851502Y-51729224D01*
X147844440Y-51735388D01*
X147838144Y-51740882D01*
X147835224Y-51744271D01*
X147835218Y-51744278D01*
X147832344Y-51747615D01*
X147824999Y-51755441D01*
X147800224Y-51779684D01*
X147792288Y-51787449D01*
X147787892Y-51795275D01*
X147787681Y-51795650D01*
X147773304Y-51816158D01*
X147773020Y-51816488D01*
X147773015Y-51816495D01*
X147767157Y-51823297D01*
X147763443Y-51831470D01*
X147748222Y-51864962D01*
X147743368Y-51874538D01*
X147720953Y-51914443D01*
X147718931Y-51923185D01*
X147718930Y-51923187D01*
X147718834Y-51923604D01*
X147710783Y-51947346D01*
X147706894Y-51955904D01*
X147705624Y-51964787D01*
X147700414Y-52001212D01*
X147698442Y-52011766D01*
X147688129Y-52056354D01*
X147688642Y-52065315D01*
X147688666Y-52065742D01*
X147687603Y-52090776D01*
X147687542Y-52091204D01*
X147686271Y-52100094D01*
X147687545Y-52108978D01*
X147687545Y-52108980D01*
X147692768Y-52145402D01*
X147693838Y-52156087D01*
X147694525Y-52168090D01*
X147695547Y-52172845D01*
X147695548Y-52172855D01*
X147698108Y-52184771D01*
X147699643Y-52193350D01*
X147706946Y-52244277D01*
X147710662Y-52252446D01*
X147713183Y-52261062D01*
X147713016Y-52261111D01*
X147717288Y-52274034D01*
X148117558Y-54136944D01*
X149031068Y-58388540D01*
X149031574Y-58391022D01*
X149034647Y-58406904D01*
X149035209Y-58409808D01*
X149028508Y-58480487D01*
X148984659Y-58536325D01*
X148917583Y-58559591D01*
X148863244Y-58550130D01*
X147729675Y-58080119D01*
X147709085Y-58069013D01*
X147707704Y-58068339D01*
X147700276Y-58063299D01*
X147691739Y-58060548D01*
X147691734Y-58060546D01*
X147664367Y-58051729D01*
X147655051Y-58048728D01*
X147645442Y-58045193D01*
X147636033Y-58041292D01*
X147619932Y-58037167D01*
X147612561Y-58035037D01*
X147570182Y-58021382D01*
X147561638Y-58018629D01*
X147552664Y-58018385D01*
X147546043Y-58017252D01*
X147539362Y-58016524D01*
X147530664Y-58014295D01*
X147521694Y-58014597D01*
X147521692Y-58014597D01*
X147477173Y-58016097D01*
X147469504Y-58016121D01*
X147425006Y-58014910D01*
X147425005Y-58014910D01*
X147416034Y-58014666D01*
X147407358Y-58016949D01*
X147400681Y-58017720D01*
X147394056Y-58018898D01*
X147385089Y-58019200D01*
X147376565Y-58022007D01*
X147376562Y-58022008D01*
X147334268Y-58035938D01*
X147326913Y-58038115D01*
X147310417Y-58042455D01*
X147275170Y-58051729D01*
X147267477Y-58056359D01*
X147261294Y-58058970D01*
X147255271Y-58061957D01*
X147246742Y-58064766D01*
X147232221Y-58074757D01*
X147202655Y-58095099D01*
X147196208Y-58099251D01*
X147150371Y-58126838D01*
X147144289Y-58133438D01*
X147139068Y-58137695D01*
X147134137Y-58142242D01*
X147126744Y-58147329D01*
X147121072Y-58154291D01*
X147092947Y-58188811D01*
X147087926Y-58194605D01*
X147051668Y-58233955D01*
X147047680Y-58242003D01*
X147043877Y-58247535D01*
X147040414Y-58253293D01*
X147034743Y-58260254D01*
X147031254Y-58268525D01*
X147031253Y-58268527D01*
X147013948Y-58309551D01*
X147010754Y-58316523D01*
X146986997Y-58364468D01*
X146985429Y-58373309D01*
X146983327Y-58379697D01*
X146981621Y-58386192D01*
X146978133Y-58394461D01*
X146977106Y-58403376D01*
X146977106Y-58403377D01*
X146972012Y-58447602D01*
X146970903Y-58455190D01*
X146963124Y-58499045D01*
X146961556Y-58507886D01*
X146962532Y-58516810D01*
X146962308Y-58523525D01*
X146962493Y-58530250D01*
X146961467Y-58539162D01*
X146962983Y-58548003D01*
X146962983Y-58548007D01*
X146970509Y-58591898D01*
X146971574Y-58599492D01*
X146973971Y-58621405D01*
X146977391Y-58652681D01*
X146980833Y-58660973D01*
X146982503Y-58667483D01*
X146984566Y-58673879D01*
X146986083Y-58682724D01*
X146990021Y-58690787D01*
X146990021Y-58690788D01*
X147009558Y-58730793D01*
X147012709Y-58737774D01*
X147020294Y-58756050D01*
X147022830Y-58760207D01*
X147022834Y-58760214D01*
X147025233Y-58764146D01*
X147030891Y-58774476D01*
X147046060Y-58805536D01*
X147050002Y-58813607D01*
X147058276Y-58822691D01*
X147072681Y-58841904D01*
X161505533Y-82495053D01*
X161515666Y-82515685D01*
X161520996Y-82529626D01*
X161526429Y-82536778D01*
X161530788Y-82544618D01*
X161530497Y-82544780D01*
X161541079Y-82563417D01*
X161544823Y-82572705D01*
X161554667Y-82597129D01*
X161555403Y-82598956D01*
X161563775Y-82632217D01*
X161569745Y-82686234D01*
X161568839Y-82720513D01*
X161560024Y-82774139D01*
X161549908Y-82806907D01*
X161526958Y-82856173D01*
X161508382Y-82884999D01*
X161472996Y-82926253D01*
X161447342Y-82948996D01*
X161417673Y-82968810D01*
X161401370Y-82978022D01*
X161399728Y-82978795D01*
X161391147Y-82981429D01*
X161386682Y-82984369D01*
X161381177Y-82986577D01*
X161149107Y-83064276D01*
X161144899Y-83065604D01*
X159826658Y-83456194D01*
X159818196Y-83458385D01*
X158975937Y-83645554D01*
X158968522Y-83646757D01*
X158968528Y-83646790D01*
X158963742Y-83647661D01*
X158958900Y-83648161D01*
X158954196Y-83649399D01*
X158954190Y-83649400D01*
X158932418Y-83655129D01*
X158927689Y-83656276D01*
X158923689Y-83657165D01*
X158904047Y-83661530D01*
X158899857Y-83663112D01*
X158897182Y-83663909D01*
X158888395Y-83666715D01*
X157977840Y-83906334D01*
X157974958Y-83907057D01*
X156966532Y-84147158D01*
X156953973Y-84149428D01*
X156953222Y-84149581D01*
X156948394Y-84150182D01*
X156943726Y-84151516D01*
X156943715Y-84151518D01*
X156923905Y-84157179D01*
X156918469Y-84158602D01*
X156901075Y-84162743D01*
X156901067Y-84162745D01*
X156896701Y-84163785D01*
X156891728Y-84165748D01*
X156880089Y-84169698D01*
X156664280Y-84231358D01*
X156279962Y-84341163D01*
X156268823Y-84343805D01*
X156263254Y-84344861D01*
X156254286Y-84345266D01*
X156245790Y-84348173D01*
X156245789Y-84348173D01*
X156200066Y-84363817D01*
X156193891Y-84365754D01*
X156179511Y-84369862D01*
X156179495Y-84369868D01*
X156175196Y-84371096D01*
X156171108Y-84372924D01*
X156171106Y-84372925D01*
X156168723Y-84373991D01*
X156158090Y-84378179D01*
X156116471Y-84392418D01*
X156107310Y-84398878D01*
X156086147Y-84410920D01*
X156084102Y-84411835D01*
X156084099Y-84411837D01*
X156075901Y-84415503D01*
X156069064Y-84421321D01*
X156069062Y-84421322D01*
X156042408Y-84444003D01*
X156033362Y-84451017D01*
X156004768Y-84471179D01*
X155997429Y-84476354D01*
X155990486Y-84485079D01*
X155990446Y-84485129D01*
X155973510Y-84502631D01*
X155964970Y-84509898D01*
X155945718Y-84539202D01*
X155940829Y-84546643D01*
X155934116Y-84555914D01*
X155906731Y-84590327D01*
X155902782Y-84600000D01*
X155902495Y-84600702D01*
X155891149Y-84622260D01*
X155884991Y-84631633D01*
X155882365Y-84640220D01*
X155872129Y-84673689D01*
X155868293Y-84684458D01*
X155851667Y-84725176D01*
X155850743Y-84734101D01*
X155850742Y-84734104D01*
X155850512Y-84736328D01*
X155845674Y-84760196D01*
X155842393Y-84770923D01*
X155841927Y-84808882D01*
X155841853Y-84814889D01*
X155841194Y-84826310D01*
X155836663Y-84870058D01*
X155838686Y-84881092D01*
X155840740Y-84905352D01*
X155840602Y-84916570D01*
X155843015Y-84925216D01*
X155843016Y-84925221D01*
X155852425Y-84958930D01*
X155854999Y-84970085D01*
X155862926Y-85013329D01*
X155866958Y-85021349D01*
X155866959Y-85021353D01*
X155867962Y-85023349D01*
X155876745Y-85046059D01*
X155879761Y-85056865D01*
X155899922Y-85089260D01*
X155902996Y-85094200D01*
X155908595Y-85104182D01*
X155913191Y-85113324D01*
X155924136Y-85128647D01*
X155928553Y-85135265D01*
X155956723Y-85180530D01*
X155963414Y-85186514D01*
X155969190Y-85193386D01*
X155968873Y-85193653D01*
X155977225Y-85202972D01*
X155997408Y-85231228D01*
X156667534Y-86169405D01*
X156674331Y-86180003D01*
X156675759Y-86182495D01*
X156678182Y-86186724D01*
X156689796Y-86201242D01*
X156692116Y-86204142D01*
X156696252Y-86209612D01*
X156704836Y-86221628D01*
X156707439Y-86225272D01*
X156713363Y-86231475D01*
X156720619Y-86239771D01*
X158376798Y-88309995D01*
X158896745Y-88959929D01*
X158899156Y-88963041D01*
X159919930Y-90324073D01*
X159920897Y-90325460D01*
X159921735Y-90327002D01*
X159937494Y-90347652D01*
X159944109Y-90356321D01*
X159944741Y-90357156D01*
X159962419Y-90380725D01*
X159965108Y-90384310D01*
X159966346Y-90385547D01*
X159967435Y-90386885D01*
X161372533Y-92228049D01*
X161376320Y-92233678D01*
X161376416Y-92233611D01*
X161379208Y-92237609D01*
X161381675Y-92241797D01*
X161384757Y-92245555D01*
X161384758Y-92245557D01*
X161399748Y-92263837D01*
X161402481Y-92267292D01*
X161415189Y-92283945D01*
X161415202Y-92283960D01*
X161417919Y-92287520D01*
X161421116Y-92290661D01*
X161424087Y-92294028D01*
X161424056Y-92294056D01*
X161428647Y-92299079D01*
X163431843Y-94742001D01*
X163432061Y-94742288D01*
X163432291Y-94742678D01*
X163457136Y-94772847D01*
X163479946Y-94800664D01*
X163480277Y-94800967D01*
X163480530Y-94801255D01*
X166962890Y-99029834D01*
X168354610Y-100719780D01*
X168355736Y-100721167D01*
X169549050Y-102212808D01*
X169550573Y-102214751D01*
X171104205Y-104236753D01*
X171114856Y-104253091D01*
X171126287Y-104274005D01*
X171132628Y-104280356D01*
X171138007Y-104287543D01*
X171137669Y-104287796D01*
X171150631Y-104304869D01*
X171172971Y-104344418D01*
X171173748Y-104345794D01*
X171186626Y-104378636D01*
X171201083Y-104439493D01*
X171204351Y-104474618D01*
X171201368Y-104537095D01*
X171194767Y-104571756D01*
X171174579Y-104630953D01*
X171158628Y-104662421D01*
X171122820Y-104713699D01*
X171098769Y-104739511D01*
X171064522Y-104767220D01*
X171048698Y-104778137D01*
X171047294Y-104778955D01*
X171038977Y-104782328D01*
X171031941Y-104787900D01*
X171028342Y-104789997D01*
X171011308Y-104800836D01*
X170956866Y-104828056D01*
X170547341Y-105032810D01*
X170537334Y-105037280D01*
X168432059Y-105869597D01*
X168424431Y-105872332D01*
X166931167Y-106354031D01*
X166925137Y-106355811D01*
X166922901Y-106356411D01*
X166918117Y-106357305D01*
X166913536Y-106358922D01*
X166913524Y-106358925D01*
X166888907Y-106367614D01*
X166885694Y-106368700D01*
X166859139Y-106377266D01*
X166855103Y-106379237D01*
X166851511Y-106380685D01*
X166846343Y-106382637D01*
X165202634Y-106962770D01*
X165194081Y-106965450D01*
X165187886Y-106967151D01*
X165153762Y-106976522D01*
X165153761Y-106976522D01*
X165145107Y-106978899D01*
X165102271Y-107005309D01*
X165094517Y-107009717D01*
X165057879Y-107028862D01*
X165057874Y-107028866D01*
X165049926Y-107033019D01*
X165043462Y-107039237D01*
X165036170Y-107044485D01*
X165036098Y-107044384D01*
X165035577Y-107044787D01*
X165035657Y-107044883D01*
X165028759Y-107050631D01*
X165021120Y-107055341D01*
X165015110Y-107062006D01*
X165015108Y-107062007D01*
X164987428Y-107092700D01*
X164981214Y-107099118D01*
X164951421Y-107127779D01*
X164951419Y-107127782D01*
X164944955Y-107134000D01*
X164940494Y-107141787D01*
X164934973Y-107148864D01*
X164934875Y-107148787D01*
X164934488Y-107149322D01*
X164934591Y-107149391D01*
X164929585Y-107156842D01*
X164923572Y-107163510D01*
X164902982Y-107206209D01*
X164901727Y-107208811D01*
X164897561Y-107216720D01*
X164877009Y-107252591D01*
X164877007Y-107252596D01*
X164872545Y-107260384D01*
X164870448Y-107269113D01*
X164867136Y-107277452D01*
X164867021Y-107277406D01*
X164866799Y-107278028D01*
X164866917Y-107278065D01*
X164864203Y-107286624D01*
X164860304Y-107294710D01*
X164853686Y-107334495D01*
X164852051Y-107344326D01*
X164850276Y-107353072D01*
X164838517Y-107402011D01*
X164838954Y-107410976D01*
X164838115Y-107419915D01*
X164837992Y-107419903D01*
X164837954Y-107420560D01*
X164838078Y-107420563D01*
X164837875Y-107429542D01*
X164836403Y-107438393D01*
X164837474Y-107447302D01*
X164837474Y-107447306D01*
X164842405Y-107488320D01*
X164843157Y-107497225D01*
X164843746Y-107509315D01*
X164845607Y-107547496D01*
X164848543Y-107555980D01*
X164850246Y-107564789D01*
X164850124Y-107564813D01*
X164850273Y-107565461D01*
X164850394Y-107565429D01*
X164852718Y-107574099D01*
X164853789Y-107583009D01*
X164857317Y-107591258D01*
X164857318Y-107591263D01*
X164873572Y-107629270D01*
X164876791Y-107637603D01*
X164888010Y-107670019D01*
X164893245Y-107685144D01*
X164922192Y-107725890D01*
X164924960Y-107729787D01*
X164929080Y-107735965D01*
X164971584Y-107803971D01*
X165156170Y-108099309D01*
X165160770Y-108107307D01*
X165166144Y-108117496D01*
X165168414Y-108121800D01*
X165176701Y-108132936D01*
X165182442Y-108141342D01*
X165188145Y-108150467D01*
X165199264Y-108163646D01*
X165204030Y-108169659D01*
X166769702Y-110273531D01*
X166773714Y-110279635D01*
X166773761Y-110279603D01*
X166776511Y-110283622D01*
X166778942Y-110287839D01*
X166781991Y-110291630D01*
X166781992Y-110291631D01*
X166796271Y-110309383D01*
X166799171Y-110313131D01*
X166811176Y-110329262D01*
X166811180Y-110329267D01*
X166813863Y-110332872D01*
X166817030Y-110336060D01*
X166819539Y-110338974D01*
X166824835Y-110344895D01*
X170479600Y-114888657D01*
X170481184Y-114890763D01*
X170482471Y-114892935D01*
X170485570Y-114896693D01*
X170505235Y-114920542D01*
X170506202Y-114921730D01*
X170523846Y-114943666D01*
X170526655Y-114947158D01*
X170528496Y-114948877D01*
X170530266Y-114950900D01*
X171624639Y-116278118D01*
X179869185Y-126276823D01*
X179882540Y-126296562D01*
X179884356Y-126299886D01*
X179884358Y-126299889D01*
X179888660Y-126307762D01*
X179895000Y-126314112D01*
X179900380Y-126321303D01*
X179900042Y-126321556D01*
X179913002Y-126338627D01*
X179926914Y-126363261D01*
X179936107Y-126379539D01*
X179948984Y-126412386D01*
X179961706Y-126465957D01*
X179963431Y-126473222D01*
X179966696Y-126508353D01*
X179963709Y-126570809D01*
X179957106Y-126605468D01*
X179936920Y-126664646D01*
X179920967Y-126696115D01*
X179885163Y-126747379D01*
X179861112Y-126773189D01*
X179826199Y-126801434D01*
X179810372Y-126812351D01*
X179809722Y-126812730D01*
X179801400Y-126816104D01*
X179794817Y-126821316D01*
X179784933Y-126826422D01*
X179118266Y-127129023D01*
X178449577Y-127432541D01*
X178445675Y-127434233D01*
X177023757Y-128022612D01*
X177016446Y-128025375D01*
X175301720Y-128613282D01*
X175295059Y-128615362D01*
X173369704Y-129158410D01*
X173366623Y-129159237D01*
X172100899Y-129481873D01*
X170834523Y-129804675D01*
X170830510Y-129805628D01*
X169727192Y-130048358D01*
X168346692Y-130352068D01*
X168344330Y-130352564D01*
X167690062Y-130483418D01*
X166370978Y-130747235D01*
X166362727Y-130748601D01*
X164486541Y-130995467D01*
X164485454Y-130995606D01*
X162041676Y-131294844D01*
X162040435Y-131294988D01*
X160845490Y-131427761D01*
X160249093Y-131494027D01*
X160247013Y-131494241D01*
X159154780Y-131597282D01*
X157606728Y-131743324D01*
X157605032Y-131743472D01*
X155120303Y-131942251D01*
X155115986Y-131942522D01*
X154676229Y-131962510D01*
X152930672Y-132041853D01*
X152929149Y-132041913D01*
X151667088Y-132083982D01*
X151438413Y-132091604D01*
X151436331Y-132091657D01*
X150689644Y-132104102D01*
X148450518Y-132141420D01*
X148447649Y-132141435D01*
X148419478Y-132141263D01*
X148380279Y-132141024D01*
X148371648Y-132143491D01*
X148371647Y-132143491D01*
X148346748Y-132150607D01*
X148332061Y-132153870D01*
X148306486Y-132157969D01*
X148306482Y-132157970D01*
X148297616Y-132159391D01*
X148279214Y-132168131D01*
X148259799Y-132175458D01*
X148240229Y-132181051D01*
X148232638Y-132185840D01*
X148232637Y-132185841D01*
X148210739Y-132199658D01*
X148197559Y-132206912D01*
X148166044Y-132221880D01*
X148159345Y-132227850D01*
X148150845Y-132235424D01*
X148134254Y-132247916D01*
X148117042Y-132258776D01*
X148093948Y-132284925D01*
X148083346Y-132295574D01*
X148057299Y-132318785D01*
X148052543Y-132326398D01*
X148046511Y-132336052D01*
X148034096Y-132352693D01*
X148026567Y-132361218D01*
X148026563Y-132361224D01*
X148020622Y-132367951D01*
X148016807Y-132376076D01*
X148016806Y-132376078D01*
X148005801Y-132399519D01*
X147998610Y-132412724D01*
X147980122Y-132442316D01*
X147977693Y-132450961D01*
X147974614Y-132461918D01*
X147967365Y-132481385D01*
X147958719Y-132499800D01*
X147954683Y-132525719D01*
X147953353Y-132534263D01*
X147950155Y-132548962D01*
X147947093Y-132559861D01*
X147940719Y-132582543D01*
X147940814Y-132591519D01*
X147941493Y-132655841D01*
X147941500Y-132657171D01*
X147941500Y-137700633D01*
X147940000Y-137720018D01*
X147937690Y-137734851D01*
X147937690Y-137734855D01*
X147936309Y-137743724D01*
X147938136Y-137757693D01*
X147938304Y-137758976D01*
X147939047Y-137784305D01*
X147926962Y-137953279D01*
X147924404Y-137971064D01*
X147906598Y-138052919D01*
X147883001Y-138161392D01*
X147877937Y-138178641D01*
X147809864Y-138361150D01*
X147802396Y-138377502D01*
X147709048Y-138548458D01*
X147699328Y-138563582D01*
X147582598Y-138719514D01*
X147570825Y-138733100D01*
X147433100Y-138870825D01*
X147419514Y-138882598D01*
X147263582Y-138999328D01*
X147248458Y-139009048D01*
X147077502Y-139102396D01*
X147061150Y-139109864D01*
X146878641Y-139177937D01*
X146861393Y-139183001D01*
X146671064Y-139224404D01*
X146653285Y-139226961D01*
X146491395Y-139238540D01*
X146473435Y-139237793D01*
X146465155Y-139237692D01*
X146456276Y-139236309D01*
X146424714Y-139240436D01*
X146408379Y-139241500D01*
X140499367Y-139241500D01*
X140479982Y-139240000D01*
X140465149Y-139237690D01*
X140465145Y-139237690D01*
X140456276Y-139236309D01*
X140441019Y-139238304D01*
X140415698Y-139239047D01*
X140246715Y-139226961D01*
X140228936Y-139224404D01*
X140038607Y-139183001D01*
X140021359Y-139177937D01*
X139838850Y-139109864D01*
X139822498Y-139102396D01*
X139651542Y-139009048D01*
X139636418Y-138999328D01*
X139480486Y-138882598D01*
X139466900Y-138870825D01*
X139329175Y-138733100D01*
X139317402Y-138719514D01*
X139200672Y-138563582D01*
X139190952Y-138548458D01*
X139097604Y-138377502D01*
X139090136Y-138361150D01*
X139022063Y-138178641D01*
X139016999Y-138161392D01*
X138993402Y-138052919D01*
X138975596Y-137971064D01*
X138973038Y-137953278D01*
X138961719Y-137795012D01*
X138962805Y-137772245D01*
X138962334Y-137772203D01*
X138962770Y-137767345D01*
X138963576Y-137762552D01*
X138963729Y-137750000D01*
X138959773Y-137722376D01*
X138958500Y-137704514D01*
X138958500Y-132770951D01*
X138958758Y-132762890D01*
X138961584Y-132718812D01*
X138961584Y-132718809D01*
X138962158Y-132709852D01*
X138951658Y-132662999D01*
X138949889Y-132653358D01*
X138943080Y-132605813D01*
X138939364Y-132597640D01*
X138938021Y-132593048D01*
X138933973Y-132580977D01*
X138932266Y-132576479D01*
X138930303Y-132567720D01*
X138925959Y-132559861D01*
X138907087Y-132525719D01*
X138902660Y-132516916D01*
X138899324Y-132509578D01*
X138882792Y-132473218D01*
X138876929Y-132466414D01*
X138874347Y-132462377D01*
X138867070Y-132451921D01*
X138864179Y-132448096D01*
X138859838Y-132440242D01*
X138825751Y-132406429D01*
X138819047Y-132399238D01*
X138793574Y-132369675D01*
X138787713Y-132362873D01*
X138780179Y-132357990D01*
X138776563Y-132354835D01*
X138766634Y-132346836D01*
X138762797Y-132343984D01*
X138756426Y-132337665D01*
X138748540Y-132333389D01*
X138748536Y-132333386D01*
X138714234Y-132314787D01*
X138705778Y-132309765D01*
X138665485Y-132283648D01*
X138656881Y-132281075D01*
X138652542Y-132279070D01*
X138640750Y-132274172D01*
X138636270Y-132272513D01*
X138628380Y-132268235D01*
X138619609Y-132266344D01*
X138619607Y-132266343D01*
X138581461Y-132258118D01*
X138571919Y-132255666D01*
X138534538Y-132244487D01*
X138525934Y-132241914D01*
X138516958Y-132241859D01*
X138516957Y-132241859D01*
X138484187Y-132241659D01*
X138468754Y-132241565D01*
X138462238Y-132241356D01*
X135033015Y-132042560D01*
X135031696Y-132042475D01*
X130739398Y-131743013D01*
X130737830Y-131742894D01*
X127717307Y-131494145D01*
X126505084Y-131394315D01*
X126499798Y-131393767D01*
X126493664Y-131393000D01*
X122127668Y-130847252D01*
X122121920Y-130846397D01*
X120806152Y-130619541D01*
X119250959Y-130351404D01*
X119245203Y-130350273D01*
X116778297Y-129805632D01*
X115424771Y-129506802D01*
X115418817Y-129505333D01*
X112150792Y-128614053D01*
X112144100Y-128612027D01*
X110375854Y-128022612D01*
X108733867Y-127475283D01*
X108724846Y-127471886D01*
X107050748Y-126767249D01*
X107009000Y-126738652D01*
X107006227Y-126735781D01*
X106984854Y-126705966D01*
X106972250Y-126681509D01*
X106960086Y-126657905D01*
X106948206Y-126623184D01*
X106938339Y-126570022D01*
X106936969Y-126533348D01*
X106942841Y-126479599D01*
X106952100Y-126444079D01*
X106962527Y-126419498D01*
X106984303Y-126385044D01*
X107237395Y-126100000D01*
X114186496Y-126100000D01*
X114187186Y-126106565D01*
X114205081Y-126276823D01*
X114206458Y-126289928D01*
X114265473Y-126471556D01*
X114268776Y-126477278D01*
X114268777Y-126477279D01*
X114287698Y-126510051D01*
X114360960Y-126636944D01*
X114365378Y-126641851D01*
X114365379Y-126641852D01*
X114473547Y-126761985D01*
X114488747Y-126778866D01*
X114643248Y-126891118D01*
X114649276Y-126893802D01*
X114649278Y-126893803D01*
X114811681Y-126966109D01*
X114817712Y-126968794D01*
X114954172Y-126997800D01*
X114991697Y-127005776D01*
X115054171Y-127039505D01*
X115088492Y-127101654D01*
X115091500Y-127129023D01*
X115091500Y-127148134D01*
X115098255Y-127210316D01*
X115149385Y-127346705D01*
X115236739Y-127463261D01*
X115353295Y-127550615D01*
X115489684Y-127601745D01*
X115551866Y-127608500D01*
X116008928Y-127608500D01*
X116015522Y-127608673D01*
X116190217Y-127617829D01*
X116190222Y-127617829D01*
X116196809Y-127618174D01*
X116203324Y-127617142D01*
X116203326Y-127617142D01*
X116248095Y-127610051D01*
X116267806Y-127608500D01*
X116748134Y-127608500D01*
X116810316Y-127601745D01*
X116946705Y-127550615D01*
X117063261Y-127463261D01*
X117150615Y-127346705D01*
X117201745Y-127210316D01*
X117205347Y-127177157D01*
X117232588Y-127111595D01*
X117290951Y-127071168D01*
X117361905Y-127068712D01*
X117422923Y-127105007D01*
X117454189Y-127166184D01*
X117458316Y-127186931D01*
X117467633Y-127209427D01*
X117509983Y-127272808D01*
X117527192Y-127290017D01*
X117590575Y-127332368D01*
X117613066Y-127341684D01*
X117668915Y-127352793D01*
X117681170Y-127354000D01*
X117856885Y-127354000D01*
X117872124Y-127349525D01*
X117873329Y-127348135D01*
X117875000Y-127340452D01*
X117875000Y-127335884D01*
X118625000Y-127335884D01*
X118629475Y-127351123D01*
X118630865Y-127352328D01*
X118638548Y-127353999D01*
X118818828Y-127353999D01*
X118831088Y-127352791D01*
X118886931Y-127341685D01*
X118909427Y-127332367D01*
X118972808Y-127290017D01*
X118990017Y-127272808D01*
X119032368Y-127209425D01*
X119041684Y-127186934D01*
X119052793Y-127131085D01*
X119054000Y-127118830D01*
X119054000Y-127118115D01*
X119049525Y-127102876D01*
X119048135Y-127101671D01*
X119040452Y-127100000D01*
X118643115Y-127100000D01*
X118627876Y-127104475D01*
X118626671Y-127105865D01*
X118625000Y-127113548D01*
X118625000Y-127335884D01*
X117875000Y-127335884D01*
X117875000Y-126331885D01*
X118625000Y-126331885D01*
X118629475Y-126347124D01*
X118630865Y-126348329D01*
X118638548Y-126350000D01*
X119035884Y-126350000D01*
X119051123Y-126345525D01*
X119052328Y-126344135D01*
X119053999Y-126336452D01*
X119053999Y-126331172D01*
X119052791Y-126318912D01*
X119041685Y-126263069D01*
X119032367Y-126240573D01*
X118985213Y-126170002D01*
X118963998Y-126102249D01*
X118985213Y-126029998D01*
X119032368Y-125959426D01*
X119041684Y-125936934D01*
X119052793Y-125881085D01*
X119054000Y-125868830D01*
X119054000Y-125868115D01*
X119049525Y-125852876D01*
X119048135Y-125851671D01*
X119040452Y-125850000D01*
X118643115Y-125850000D01*
X118627876Y-125854475D01*
X118626671Y-125855865D01*
X118625000Y-125863548D01*
X118625000Y-126331885D01*
X117875000Y-126331885D01*
X117875000Y-125081885D01*
X118625000Y-125081885D01*
X118629475Y-125097124D01*
X118630865Y-125098329D01*
X118638548Y-125100000D01*
X119035884Y-125100000D01*
X119051123Y-125095525D01*
X119052328Y-125094135D01*
X119053999Y-125086452D01*
X119053999Y-125081172D01*
X119052791Y-125068912D01*
X119041685Y-125013069D01*
X119036272Y-125000000D01*
X130386496Y-125000000D01*
X130387186Y-125006565D01*
X130401271Y-125140573D01*
X130406458Y-125189928D01*
X130465473Y-125371556D01*
X130560960Y-125536944D01*
X130688747Y-125678866D01*
X130843248Y-125791118D01*
X130849276Y-125793802D01*
X130849278Y-125793803D01*
X131011681Y-125866109D01*
X131017712Y-125868794D01*
X131111112Y-125888647D01*
X131198056Y-125907128D01*
X131198061Y-125907128D01*
X131204513Y-125908500D01*
X131265500Y-125908500D01*
X131333621Y-125928502D01*
X131380114Y-125982158D01*
X131391500Y-126034500D01*
X131391500Y-126048134D01*
X131398255Y-126110316D01*
X131449385Y-126246705D01*
X131536739Y-126363261D01*
X131653295Y-126450615D01*
X131789684Y-126501745D01*
X131851866Y-126508500D01*
X132308928Y-126508500D01*
X132315522Y-126508673D01*
X132490217Y-126517829D01*
X132490222Y-126517829D01*
X132496809Y-126518174D01*
X132503324Y-126517142D01*
X132503326Y-126517142D01*
X132548095Y-126510051D01*
X132567806Y-126508500D01*
X133048134Y-126508500D01*
X133110316Y-126501745D01*
X133246705Y-126450615D01*
X133363261Y-126363261D01*
X133450615Y-126246705D01*
X133501745Y-126110316D01*
X133505347Y-126077157D01*
X133532588Y-126011595D01*
X133590951Y-125971168D01*
X133661905Y-125968712D01*
X133722923Y-126005007D01*
X133754189Y-126066184D01*
X133758316Y-126086931D01*
X133767633Y-126109427D01*
X133809983Y-126172808D01*
X133827192Y-126190017D01*
X133890575Y-126232368D01*
X133913066Y-126241684D01*
X133968915Y-126252793D01*
X133981170Y-126254000D01*
X134156885Y-126254000D01*
X134172124Y-126249525D01*
X134173329Y-126248135D01*
X134175000Y-126240452D01*
X134175000Y-126235884D01*
X134925000Y-126235884D01*
X134929475Y-126251123D01*
X134930865Y-126252328D01*
X134938548Y-126253999D01*
X135118828Y-126253999D01*
X135131088Y-126252791D01*
X135186931Y-126241685D01*
X135209427Y-126232367D01*
X135272808Y-126190017D01*
X135290017Y-126172808D01*
X135332368Y-126109425D01*
X135341684Y-126086934D01*
X135352793Y-126031085D01*
X135354000Y-126018830D01*
X135354000Y-126018115D01*
X135349525Y-126002876D01*
X135348135Y-126001671D01*
X135340452Y-126000000D01*
X134943115Y-126000000D01*
X134927876Y-126004475D01*
X134926671Y-126005865D01*
X134925000Y-126013548D01*
X134925000Y-126235884D01*
X134175000Y-126235884D01*
X134175000Y-125231885D01*
X134925000Y-125231885D01*
X134929475Y-125247124D01*
X134930865Y-125248329D01*
X134938548Y-125250000D01*
X135335884Y-125250000D01*
X135351123Y-125245525D01*
X135352328Y-125244135D01*
X135353999Y-125236452D01*
X135353999Y-125231172D01*
X135352791Y-125218912D01*
X135341685Y-125163069D01*
X135332367Y-125140573D01*
X135285213Y-125070002D01*
X135263998Y-125002249D01*
X135285213Y-124929998D01*
X135332368Y-124859426D01*
X135341684Y-124836934D01*
X135352793Y-124781085D01*
X135354000Y-124768830D01*
X135354000Y-124768115D01*
X135349525Y-124752876D01*
X135348135Y-124751671D01*
X135340452Y-124750000D01*
X134943115Y-124750000D01*
X134927876Y-124754475D01*
X134926671Y-124755865D01*
X134925000Y-124763548D01*
X134925000Y-125231885D01*
X134175000Y-125231885D01*
X134175000Y-123981885D01*
X134925000Y-123981885D01*
X134929475Y-123997124D01*
X134930865Y-123998329D01*
X134938548Y-124000000D01*
X135335884Y-124000000D01*
X135351123Y-123995525D01*
X135352328Y-123994135D01*
X135353999Y-123986452D01*
X135353999Y-123981172D01*
X135352791Y-123968912D01*
X135341685Y-123913069D01*
X135332367Y-123890573D01*
X135290017Y-123827192D01*
X135272808Y-123809983D01*
X135209425Y-123767632D01*
X135186934Y-123758316D01*
X135131085Y-123747207D01*
X135118830Y-123746000D01*
X134943115Y-123746000D01*
X134927876Y-123750475D01*
X134926671Y-123751865D01*
X134925000Y-123759548D01*
X134925000Y-123981885D01*
X134175000Y-123981885D01*
X134175000Y-123764116D01*
X134170525Y-123748877D01*
X134169135Y-123747672D01*
X134161452Y-123746001D01*
X133981172Y-123746001D01*
X133968912Y-123747209D01*
X133913069Y-123758315D01*
X133890573Y-123767633D01*
X133827192Y-123809983D01*
X133809983Y-123827192D01*
X133767632Y-123890575D01*
X133758316Y-123913066D01*
X133754189Y-123933814D01*
X133721282Y-123996723D01*
X133659587Y-124031856D01*
X133588692Y-124028056D01*
X133531106Y-123986531D01*
X133505347Y-123922841D01*
X133504834Y-123918115D01*
X133501745Y-123889684D01*
X133450615Y-123753295D01*
X133363261Y-123636739D01*
X133246705Y-123549385D01*
X133110316Y-123498255D01*
X133048134Y-123491500D01*
X132567806Y-123491500D01*
X132548095Y-123489949D01*
X132503326Y-123482858D01*
X132503324Y-123482858D01*
X132496809Y-123481826D01*
X132490222Y-123482171D01*
X132490217Y-123482171D01*
X132315522Y-123491327D01*
X132308928Y-123491500D01*
X131851866Y-123491500D01*
X131789684Y-123498255D01*
X131653295Y-123549385D01*
X131536739Y-123636739D01*
X131449385Y-123753295D01*
X131398255Y-123889684D01*
X131391500Y-123951866D01*
X131391500Y-123965500D01*
X131371498Y-124033621D01*
X131317842Y-124080114D01*
X131265500Y-124091500D01*
X131204513Y-124091500D01*
X131198061Y-124092872D01*
X131198056Y-124092872D01*
X131111113Y-124111353D01*
X131017712Y-124131206D01*
X131011682Y-124133891D01*
X131011681Y-124133891D01*
X130849278Y-124206197D01*
X130849276Y-124206198D01*
X130843248Y-124208882D01*
X130688747Y-124321134D01*
X130684326Y-124326044D01*
X130684325Y-124326045D01*
X130601683Y-124417829D01*
X130560960Y-124463056D01*
X130557659Y-124468774D01*
X130472423Y-124616407D01*
X130465473Y-124628444D01*
X130406458Y-124810072D01*
X130405768Y-124816633D01*
X130405768Y-124816635D01*
X130401258Y-124859548D01*
X130386496Y-125000000D01*
X119036272Y-125000000D01*
X119032367Y-124990573D01*
X118990017Y-124927192D01*
X118972808Y-124909983D01*
X118909425Y-124867632D01*
X118886934Y-124858316D01*
X118831085Y-124847207D01*
X118818830Y-124846000D01*
X118643115Y-124846000D01*
X118627876Y-124850475D01*
X118626671Y-124851865D01*
X118625000Y-124859548D01*
X118625000Y-125081885D01*
X117875000Y-125081885D01*
X117875000Y-124864116D01*
X117870525Y-124848877D01*
X117869135Y-124847672D01*
X117861452Y-124846001D01*
X117681172Y-124846001D01*
X117668912Y-124847209D01*
X117613069Y-124858315D01*
X117590573Y-124867633D01*
X117527192Y-124909983D01*
X117509983Y-124927192D01*
X117467632Y-124990575D01*
X117458316Y-125013066D01*
X117454189Y-125033814D01*
X117421282Y-125096723D01*
X117359587Y-125131856D01*
X117288692Y-125128056D01*
X117231106Y-125086531D01*
X117205347Y-125022841D01*
X117203579Y-125006565D01*
X117201745Y-124989684D01*
X117150615Y-124853295D01*
X117063261Y-124736739D01*
X116946705Y-124649385D01*
X116810316Y-124598255D01*
X116748134Y-124591500D01*
X116267806Y-124591500D01*
X116248095Y-124589949D01*
X116203326Y-124582858D01*
X116203324Y-124582858D01*
X116196809Y-124581826D01*
X116190222Y-124582171D01*
X116190217Y-124582171D01*
X116015522Y-124591327D01*
X116008928Y-124591500D01*
X115551866Y-124591500D01*
X115489684Y-124598255D01*
X115353295Y-124649385D01*
X115236739Y-124736739D01*
X115149385Y-124853295D01*
X115098255Y-124989684D01*
X115091500Y-125051866D01*
X115091500Y-125070977D01*
X115071498Y-125139098D01*
X115017842Y-125185591D01*
X114991697Y-125194224D01*
X114982373Y-125196206D01*
X114817712Y-125231206D01*
X114811682Y-125233891D01*
X114811681Y-125233891D01*
X114649278Y-125306197D01*
X114649276Y-125306198D01*
X114643248Y-125308882D01*
X114488747Y-125421134D01*
X114360960Y-125563056D01*
X114357659Y-125568774D01*
X114283462Y-125697287D01*
X114265473Y-125728444D01*
X114206458Y-125910072D01*
X114205768Y-125916633D01*
X114205768Y-125916635D01*
X114191145Y-126055771D01*
X114186496Y-126100000D01*
X107237395Y-126100000D01*
X108554683Y-124616407D01*
X108557868Y-124613024D01*
X108560781Y-124610525D01*
X108582689Y-124584898D01*
X108584221Y-124583140D01*
X108584472Y-124582858D01*
X108604486Y-124560316D01*
X108606594Y-124557125D01*
X108609621Y-124553391D01*
X108691039Y-124458148D01*
X109810723Y-123148329D01*
X110023005Y-122900000D01*
X149486496Y-122900000D01*
X149487186Y-122906565D01*
X149501271Y-123040573D01*
X149506458Y-123089928D01*
X149565473Y-123271556D01*
X149660960Y-123436944D01*
X149665378Y-123441851D01*
X149665379Y-123441852D01*
X149718662Y-123501029D01*
X149788747Y-123578866D01*
X149943248Y-123691118D01*
X149949276Y-123693802D01*
X149949278Y-123693803D01*
X150094178Y-123758316D01*
X150117712Y-123768794D01*
X150211113Y-123788647D01*
X150298056Y-123807128D01*
X150298061Y-123807128D01*
X150304513Y-123808500D01*
X150355500Y-123808500D01*
X150423621Y-123828502D01*
X150470114Y-123882158D01*
X150481500Y-123934500D01*
X150481500Y-123948134D01*
X150488255Y-124010316D01*
X150539385Y-124146705D01*
X150626739Y-124263261D01*
X150743295Y-124350615D01*
X150879684Y-124401745D01*
X150941866Y-124408500D01*
X151408928Y-124408500D01*
X151415522Y-124408673D01*
X151590217Y-124417829D01*
X151590222Y-124417829D01*
X151596809Y-124418174D01*
X151603324Y-124417142D01*
X151603326Y-124417142D01*
X151648095Y-124410051D01*
X151667806Y-124408500D01*
X152138134Y-124408500D01*
X152200316Y-124401745D01*
X152336705Y-124350615D01*
X152453261Y-124263261D01*
X152540615Y-124146705D01*
X152591745Y-124010316D01*
X152595347Y-123977157D01*
X152622588Y-123911595D01*
X152680951Y-123871168D01*
X152751905Y-123868712D01*
X152812923Y-123905007D01*
X152844189Y-123966184D01*
X152848316Y-123986931D01*
X152857633Y-124009427D01*
X152899983Y-124072808D01*
X152917192Y-124090017D01*
X152980575Y-124132368D01*
X153003066Y-124141684D01*
X153058915Y-124152793D01*
X153071170Y-124154000D01*
X153246885Y-124154000D01*
X153262124Y-124149525D01*
X153263329Y-124148135D01*
X153265000Y-124140452D01*
X153265000Y-124135884D01*
X154015000Y-124135884D01*
X154019475Y-124151123D01*
X154020865Y-124152328D01*
X154028548Y-124153999D01*
X154208828Y-124153999D01*
X154221088Y-124152791D01*
X154276931Y-124141685D01*
X154299427Y-124132367D01*
X154362808Y-124090017D01*
X154380017Y-124072808D01*
X154422368Y-124009425D01*
X154431684Y-123986934D01*
X154442793Y-123931085D01*
X154444000Y-123918830D01*
X154444000Y-123918115D01*
X154439525Y-123902876D01*
X154438135Y-123901671D01*
X154430452Y-123900000D01*
X154033115Y-123900000D01*
X154017876Y-123904475D01*
X154016671Y-123905865D01*
X154015000Y-123913548D01*
X154015000Y-124135884D01*
X153265000Y-124135884D01*
X153265000Y-123131885D01*
X154015000Y-123131885D01*
X154019475Y-123147124D01*
X154020865Y-123148329D01*
X154028548Y-123150000D01*
X154425884Y-123150000D01*
X154441123Y-123145525D01*
X154442328Y-123144135D01*
X154443999Y-123136452D01*
X154443999Y-123131172D01*
X154442791Y-123118912D01*
X154431685Y-123063069D01*
X154422367Y-123040573D01*
X154375213Y-122970002D01*
X154353998Y-122902249D01*
X154375213Y-122829998D01*
X154422368Y-122759426D01*
X154431684Y-122736934D01*
X154442793Y-122681085D01*
X154444000Y-122668830D01*
X154444000Y-122668115D01*
X154439525Y-122652876D01*
X154438135Y-122651671D01*
X154430452Y-122650000D01*
X154033115Y-122650000D01*
X154017876Y-122654475D01*
X154016671Y-122655865D01*
X154015000Y-122663548D01*
X154015000Y-123131885D01*
X153265000Y-123131885D01*
X153265000Y-121881885D01*
X154015000Y-121881885D01*
X154019475Y-121897124D01*
X154020865Y-121898329D01*
X154028548Y-121900000D01*
X154425884Y-121900000D01*
X154441123Y-121895525D01*
X154442328Y-121894135D01*
X154443999Y-121886452D01*
X154443999Y-121881172D01*
X154442791Y-121868912D01*
X154431685Y-121813069D01*
X154422367Y-121790573D01*
X154380017Y-121727192D01*
X154362808Y-121709983D01*
X154299425Y-121667632D01*
X154276934Y-121658316D01*
X154221085Y-121647207D01*
X154208830Y-121646000D01*
X154033115Y-121646000D01*
X154017876Y-121650475D01*
X154016671Y-121651865D01*
X154015000Y-121659548D01*
X154015000Y-121881885D01*
X153265000Y-121881885D01*
X153265000Y-121664116D01*
X153260525Y-121648877D01*
X153259135Y-121647672D01*
X153251452Y-121646001D01*
X153071172Y-121646001D01*
X153058912Y-121647209D01*
X153003069Y-121658315D01*
X152980573Y-121667633D01*
X152917192Y-121709983D01*
X152899983Y-121727192D01*
X152857632Y-121790575D01*
X152848316Y-121813066D01*
X152844189Y-121833814D01*
X152811282Y-121896723D01*
X152749587Y-121931856D01*
X152678692Y-121928056D01*
X152621106Y-121886531D01*
X152595347Y-121822841D01*
X152592598Y-121797540D01*
X152591745Y-121789684D01*
X152540615Y-121653295D01*
X152453261Y-121536739D01*
X152336705Y-121449385D01*
X152200316Y-121398255D01*
X152138134Y-121391500D01*
X151667806Y-121391500D01*
X151648095Y-121389949D01*
X151603326Y-121382858D01*
X151603324Y-121382858D01*
X151596809Y-121381826D01*
X151590222Y-121382171D01*
X151590217Y-121382171D01*
X151415522Y-121391327D01*
X151408928Y-121391500D01*
X150941866Y-121391500D01*
X150879684Y-121398255D01*
X150743295Y-121449385D01*
X150626739Y-121536739D01*
X150539385Y-121653295D01*
X150488255Y-121789684D01*
X150481500Y-121851866D01*
X150481500Y-121865500D01*
X150461498Y-121933621D01*
X150407842Y-121980114D01*
X150355500Y-121991500D01*
X150304513Y-121991500D01*
X150298061Y-121992872D01*
X150298056Y-121992872D01*
X150211112Y-122011353D01*
X150117712Y-122031206D01*
X150111682Y-122033891D01*
X150111681Y-122033891D01*
X149949278Y-122106197D01*
X149949276Y-122106198D01*
X149943248Y-122108882D01*
X149788747Y-122221134D01*
X149660960Y-122363056D01*
X149565473Y-122528444D01*
X149506458Y-122710072D01*
X149505768Y-122716633D01*
X149505768Y-122716635D01*
X149501177Y-122760316D01*
X149486496Y-122900000D01*
X110023005Y-122900000D01*
X111210989Y-121510284D01*
X111211343Y-121509899D01*
X111211790Y-121509513D01*
X111236936Y-121479929D01*
X111260247Y-121452660D01*
X111260565Y-121452159D01*
X111260891Y-121451747D01*
X113785481Y-118481641D01*
X113786268Y-118480724D01*
X113942895Y-118300000D01*
X161586496Y-118300000D01*
X161587186Y-118306565D01*
X161605491Y-118480724D01*
X161606458Y-118489928D01*
X161665473Y-118671556D01*
X161760960Y-118836944D01*
X161888747Y-118978866D01*
X162043248Y-119091118D01*
X162049276Y-119093802D01*
X162049278Y-119093803D01*
X162211681Y-119166109D01*
X162217712Y-119168794D01*
X162311112Y-119188647D01*
X162398056Y-119207128D01*
X162398061Y-119207128D01*
X162404513Y-119208500D01*
X162465500Y-119208500D01*
X162533621Y-119228502D01*
X162580114Y-119282158D01*
X162591500Y-119334500D01*
X162591500Y-119348134D01*
X162598255Y-119410316D01*
X162649385Y-119546705D01*
X162736739Y-119663261D01*
X162853295Y-119750615D01*
X162989684Y-119801745D01*
X163051866Y-119808500D01*
X163508928Y-119808500D01*
X163515522Y-119808673D01*
X163690217Y-119817829D01*
X163690222Y-119817829D01*
X163696809Y-119818174D01*
X163703324Y-119817142D01*
X163703326Y-119817142D01*
X163748095Y-119810051D01*
X163767806Y-119808500D01*
X164248134Y-119808500D01*
X164310316Y-119801745D01*
X164446705Y-119750615D01*
X164563261Y-119663261D01*
X164650615Y-119546705D01*
X164701745Y-119410316D01*
X164705347Y-119377157D01*
X164732588Y-119311595D01*
X164790951Y-119271168D01*
X164861905Y-119268712D01*
X164922923Y-119305007D01*
X164954189Y-119366184D01*
X164958316Y-119386931D01*
X164967633Y-119409427D01*
X165009983Y-119472808D01*
X165027192Y-119490017D01*
X165090575Y-119532368D01*
X165113066Y-119541684D01*
X165168915Y-119552793D01*
X165181170Y-119554000D01*
X165356885Y-119554000D01*
X165372124Y-119549525D01*
X165373329Y-119548135D01*
X165375000Y-119540452D01*
X165375000Y-119535884D01*
X166125000Y-119535884D01*
X166129475Y-119551123D01*
X166130865Y-119552328D01*
X166138548Y-119553999D01*
X166318828Y-119553999D01*
X166331088Y-119552791D01*
X166386931Y-119541685D01*
X166409427Y-119532367D01*
X166472808Y-119490017D01*
X166490017Y-119472808D01*
X166532368Y-119409425D01*
X166541684Y-119386934D01*
X166552793Y-119331085D01*
X166554000Y-119318830D01*
X166554000Y-119318115D01*
X166549525Y-119302876D01*
X166548135Y-119301671D01*
X166540452Y-119300000D01*
X166143115Y-119300000D01*
X166127876Y-119304475D01*
X166126671Y-119305865D01*
X166125000Y-119313548D01*
X166125000Y-119535884D01*
X165375000Y-119535884D01*
X165375000Y-118531885D01*
X166125000Y-118531885D01*
X166129475Y-118547124D01*
X166130865Y-118548329D01*
X166138548Y-118550000D01*
X166535884Y-118550000D01*
X166551123Y-118545525D01*
X166552328Y-118544135D01*
X166553999Y-118536452D01*
X166553999Y-118531172D01*
X166552791Y-118518912D01*
X166541685Y-118463069D01*
X166532367Y-118440573D01*
X166485213Y-118370002D01*
X166463998Y-118302249D01*
X166485213Y-118229998D01*
X166532368Y-118159426D01*
X166541684Y-118136934D01*
X166552793Y-118081085D01*
X166554000Y-118068830D01*
X166554000Y-118068115D01*
X166549525Y-118052876D01*
X166548135Y-118051671D01*
X166540452Y-118050000D01*
X166143115Y-118050000D01*
X166127876Y-118054475D01*
X166126671Y-118055865D01*
X166125000Y-118063548D01*
X166125000Y-118531885D01*
X165375000Y-118531885D01*
X165375000Y-117281885D01*
X166125000Y-117281885D01*
X166129475Y-117297124D01*
X166130865Y-117298329D01*
X166138548Y-117300000D01*
X166535884Y-117300000D01*
X166551123Y-117295525D01*
X166552328Y-117294135D01*
X166553999Y-117286452D01*
X166553999Y-117281172D01*
X166552791Y-117268912D01*
X166541685Y-117213069D01*
X166532367Y-117190573D01*
X166490017Y-117127192D01*
X166472808Y-117109983D01*
X166409425Y-117067632D01*
X166386934Y-117058316D01*
X166331085Y-117047207D01*
X166318830Y-117046000D01*
X166143115Y-117046000D01*
X166127876Y-117050475D01*
X166126671Y-117051865D01*
X166125000Y-117059548D01*
X166125000Y-117281885D01*
X165375000Y-117281885D01*
X165375000Y-117064116D01*
X165370525Y-117048877D01*
X165369135Y-117047672D01*
X165361452Y-117046001D01*
X165181172Y-117046001D01*
X165168912Y-117047209D01*
X165113069Y-117058315D01*
X165090573Y-117067633D01*
X165027192Y-117109983D01*
X165009983Y-117127192D01*
X164967632Y-117190575D01*
X164958316Y-117213066D01*
X164954189Y-117233814D01*
X164921282Y-117296723D01*
X164859587Y-117331856D01*
X164788692Y-117328056D01*
X164731106Y-117286531D01*
X164705347Y-117222841D01*
X164702598Y-117197540D01*
X164701745Y-117189684D01*
X164650615Y-117053295D01*
X164563261Y-116936739D01*
X164446705Y-116849385D01*
X164310316Y-116798255D01*
X164248134Y-116791500D01*
X163767806Y-116791500D01*
X163748095Y-116789949D01*
X163703326Y-116782858D01*
X163703324Y-116782858D01*
X163696809Y-116781826D01*
X163690222Y-116782171D01*
X163690217Y-116782171D01*
X163515522Y-116791327D01*
X163508928Y-116791500D01*
X163051866Y-116791500D01*
X162989684Y-116798255D01*
X162853295Y-116849385D01*
X162736739Y-116936739D01*
X162649385Y-117053295D01*
X162598255Y-117189684D01*
X162591500Y-117251866D01*
X162591500Y-117265500D01*
X162571498Y-117333621D01*
X162517842Y-117380114D01*
X162465500Y-117391500D01*
X162404513Y-117391500D01*
X162398061Y-117392872D01*
X162398056Y-117392872D01*
X162311113Y-117411353D01*
X162217712Y-117431206D01*
X162211682Y-117433891D01*
X162211681Y-117433891D01*
X162049278Y-117506197D01*
X162049276Y-117506198D01*
X162043248Y-117508882D01*
X161888747Y-117621134D01*
X161884326Y-117626044D01*
X161884325Y-117626045D01*
X161776423Y-117745883D01*
X161760960Y-117763056D01*
X161665473Y-117928444D01*
X161606458Y-118110072D01*
X161605768Y-118116633D01*
X161605768Y-118116635D01*
X161601177Y-118160316D01*
X161586496Y-118300000D01*
X113942895Y-118300000D01*
X115029601Y-117046109D01*
X115260792Y-116779350D01*
X115320522Y-116740972D01*
X115391518Y-116740978D01*
X115451241Y-116779367D01*
X115480728Y-116843951D01*
X115477940Y-116893632D01*
X115447459Y-117010650D01*
X115444657Y-117064116D01*
X115437665Y-117197540D01*
X115437268Y-117205107D01*
X115466386Y-117397642D01*
X115468589Y-117403628D01*
X115468590Y-117403634D01*
X115531421Y-117574403D01*
X115531423Y-117574408D01*
X115533624Y-117580389D01*
X115636235Y-117745883D01*
X115640616Y-117750516D01*
X115640617Y-117750517D01*
X115703873Y-117817409D01*
X115770027Y-117887365D01*
X115929536Y-117999054D01*
X115935399Y-118001591D01*
X116102386Y-118073853D01*
X116102390Y-118073854D01*
X116108245Y-118076388D01*
X116114492Y-118077693D01*
X116114495Y-118077694D01*
X116294118Y-118115219D01*
X116294123Y-118115220D01*
X116298854Y-118116208D01*
X116305246Y-118116543D01*
X116448224Y-118116543D01*
X116517512Y-118109505D01*
X116586939Y-118102453D01*
X116586940Y-118102453D01*
X116593288Y-118101808D01*
X116674404Y-118076388D01*
X116773012Y-118045487D01*
X116773017Y-118045485D01*
X116779102Y-118043578D01*
X116866036Y-117995389D01*
X116943832Y-117952266D01*
X116943835Y-117952264D01*
X116949411Y-117949173D01*
X116954252Y-117945024D01*
X116954256Y-117945021D01*
X117092416Y-117826603D01*
X117097259Y-117822452D01*
X117143332Y-117763056D01*
X117212692Y-117673637D01*
X117216607Y-117668590D01*
X117239959Y-117621134D01*
X117299761Y-117499599D01*
X117302579Y-117493872D01*
X117318203Y-117433891D01*
X117350053Y-117311618D01*
X117350053Y-117311615D01*
X117351663Y-117305436D01*
X117358117Y-117182285D01*
X117361520Y-117117360D01*
X117361520Y-117117356D01*
X117361854Y-117110979D01*
X117332736Y-116918444D01*
X117330533Y-116912458D01*
X117330532Y-116912452D01*
X117267701Y-116741683D01*
X117267699Y-116741678D01*
X117265498Y-116735697D01*
X117162887Y-116570203D01*
X117029095Y-116428721D01*
X116869586Y-116317032D01*
X116766697Y-116272508D01*
X116696736Y-116242233D01*
X116696732Y-116242232D01*
X116690877Y-116239698D01*
X116684630Y-116238393D01*
X116684627Y-116238392D01*
X116505004Y-116200867D01*
X116504999Y-116200866D01*
X116500268Y-116199878D01*
X116493876Y-116199543D01*
X116350898Y-116199543D01*
X116292843Y-116205440D01*
X116212183Y-116213633D01*
X116212182Y-116213633D01*
X116205834Y-116214278D01*
X116154136Y-116230479D01*
X116026110Y-116270599D01*
X116026105Y-116270601D01*
X116020020Y-116272508D01*
X116014442Y-116275600D01*
X116008567Y-116278118D01*
X116007364Y-116275311D01*
X115951040Y-116288143D01*
X115884279Y-116263985D01*
X115841178Y-116207569D01*
X115835420Y-116136806D01*
X115862496Y-116081128D01*
X116819283Y-114947158D01*
X117112883Y-114599188D01*
X117172099Y-114560023D01*
X117243089Y-114559090D01*
X117303315Y-114596685D01*
X117333654Y-114660873D01*
X117335010Y-114687036D01*
X117329828Y-114785922D01*
X117325229Y-114873669D01*
X117354347Y-115066204D01*
X117356550Y-115072190D01*
X117356551Y-115072196D01*
X117419382Y-115242965D01*
X117419384Y-115242970D01*
X117421585Y-115248951D01*
X117524196Y-115414445D01*
X117657988Y-115555927D01*
X117817497Y-115667616D01*
X117823360Y-115670153D01*
X117990347Y-115742415D01*
X117990351Y-115742416D01*
X117996206Y-115744950D01*
X118002453Y-115746255D01*
X118002456Y-115746256D01*
X118182079Y-115783781D01*
X118182084Y-115783782D01*
X118186815Y-115784770D01*
X118193207Y-115785105D01*
X118336185Y-115785105D01*
X118405473Y-115778067D01*
X118474900Y-115771015D01*
X118474901Y-115771015D01*
X118481249Y-115770370D01*
X118562365Y-115744950D01*
X118660973Y-115714049D01*
X118660978Y-115714047D01*
X118667063Y-115712140D01*
X118753997Y-115663951D01*
X118831793Y-115620828D01*
X118831796Y-115620826D01*
X118837372Y-115617735D01*
X118842213Y-115613586D01*
X118842217Y-115613583D01*
X118980377Y-115495165D01*
X118985220Y-115491014D01*
X119104568Y-115337152D01*
X119145301Y-115254373D01*
X119187722Y-115168161D01*
X119190540Y-115162434D01*
X119192150Y-115156254D01*
X119238014Y-114980180D01*
X119238014Y-114980177D01*
X119239624Y-114973998D01*
X119249815Y-114779541D01*
X119220697Y-114587006D01*
X119218494Y-114581020D01*
X119218493Y-114581014D01*
X119155662Y-114410245D01*
X119155660Y-114410240D01*
X119153459Y-114404259D01*
X119050848Y-114238765D01*
X118917056Y-114097283D01*
X118757547Y-113985594D01*
X118594446Y-113915014D01*
X118584697Y-113910795D01*
X118584693Y-113910794D01*
X118578838Y-113908260D01*
X118572591Y-113906955D01*
X118572588Y-113906954D01*
X118392965Y-113869429D01*
X118392960Y-113869428D01*
X118388229Y-113868440D01*
X118381837Y-113868105D01*
X118238859Y-113868105D01*
X118169571Y-113875143D01*
X118100144Y-113882195D01*
X118100143Y-113882195D01*
X118093795Y-113882840D01*
X118087708Y-113884748D01*
X118087701Y-113884749D01*
X117995222Y-113913730D01*
X117924237Y-113915014D01*
X117863827Y-113877717D01*
X117833171Y-113813680D01*
X117842003Y-113743235D01*
X117861243Y-113712242D01*
X118413173Y-113058103D01*
X118413285Y-113057980D01*
X118413441Y-113057844D01*
X118438835Y-113027689D01*
X118462188Y-113000011D01*
X118462297Y-112999836D01*
X118462399Y-112999706D01*
X120824102Y-110195184D01*
X120830092Y-110188562D01*
X120838661Y-110179739D01*
X120838664Y-110179736D01*
X120842051Y-110176248D01*
X120849608Y-110165580D01*
X120856041Y-110157258D01*
X120859591Y-110153042D01*
X120859595Y-110153036D01*
X120862477Y-110149614D01*
X120872023Y-110134307D01*
X120876107Y-110128169D01*
X121250227Y-109600000D01*
X124586496Y-109600000D01*
X124606458Y-109789928D01*
X124665473Y-109971556D01*
X124760960Y-110136944D01*
X124888747Y-110278866D01*
X125043248Y-110391118D01*
X125049276Y-110393802D01*
X125049278Y-110393803D01*
X125211681Y-110466109D01*
X125217712Y-110468794D01*
X125311113Y-110488647D01*
X125398056Y-110507128D01*
X125398061Y-110507128D01*
X125404513Y-110508500D01*
X125415500Y-110508500D01*
X125483621Y-110528502D01*
X125530114Y-110582158D01*
X125541500Y-110634500D01*
X125541500Y-110668134D01*
X125548255Y-110730316D01*
X125599385Y-110866705D01*
X125686739Y-110983261D01*
X125803295Y-111070615D01*
X125939684Y-111121745D01*
X126001866Y-111128500D01*
X126425250Y-111128500D01*
X126447067Y-111131372D01*
X126447182Y-111130647D01*
X126453711Y-111131681D01*
X126460085Y-111133389D01*
X126466675Y-111133734D01*
X126466679Y-111133735D01*
X126640218Y-111142829D01*
X126640222Y-111142829D01*
X126646810Y-111143174D01*
X126653325Y-111142142D01*
X126653327Y-111142142D01*
X126729665Y-111130051D01*
X126749376Y-111128500D01*
X127198134Y-111128500D01*
X127260316Y-111121745D01*
X127396705Y-111070615D01*
X127513261Y-110983261D01*
X127600615Y-110866705D01*
X127651745Y-110730316D01*
X127655347Y-110697157D01*
X127682588Y-110631595D01*
X127740951Y-110591168D01*
X127811905Y-110588712D01*
X127872923Y-110625007D01*
X127904189Y-110686184D01*
X127908316Y-110706931D01*
X127917633Y-110729427D01*
X127959983Y-110792808D01*
X127977192Y-110810017D01*
X128040575Y-110852368D01*
X128063066Y-110861684D01*
X128118915Y-110872793D01*
X128131170Y-110874000D01*
X128306885Y-110874000D01*
X128322124Y-110869525D01*
X128323329Y-110868135D01*
X128325000Y-110860452D01*
X128325000Y-110855884D01*
X129075000Y-110855884D01*
X129079475Y-110871123D01*
X129080865Y-110872328D01*
X129088548Y-110873999D01*
X129268828Y-110873999D01*
X129281088Y-110872791D01*
X129336931Y-110861685D01*
X129359427Y-110852367D01*
X129422808Y-110810017D01*
X129440017Y-110792808D01*
X129482368Y-110729425D01*
X129491684Y-110706934D01*
X129502793Y-110651085D01*
X129504000Y-110638830D01*
X129504000Y-110638115D01*
X129499525Y-110622876D01*
X129498135Y-110621671D01*
X129490452Y-110620000D01*
X129093115Y-110620000D01*
X129077876Y-110624475D01*
X129076671Y-110625865D01*
X129075000Y-110633548D01*
X129075000Y-110855884D01*
X128325000Y-110855884D01*
X128325000Y-109851885D01*
X129075000Y-109851885D01*
X129079475Y-109867124D01*
X129080865Y-109868329D01*
X129088548Y-109870000D01*
X129485884Y-109870000D01*
X129501123Y-109865525D01*
X129502328Y-109864135D01*
X129503999Y-109856452D01*
X129503999Y-109851172D01*
X129502791Y-109838912D01*
X129491685Y-109783069D01*
X129482367Y-109760573D01*
X129435213Y-109690002D01*
X129413998Y-109622249D01*
X129435213Y-109549998D01*
X129482368Y-109479426D01*
X129491684Y-109456934D01*
X129502793Y-109401085D01*
X129504000Y-109388830D01*
X129504000Y-109388115D01*
X129499525Y-109372876D01*
X129498135Y-109371671D01*
X129490452Y-109370000D01*
X129093115Y-109370000D01*
X129077876Y-109374475D01*
X129076671Y-109375865D01*
X129075000Y-109383548D01*
X129075000Y-109851885D01*
X128325000Y-109851885D01*
X128325000Y-108601885D01*
X129075000Y-108601885D01*
X129079475Y-108617124D01*
X129080865Y-108618329D01*
X129088548Y-108620000D01*
X129485884Y-108620000D01*
X129501123Y-108615525D01*
X129502328Y-108614135D01*
X129503999Y-108606452D01*
X129503999Y-108601172D01*
X129502791Y-108588912D01*
X129491685Y-108533069D01*
X129482367Y-108510573D01*
X129440017Y-108447192D01*
X129422808Y-108429983D01*
X129359425Y-108387632D01*
X129336934Y-108378316D01*
X129281085Y-108367207D01*
X129268830Y-108366000D01*
X129093115Y-108366000D01*
X129077876Y-108370475D01*
X129076671Y-108371865D01*
X129075000Y-108379548D01*
X129075000Y-108601885D01*
X128325000Y-108601885D01*
X128325000Y-108384116D01*
X128320525Y-108368877D01*
X128319135Y-108367672D01*
X128311452Y-108366001D01*
X128131172Y-108366001D01*
X128118912Y-108367209D01*
X128063069Y-108378315D01*
X128040573Y-108387633D01*
X127977192Y-108429983D01*
X127959983Y-108447192D01*
X127917632Y-108510575D01*
X127908316Y-108533066D01*
X127904189Y-108553814D01*
X127871282Y-108616723D01*
X127809587Y-108651856D01*
X127738692Y-108648056D01*
X127681106Y-108606531D01*
X127655347Y-108542841D01*
X127652598Y-108517540D01*
X127651745Y-108509684D01*
X127600615Y-108373295D01*
X127513261Y-108256739D01*
X127396705Y-108169385D01*
X127260316Y-108118255D01*
X127198134Y-108111500D01*
X126686238Y-108111500D01*
X126666529Y-108109949D01*
X126646810Y-108106826D01*
X126640223Y-108107171D01*
X126640218Y-108107171D01*
X126560927Y-108111327D01*
X126554333Y-108111500D01*
X126001866Y-108111500D01*
X125939684Y-108118255D01*
X125803295Y-108169385D01*
X125686739Y-108256739D01*
X125599385Y-108373295D01*
X125548255Y-108509684D01*
X125541500Y-108571866D01*
X125541500Y-108572766D01*
X125518006Y-108639250D01*
X125461916Y-108682775D01*
X125415845Y-108691500D01*
X125404513Y-108691500D01*
X125398061Y-108692872D01*
X125398056Y-108692872D01*
X125311112Y-108711353D01*
X125217712Y-108731206D01*
X125211682Y-108733891D01*
X125211681Y-108733891D01*
X125049278Y-108806197D01*
X125049276Y-108806198D01*
X125043248Y-108808882D01*
X124888747Y-108921134D01*
X124760960Y-109063056D01*
X124665473Y-109228444D01*
X124606458Y-109410072D01*
X124605768Y-109416633D01*
X124605768Y-109416635D01*
X124591751Y-109549998D01*
X124586496Y-109600000D01*
X121250227Y-109600000D01*
X121267389Y-109575771D01*
X121709972Y-108950948D01*
X121711956Y-108948226D01*
X122563525Y-107812800D01*
X122571464Y-107804390D01*
X122570993Y-107803971D01*
X122576960Y-107797264D01*
X122583818Y-107791470D01*
X122614129Y-107745689D01*
X122618381Y-107739659D01*
X122626016Y-107729479D01*
X122628708Y-107725890D01*
X122633240Y-107717620D01*
X122638670Y-107708624D01*
X122659274Y-107677503D01*
X122664229Y-107670019D01*
X122666885Y-107661445D01*
X122666996Y-107661210D01*
X122676577Y-107638598D01*
X122676662Y-107638371D01*
X122680976Y-107630498D01*
X122690933Y-107585287D01*
X122693624Y-107575112D01*
X122704666Y-107539458D01*
X122704666Y-107539457D01*
X122707322Y-107530882D01*
X122707464Y-107521907D01*
X122707504Y-107521658D01*
X122710353Y-107497276D01*
X122710372Y-107497017D01*
X122712303Y-107488250D01*
X122709170Y-107442045D01*
X122708897Y-107431533D01*
X122709082Y-107419915D01*
X122709631Y-107385243D01*
X122707249Y-107376588D01*
X122707217Y-107376340D01*
X122703105Y-107352122D01*
X122703055Y-107351887D01*
X122702447Y-107342926D01*
X122699350Y-107334499D01*
X122699349Y-107334495D01*
X122686473Y-107299462D01*
X122683257Y-107289439D01*
X122673353Y-107253461D01*
X122673352Y-107253460D01*
X122670971Y-107244809D01*
X122666256Y-107237172D01*
X122666145Y-107236918D01*
X122655415Y-107214855D01*
X122655294Y-107214630D01*
X122652199Y-107206209D01*
X122646863Y-107198993D01*
X122646861Y-107198989D01*
X122624675Y-107168985D01*
X122618774Y-107160265D01*
X122599168Y-107128510D01*
X122599165Y-107128507D01*
X122594451Y-107120871D01*
X122587784Y-107114866D01*
X122587622Y-107114672D01*
X122571114Y-107096489D01*
X122570933Y-107096306D01*
X122565599Y-107089092D01*
X122528713Y-107061074D01*
X122520624Y-107054378D01*
X122486220Y-107023391D01*
X122478130Y-107019496D01*
X122477914Y-107019351D01*
X122456960Y-107006528D01*
X122456751Y-107006412D01*
X122449609Y-107000987D01*
X122441231Y-106997784D01*
X122441225Y-106997781D01*
X122406362Y-106984454D01*
X122396706Y-106980294D01*
X122385380Y-106974841D01*
X122380724Y-106973430D01*
X122380721Y-106973429D01*
X122369544Y-106970042D01*
X122361093Y-106967151D01*
X122321935Y-106952182D01*
X122321934Y-106952182D01*
X122313553Y-106948978D01*
X122304609Y-106948255D01*
X122295850Y-106946270D01*
X122295874Y-106946166D01*
X122282187Y-106943570D01*
X120702828Y-106464977D01*
X120700687Y-106464307D01*
X120426591Y-106375889D01*
X118641334Y-105800000D01*
X139786496Y-105800000D01*
X139787186Y-105806565D01*
X139801271Y-105940573D01*
X139806458Y-105989928D01*
X139865473Y-106171556D01*
X139960960Y-106336944D01*
X139965378Y-106341851D01*
X139965379Y-106341852D01*
X140002104Y-106382639D01*
X140088747Y-106478866D01*
X140243248Y-106591118D01*
X140249276Y-106593802D01*
X140249278Y-106593803D01*
X140411681Y-106666109D01*
X140417712Y-106668794D01*
X140511112Y-106688647D01*
X140598056Y-106707128D01*
X140598061Y-106707128D01*
X140604513Y-106708500D01*
X140665500Y-106708500D01*
X140733621Y-106728502D01*
X140780114Y-106782158D01*
X140791500Y-106834500D01*
X140791500Y-106848134D01*
X140798255Y-106910316D01*
X140849385Y-107046705D01*
X140936739Y-107163261D01*
X141053295Y-107250615D01*
X141189684Y-107301745D01*
X141251866Y-107308500D01*
X141708928Y-107308500D01*
X141715522Y-107308673D01*
X141890217Y-107317829D01*
X141890222Y-107317829D01*
X141896809Y-107318174D01*
X141903324Y-107317142D01*
X141903326Y-107317142D01*
X141948095Y-107310051D01*
X141967806Y-107308500D01*
X142448134Y-107308500D01*
X142510316Y-107301745D01*
X142646705Y-107250615D01*
X142763261Y-107163261D01*
X142850615Y-107046705D01*
X142901745Y-106910316D01*
X142905347Y-106877157D01*
X142932588Y-106811595D01*
X142990951Y-106771168D01*
X143061905Y-106768712D01*
X143122923Y-106805007D01*
X143154189Y-106866184D01*
X143158316Y-106886931D01*
X143167633Y-106909427D01*
X143209983Y-106972808D01*
X143227192Y-106990017D01*
X143290575Y-107032368D01*
X143313066Y-107041684D01*
X143368915Y-107052793D01*
X143381170Y-107054000D01*
X143556885Y-107054000D01*
X143572124Y-107049525D01*
X143573329Y-107048135D01*
X143575000Y-107040452D01*
X143575000Y-107035884D01*
X144325000Y-107035884D01*
X144329475Y-107051123D01*
X144330865Y-107052328D01*
X144338548Y-107053999D01*
X144518828Y-107053999D01*
X144531088Y-107052791D01*
X144586931Y-107041685D01*
X144609427Y-107032367D01*
X144672808Y-106990017D01*
X144690017Y-106972808D01*
X144732368Y-106909425D01*
X144741684Y-106886934D01*
X144752793Y-106831085D01*
X144754000Y-106818830D01*
X144754000Y-106818115D01*
X144749525Y-106802876D01*
X144748135Y-106801671D01*
X144740452Y-106800000D01*
X144343115Y-106800000D01*
X144327876Y-106804475D01*
X144326671Y-106805865D01*
X144325000Y-106813548D01*
X144325000Y-107035884D01*
X143575000Y-107035884D01*
X143575000Y-106031885D01*
X144325000Y-106031885D01*
X144329475Y-106047124D01*
X144330865Y-106048329D01*
X144338548Y-106050000D01*
X144735884Y-106050000D01*
X144751123Y-106045525D01*
X144752328Y-106044135D01*
X144753999Y-106036452D01*
X144753999Y-106031172D01*
X144752791Y-106018912D01*
X144741685Y-105963069D01*
X144732367Y-105940573D01*
X144685213Y-105870002D01*
X144663998Y-105802249D01*
X144685213Y-105729998D01*
X144732368Y-105659426D01*
X144741684Y-105636934D01*
X144752793Y-105581085D01*
X144754000Y-105568830D01*
X144754000Y-105568115D01*
X144749525Y-105552876D01*
X144748135Y-105551671D01*
X144740452Y-105550000D01*
X144343115Y-105550000D01*
X144327876Y-105554475D01*
X144326671Y-105555865D01*
X144325000Y-105563548D01*
X144325000Y-106031885D01*
X143575000Y-106031885D01*
X143575000Y-104781885D01*
X144325000Y-104781885D01*
X144329475Y-104797124D01*
X144330865Y-104798329D01*
X144338548Y-104800000D01*
X144735884Y-104800000D01*
X144751123Y-104795525D01*
X144752328Y-104794135D01*
X144753999Y-104786452D01*
X144753999Y-104781172D01*
X144752791Y-104768912D01*
X144741685Y-104713069D01*
X144732367Y-104690573D01*
X144690017Y-104627192D01*
X144672808Y-104609983D01*
X144609425Y-104567632D01*
X144586934Y-104558316D01*
X144531085Y-104547207D01*
X144518830Y-104546000D01*
X144343115Y-104546000D01*
X144327876Y-104550475D01*
X144326671Y-104551865D01*
X144325000Y-104559548D01*
X144325000Y-104781885D01*
X143575000Y-104781885D01*
X143575000Y-104564116D01*
X143570525Y-104548877D01*
X143569135Y-104547672D01*
X143561452Y-104546001D01*
X143381172Y-104546001D01*
X143368912Y-104547209D01*
X143313069Y-104558315D01*
X143290573Y-104567633D01*
X143227192Y-104609983D01*
X143209983Y-104627192D01*
X143167632Y-104690575D01*
X143158316Y-104713066D01*
X143154189Y-104733814D01*
X143121282Y-104796723D01*
X143059587Y-104831856D01*
X142988692Y-104828056D01*
X142931106Y-104786531D01*
X142905347Y-104722841D01*
X142902598Y-104697540D01*
X142901745Y-104689684D01*
X142850615Y-104553295D01*
X142763261Y-104436739D01*
X142646705Y-104349385D01*
X142510316Y-104298255D01*
X142448134Y-104291500D01*
X141967806Y-104291500D01*
X141948095Y-104289949D01*
X141903326Y-104282858D01*
X141903324Y-104282858D01*
X141896809Y-104281826D01*
X141890222Y-104282171D01*
X141890217Y-104282171D01*
X141715522Y-104291327D01*
X141708928Y-104291500D01*
X141251866Y-104291500D01*
X141189684Y-104298255D01*
X141053295Y-104349385D01*
X140936739Y-104436739D01*
X140849385Y-104553295D01*
X140798255Y-104689684D01*
X140791500Y-104751866D01*
X140791500Y-104765500D01*
X140771498Y-104833621D01*
X140717842Y-104880114D01*
X140665500Y-104891500D01*
X140604513Y-104891500D01*
X140598061Y-104892872D01*
X140598056Y-104892872D01*
X140511112Y-104911353D01*
X140417712Y-104931206D01*
X140411682Y-104933891D01*
X140411681Y-104933891D01*
X140249278Y-105006197D01*
X140249276Y-105006198D01*
X140243248Y-105008882D01*
X140237907Y-105012762D01*
X140237906Y-105012763D01*
X140191944Y-105046157D01*
X140088747Y-105121134D01*
X139960960Y-105263056D01*
X139865473Y-105428444D01*
X139806458Y-105610072D01*
X139805768Y-105616633D01*
X139805768Y-105616635D01*
X139801177Y-105660316D01*
X139786496Y-105800000D01*
X118641334Y-105800000D01*
X117626794Y-105472729D01*
X117618691Y-105469806D01*
X116476085Y-105012763D01*
X115753281Y-104723641D01*
X115697461Y-104679770D01*
X115688078Y-104664380D01*
X115663674Y-104617033D01*
X115651789Y-104582307D01*
X115641918Y-104529141D01*
X115640546Y-104492461D01*
X115646416Y-104438710D01*
X115655673Y-104403191D01*
X115670103Y-104369168D01*
X115679313Y-104351491D01*
X115679452Y-104351269D01*
X115685243Y-104344418D01*
X115688879Y-104336216D01*
X115693644Y-104328607D01*
X115694007Y-104328834D01*
X115700283Y-104318071D01*
X115994690Y-103921426D01*
X116000356Y-103914341D01*
X117809574Y-101811736D01*
X117813730Y-101807468D01*
X117813570Y-101807317D01*
X117816916Y-101803777D01*
X117820519Y-101800510D01*
X117839330Y-101777244D01*
X117841788Y-101774298D01*
X117856338Y-101757389D01*
X117856341Y-101757386D01*
X117859264Y-101753988D01*
X117861680Y-101750205D01*
X117864350Y-101746613D01*
X117864458Y-101746694D01*
X117867942Y-101741854D01*
X117993755Y-101586244D01*
X119132290Y-100178056D01*
X119357101Y-99900000D01*
X152986496Y-99900000D01*
X152987186Y-99906565D01*
X153001271Y-100040573D01*
X153006458Y-100089928D01*
X153065473Y-100271556D01*
X153160960Y-100436944D01*
X153288747Y-100578866D01*
X153443248Y-100691118D01*
X153449276Y-100693802D01*
X153449278Y-100693803D01*
X153510739Y-100721167D01*
X153617712Y-100768794D01*
X153711113Y-100788647D01*
X153798056Y-100807128D01*
X153798061Y-100807128D01*
X153804513Y-100808500D01*
X153865500Y-100808500D01*
X153933621Y-100828502D01*
X153980114Y-100882158D01*
X153991500Y-100934500D01*
X153991500Y-100948134D01*
X153998255Y-101010316D01*
X154049385Y-101146705D01*
X154136739Y-101263261D01*
X154253295Y-101350615D01*
X154389684Y-101401745D01*
X154451866Y-101408500D01*
X154908928Y-101408500D01*
X154915522Y-101408673D01*
X155090217Y-101417829D01*
X155090222Y-101417829D01*
X155096809Y-101418174D01*
X155103324Y-101417142D01*
X155103326Y-101417142D01*
X155148095Y-101410051D01*
X155167806Y-101408500D01*
X155648134Y-101408500D01*
X155710316Y-101401745D01*
X155846705Y-101350615D01*
X155963261Y-101263261D01*
X156050615Y-101146705D01*
X156101745Y-101010316D01*
X156105347Y-100977157D01*
X156132588Y-100911595D01*
X156190951Y-100871168D01*
X156261905Y-100868712D01*
X156322923Y-100905007D01*
X156354189Y-100966184D01*
X156358316Y-100986931D01*
X156367633Y-101009427D01*
X156409983Y-101072808D01*
X156427192Y-101090017D01*
X156490575Y-101132368D01*
X156513066Y-101141684D01*
X156568915Y-101152793D01*
X156581170Y-101154000D01*
X156756885Y-101154000D01*
X156772124Y-101149525D01*
X156773329Y-101148135D01*
X156775000Y-101140452D01*
X156775000Y-101135884D01*
X157525000Y-101135884D01*
X157529475Y-101151123D01*
X157530865Y-101152328D01*
X157538548Y-101153999D01*
X157718828Y-101153999D01*
X157731088Y-101152791D01*
X157786931Y-101141685D01*
X157809427Y-101132367D01*
X157872808Y-101090017D01*
X157890017Y-101072808D01*
X157932368Y-101009425D01*
X157941684Y-100986934D01*
X157952793Y-100931085D01*
X157954000Y-100918830D01*
X157954000Y-100918115D01*
X157949525Y-100902876D01*
X157948135Y-100901671D01*
X157940452Y-100900000D01*
X157543115Y-100900000D01*
X157527876Y-100904475D01*
X157526671Y-100905865D01*
X157525000Y-100913548D01*
X157525000Y-101135884D01*
X156775000Y-101135884D01*
X156775000Y-100131885D01*
X157525000Y-100131885D01*
X157529475Y-100147124D01*
X157530865Y-100148329D01*
X157538548Y-100150000D01*
X157935884Y-100150000D01*
X157951123Y-100145525D01*
X157952328Y-100144135D01*
X157953999Y-100136452D01*
X157953999Y-100131172D01*
X157952791Y-100118912D01*
X157941685Y-100063069D01*
X157932367Y-100040573D01*
X157885213Y-99970002D01*
X157863998Y-99902249D01*
X157885213Y-99829998D01*
X157932368Y-99759426D01*
X157941684Y-99736934D01*
X157952793Y-99681085D01*
X157954000Y-99668830D01*
X157954000Y-99668115D01*
X157949525Y-99652876D01*
X157948135Y-99651671D01*
X157940452Y-99650000D01*
X157543115Y-99650000D01*
X157527876Y-99654475D01*
X157526671Y-99655865D01*
X157525000Y-99663548D01*
X157525000Y-100131885D01*
X156775000Y-100131885D01*
X156775000Y-98881885D01*
X157525000Y-98881885D01*
X157529475Y-98897124D01*
X157530865Y-98898329D01*
X157538548Y-98900000D01*
X157935884Y-98900000D01*
X157951123Y-98895525D01*
X157952328Y-98894135D01*
X157953999Y-98886452D01*
X157953999Y-98881172D01*
X157952791Y-98868912D01*
X157941685Y-98813069D01*
X157932367Y-98790573D01*
X157890017Y-98727192D01*
X157872808Y-98709983D01*
X157809425Y-98667632D01*
X157786934Y-98658316D01*
X157731085Y-98647207D01*
X157718830Y-98646000D01*
X157543115Y-98646000D01*
X157527876Y-98650475D01*
X157526671Y-98651865D01*
X157525000Y-98659548D01*
X157525000Y-98881885D01*
X156775000Y-98881885D01*
X156775000Y-98664116D01*
X156770525Y-98648877D01*
X156769135Y-98647672D01*
X156761452Y-98646001D01*
X156581172Y-98646001D01*
X156568912Y-98647209D01*
X156513069Y-98658315D01*
X156490573Y-98667633D01*
X156427192Y-98709983D01*
X156409983Y-98727192D01*
X156367632Y-98790575D01*
X156358316Y-98813066D01*
X156354189Y-98833814D01*
X156321282Y-98896723D01*
X156259587Y-98931856D01*
X156188692Y-98928056D01*
X156131106Y-98886531D01*
X156105347Y-98822841D01*
X156104285Y-98813066D01*
X156101745Y-98789684D01*
X156050615Y-98653295D01*
X155963261Y-98536739D01*
X155846705Y-98449385D01*
X155710316Y-98398255D01*
X155648134Y-98391500D01*
X155167806Y-98391500D01*
X155148095Y-98389949D01*
X155103326Y-98382858D01*
X155103324Y-98382858D01*
X155096809Y-98381826D01*
X155090222Y-98382171D01*
X155090217Y-98382171D01*
X154915522Y-98391327D01*
X154908928Y-98391500D01*
X154451866Y-98391500D01*
X154389684Y-98398255D01*
X154253295Y-98449385D01*
X154136739Y-98536739D01*
X154049385Y-98653295D01*
X153998255Y-98789684D01*
X153991500Y-98851866D01*
X153991500Y-98865500D01*
X153971498Y-98933621D01*
X153917842Y-98980114D01*
X153865500Y-98991500D01*
X153804513Y-98991500D01*
X153798061Y-98992872D01*
X153798056Y-98992872D01*
X153711113Y-99011353D01*
X153617712Y-99031206D01*
X153611682Y-99033891D01*
X153611681Y-99033891D01*
X153449278Y-99106197D01*
X153449276Y-99106198D01*
X153443248Y-99108882D01*
X153288747Y-99221134D01*
X153160960Y-99363056D01*
X153065473Y-99528444D01*
X153006458Y-99710072D01*
X153005768Y-99716633D01*
X153005768Y-99716635D01*
X153001177Y-99760316D01*
X152986496Y-99900000D01*
X119357101Y-99900000D01*
X119743226Y-99422425D01*
X119744106Y-99421349D01*
X121866665Y-96854534D01*
X121866729Y-96854462D01*
X121866805Y-96854395D01*
X121892095Y-96823781D01*
X121915142Y-96795910D01*
X121915197Y-96795821D01*
X121915254Y-96795746D01*
X122427017Y-96176244D01*
X123791622Y-94524353D01*
X124973531Y-93100000D01*
X128586496Y-93100000D01*
X128587186Y-93106565D01*
X128601271Y-93240573D01*
X128606458Y-93289928D01*
X128665473Y-93471556D01*
X128760960Y-93636944D01*
X128888747Y-93778866D01*
X128980090Y-93845231D01*
X129021938Y-93875635D01*
X129043248Y-93891118D01*
X129049276Y-93893802D01*
X129049278Y-93893803D01*
X129070800Y-93903385D01*
X129217712Y-93968794D01*
X129381698Y-94003650D01*
X129444170Y-94037378D01*
X129478492Y-94099528D01*
X129481500Y-94126897D01*
X129481500Y-94148134D01*
X129488255Y-94210316D01*
X129539385Y-94346705D01*
X129626739Y-94463261D01*
X129743295Y-94550615D01*
X129879684Y-94601745D01*
X129941866Y-94608500D01*
X130408928Y-94608500D01*
X130415522Y-94608673D01*
X130590217Y-94617829D01*
X130590222Y-94617829D01*
X130596809Y-94618174D01*
X130603324Y-94617142D01*
X130603326Y-94617142D01*
X130648095Y-94610051D01*
X130667806Y-94608500D01*
X131138134Y-94608500D01*
X131200316Y-94601745D01*
X131336705Y-94550615D01*
X131453261Y-94463261D01*
X131540615Y-94346705D01*
X131591745Y-94210316D01*
X131595347Y-94177157D01*
X131622588Y-94111595D01*
X131680951Y-94071168D01*
X131751905Y-94068712D01*
X131812923Y-94105007D01*
X131844189Y-94166184D01*
X131848316Y-94186931D01*
X131857633Y-94209427D01*
X131899983Y-94272808D01*
X131917192Y-94290017D01*
X131980575Y-94332368D01*
X132003066Y-94341684D01*
X132058915Y-94352793D01*
X132071170Y-94354000D01*
X132246885Y-94354000D01*
X132262124Y-94349525D01*
X132263329Y-94348135D01*
X132265000Y-94340452D01*
X132265000Y-94335884D01*
X133015000Y-94335884D01*
X133019475Y-94351123D01*
X133020865Y-94352328D01*
X133028548Y-94353999D01*
X133208828Y-94353999D01*
X133221088Y-94352791D01*
X133276931Y-94341685D01*
X133299427Y-94332367D01*
X133362808Y-94290017D01*
X133380017Y-94272808D01*
X133422368Y-94209425D01*
X133431684Y-94186934D01*
X133442793Y-94131085D01*
X133444000Y-94118830D01*
X133444000Y-94118115D01*
X133439525Y-94102876D01*
X133438135Y-94101671D01*
X133430452Y-94100000D01*
X133033115Y-94100000D01*
X133017876Y-94104475D01*
X133016671Y-94105865D01*
X133015000Y-94113548D01*
X133015000Y-94335884D01*
X132265000Y-94335884D01*
X132265000Y-93331885D01*
X133015000Y-93331885D01*
X133019475Y-93347124D01*
X133020865Y-93348329D01*
X133028548Y-93350000D01*
X133425884Y-93350000D01*
X133441123Y-93345525D01*
X133442328Y-93344135D01*
X133443999Y-93336452D01*
X133443999Y-93331172D01*
X133442791Y-93318912D01*
X133431685Y-93263069D01*
X133422367Y-93240573D01*
X133375213Y-93170002D01*
X133353998Y-93102249D01*
X133375213Y-93029998D01*
X133422368Y-92959426D01*
X133431684Y-92936934D01*
X133442793Y-92881085D01*
X133444000Y-92868830D01*
X133444000Y-92868115D01*
X133439525Y-92852876D01*
X133438135Y-92851671D01*
X133430452Y-92850000D01*
X133033115Y-92850000D01*
X133017876Y-92854475D01*
X133016671Y-92855865D01*
X133015000Y-92863548D01*
X133015000Y-93331885D01*
X132265000Y-93331885D01*
X132265000Y-92081885D01*
X133015000Y-92081885D01*
X133019475Y-92097124D01*
X133020865Y-92098329D01*
X133028548Y-92100000D01*
X133425884Y-92100000D01*
X133441123Y-92095525D01*
X133442328Y-92094135D01*
X133443999Y-92086452D01*
X133443999Y-92081172D01*
X133442791Y-92068912D01*
X133431685Y-92013069D01*
X133422367Y-91990573D01*
X133380017Y-91927192D01*
X133362808Y-91909983D01*
X133299425Y-91867632D01*
X133276934Y-91858316D01*
X133221085Y-91847207D01*
X133208830Y-91846000D01*
X133033115Y-91846000D01*
X133017876Y-91850475D01*
X133016671Y-91851865D01*
X133015000Y-91859548D01*
X133015000Y-92081885D01*
X132265000Y-92081885D01*
X132265000Y-91864116D01*
X132260525Y-91848877D01*
X132259135Y-91847672D01*
X132251452Y-91846001D01*
X132071172Y-91846001D01*
X132058912Y-91847209D01*
X132003069Y-91858315D01*
X131980573Y-91867633D01*
X131917192Y-91909983D01*
X131899983Y-91927192D01*
X131857632Y-91990575D01*
X131848316Y-92013066D01*
X131844189Y-92033814D01*
X131811282Y-92096723D01*
X131749587Y-92131856D01*
X131678692Y-92128056D01*
X131621106Y-92086531D01*
X131595347Y-92022841D01*
X131592598Y-91997540D01*
X131591745Y-91989684D01*
X131540615Y-91853295D01*
X131453261Y-91736739D01*
X131336705Y-91649385D01*
X131200316Y-91598255D01*
X131138134Y-91591500D01*
X130667806Y-91591500D01*
X130648095Y-91589949D01*
X130603326Y-91582858D01*
X130603324Y-91582858D01*
X130596809Y-91581826D01*
X130590222Y-91582171D01*
X130590217Y-91582171D01*
X130415522Y-91591327D01*
X130408928Y-91591500D01*
X129941866Y-91591500D01*
X129879684Y-91598255D01*
X129743295Y-91649385D01*
X129626739Y-91736739D01*
X129539385Y-91853295D01*
X129488255Y-91989684D01*
X129481500Y-92051866D01*
X129481500Y-92073103D01*
X129461498Y-92141224D01*
X129407842Y-92187717D01*
X129381699Y-92196349D01*
X129217712Y-92231206D01*
X129211682Y-92233891D01*
X129211681Y-92233891D01*
X129049278Y-92306197D01*
X129049276Y-92306198D01*
X129043248Y-92308882D01*
X128888747Y-92421134D01*
X128760960Y-92563056D01*
X128665473Y-92728444D01*
X128606458Y-92910072D01*
X128605768Y-92916633D01*
X128605768Y-92916635D01*
X128601177Y-92960316D01*
X128586496Y-93100000D01*
X124973531Y-93100000D01*
X125740625Y-92175553D01*
X127237481Y-90385834D01*
X128015005Y-89456186D01*
X128019236Y-89451381D01*
X128020358Y-89450170D01*
X128023931Y-89446867D01*
X128043350Y-89422362D01*
X128045436Y-89419801D01*
X128060605Y-89401664D01*
X128063483Y-89398223D01*
X128065841Y-89394413D01*
X128067720Y-89391812D01*
X128071115Y-89387326D01*
X130129523Y-86789811D01*
X130137388Y-86780800D01*
X130143862Y-86774059D01*
X130155768Y-86757050D01*
X130160241Y-86751047D01*
X130168428Y-86740716D01*
X130171212Y-86737203D01*
X130173472Y-86733327D01*
X130173476Y-86733321D01*
X130176320Y-86728444D01*
X130181946Y-86719653D01*
X130965703Y-85600000D01*
X146986496Y-85600000D01*
X146987186Y-85606565D01*
X147001271Y-85740573D01*
X147006458Y-85789928D01*
X147065473Y-85971556D01*
X147160960Y-86136944D01*
X147288747Y-86278866D01*
X147443248Y-86391118D01*
X147449276Y-86393802D01*
X147449278Y-86393803D01*
X147611681Y-86466109D01*
X147617712Y-86468794D01*
X147711113Y-86488647D01*
X147798056Y-86507128D01*
X147798061Y-86507128D01*
X147804513Y-86508500D01*
X147865500Y-86508500D01*
X147933621Y-86528502D01*
X147980114Y-86582158D01*
X147991500Y-86634500D01*
X147991500Y-86648134D01*
X147998255Y-86710316D01*
X148049385Y-86846705D01*
X148136739Y-86963261D01*
X148253295Y-87050615D01*
X148389684Y-87101745D01*
X148451866Y-87108500D01*
X148908928Y-87108500D01*
X148915522Y-87108673D01*
X149090217Y-87117829D01*
X149090222Y-87117829D01*
X149096809Y-87118174D01*
X149103324Y-87117142D01*
X149103326Y-87117142D01*
X149148095Y-87110051D01*
X149167806Y-87108500D01*
X149648134Y-87108500D01*
X149710316Y-87101745D01*
X149846705Y-87050615D01*
X149963261Y-86963261D01*
X150050615Y-86846705D01*
X150101745Y-86710316D01*
X150105347Y-86677157D01*
X150132588Y-86611595D01*
X150190951Y-86571168D01*
X150261905Y-86568712D01*
X150322923Y-86605007D01*
X150354189Y-86666184D01*
X150358316Y-86686931D01*
X150367633Y-86709427D01*
X150409983Y-86772808D01*
X150427192Y-86790017D01*
X150490575Y-86832368D01*
X150513066Y-86841684D01*
X150568915Y-86852793D01*
X150581170Y-86854000D01*
X150756885Y-86854000D01*
X150772124Y-86849525D01*
X150773329Y-86848135D01*
X150775000Y-86840452D01*
X150775000Y-86835884D01*
X151525000Y-86835884D01*
X151529475Y-86851123D01*
X151530865Y-86852328D01*
X151538548Y-86853999D01*
X151718828Y-86853999D01*
X151731088Y-86852791D01*
X151786931Y-86841685D01*
X151809427Y-86832367D01*
X151872808Y-86790017D01*
X151890017Y-86772808D01*
X151932368Y-86709425D01*
X151941684Y-86686934D01*
X151952793Y-86631085D01*
X151954000Y-86618830D01*
X151954000Y-86618115D01*
X151949525Y-86602876D01*
X151948135Y-86601671D01*
X151940452Y-86600000D01*
X151543115Y-86600000D01*
X151527876Y-86604475D01*
X151526671Y-86605865D01*
X151525000Y-86613548D01*
X151525000Y-86835884D01*
X150775000Y-86835884D01*
X150775000Y-85831885D01*
X151525000Y-85831885D01*
X151529475Y-85847124D01*
X151530865Y-85848329D01*
X151538548Y-85850000D01*
X151935884Y-85850000D01*
X151951123Y-85845525D01*
X151952328Y-85844135D01*
X151953999Y-85836452D01*
X151953999Y-85831172D01*
X151952791Y-85818912D01*
X151941685Y-85763069D01*
X151932367Y-85740573D01*
X151885213Y-85670002D01*
X151863998Y-85602249D01*
X151885213Y-85529998D01*
X151932368Y-85459426D01*
X151941684Y-85436934D01*
X151952793Y-85381085D01*
X151954000Y-85368830D01*
X151954000Y-85368115D01*
X151949525Y-85352876D01*
X151948135Y-85351671D01*
X151940452Y-85350000D01*
X151543115Y-85350000D01*
X151527876Y-85354475D01*
X151526671Y-85355865D01*
X151525000Y-85363548D01*
X151525000Y-85831885D01*
X150775000Y-85831885D01*
X150775000Y-84581885D01*
X151525000Y-84581885D01*
X151529475Y-84597124D01*
X151530865Y-84598329D01*
X151538548Y-84600000D01*
X151935884Y-84600000D01*
X151951123Y-84595525D01*
X151952328Y-84594135D01*
X151953999Y-84586452D01*
X151953999Y-84581172D01*
X151952791Y-84568912D01*
X151941685Y-84513069D01*
X151932367Y-84490573D01*
X151890017Y-84427192D01*
X151872808Y-84409983D01*
X151809425Y-84367632D01*
X151786934Y-84358316D01*
X151731085Y-84347207D01*
X151718830Y-84346000D01*
X151543115Y-84346000D01*
X151527876Y-84350475D01*
X151526671Y-84351865D01*
X151525000Y-84359548D01*
X151525000Y-84581885D01*
X150775000Y-84581885D01*
X150775000Y-84364116D01*
X150770525Y-84348877D01*
X150769135Y-84347672D01*
X150761452Y-84346001D01*
X150581172Y-84346001D01*
X150568912Y-84347209D01*
X150513069Y-84358315D01*
X150490573Y-84367633D01*
X150427192Y-84409983D01*
X150409983Y-84427192D01*
X150367632Y-84490575D01*
X150358316Y-84513066D01*
X150354189Y-84533814D01*
X150321282Y-84596723D01*
X150259587Y-84631856D01*
X150188692Y-84628056D01*
X150131106Y-84586531D01*
X150105347Y-84522841D01*
X150103117Y-84502316D01*
X150101745Y-84489684D01*
X150050615Y-84353295D01*
X149963261Y-84236739D01*
X149846705Y-84149385D01*
X149710316Y-84098255D01*
X149648134Y-84091500D01*
X149167806Y-84091500D01*
X149148095Y-84089949D01*
X149103326Y-84082858D01*
X149103324Y-84082858D01*
X149096809Y-84081826D01*
X149090222Y-84082171D01*
X149090217Y-84082171D01*
X148915522Y-84091327D01*
X148908928Y-84091500D01*
X148451866Y-84091500D01*
X148389684Y-84098255D01*
X148253295Y-84149385D01*
X148136739Y-84236739D01*
X148049385Y-84353295D01*
X147998255Y-84489684D01*
X147991500Y-84551866D01*
X147991500Y-84565500D01*
X147971498Y-84633621D01*
X147917842Y-84680114D01*
X147865500Y-84691500D01*
X147804513Y-84691500D01*
X147798061Y-84692872D01*
X147798056Y-84692872D01*
X147711113Y-84711353D01*
X147617712Y-84731206D01*
X147611682Y-84733891D01*
X147611681Y-84733891D01*
X147449278Y-84806197D01*
X147449276Y-84806198D01*
X147443248Y-84808882D01*
X147437907Y-84812762D01*
X147437906Y-84812763D01*
X147387843Y-84849136D01*
X147288747Y-84921134D01*
X147284326Y-84926044D01*
X147284325Y-84926045D01*
X147194703Y-85025581D01*
X147160960Y-85063056D01*
X147065473Y-85228444D01*
X147006458Y-85410072D01*
X147005768Y-85416633D01*
X147005768Y-85416635D01*
X147001177Y-85460316D01*
X146986496Y-85600000D01*
X130965703Y-85600000D01*
X131175825Y-85299826D01*
X131181661Y-85292363D01*
X131187362Y-85287444D01*
X131221284Y-85235028D01*
X131223843Y-85231228D01*
X131234945Y-85215368D01*
X131237518Y-85211693D01*
X131239543Y-85207691D01*
X131241846Y-85203847D01*
X131241875Y-85203864D01*
X131245203Y-85198072D01*
X131261624Y-85172698D01*
X131261626Y-85172694D01*
X131266501Y-85165161D01*
X131269067Y-85156560D01*
X131271082Y-85149806D01*
X131279400Y-85128932D01*
X131282578Y-85122652D01*
X131282578Y-85122651D01*
X131286632Y-85114641D01*
X131293801Y-85076117D01*
X131296932Y-85063152D01*
X131305572Y-85034187D01*
X131305572Y-85034185D01*
X131308139Y-85025581D01*
X131308206Y-85013329D01*
X131308226Y-85009555D01*
X131310349Y-84987197D01*
X131313281Y-84971442D01*
X131309349Y-84932443D01*
X131308715Y-84919125D01*
X131308777Y-84907592D01*
X131308927Y-84879926D01*
X131304514Y-84864525D01*
X131300275Y-84842456D01*
X131299569Y-84835453D01*
X131299569Y-84835452D01*
X131298668Y-84826519D01*
X131295296Y-84818197D01*
X131295295Y-84818193D01*
X131283946Y-84790184D01*
X131279598Y-84777575D01*
X131274619Y-84760199D01*
X131268803Y-84739903D01*
X131264008Y-84732315D01*
X131264005Y-84732309D01*
X131260246Y-84726361D01*
X131249985Y-84706375D01*
X131243967Y-84691522D01*
X131219640Y-84660784D01*
X131211928Y-84649901D01*
X131208364Y-84644260D01*
X131190993Y-84616771D01*
X131178983Y-84606179D01*
X131163521Y-84589871D01*
X131159148Y-84584345D01*
X131159145Y-84584342D01*
X131153576Y-84577305D01*
X131141741Y-84568912D01*
X131121603Y-84554631D01*
X131111148Y-84546352D01*
X131105542Y-84541408D01*
X131081751Y-84520426D01*
X131071787Y-84515756D01*
X131067242Y-84513626D01*
X131047829Y-84502316D01*
X131042087Y-84498244D01*
X131042086Y-84498244D01*
X131034761Y-84493049D01*
X130997702Y-84480258D01*
X130985353Y-84475249D01*
X130984812Y-84474995D01*
X130984808Y-84474994D01*
X130980409Y-84472932D01*
X130975737Y-84471569D01*
X130975731Y-84471567D01*
X130957956Y-84466382D01*
X130952131Y-84464529D01*
X130905557Y-84448455D01*
X130905556Y-84448455D01*
X130897073Y-84445527D01*
X130888111Y-84445098D01*
X130884704Y-84444442D01*
X130873233Y-84441672D01*
X130641184Y-84373991D01*
X129779291Y-84122605D01*
X129775924Y-84121509D01*
X129773028Y-84120206D01*
X129739608Y-84111015D01*
X129737790Y-84110500D01*
X129707328Y-84101616D01*
X129704186Y-84101168D01*
X129700626Y-84100295D01*
X127739836Y-83561077D01*
X127737853Y-83560514D01*
X126704293Y-83258009D01*
X125711730Y-82967503D01*
X125704322Y-82965082D01*
X125648331Y-82944847D01*
X125591065Y-82902882D01*
X125577730Y-82881212D01*
X125560339Y-82845256D01*
X125549487Y-82811138D01*
X125540428Y-82756866D01*
X125539611Y-82721074D01*
X125546181Y-82666451D01*
X125555463Y-82631873D01*
X125570350Y-82597129D01*
X125579385Y-82579867D01*
X125579576Y-82579562D01*
X125585373Y-82572705D01*
X125589012Y-82564499D01*
X125589014Y-82564495D01*
X125598679Y-82542698D01*
X125606070Y-82528529D01*
X129315443Y-76400000D01*
X134286496Y-76400000D01*
X134287186Y-76406565D01*
X134301271Y-76540573D01*
X134306458Y-76589928D01*
X134365473Y-76771556D01*
X134460960Y-76936944D01*
X134588747Y-77078866D01*
X134743248Y-77191118D01*
X134749276Y-77193802D01*
X134749278Y-77193803D01*
X134911681Y-77266109D01*
X134917712Y-77268794D01*
X135011112Y-77288647D01*
X135098056Y-77307128D01*
X135098061Y-77307128D01*
X135104513Y-77308500D01*
X135155500Y-77308500D01*
X135223621Y-77328502D01*
X135270114Y-77382158D01*
X135281500Y-77434500D01*
X135281500Y-77448134D01*
X135288255Y-77510316D01*
X135339385Y-77646705D01*
X135426739Y-77763261D01*
X135543295Y-77850615D01*
X135679684Y-77901745D01*
X135741866Y-77908500D01*
X136208928Y-77908500D01*
X136215522Y-77908673D01*
X136390217Y-77917829D01*
X136390222Y-77917829D01*
X136396809Y-77918174D01*
X136403324Y-77917142D01*
X136403326Y-77917142D01*
X136448095Y-77910051D01*
X136467806Y-77908500D01*
X136938134Y-77908500D01*
X137000316Y-77901745D01*
X137136705Y-77850615D01*
X137253261Y-77763261D01*
X137340615Y-77646705D01*
X137391745Y-77510316D01*
X137395347Y-77477157D01*
X137422588Y-77411595D01*
X137480951Y-77371168D01*
X137551905Y-77368712D01*
X137612923Y-77405007D01*
X137644189Y-77466184D01*
X137648316Y-77486931D01*
X137657633Y-77509427D01*
X137699983Y-77572808D01*
X137717192Y-77590017D01*
X137780575Y-77632368D01*
X137803066Y-77641684D01*
X137858915Y-77652793D01*
X137871170Y-77654000D01*
X138046885Y-77654000D01*
X138062124Y-77649525D01*
X138063329Y-77648135D01*
X138065000Y-77640452D01*
X138065000Y-77635884D01*
X138815000Y-77635884D01*
X138819475Y-77651123D01*
X138820865Y-77652328D01*
X138828548Y-77653999D01*
X139008828Y-77653999D01*
X139021088Y-77652791D01*
X139076931Y-77641685D01*
X139099427Y-77632367D01*
X139162808Y-77590017D01*
X139180017Y-77572808D01*
X139222368Y-77509425D01*
X139231684Y-77486934D01*
X139242793Y-77431085D01*
X139244000Y-77418830D01*
X139244000Y-77418115D01*
X139239525Y-77402876D01*
X139238135Y-77401671D01*
X139230452Y-77400000D01*
X138833115Y-77400000D01*
X138817876Y-77404475D01*
X138816671Y-77405865D01*
X138815000Y-77413548D01*
X138815000Y-77635884D01*
X138065000Y-77635884D01*
X138065000Y-76631885D01*
X138815000Y-76631885D01*
X138819475Y-76647124D01*
X138820865Y-76648329D01*
X138828548Y-76650000D01*
X139225884Y-76650000D01*
X139241123Y-76645525D01*
X139242328Y-76644135D01*
X139243999Y-76636452D01*
X139243999Y-76631172D01*
X139242791Y-76618912D01*
X139231685Y-76563069D01*
X139222367Y-76540573D01*
X139175213Y-76470002D01*
X139153998Y-76402249D01*
X139175213Y-76329998D01*
X139222368Y-76259426D01*
X139231684Y-76236934D01*
X139242793Y-76181085D01*
X139244000Y-76168830D01*
X139244000Y-76168115D01*
X139239525Y-76152876D01*
X139238135Y-76151671D01*
X139230452Y-76150000D01*
X138833115Y-76150000D01*
X138817876Y-76154475D01*
X138816671Y-76155865D01*
X138815000Y-76163548D01*
X138815000Y-76631885D01*
X138065000Y-76631885D01*
X138065000Y-75381885D01*
X138815000Y-75381885D01*
X138819475Y-75397124D01*
X138820865Y-75398329D01*
X138828548Y-75400000D01*
X139225884Y-75400000D01*
X139241123Y-75395525D01*
X139242328Y-75394135D01*
X139243999Y-75386452D01*
X139243999Y-75381172D01*
X139242791Y-75368912D01*
X139231685Y-75313069D01*
X139222367Y-75290573D01*
X139180017Y-75227192D01*
X139162808Y-75209983D01*
X139099425Y-75167632D01*
X139076934Y-75158316D01*
X139021085Y-75147207D01*
X139008830Y-75146000D01*
X138833115Y-75146000D01*
X138817876Y-75150475D01*
X138816671Y-75151865D01*
X138815000Y-75159548D01*
X138815000Y-75381885D01*
X138065000Y-75381885D01*
X138065000Y-75164116D01*
X138060525Y-75148877D01*
X138059135Y-75147672D01*
X138051452Y-75146001D01*
X137871172Y-75146001D01*
X137858912Y-75147209D01*
X137803069Y-75158315D01*
X137780573Y-75167633D01*
X137717192Y-75209983D01*
X137699983Y-75227192D01*
X137657632Y-75290575D01*
X137648316Y-75313066D01*
X137644189Y-75333814D01*
X137611282Y-75396723D01*
X137549587Y-75431856D01*
X137478692Y-75428056D01*
X137421106Y-75386531D01*
X137395347Y-75322841D01*
X137392598Y-75297540D01*
X137391745Y-75289684D01*
X137340615Y-75153295D01*
X137253261Y-75036739D01*
X137136705Y-74949385D01*
X137000316Y-74898255D01*
X136938134Y-74891500D01*
X136467806Y-74891500D01*
X136448095Y-74889949D01*
X136403326Y-74882858D01*
X136403324Y-74882858D01*
X136396809Y-74881826D01*
X136390222Y-74882171D01*
X136390217Y-74882171D01*
X136215522Y-74891327D01*
X136208928Y-74891500D01*
X135741866Y-74891500D01*
X135679684Y-74898255D01*
X135543295Y-74949385D01*
X135426739Y-75036739D01*
X135339385Y-75153295D01*
X135288255Y-75289684D01*
X135281500Y-75351866D01*
X135281500Y-75365500D01*
X135261498Y-75433621D01*
X135207842Y-75480114D01*
X135155500Y-75491500D01*
X135104513Y-75491500D01*
X135098061Y-75492872D01*
X135098056Y-75492872D01*
X135011113Y-75511353D01*
X134917712Y-75531206D01*
X134911682Y-75533891D01*
X134911681Y-75533891D01*
X134749278Y-75606197D01*
X134749276Y-75606198D01*
X134743248Y-75608882D01*
X134588747Y-75721134D01*
X134460960Y-75863056D01*
X134365473Y-76028444D01*
X134306458Y-76210072D01*
X134305768Y-76216633D01*
X134305768Y-76216635D01*
X134301177Y-76260316D01*
X134286496Y-76400000D01*
X129315443Y-76400000D01*
X135549653Y-66100000D01*
X142986496Y-66100000D01*
X142987186Y-66106565D01*
X143001271Y-66240573D01*
X143006458Y-66289928D01*
X143065473Y-66471556D01*
X143160960Y-66636944D01*
X143288747Y-66778866D01*
X143443248Y-66891118D01*
X143449276Y-66893802D01*
X143449278Y-66893803D01*
X143611681Y-66966109D01*
X143617712Y-66968794D01*
X143691697Y-66984520D01*
X143754170Y-67018248D01*
X143788492Y-67080398D01*
X143791500Y-67107767D01*
X143791500Y-67148134D01*
X143798255Y-67210316D01*
X143849385Y-67346705D01*
X143936739Y-67463261D01*
X144053295Y-67550615D01*
X144189684Y-67601745D01*
X144251866Y-67608500D01*
X144708928Y-67608500D01*
X144715522Y-67608673D01*
X144890217Y-67617829D01*
X144890222Y-67617829D01*
X144896809Y-67618174D01*
X144903324Y-67617142D01*
X144903326Y-67617142D01*
X144948095Y-67610051D01*
X144967806Y-67608500D01*
X145448134Y-67608500D01*
X145510316Y-67601745D01*
X145646705Y-67550615D01*
X145763261Y-67463261D01*
X145850615Y-67346705D01*
X145901745Y-67210316D01*
X145905347Y-67177157D01*
X145932588Y-67111595D01*
X145990951Y-67071168D01*
X146061905Y-67068712D01*
X146122923Y-67105007D01*
X146154189Y-67166184D01*
X146158316Y-67186931D01*
X146167633Y-67209427D01*
X146209983Y-67272808D01*
X146227192Y-67290017D01*
X146290575Y-67332368D01*
X146313066Y-67341684D01*
X146368915Y-67352793D01*
X146381170Y-67354000D01*
X146556885Y-67354000D01*
X146572124Y-67349525D01*
X146573329Y-67348135D01*
X146575000Y-67340452D01*
X146575000Y-67335884D01*
X147325000Y-67335884D01*
X147329475Y-67351123D01*
X147330865Y-67352328D01*
X147338548Y-67353999D01*
X147518828Y-67353999D01*
X147531088Y-67352791D01*
X147586931Y-67341685D01*
X147609427Y-67332367D01*
X147672808Y-67290017D01*
X147690017Y-67272808D01*
X147732368Y-67209425D01*
X147741684Y-67186934D01*
X147752793Y-67131085D01*
X147754000Y-67118830D01*
X147754000Y-67118115D01*
X147749525Y-67102876D01*
X147748135Y-67101671D01*
X147740452Y-67100000D01*
X147343115Y-67100000D01*
X147327876Y-67104475D01*
X147326671Y-67105865D01*
X147325000Y-67113548D01*
X147325000Y-67335884D01*
X146575000Y-67335884D01*
X146575000Y-66331885D01*
X147325000Y-66331885D01*
X147329475Y-66347124D01*
X147330865Y-66348329D01*
X147338548Y-66350000D01*
X147735884Y-66350000D01*
X147751123Y-66345525D01*
X147752328Y-66344135D01*
X147753999Y-66336452D01*
X147753999Y-66331172D01*
X147752791Y-66318912D01*
X147741685Y-66263069D01*
X147732367Y-66240573D01*
X147685213Y-66170002D01*
X147663998Y-66102249D01*
X147685213Y-66029998D01*
X147732368Y-65959426D01*
X147741684Y-65936934D01*
X147752793Y-65881085D01*
X147754000Y-65868830D01*
X147754000Y-65868115D01*
X147749525Y-65852876D01*
X147748135Y-65851671D01*
X147740452Y-65850000D01*
X147343115Y-65850000D01*
X147327876Y-65854475D01*
X147326671Y-65855865D01*
X147325000Y-65863548D01*
X147325000Y-66331885D01*
X146575000Y-66331885D01*
X146575000Y-65081885D01*
X147325000Y-65081885D01*
X147329475Y-65097124D01*
X147330865Y-65098329D01*
X147338548Y-65100000D01*
X147735884Y-65100000D01*
X147751123Y-65095525D01*
X147752328Y-65094135D01*
X147753999Y-65086452D01*
X147753999Y-65081172D01*
X147752791Y-65068912D01*
X147741685Y-65013069D01*
X147732367Y-64990573D01*
X147690017Y-64927192D01*
X147672808Y-64909983D01*
X147609425Y-64867632D01*
X147586934Y-64858316D01*
X147531085Y-64847207D01*
X147518830Y-64846000D01*
X147343115Y-64846000D01*
X147327876Y-64850475D01*
X147326671Y-64851865D01*
X147325000Y-64859548D01*
X147325000Y-65081885D01*
X146575000Y-65081885D01*
X146575000Y-64864116D01*
X146570525Y-64848877D01*
X146569135Y-64847672D01*
X146561452Y-64846001D01*
X146381172Y-64846001D01*
X146368912Y-64847209D01*
X146313069Y-64858315D01*
X146290573Y-64867633D01*
X146227192Y-64909983D01*
X146209983Y-64927192D01*
X146167632Y-64990575D01*
X146158316Y-65013066D01*
X146154189Y-65033814D01*
X146121282Y-65096723D01*
X146059587Y-65131856D01*
X145988692Y-65128056D01*
X145931106Y-65086531D01*
X145905347Y-65022841D01*
X145902598Y-64997540D01*
X145901745Y-64989684D01*
X145850615Y-64853295D01*
X145763261Y-64736739D01*
X145646705Y-64649385D01*
X145510316Y-64598255D01*
X145448134Y-64591500D01*
X144967806Y-64591500D01*
X144948095Y-64589949D01*
X144903326Y-64582858D01*
X144903324Y-64582858D01*
X144896809Y-64581826D01*
X144890222Y-64582171D01*
X144890217Y-64582171D01*
X144715522Y-64591327D01*
X144708928Y-64591500D01*
X144251866Y-64591500D01*
X144189684Y-64598255D01*
X144053295Y-64649385D01*
X143936739Y-64736739D01*
X143849385Y-64853295D01*
X143798255Y-64989684D01*
X143791500Y-65051866D01*
X143791500Y-65092233D01*
X143771498Y-65160354D01*
X143717842Y-65206847D01*
X143691698Y-65215480D01*
X143617712Y-65231206D01*
X143611682Y-65233891D01*
X143611681Y-65233891D01*
X143449278Y-65306197D01*
X143449276Y-65306198D01*
X143443248Y-65308882D01*
X143288747Y-65421134D01*
X143160960Y-65563056D01*
X143065473Y-65728444D01*
X143006458Y-65910072D01*
X143005768Y-65916633D01*
X143005768Y-65916635D01*
X143001177Y-65960316D01*
X142986496Y-66100000D01*
X135549653Y-66100000D01*
X139928804Y-58864880D01*
X139942961Y-58845812D01*
X139945637Y-58842840D01*
X139951643Y-58836170D01*
X139970236Y-58797539D01*
X139975968Y-58786957D01*
X139978928Y-58782066D01*
X139987221Y-58762561D01*
X139989635Y-58757234D01*
X140010920Y-58713011D01*
X140010921Y-58713009D01*
X140014812Y-58704924D01*
X140016278Y-58696072D01*
X140016740Y-58694611D01*
X140017243Y-58693251D01*
X140017280Y-58693123D01*
X140017586Y-58691701D01*
X140017978Y-58690226D01*
X140021490Y-58681966D01*
X140023201Y-58667483D01*
X140028298Y-58624318D01*
X140029121Y-58618513D01*
X140037140Y-58570084D01*
X140037140Y-58570083D01*
X140038607Y-58561223D01*
X140037528Y-58552307D01*
X140037561Y-58550792D01*
X140037662Y-58549346D01*
X140037662Y-58549197D01*
X140037556Y-58547738D01*
X140037519Y-58546230D01*
X140038572Y-58537314D01*
X140036249Y-58523525D01*
X140028928Y-58480082D01*
X140028088Y-58474279D01*
X140026130Y-58458095D01*
X140021112Y-58416619D01*
X140017575Y-58408366D01*
X140017182Y-58406904D01*
X140016870Y-58405475D01*
X140016832Y-58405346D01*
X140016324Y-58403983D01*
X140015860Y-58402530D01*
X140014369Y-58393682D01*
X139989043Y-58341444D01*
X139986607Y-58336106D01*
X139967273Y-58290991D01*
X139967273Y-58290990D01*
X139963736Y-58282738D01*
X139958027Y-58275811D01*
X139957231Y-58274505D01*
X139956533Y-58273226D01*
X139956469Y-58273127D01*
X139955595Y-58271956D01*
X139954743Y-58270693D01*
X139950826Y-58262615D01*
X139911842Y-58219569D01*
X139908016Y-58215141D01*
X139876797Y-58177268D01*
X139871089Y-58170343D01*
X139863666Y-58165298D01*
X139862544Y-58164275D01*
X139861515Y-58163243D01*
X139861413Y-58163155D01*
X139860252Y-58162281D01*
X139859074Y-58161303D01*
X139853050Y-58154652D01*
X139822416Y-58135853D01*
X139803557Y-58124280D01*
X139798662Y-58121117D01*
X139750621Y-58088467D01*
X139742072Y-58085706D01*
X139740714Y-58085042D01*
X139739438Y-58084340D01*
X139739303Y-58084278D01*
X139737935Y-58083763D01*
X139736556Y-58083167D01*
X139728903Y-58078470D01*
X139709515Y-58073190D01*
X139672883Y-58063213D01*
X139667293Y-58061550D01*
X139612016Y-58043694D01*
X139603048Y-58043443D01*
X139601530Y-58043182D01*
X139600113Y-58042868D01*
X139599998Y-58042851D01*
X139598536Y-58042740D01*
X139597023Y-58042552D01*
X139588364Y-58040194D01*
X139566929Y-58040593D01*
X139530330Y-58041273D01*
X139524467Y-58041246D01*
X139486370Y-58040181D01*
X139466415Y-58039623D01*
X139457731Y-58041901D01*
X139456214Y-58042075D01*
X139454762Y-58042171D01*
X139454632Y-58042190D01*
X139453208Y-58042491D01*
X139451704Y-58042735D01*
X139442731Y-58042902D01*
X139391347Y-58058970D01*
X139387327Y-58060227D01*
X139381693Y-58061846D01*
X139358159Y-58068019D01*
X139353700Y-58069962D01*
X139353698Y-58069963D01*
X139353593Y-58070009D01*
X139340864Y-58074757D01*
X139303713Y-58086374D01*
X139296241Y-58091351D01*
X139296238Y-58091352D01*
X139289654Y-58095737D01*
X139270150Y-58106374D01*
X138223172Y-58562663D01*
X138152733Y-58571543D01*
X138088675Y-58540930D01*
X138051336Y-58480545D01*
X138051256Y-58414062D01*
X138430421Y-57021125D01*
X138432304Y-57014854D01*
X138432552Y-57014099D01*
X138434424Y-57009609D01*
X138441960Y-56978883D01*
X138442757Y-56975806D01*
X138449057Y-56952661D01*
X138449057Y-56952660D01*
X138450237Y-56948326D01*
X138450790Y-56943870D01*
X138451219Y-56941696D01*
X138452467Y-56936051D01*
X139091010Y-54332759D01*
X139092231Y-54328160D01*
X139331999Y-53488971D01*
X139576870Y-52631923D01*
X139582747Y-52615671D01*
X139591028Y-52596906D01*
X139594653Y-52588692D01*
X139603997Y-52517839D01*
X139613719Y-52446821D01*
X139613530Y-52445554D01*
X139613697Y-52444284D01*
X139607344Y-52403190D01*
X142081826Y-52403190D01*
X142082171Y-52409778D01*
X142082171Y-52409782D01*
X142091327Y-52584496D01*
X142091500Y-52591072D01*
X142091500Y-53038134D01*
X142098255Y-53100316D01*
X142149385Y-53236705D01*
X142236739Y-53353261D01*
X142353295Y-53440615D01*
X142489684Y-53491745D01*
X142551866Y-53498500D01*
X142562377Y-53498500D01*
X142630498Y-53518502D01*
X142676991Y-53572158D01*
X142687687Y-53611329D01*
X142706458Y-53789928D01*
X142765473Y-53971556D01*
X142860960Y-54136944D01*
X142988747Y-54278866D01*
X143143248Y-54391118D01*
X143149276Y-54393802D01*
X143149278Y-54393803D01*
X143311681Y-54466109D01*
X143317712Y-54468794D01*
X143411112Y-54488647D01*
X143498056Y-54507128D01*
X143498061Y-54507128D01*
X143504513Y-54508500D01*
X143695487Y-54508500D01*
X143701939Y-54507128D01*
X143701944Y-54507128D01*
X143788888Y-54488647D01*
X143882288Y-54468794D01*
X143888319Y-54466109D01*
X144050722Y-54393803D01*
X144050724Y-54393802D01*
X144056752Y-54391118D01*
X144211253Y-54278866D01*
X144339040Y-54136944D01*
X144434527Y-53971556D01*
X144493542Y-53789928D01*
X144512313Y-53611329D01*
X144539326Y-53545673D01*
X144597548Y-53505043D01*
X144637623Y-53498500D01*
X144648134Y-53498500D01*
X144710316Y-53491745D01*
X144846705Y-53440615D01*
X144963261Y-53353261D01*
X145050615Y-53236705D01*
X145101745Y-53100316D01*
X145108500Y-53038134D01*
X145108500Y-52591072D01*
X145108673Y-52584478D01*
X145117829Y-52409783D01*
X145117829Y-52409778D01*
X145118174Y-52403191D01*
X145110051Y-52351904D01*
X145108500Y-52332194D01*
X145108500Y-51841866D01*
X145101745Y-51779684D01*
X145050615Y-51643295D01*
X144963261Y-51526739D01*
X144846705Y-51439385D01*
X144710316Y-51388255D01*
X144677157Y-51384653D01*
X144611595Y-51357412D01*
X144571168Y-51299049D01*
X144568712Y-51228095D01*
X144605007Y-51167077D01*
X144666184Y-51135811D01*
X144686931Y-51131684D01*
X144709427Y-51122367D01*
X144772808Y-51080017D01*
X144790017Y-51062808D01*
X144832368Y-50999425D01*
X144841684Y-50976934D01*
X144852793Y-50921085D01*
X144854000Y-50908830D01*
X144854000Y-50733115D01*
X144849525Y-50717876D01*
X144848135Y-50716671D01*
X144840452Y-50715000D01*
X142364116Y-50715000D01*
X142348877Y-50719475D01*
X142347672Y-50720865D01*
X142346001Y-50728548D01*
X142346001Y-50908828D01*
X142347209Y-50921088D01*
X142358315Y-50976931D01*
X142367633Y-50999427D01*
X142409983Y-51062808D01*
X142427192Y-51080017D01*
X142490575Y-51122368D01*
X142513066Y-51131684D01*
X142533814Y-51135811D01*
X142596723Y-51168718D01*
X142631856Y-51230413D01*
X142628056Y-51301308D01*
X142586531Y-51358894D01*
X142522841Y-51384653D01*
X142519450Y-51385021D01*
X142489684Y-51388255D01*
X142353295Y-51439385D01*
X142236739Y-51526739D01*
X142149385Y-51643295D01*
X142098255Y-51779684D01*
X142091500Y-51841866D01*
X142091500Y-52332193D01*
X142089949Y-52351903D01*
X142081826Y-52403190D01*
X139607344Y-52403190D01*
X139602804Y-52373819D01*
X139602722Y-52373282D01*
X139599526Y-52351904D01*
X139592178Y-52302765D01*
X139591641Y-52301602D01*
X139591445Y-52300337D01*
X139587798Y-52292548D01*
X139587797Y-52292543D01*
X139561208Y-52235748D01*
X139560947Y-52235186D01*
X139534697Y-52178389D01*
X139534694Y-52178385D01*
X139531071Y-52170545D01*
X139530229Y-52169580D01*
X139529686Y-52168420D01*
X139482567Y-52114950D01*
X139482158Y-52114483D01*
X139441214Y-52067555D01*
X139441211Y-52067553D01*
X139435311Y-52060790D01*
X139427749Y-52055955D01*
X139427747Y-52055953D01*
X139414703Y-52047613D01*
X139407150Y-52042784D01*
X139394448Y-52033494D01*
X136886689Y-49946885D01*
X142346000Y-49946885D01*
X142350475Y-49962124D01*
X142351865Y-49963329D01*
X142359548Y-49965000D01*
X142581885Y-49965000D01*
X142597124Y-49960525D01*
X142598329Y-49959135D01*
X142600000Y-49951452D01*
X142600000Y-49946885D01*
X143350000Y-49946885D01*
X143354475Y-49962124D01*
X143355865Y-49963329D01*
X143363548Y-49965000D01*
X143831885Y-49965000D01*
X143847124Y-49960525D01*
X143848329Y-49959135D01*
X143850000Y-49951452D01*
X143850000Y-49946885D01*
X144600000Y-49946885D01*
X144604475Y-49962124D01*
X144605865Y-49963329D01*
X144613548Y-49965000D01*
X144835884Y-49965000D01*
X144851123Y-49960525D01*
X144852328Y-49959135D01*
X144853999Y-49951452D01*
X144853999Y-49771172D01*
X144852791Y-49758912D01*
X144841685Y-49703069D01*
X144832367Y-49680573D01*
X144790017Y-49617192D01*
X144772808Y-49599983D01*
X144709425Y-49557632D01*
X144686934Y-49548316D01*
X144631085Y-49537207D01*
X144618830Y-49536000D01*
X144618115Y-49536000D01*
X144602876Y-49540475D01*
X144601671Y-49541865D01*
X144600000Y-49549548D01*
X144600000Y-49946885D01*
X143850000Y-49946885D01*
X143850000Y-49554116D01*
X143845525Y-49538877D01*
X143844135Y-49537672D01*
X143836452Y-49536001D01*
X143831172Y-49536001D01*
X143818912Y-49537209D01*
X143763069Y-49548315D01*
X143740573Y-49557633D01*
X143670002Y-49604787D01*
X143602249Y-49626002D01*
X143529998Y-49604787D01*
X143459426Y-49557632D01*
X143436934Y-49548316D01*
X143381085Y-49537207D01*
X143368830Y-49536000D01*
X143368115Y-49536000D01*
X143352876Y-49540475D01*
X143351671Y-49541865D01*
X143350000Y-49549548D01*
X143350000Y-49946885D01*
X142600000Y-49946885D01*
X142600000Y-49554116D01*
X142595525Y-49538877D01*
X142594135Y-49537672D01*
X142586452Y-49536001D01*
X142581172Y-49536001D01*
X142568912Y-49537209D01*
X142513069Y-49548315D01*
X142490573Y-49557633D01*
X142427192Y-49599983D01*
X142409983Y-49617192D01*
X142367632Y-49680575D01*
X142358316Y-49703066D01*
X142347207Y-49758915D01*
X142346000Y-49771170D01*
X142346000Y-49946885D01*
X136886689Y-49946885D01*
X136808160Y-49881544D01*
X136807134Y-49880681D01*
X135143637Y-48461816D01*
X135131211Y-48449638D01*
X135111823Y-48427812D01*
X135104219Y-48423045D01*
X135097363Y-48417244D01*
X135097993Y-48416499D01*
X135081592Y-48402496D01*
X135064265Y-48382628D01*
X135042690Y-48347720D01*
X135027800Y-48311499D01*
X135018586Y-48271507D01*
X135016126Y-48232421D01*
X135020254Y-48191586D01*
X135030485Y-48153788D01*
X135047517Y-48116446D01*
X135069357Y-48083935D01*
X135097483Y-48054051D01*
X135128614Y-48030283D01*
X135164849Y-48011025D01*
X135189421Y-48002747D01*
X135208738Y-47998081D01*
X135216317Y-47998029D01*
X135224916Y-47995450D01*
X135233793Y-47994117D01*
X135233883Y-47994714D01*
X135245373Y-47992639D01*
X135392992Y-47982870D01*
X136495196Y-47909930D01*
X136499573Y-47909770D01*
X136503260Y-47910030D01*
X136537045Y-47907180D01*
X136539263Y-47907013D01*
X136570011Y-47904979D01*
X136573617Y-47904216D01*
X136578117Y-47903716D01*
X140626023Y-47562328D01*
X140642112Y-47562661D01*
X140649694Y-47562534D01*
X140658597Y-47563657D01*
X140707578Y-47555804D01*
X140716933Y-47554661D01*
X140724651Y-47554010D01*
X140724653Y-47554010D01*
X140729118Y-47553633D01*
X140733482Y-47552628D01*
X140733488Y-47552627D01*
X140743309Y-47550365D01*
X140751639Y-47548740D01*
X140774179Y-47545126D01*
X140802418Y-47540598D01*
X140810525Y-47536747D01*
X140818523Y-47534262D01*
X140826361Y-47531234D01*
X140835115Y-47529218D01*
X140879985Y-47504069D01*
X140887522Y-47500172D01*
X140925875Y-47481953D01*
X140925877Y-47481951D01*
X140933985Y-47478100D01*
X140940683Y-47472130D01*
X140947671Y-47467495D01*
X140954344Y-47462389D01*
X140962174Y-47458000D01*
X140998193Y-47421257D01*
X141004313Y-47415420D01*
X141042724Y-47381187D01*
X141047483Y-47373568D01*
X141052905Y-47367139D01*
X141057854Y-47360396D01*
X141064139Y-47353985D01*
X141088401Y-47308603D01*
X141092643Y-47301273D01*
X141102017Y-47286266D01*
X141106534Y-47275698D01*
X141111277Y-47265814D01*
X141128582Y-47233445D01*
X141128584Y-47233440D01*
X141132812Y-47225531D01*
X141134651Y-47216750D01*
X141134653Y-47216745D01*
X141134904Y-47215546D01*
X141142365Y-47191861D01*
X143167842Y-42452639D01*
X143171962Y-42443935D01*
X143190498Y-42408360D01*
X143194645Y-42400402D01*
X143196392Y-42391598D01*
X143199370Y-42383128D01*
X143200464Y-42383513D01*
X143207814Y-42363155D01*
X143227962Y-42326006D01*
X143254542Y-42292323D01*
X143294882Y-42256103D01*
X143331217Y-42233295D01*
X143381379Y-42212708D01*
X143423261Y-42203416D01*
X143445132Y-42202381D01*
X143477413Y-42200855D01*
X143519986Y-42206154D01*
G37*
%TD.AperFunction*%
%TD*%
M02*
