%TF.GenerationSoftware,KiCad,Pcbnew,(6.0.7)*%
%TF.CreationDate,2022-08-02T13:51:54+02:00*%
%TF.ProjectId,LEDChristmasTree-2022,4c454443-6872-4697-9374-6d6173547265,rev?*%
%TF.SameCoordinates,Original*%
%TF.FileFunction,Legend,Bot*%
%TF.FilePolarity,Positive*%
%FSLAX46Y46*%
G04 Gerber Fmt 4.6, Leading zero omitted, Abs format (unit mm)*
G04 Created by KiCad (PCBNEW (6.0.7)) date 2022-08-02 13:51:54*
%MOMM*%
%LPD*%
G01*
G04 APERTURE LIST*
G04 Aperture macros list*
%AMRoundRect*
0 Rectangle with rounded corners*
0 $1 Rounding radius*
0 $2 $3 $4 $5 $6 $7 $8 $9 X,Y pos of 4 corners*
0 Add a 4 corners polygon primitive as box body*
4,1,4,$2,$3,$4,$5,$6,$7,$8,$9,$2,$3,0*
0 Add four circle primitives for the rounded corners*
1,1,$1+$1,$2,$3*
1,1,$1+$1,$4,$5*
1,1,$1+$1,$6,$7*
1,1,$1+$1,$8,$9*
0 Add four rect primitives between the rounded corners*
20,1,$1+$1,$2,$3,$4,$5,0*
20,1,$1+$1,$4,$5,$6,$7,0*
20,1,$1+$1,$6,$7,$8,$9,0*
20,1,$1+$1,$8,$9,$2,$3,0*%
%AMRotRect*
0 Rectangle, with rotation*
0 The origin of the aperture is its center*
0 $1 length*
0 $2 width*
0 $3 Rotation angle, in degrees counterclockwise*
0 Add horizontal line*
21,1,$1,$2,0,0,$3*%
G04 Aperture macros list end*
%ADD10C,0.200000*%
%ADD11C,0.150000*%
%ADD12C,0.120000*%
%ADD13C,0.254000*%
%ADD14RoundRect,0.200000X0.275000X-0.200000X0.275000X0.200000X-0.275000X0.200000X-0.275000X-0.200000X0*%
%ADD15RoundRect,0.500000X-3.000000X-2.000000X3.000000X-2.000000X3.000000X2.000000X-3.000000X2.000000X0*%
%ADD16RoundRect,0.200000X-0.200000X-0.275000X0.200000X-0.275000X0.200000X0.275000X-0.200000X0.275000X0*%
%ADD17RotRect,1.000000X0.800000X51.000000*%
%ADD18C,0.900000*%
%ADD19RotRect,0.700000X1.500000X51.000000*%
%ADD20C,0.800000*%
G04 APERTURE END LIST*
D10*
X136478571Y-96871428D02*
X137550000Y-96871428D01*
X137764285Y-96800000D01*
X137907142Y-96657142D01*
X137978571Y-96442857D01*
X137978571Y-96300000D01*
X137978571Y-98300000D02*
X137978571Y-97585714D01*
X136478571Y-97585714D01*
X137835714Y-99657142D02*
X137907142Y-99585714D01*
X137978571Y-99371428D01*
X137978571Y-99228571D01*
X137907142Y-99014285D01*
X137764285Y-98871428D01*
X137621428Y-98800000D01*
X137335714Y-98728571D01*
X137121428Y-98728571D01*
X136835714Y-98800000D01*
X136692857Y-98871428D01*
X136550000Y-99014285D01*
X136478571Y-99228571D01*
X136478571Y-99371428D01*
X136550000Y-99585714D01*
X136621428Y-99657142D01*
X136478571Y-100728571D02*
X137550000Y-100728571D01*
X137764285Y-100657142D01*
X137907142Y-100514285D01*
X137978571Y-100300000D01*
X137978571Y-100157142D01*
X137978571Y-102157142D02*
X137978571Y-101442857D01*
X136478571Y-101442857D01*
X137835714Y-103514285D02*
X137907142Y-103442857D01*
X137978571Y-103228571D01*
X137978571Y-103085714D01*
X137907142Y-102871428D01*
X137764285Y-102728571D01*
X137621428Y-102657142D01*
X137335714Y-102585714D01*
X137121428Y-102585714D01*
X136835714Y-102657142D01*
X136692857Y-102728571D01*
X136550000Y-102871428D01*
X136478571Y-103085714D01*
X136478571Y-103228571D01*
X136550000Y-103442857D01*
X136621428Y-103514285D01*
X136478571Y-104585714D02*
X137550000Y-104585714D01*
X137764285Y-104514285D01*
X137907142Y-104371428D01*
X137978571Y-104157142D01*
X137978571Y-104014285D01*
X137978571Y-106014285D02*
X137978571Y-105300000D01*
X136478571Y-105300000D01*
X137835714Y-107371428D02*
X137907142Y-107300000D01*
X137978571Y-107085714D01*
X137978571Y-106942857D01*
X137907142Y-106728571D01*
X137764285Y-106585714D01*
X137621428Y-106514285D01*
X137335714Y-106442857D01*
X137121428Y-106442857D01*
X136835714Y-106514285D01*
X136692857Y-106585714D01*
X136550000Y-106728571D01*
X136478571Y-106942857D01*
X136478571Y-107085714D01*
X136550000Y-107300000D01*
X136621428Y-107371428D01*
X136478571Y-108442857D02*
X137550000Y-108442857D01*
X137764285Y-108371428D01*
X137907142Y-108228571D01*
X137978571Y-108014285D01*
X137978571Y-107871428D01*
X137978571Y-109871428D02*
X137978571Y-109157142D01*
X136478571Y-109157142D01*
X137835714Y-111228571D02*
X137907142Y-111157142D01*
X137978571Y-110942857D01*
X137978571Y-110800000D01*
X137907142Y-110585714D01*
X137764285Y-110442857D01*
X137621428Y-110371428D01*
X137335714Y-110300000D01*
X137121428Y-110300000D01*
X136835714Y-110371428D01*
X136692857Y-110442857D01*
X136550000Y-110585714D01*
X136478571Y-110800000D01*
X136478571Y-110942857D01*
X136550000Y-111157142D01*
X136621428Y-111228571D01*
D11*
%TO.C,BT1*%
X144385714Y-122578571D02*
X144242857Y-122626190D01*
X144195238Y-122673809D01*
X144147619Y-122769047D01*
X144147619Y-122911904D01*
X144195238Y-123007142D01*
X144242857Y-123054761D01*
X144338095Y-123102380D01*
X144719047Y-123102380D01*
X144719047Y-122102380D01*
X144385714Y-122102380D01*
X144290476Y-122150000D01*
X144242857Y-122197619D01*
X144195238Y-122292857D01*
X144195238Y-122388095D01*
X144242857Y-122483333D01*
X144290476Y-122530952D01*
X144385714Y-122578571D01*
X144719047Y-122578571D01*
X143861904Y-122102380D02*
X143290476Y-122102380D01*
X143576190Y-123102380D02*
X143576190Y-122102380D01*
X142433333Y-123102380D02*
X143004761Y-123102380D01*
X142719047Y-123102380D02*
X142719047Y-122102380D01*
X142814285Y-122245238D01*
X142909523Y-122340476D01*
X143004761Y-122388095D01*
D12*
%TO.C,R11*%
X144122500Y-57037258D02*
X144122500Y-56562742D01*
X143077500Y-57037258D02*
X143077500Y-56562742D01*
D13*
%TO.C,BT1*%
X142200000Y-127600000D02*
X145000000Y-127600000D01*
X155200000Y-127600000D02*
X155200000Y-125600000D01*
X153200000Y-127600000D02*
X155200000Y-127600000D01*
X132000000Y-127600000D02*
X134000000Y-127600000D01*
X134000000Y-72400000D02*
X132000000Y-72400000D01*
X155200000Y-72400000D02*
X153200000Y-72400000D01*
X132000000Y-72400000D02*
X132000000Y-74400000D01*
X132000000Y-127600000D02*
X132000000Y-125600000D01*
X155200000Y-72400000D02*
X155200000Y-74400000D01*
X145000000Y-72400000D02*
X142200000Y-72400000D01*
D12*
%TO.C,R3*%
X125687742Y-122477500D02*
X126162258Y-122477500D01*
X125687742Y-123522500D02*
X126162258Y-123522500D01*
%TO.C,R12*%
X125762742Y-117122500D02*
X126237258Y-117122500D01*
X125762742Y-116077500D02*
X126237258Y-116077500D01*
%TO.C,R5*%
X125762742Y-120877500D02*
X126237258Y-120877500D01*
X125762742Y-121922500D02*
X126237258Y-121922500D01*
%TO.C,R7*%
X125762742Y-105877500D02*
X126237258Y-105877500D01*
X125762742Y-106922500D02*
X126237258Y-106922500D01*
%TO.C,R9*%
X125762742Y-102122500D02*
X126237258Y-102122500D01*
X125762742Y-101077500D02*
X126237258Y-101077500D01*
%TO.C,G\u002A\u002A\u002A*%
G36*
X176105240Y-127180594D02*
G01*
X176080893Y-127273553D01*
X176041646Y-127365241D01*
X175992198Y-127451124D01*
X175921528Y-127537485D01*
X175836940Y-127603828D01*
X175733538Y-127654752D01*
X175725039Y-127657921D01*
X175637235Y-127678090D01*
X175531706Y-127684537D01*
X175414697Y-127678165D01*
X175292452Y-127659875D01*
X175171215Y-127630570D01*
X175057233Y-127591153D01*
X174956748Y-127542524D01*
X174898818Y-127507242D01*
X174786584Y-127425320D01*
X174689595Y-127332521D01*
X174605260Y-127225293D01*
X174530993Y-127100083D01*
X174464205Y-126953338D01*
X174402306Y-126781505D01*
X174342600Y-126597820D01*
X175287819Y-126597820D01*
X175288275Y-126605202D01*
X175295689Y-126636524D01*
X175310179Y-126688722D01*
X175330625Y-126757942D01*
X175355908Y-126840330D01*
X175384908Y-126932030D01*
X175404177Y-126991899D01*
X175432646Y-127079496D01*
X175457810Y-127155900D01*
X175478319Y-127217064D01*
X175492825Y-127258940D01*
X175499981Y-127277479D01*
X175506593Y-127282340D01*
X175524393Y-127270868D01*
X175552292Y-127234380D01*
X175553987Y-127231871D01*
X175572716Y-127201959D01*
X175584499Y-127174480D01*
X175590917Y-127141645D01*
X175593546Y-127095664D01*
X175593967Y-127028747D01*
X175593572Y-126982120D01*
X175591075Y-126926319D01*
X175584952Y-126885277D01*
X175573686Y-126850439D01*
X175555762Y-126813249D01*
X175541555Y-126788818D01*
X175502912Y-126734184D01*
X175462724Y-126688822D01*
X175428915Y-126660791D01*
X175385187Y-126631902D01*
X175342224Y-126609243D01*
X175307332Y-126596615D01*
X175287819Y-126597820D01*
X174342600Y-126597820D01*
X174336320Y-126578499D01*
X173923774Y-126572451D01*
X173811045Y-126570566D01*
X173704500Y-126568068D01*
X173620535Y-126565042D01*
X173555850Y-126561290D01*
X173507143Y-126556614D01*
X173471113Y-126550817D01*
X173444459Y-126543700D01*
X173358163Y-126509952D01*
X173285230Y-126469706D01*
X173213123Y-126415704D01*
X173180474Y-126390164D01*
X173154742Y-126373464D01*
X173144882Y-126371966D01*
X173147996Y-126386872D01*
X173158411Y-126422284D01*
X173173615Y-126468453D01*
X173186570Y-126507556D01*
X173197962Y-126545532D01*
X173202348Y-126565383D01*
X173191971Y-126569180D01*
X173155667Y-126572292D01*
X173096070Y-126573950D01*
X173016083Y-126574080D01*
X172918609Y-126572609D01*
X172876599Y-126571707D01*
X172791966Y-126569471D01*
X172719561Y-126565667D01*
X172656328Y-126558696D01*
X172599210Y-126546954D01*
X172545149Y-126528843D01*
X172491089Y-126502761D01*
X172433973Y-126467107D01*
X172370744Y-126420281D01*
X172298345Y-126360681D01*
X172213720Y-126286708D01*
X172113811Y-126196759D01*
X171995561Y-126089235D01*
X171909287Y-126010520D01*
X171809473Y-125918987D01*
X171709245Y-125826652D01*
X171614037Y-125738531D01*
X171529280Y-125659642D01*
X171460408Y-125595001D01*
X171444319Y-125579824D01*
X171382056Y-125521499D01*
X171328256Y-125471737D01*
X171286006Y-125433353D01*
X171258393Y-125409156D01*
X171248502Y-125401960D01*
X171248696Y-125402975D01*
X171254547Y-125423351D01*
X171267745Y-125466872D01*
X171287205Y-125530032D01*
X171311843Y-125609326D01*
X171340575Y-125701245D01*
X171372316Y-125802286D01*
X171390015Y-125858671D01*
X171423841Y-125968039D01*
X171449929Y-126055586D01*
X171469232Y-126125073D01*
X171482701Y-126180265D01*
X171491288Y-126224923D01*
X171495945Y-126262810D01*
X171497624Y-126297690D01*
X171497614Y-126336505D01*
X171493788Y-126383433D01*
X171483221Y-126418783D01*
X171463601Y-126453112D01*
X171456666Y-126462693D01*
X171416224Y-126504731D01*
X171370617Y-126537676D01*
X171364612Y-126540907D01*
X171350351Y-126547778D01*
X171334228Y-126553457D01*
X171313557Y-126558079D01*
X171285650Y-126561780D01*
X171247822Y-126564693D01*
X171197383Y-126566952D01*
X171131648Y-126568694D01*
X171047929Y-126570051D01*
X170943538Y-126571159D01*
X170815790Y-126572153D01*
X170661995Y-126573166D01*
X170583610Y-126573638D01*
X170436771Y-126574297D01*
X170314676Y-126574437D01*
X170214613Y-126573991D01*
X170133872Y-126572893D01*
X170069740Y-126571080D01*
X170019507Y-126568483D01*
X169980462Y-126565040D01*
X169949892Y-126560682D01*
X169925088Y-126555346D01*
X169873677Y-126540446D01*
X169754064Y-126490529D01*
X169651894Y-126424979D01*
X169570518Y-126346227D01*
X169513286Y-126256703D01*
X169501719Y-126230993D01*
X169487125Y-126194552D01*
X169481421Y-126174096D01*
X169481894Y-126173268D01*
X169501357Y-126169133D01*
X169549025Y-126165723D01*
X169624460Y-126163050D01*
X169727224Y-126161126D01*
X169856877Y-126159963D01*
X170012982Y-126159573D01*
X170116629Y-126159362D01*
X170237050Y-126158506D01*
X170341136Y-126157050D01*
X170426408Y-126155054D01*
X170490385Y-126152580D01*
X170530590Y-126149689D01*
X170544543Y-126146442D01*
X170544370Y-126145201D01*
X170538587Y-126123568D01*
X170525403Y-126078846D01*
X170505913Y-126014610D01*
X170481209Y-125934438D01*
X170452383Y-125841905D01*
X170420528Y-125740588D01*
X170411074Y-125710580D01*
X170370194Y-125578328D01*
X170338389Y-125469413D01*
X170315244Y-125380713D01*
X170300343Y-125309108D01*
X170293270Y-125251479D01*
X170293609Y-125204704D01*
X170300945Y-125165664D01*
X170314861Y-125131238D01*
X170334942Y-125098306D01*
X170335199Y-125097936D01*
X170373336Y-125055442D01*
X170423574Y-125023156D01*
X170489984Y-124999635D01*
X170576640Y-124983431D01*
X170687614Y-124973100D01*
X170848720Y-124962906D01*
X170693018Y-124803405D01*
X170689519Y-124799821D01*
X170617481Y-124726008D01*
X170536574Y-124643086D01*
X170456447Y-124560942D01*
X170386746Y-124489465D01*
X170236176Y-124335025D01*
X170544799Y-124336333D01*
X170853423Y-124337641D01*
X171104990Y-124598522D01*
X171155919Y-124651339D01*
X171296465Y-124797098D01*
X171418699Y-124923818D01*
X171523864Y-125032719D01*
X171613200Y-125125019D01*
X171687951Y-125201936D01*
X171749357Y-125264691D01*
X171798662Y-125314502D01*
X171837108Y-125352587D01*
X171865935Y-125380165D01*
X171886387Y-125398456D01*
X171899705Y-125408679D01*
X171907132Y-125412051D01*
X171909909Y-125409793D01*
X171909278Y-125403122D01*
X171906482Y-125393259D01*
X171902763Y-125381421D01*
X171896476Y-125360869D01*
X171881087Y-125310993D01*
X171859144Y-125240152D01*
X171831484Y-125151036D01*
X171798946Y-125046334D01*
X171762367Y-124928734D01*
X171722588Y-124800925D01*
X171680445Y-124665598D01*
X171636777Y-124525439D01*
X171592422Y-124383138D01*
X171548220Y-124241385D01*
X171505007Y-124102867D01*
X171463624Y-123970274D01*
X171424907Y-123846295D01*
X171389695Y-123733619D01*
X171358827Y-123634934D01*
X171333141Y-123552930D01*
X171313475Y-123490295D01*
X171300668Y-123449718D01*
X171295557Y-123433888D01*
X171296288Y-123430479D01*
X171307210Y-123425939D01*
X171332239Y-123422365D01*
X171373813Y-123419658D01*
X171434368Y-123417723D01*
X171516343Y-123416461D01*
X171622174Y-123415775D01*
X171754298Y-123415568D01*
X172220068Y-123415568D01*
X172648824Y-124787571D01*
X173077580Y-126159573D01*
X173642792Y-126159573D01*
X173679347Y-126159560D01*
X173801204Y-126159326D01*
X173912727Y-126158823D01*
X174010850Y-126158085D01*
X174092505Y-126157144D01*
X174154627Y-126156034D01*
X174194149Y-126154789D01*
X174208004Y-126153440D01*
X174207976Y-126153248D01*
X174203142Y-126136617D01*
X174190594Y-126095460D01*
X174171158Y-126032444D01*
X174145665Y-125950238D01*
X174114943Y-125851509D01*
X174079820Y-125738925D01*
X174041126Y-125615155D01*
X173999690Y-125482866D01*
X173996524Y-125472768D01*
X173955229Y-125340780D01*
X173916743Y-125217315D01*
X173881899Y-125105072D01*
X173851526Y-125006747D01*
X173826457Y-124925038D01*
X173807521Y-124862644D01*
X173795550Y-124822262D01*
X173791375Y-124806589D01*
X173796466Y-124804840D01*
X173825944Y-124802118D01*
X173878731Y-124799697D01*
X173951442Y-124797664D01*
X174040692Y-124796105D01*
X174143096Y-124795106D01*
X174255270Y-124794754D01*
X174719166Y-124794754D01*
X174845417Y-125186241D01*
X174871520Y-125267176D01*
X174912836Y-125395258D01*
X174955425Y-125527265D01*
X174996765Y-125655377D01*
X175034333Y-125771779D01*
X175065606Y-125868651D01*
X175159545Y-126159573D01*
X175242306Y-126159573D01*
X175272574Y-126160317D01*
X175397224Y-126176332D01*
X175529029Y-126211536D01*
X175659022Y-126263687D01*
X175709502Y-126289089D01*
X175769907Y-126326035D01*
X175826295Y-126370779D01*
X175889205Y-126430980D01*
X175968188Y-126519903D01*
X176037491Y-126625378D01*
X176084163Y-126737906D01*
X176110446Y-126863113D01*
X176118580Y-127006624D01*
X176118029Y-127028747D01*
X176116843Y-127076329D01*
X176105240Y-127180594D01*
G37*
G36*
X174203368Y-123121376D02*
G01*
X174274544Y-123133843D01*
X174327872Y-123150547D01*
X174447798Y-123207222D01*
X174555721Y-123284936D01*
X174646517Y-123379578D01*
X174715057Y-123487039D01*
X174737452Y-123535860D01*
X174753066Y-123583579D01*
X174761687Y-123636105D01*
X174766108Y-123705384D01*
X174766832Y-123730356D01*
X174761341Y-123838935D01*
X174738809Y-123932468D01*
X174696387Y-124019462D01*
X174631230Y-124108427D01*
X174597427Y-124145765D01*
X174509785Y-124219589D01*
X174402980Y-124281013D01*
X174272654Y-124332764D01*
X174229013Y-124342133D01*
X174159104Y-124347996D01*
X174077387Y-124348556D01*
X173992684Y-124344058D01*
X173913816Y-124334753D01*
X173849605Y-124320886D01*
X173752764Y-124282668D01*
X173642309Y-124215604D01*
X173545120Y-124130650D01*
X173468518Y-124033328D01*
X173445649Y-123992149D01*
X173407345Y-123885646D01*
X173389804Y-123769804D01*
X173393100Y-123651845D01*
X173417304Y-123538993D01*
X173462491Y-123438469D01*
X173502142Y-123383010D01*
X173580729Y-123302632D01*
X173675427Y-123230654D01*
X173778663Y-123172561D01*
X173882867Y-123133843D01*
X173938451Y-123123301D01*
X174023675Y-123116105D01*
X174115863Y-123115463D01*
X174203368Y-123121376D01*
G37*
%TO.C,R2*%
X125662742Y-124177500D02*
X126137258Y-124177500D01*
X125662742Y-125222500D02*
X126137258Y-125222500D01*
%TO.C,R4*%
X125762742Y-104277500D02*
X126237258Y-104277500D01*
X125762742Y-105322500D02*
X126237258Y-105322500D01*
%TO.C,SW1*%
X114371971Y-115387457D02*
X114334634Y-115099870D01*
X115190087Y-114377167D02*
X114901022Y-114400439D01*
X115374489Y-116199280D02*
X114371971Y-115387457D01*
X119211610Y-113065736D02*
X119825556Y-113562899D01*
X119351452Y-115816834D02*
X119477316Y-115661405D01*
X115483245Y-118925206D02*
X114869300Y-118428043D01*
X114461974Y-117326142D02*
X118049101Y-112896410D01*
X115190087Y-114377167D02*
X116192605Y-115188990D01*
X114334634Y-115099870D02*
X114901022Y-114400439D01*
X117463491Y-118148272D02*
X118533336Y-116827124D01*
%TO.C,R1*%
X125762742Y-118722500D02*
X126237258Y-118722500D01*
X125762742Y-117677500D02*
X126237258Y-117677500D01*
%TO.C,R10*%
X143362742Y-62977500D02*
X143837258Y-62977500D01*
X143362742Y-64022500D02*
X143837258Y-64022500D01*
%TO.C,R8*%
X125762742Y-102677500D02*
X126237258Y-102677500D01*
X125762742Y-103722500D02*
X126237258Y-103722500D01*
%TO.C,R6*%
X125762742Y-119277500D02*
X126237258Y-119277500D01*
X125762742Y-120322500D02*
X126237258Y-120322500D01*
%TD*%
%LPC*%
D14*
%TO.C,R11*%
X143600000Y-57625000D03*
X143600000Y-55975000D03*
%TD*%
D15*
%TO.C,BT1*%
X149100000Y-129250000D03*
X149100000Y-70750000D03*
X138100000Y-70750000D03*
X138100000Y-129250000D03*
%TD*%
D16*
%TO.C,R3*%
X125100000Y-123000000D03*
X126750000Y-123000000D03*
%TD*%
%TO.C,R12*%
X125175000Y-116600000D03*
X126825000Y-116600000D03*
%TD*%
%TO.C,R5*%
X125175000Y-121400000D03*
X126825000Y-121400000D03*
%TD*%
%TO.C,R7*%
X125175000Y-106400000D03*
X126825000Y-106400000D03*
%TD*%
%TO.C,R9*%
X125175000Y-101600000D03*
X126825000Y-101600000D03*
%TD*%
%TO.C,R2*%
X125075000Y-124700000D03*
X126725000Y-124700000D03*
%TD*%
%TO.C,R4*%
X125175000Y-104800000D03*
X126825000Y-104800000D03*
%TD*%
D17*
%TO.C,SW1*%
X114191662Y-118136655D03*
X118785701Y-112463489D03*
X115909154Y-119527453D03*
D18*
X116399561Y-117158043D03*
X118287522Y-114826605D03*
D17*
X120503193Y-113854287D03*
D19*
X117295348Y-118848507D03*
X119183309Y-116517069D03*
X120127290Y-115351350D03*
%TD*%
D16*
%TO.C,R1*%
X125175000Y-118200000D03*
X126825000Y-118200000D03*
%TD*%
%TO.C,R10*%
X142775000Y-63500000D03*
X144425000Y-63500000D03*
%TD*%
%TO.C,R8*%
X125175000Y-103200000D03*
X126825000Y-103200000D03*
%TD*%
%TO.C,R6*%
X125175000Y-119800000D03*
X126825000Y-119800000D03*
%TD*%
D20*
X143600000Y-49200000D03*
X121900000Y-111400000D03*
X166900000Y-118300000D03*
X152000000Y-74700000D03*
X119400000Y-126100000D03*
X135700000Y-125000000D03*
X132900000Y-73500000D03*
X154800000Y-122900000D03*
X133800000Y-93100000D03*
X143690000Y-124420000D03*
X151300000Y-96500000D03*
X148100000Y-66100000D03*
X152300000Y-85600000D03*
X171200000Y-121200000D03*
X157400000Y-115800000D03*
X141400000Y-110300000D03*
X110100000Y-125900000D03*
X159100000Y-126400000D03*
X149600000Y-90600000D03*
X143000000Y-84800000D03*
X129800000Y-109600000D03*
X145100000Y-105800000D03*
X130900000Y-90500000D03*
X159600000Y-105800000D03*
X158300000Y-99900000D03*
X139600000Y-76400000D03*
X140000000Y-79700000D03*
X129600000Y-130500000D03*
X115100000Y-126100000D03*
X131300000Y-125000000D03*
X140700000Y-105800000D03*
X147900000Y-85600000D03*
X150400000Y-122900000D03*
X143900000Y-66100000D03*
X162500000Y-118300000D03*
X153900000Y-99900000D03*
X143600000Y-53600000D03*
X129500000Y-93100000D03*
X135200000Y-76400000D03*
X125500000Y-109600000D03*
M02*
